G04 ================== begin FILE IDENTIFICATION RECORD ==================*
G04 Layout Name:  C:/Users/Dart/Desktop/FMCW/FMCW/PCB/Transmitter/PLL_VCO_FINAL.brd*
G04 Film Name:    BOTTOM*
G04 File Format:  Gerber RS274X*
G04 File Origin:  Cadence Allegro 16.6-S042*
G04 Origin Date:  Sat Feb 27 01:09:31 2016*
G04 *
G04 Layer:  ETCH/BOTTOM*
G04 Layer:  PIN/BOTTOM*
G04 Layer:  VIA CLASS/BOTTOM*
G04 *
G04 Offset:    (0.00 0.00)*
G04 Mirror:    No*
G04 Mode:      Positive*
G04 Rotation:  0*
G04 FullContactRelief:  No*
G04 UndefLineWidth:     5.00*
G04 ================== end FILE IDENTIFICATION RECORD ====================*
%FSLAX35Y35*MOIN*%
%IR0*IPPOS*OFA0.00000B0.00000*MIA0B0*SFA1.00000B1.00000*%
%ADD13C,.06*%
%ADD11C,.024*%
%ADD12R,.059X.156*%
%ADD10R,.156X.059*%
%ADD14C,.05709*%
%ADD15C,.008*%
%ADD18C,.03404*%
%ADD16C,.07004*%
%ADD17C,.06712*%
G75*
%LPD*%
G75*
G36*
G01X97000Y92100D02*
X97100Y-75300D01*
X-60000Y-75400D01*
X-60500Y91600D01*
X97000Y92100D01*
G37*
%LPC*%
G75*
G36*
G01X62203Y3898D02*
X55297D01*
G02Y6102I-1297J1102D01*
G01X62203D01*
G02Y3898I1297J-1102D01*
G37*
G36*
G01X92150Y-18108D02*
X90593Y-16551D01*
G02X89098Y-12943I3606J3608D01*
G01Y-9297D01*
G02X91302I1102J1297D01*
G01Y-12943D01*
G03X92151Y-14993I2899J0D01*
G01X94354Y-17196D01*
Y-17257D01*
X94596Y-17500D01*
X94683Y-17497D01*
G02X93036Y-19144I54J-1701D01*
G01X93039Y-19057D01*
X92150Y-18169D01*
Y-18108D01*
G37*
G36*
G01X77351Y-15493D02*
X79759Y-17902D01*
X79846Y-17899D01*
G02X78199Y-19546I54J-1701D01*
G01X78202Y-19459D01*
X75793Y-17051D01*
G02X74298Y-13443I3606J3608D01*
G01Y-9197D01*
G02X76502I1102J1297D01*
G01Y-13443D01*
G03X77351Y-15493I2899J0D01*
G37*
G36*
G01X16772Y-32502D02*
G03X16528Y-33219I0J-400D01*
G02X12272I-2128J-2781D01*
G03X12028Y-32502I-244J317D01*
G01X7557D01*
G02X3949Y-31007I0J5101D01*
G01X-307Y-26751D01*
G02X-1802Y-23143I3606J3608D01*
G01Y46103D01*
G02X402I1102J1297D01*
G01Y-23143D01*
G03X1251Y-25193I2899J0D01*
G01X3737Y-27679D01*
G03X4416Y-27454I283J282D01*
G02X5146Y-26291I1684J-246D01*
G03X5145Y-25628I-224J331D01*
G02X2898Y-21400I2854J4228D01*
G01Y13603D01*
G02X5102I1102J1297D01*
G01Y-21400D01*
G03X8000Y-24298I2898J0D01*
G01X24243D01*
G03X26293Y-23449I0J2899D01*
G01X39849Y-9893D01*
G03X40698Y-7843I-2050J2050D01*
G01Y13113D01*
X40558Y13157D01*
G02X42902Y13249I1043J3343D01*
G01Y-7843D01*
G02X41407Y-11451I-5101J0D01*
G01X27851Y-25007D01*
G02X27476Y-25346I-3605J3610D01*
G03X27682Y-25685I126J-155D01*
G02X30049Y-27151I668J-1565D01*
G03X30731Y-27411I399J23D01*
G01X47102Y-11041D01*
X47099Y-10954D01*
G02X47698Y-9603I1701J54D01*
G01Y8143D01*
G02X49193Y11751I5101J0D01*
G01X52571Y15128D01*
G02X59024Y17802I3129J1573D01*
G01X59600D01*
G02Y15598I0J-1102D01*
G01X59024D01*
G02X54252Y13511I-3324J1102D01*
G01X54126Y13568D01*
X50751Y10193D01*
G03X49902Y8143I2050J-2050D01*
G01Y-9603D01*
G02X48746Y-12601I-1102J-1297D01*
G01X48659Y-12598D01*
X30251Y-31007D01*
G02X27423Y-32441I-3607J3608D01*
G03X27250Y-33161I61J-396D01*
G02X23072Y-33219I-2050J-2839D01*
G03X22828Y-32502I-244J317D01*
G01X16772D01*
G37*
G36*
G01X-24843Y5599D02*
X-37249Y-6807D01*
G03X-38098Y-8857I2050J-2050D01*
G01Y-26113D01*
G03X-37249Y-28163I2899J0D01*
G01X-19063Y-46349D01*
G03X-17013Y-47198I2050J2050D01*
G01X-16724D01*
G02X-10076I3324J-1102D01*
G01X-9257D01*
G03X-7207Y-46349I0J2899D01*
G01X-6398Y-45541D01*
X-6401Y-45454D01*
G02X-4754Y-47101I1701J54D01*
G01X-4841Y-47098D01*
X-5649Y-47907D01*
G02X-9257Y-49402I-3608J3606D01*
G01X-10076D01*
G02X-16724I-3324J1102D01*
G01X-17013D01*
G02X-20621Y-47907I0J5101D01*
G01X-38807Y-29721D01*
G02X-40302Y-26113I3606J3608D01*
G01Y-8857D01*
G02X-38807Y-5249I5101J0D01*
G01X-26401Y7157D01*
G03X-25552Y9207I-2050J2050D01*
G01Y13953D01*
G02X-23348I1102J1297D01*
G01Y9207D01*
G02X-24843Y5599I-5101J0D01*
G37*
G36*
G01X-3349Y-40493D02*
X20007Y-63849D01*
G03X22057Y-64698I2050J2050D01*
G01X25343D01*
G02X28951Y-66193I0J-5101D01*
G01X31235Y-68477D01*
X31360Y-68423D01*
G02X29623Y-70160I1340J-3077D01*
G01X29677Y-70035D01*
X27393Y-67751D01*
G03X25343Y-66902I-2050J-2050D01*
G01X22057D01*
G02X18449Y-65407I0J5101D01*
G01X-4907Y-42051D01*
G02X-6402Y-38443I3606J3608D01*
G01Y-35057D01*
G03X-7251Y-33007I-2899J0D01*
G01X-8859Y-31398D01*
X-8946Y-31401D01*
G02X-7299Y-29754I-54J1701D01*
G01X-7302Y-29841D01*
X-5693Y-31449D01*
G02X-4198Y-35057I-3606J-3608D01*
G01Y-38443D01*
G03X-3349Y-40493I2899J0D01*
G37*
G54D18*
X17100Y2800D03*
G54D16*
X-31200Y-22900D03*
X-13400Y-38300D03*
X-17200Y-23000D03*
X2900Y-35700D03*
X80700Y-69100D03*
G54D17*
X2700Y-71500D03*
X12700D03*
X22700D03*
X42700D03*
X52700D03*
%LPD*%
G75*
G36*
G01X7557Y-30298D02*
G02X6506Y-30101I-1J2898D01*
G02X6546Y-29342I145J373D01*
G03X7397Y-28802I-445J1642D01*
G01X27649D01*
X27686Y-28817D01*
G03X28708Y-28914I664J1567D01*
G01X28814Y-28891D01*
X29033Y-29109D01*
X28693Y-29449D01*
G02X26643Y-30298I-2050J2050D01*
G01X7557D01*
G37*
G54D10*
X-51100Y-71600D03*
Y-49800D03*
X-51200Y-21800D03*
Y0D03*
X88200Y56400D03*
Y78200D03*
G54D11*
X-57000Y-42500D03*
X-57300Y-29100D03*
X-56800Y-35600D03*
X-56200Y7600D03*
X-51800Y12100D03*
X-57000Y16600D03*
X-45400Y-42700D03*
X-45700Y-35500D03*
X-45500Y-29200D03*
X-40800Y15500D03*
X-46800Y6900D03*
X-50200Y23700D03*
X-42800Y24300D03*
X-43000Y42100D03*
X-50700Y33500D03*
X-42600Y33200D03*
X-50200Y42200D03*
X-37600Y-64900D03*
X-37100Y-72300D03*
X-36300Y-50200D03*
X-36700Y-42000D03*
X-36500Y-35200D03*
X-31100Y15100D03*
X-34100Y7900D03*
X-33900Y23500D03*
X-35600Y42100D03*
X-27300D03*
X-35300Y32400D03*
X-25400Y32500D03*
X-24450Y15250D03*
X-24200Y23000D03*
X-800Y-58800D03*
X-600Y-64200D03*
X-4700Y-45400D03*
X-9000Y-29700D03*
X-700Y47400D03*
X7300Y-65200D03*
X7200Y-58800D03*
X6100Y-27700D03*
X4000Y14900D03*
X8400Y2900D03*
X8700Y20200D03*
X8500Y35500D03*
X8300Y53600D03*
X20300Y-59400D03*
X28350Y-27250D03*
X17100Y2800D03*
Y20400D03*
X28300Y37100D03*
X28600Y31600D03*
X17300Y35500D03*
X17600Y53600D03*
X28200Y48800D03*
X28000Y43200D03*
X31300Y-65300D03*
X29900Y-59100D03*
X37900Y-38500D03*
X33800Y8200D03*
X37000Y30600D03*
X36300Y48900D03*
X31100Y63200D03*
X38500Y62800D03*
X38000Y71200D03*
X31400Y71400D03*
X42600Y-65700D03*
X53600Y-63700D03*
X53900Y-57600D03*
X42300Y-60000D03*
X47200Y-38500D03*
X48800Y-10900D03*
X54000Y5000D03*
X43400Y31600D03*
X51800Y31100D03*
X43900Y49100D03*
X51700D03*
X65500Y-69700D03*
X59600Y-69800D03*
X60000Y-63700D03*
X65800Y-63900D03*
X67100Y-57500D03*
X60200Y-57600D03*
X55900Y-52300D03*
X63100Y-52100D03*
X68100Y-39100D03*
X63500Y5000D03*
X65200Y10900D03*
X59200Y31200D03*
X68800D03*
X59900Y49000D03*
X68400Y49200D03*
X57600Y62700D03*
X65000Y62600D03*
X57400Y72100D03*
X65000Y72200D03*
X71900Y-69800D03*
Y-63900D03*
X77000Y-59300D03*
X79300Y-39500D03*
X79900Y-19600D03*
X75400Y-7900D03*
X80100Y15500D03*
X78200Y31400D03*
X77900Y49200D03*
X72000Y62600D03*
X72200Y72400D03*
X89800Y-59800D03*
X94737Y-19198D03*
X90200Y-8000D03*
X93600Y38000D03*
X93200Y30900D03*
X86000D03*
X93800Y49000D03*
Y43100D03*
X84700Y49000D03*
G54D12*
X-29400Y-66300D03*
X-7600D03*
G54D13*
X-31200Y-22900D03*
X-13400Y-48300D03*
Y-38300D03*
X-17200Y-23000D03*
X2900Y-35700D03*
X14400Y-36000D03*
X25200D03*
X41600Y16500D03*
X55700Y16700D03*
X80700Y-69100D03*
X90700D03*
G54D14*
X2700Y-71500D03*
X12700D03*
X22700D03*
X42700D03*
X32700D03*
X52700D03*
G54D15*
G01X-24450Y15250D02*
Y9207D01*
G02X-25622Y6378I-4000J0D01*
G01X-38028Y-6028D01*
G03X-39200Y-8857I2828J-2829D01*
G01Y-26113D01*
G03X-38028Y-28942I4000J0D01*
G01X-19842Y-47128D01*
G03X-17013Y-48300I2829J2828D01*
G01X-13400D01*
G01D02*
X-9257D01*
G03X-6428Y-47128I0J4000D01*
G01X-4700Y-45400D01*
G01X-9000Y-29700D02*
X-6472Y-32228D01*
G02X-5300Y-35057I-2828J-2829D01*
G01Y-38443D01*
G03X-4128Y-41272I4000J0D01*
G01X19228Y-64628D01*
G03X22057Y-65800I2829J2828D01*
G01X25343D01*
G02X28172Y-66972I0J-4000D01*
G01X32700Y-71500D01*
G01X48800Y-10900D02*
X29472Y-30228D01*
G02X26643Y-31400I-2829J2828D01*
G01X7557D01*
G02X4728Y-30228I0J4000D01*
G01X472Y-25972D01*
G02X-700Y-23143I2828J2829D01*
G01Y47400D01*
G01X28350Y-27250D02*
X27900Y-27700D01*
X6100D01*
G01X4000Y14900D02*
Y-21400D01*
G03X8000Y-25400I4000J0D01*
G01X24243D01*
G03X27072Y-24228I0J4000D01*
G01X40628Y-10672D01*
G03X41800Y-7843I-2828J2829D01*
G01Y16300D01*
X41600Y16500D01*
G01X48800Y-10900D02*
Y8143D01*
G02X49972Y10972I4000J0D01*
G01X55700Y16700D01*
G01X54000Y5000D02*
X63500D01*
G01X59600Y16700D02*
X55700D01*
G01X75400Y-7900D02*
Y-13443D01*
G03X76572Y-16272I4000J0D01*
G01X79900Y-19600D01*
G01X90200Y-8000D02*
Y-12943D01*
G03X91372Y-15772I4000J0D01*
G01X93252Y-17652D01*
Y-17713D01*
X94737Y-19198D01*
M02*
