G04 ================== begin FILE IDENTIFICATION RECORD ==================*
G04 Layout Name:  C:/Users/Dart/Desktop/FMCW/FMCW/PCB/Transmitter/PLL_VCO_FINAL.brd*
G04 Film Name:    SILK*
G04 File Format:  Gerber RS274X*
G04 File Origin:  Cadence Allegro 16.6-S042*
G04 Origin Date:  Sat Feb 27 01:02:58 2016*
G04 *
G04 Layer:  BOARD GEOMETRY/SILKSCREEN_TOP*
G04 *
G04 Offset:    (0.00 0.00)*
G04 Mirror:    No*
G04 Mode:      Positive*
G04 Rotation:  0*
G04 FullContactRelief:  No*
G04 UndefLineWidth:     5.00*
G04 ================== end FILE IDENTIFICATION RECORD ====================*
%FSLAX35Y35*MOIN*%
%IR0*IPPOS*OFA0.00000B0.00000*MIA0B0*SFA1.00000B1.00000*%
%ADD10C,.005*%
G75*
%LPD*%
G75*
G54D10*
G01X33200Y37000D02*
X33387Y37042D01*
X33600Y37167D01*
X33733Y37375D01*
X33787Y37667D01*
X33733Y37958D01*
X33573Y38208D01*
X33333Y38333D01*
X33067D01*
X32907Y38417D01*
X32773Y38625D01*
X32720Y38917D01*
X32800Y39208D01*
X32987Y39417D01*
X33200Y39500D01*
X33413Y39417D01*
X33600Y39208D01*
X33680Y38917D01*
X33627Y38625D01*
X33493Y38417D01*
X33333Y38333D01*
X33067D01*
X32827Y38208D01*
X32667Y37958D01*
X32613Y37667D01*
X32667Y37375D01*
X32800Y37167D01*
X33013Y37042D01*
X33200Y37000D01*
G01X37760Y38250D02*
X38293D01*
Y37500D01*
X38133Y37250D01*
X37947Y37083D01*
X37680Y37000D01*
X37413Y37083D01*
X37227Y37250D01*
X37067Y37500D01*
X36960Y37792D01*
X36907Y38125D01*
Y38417D01*
X36960Y38667D01*
X37067Y38958D01*
X37227Y39208D01*
X37387Y39375D01*
X37600Y39500D01*
X37787D01*
X38000Y39417D01*
X38160Y39250D01*
G01X39240Y37000D02*
Y39500D01*
G01X40360D02*
Y37000D01*
G01Y38250D02*
X39240D01*
G01X41600Y38667D02*
X42400D01*
X41600Y37000D01*
X42400D01*
G01X45867D02*
Y39500D01*
X46507D01*
X46720Y39375D01*
X46880Y39083D01*
X46933Y38750D01*
X46880Y38417D01*
X46747Y38167D01*
X46507Y38042D01*
X45867D01*
G01X48067Y39500D02*
Y37000D01*
X49133D01*
G01X50267Y39500D02*
Y37000D01*
X51333D01*
G01X56000Y36167D02*
X54667Y38667D01*
Y39083D01*
X54933Y39500D01*
X55200D01*
X55467Y39083D01*
Y38667D01*
X55200Y38250D01*
X54667Y37833D01*
X54400Y37417D01*
Y36583D01*
X54667Y36167D01*
X55467D01*
X56000Y37000D01*
G01X58933Y39500D02*
X59600Y37000D01*
X60267Y39500D01*
G01X62387Y39292D02*
X62227Y39417D01*
X62040Y39500D01*
X61827D01*
X61587Y39375D01*
X61400Y39167D01*
X61267Y38917D01*
X61160Y38500D01*
X61133Y38125D01*
X61187Y37750D01*
X61267Y37500D01*
X61427Y37250D01*
X61613Y37083D01*
X61800Y37000D01*
X61987D01*
X62173Y37083D01*
X62333Y37208D01*
X62467Y37375D01*
G01X64000Y37000D02*
X63787Y37042D01*
X63600Y37208D01*
X63440Y37458D01*
X63333Y37750D01*
X63280Y38083D01*
Y38417D01*
X63333Y38750D01*
X63440Y39042D01*
X63600Y39292D01*
X63787Y39458D01*
X64000Y39500D01*
X64213Y39458D01*
X64400Y39292D01*
X64560Y39042D01*
X64667Y38750D01*
X64720Y38417D01*
Y38083D01*
X64667Y37750D01*
X64560Y37458D01*
X64400Y37208D01*
X64213Y37042D01*
X64000Y37000D01*
G01X68400Y39500D02*
Y37000D01*
G01X67787Y39500D02*
X69013D01*
G01X70227Y37000D02*
Y38667D01*
G01Y38333D02*
X70360Y38500D01*
X70493Y38625D01*
X70680Y38667D01*
X70813Y38625D01*
X70973Y38500D01*
G01X73280Y37000D02*
Y38667D01*
G01Y38375D02*
X73173Y38542D01*
X73013Y38625D01*
X72827Y38667D01*
X72640Y38583D01*
X72480Y38417D01*
X72373Y38167D01*
X72320Y37833D01*
X72373Y37500D01*
X72480Y37250D01*
X72640Y37083D01*
X72827Y37000D01*
X73013Y37042D01*
X73173Y37167D01*
X73280Y37333D01*
G01X74547Y37000D02*
Y38667D01*
G01Y38250D02*
X74653Y38458D01*
X74813Y38625D01*
X75027Y38667D01*
X75213Y38625D01*
X75373Y38458D01*
X75453Y38167D01*
Y37000D01*
G01X76800Y37292D02*
X76933Y37125D01*
X77120Y37000D01*
X77280D01*
X77440Y37083D01*
X77547Y37208D01*
X77600Y37375D01*
X77573Y37625D01*
X77467Y37750D01*
X76987Y38000D01*
X76880Y38292D01*
X76933Y38500D01*
X77040Y38625D01*
X77200Y38667D01*
X77360Y38625D01*
X77520Y38500D01*
G01X78600Y37000D02*
Y38667D01*
G01Y38208D02*
X78680Y38417D01*
X78813Y38583D01*
X79000Y38667D01*
X79187Y38583D01*
X79320Y38417D01*
X79400Y38208D01*
Y37000D01*
G01Y38208D02*
X79480Y38417D01*
X79613Y38583D01*
X79800Y38667D01*
X79987Y38583D01*
X80120Y38417D01*
X80200Y38167D01*
Y37000D01*
G01X81600Y38667D02*
Y37000D01*
G01Y39333D02*
X81547Y39375D01*
Y39458D01*
X81600Y39500D01*
X81653Y39458D01*
Y39375D01*
X81600Y39333D01*
G01X83800Y39500D02*
Y37000D01*
G01X83427Y38667D02*
X84173D01*
G01X86000Y39500D02*
Y37000D01*
G01X85627Y38667D02*
X86373D01*
G01X87800Y38125D02*
X88653D01*
X88573Y38417D01*
X88440Y38583D01*
X88253Y38667D01*
X88067Y38625D01*
X87907Y38500D01*
X87800Y38208D01*
X87747Y37958D01*
Y37708D01*
X87800Y37458D01*
X87933Y37208D01*
X88093Y37042D01*
X88280Y37000D01*
X88467Y37083D01*
X88653Y37333D01*
G01X90027Y37000D02*
Y38667D01*
G01Y38333D02*
X90160Y38500D01*
X90293Y38625D01*
X90480Y38667D01*
X90613Y38625D01*
X90773Y38500D01*
G01X36600Y42100D02*
X36387Y42142D01*
X36200Y42308D01*
X36040Y42558D01*
X35933Y42850D01*
X35880Y43183D01*
Y43517D01*
X35933Y43850D01*
X36040Y44142D01*
X36200Y44392D01*
X36387Y44558D01*
X36600Y44600D01*
X36813Y44558D01*
X37000Y44392D01*
X37160Y44142D01*
X37267Y43850D01*
X37320Y43517D01*
Y43183D01*
X37267Y42850D01*
X37160Y42558D01*
X37000Y42308D01*
X36813Y42142D01*
X36600Y42100D01*
G01X38133Y44600D02*
X38800Y42100D01*
X39467Y44600D01*
G01X41533Y42100D02*
X40467D01*
Y44600D01*
X41533D01*
G01X41107Y43392D02*
X40467D01*
G01X42667Y42100D02*
Y44600D01*
X43333D01*
X43547Y44475D01*
X43680Y44308D01*
X43733Y43975D01*
X43680Y43642D01*
X43520Y43433D01*
X43333Y43308D01*
X42667D01*
G01X43333D02*
X43733Y42100D01*
G01X45613Y43433D02*
X45720Y43558D01*
X45800Y43767D01*
X45853Y44058D01*
X45800Y44308D01*
X45693Y44475D01*
X45507Y44600D01*
X44787D01*
Y42100D01*
X45667D01*
X45853Y42267D01*
X45960Y42517D01*
X46013Y42808D01*
X45960Y43100D01*
X45800Y43350D01*
X45613Y43433D01*
X44787D01*
G01X47013Y44600D02*
Y42808D01*
X47120Y42433D01*
X47333Y42183D01*
X47600Y42100D01*
X47867Y42183D01*
X48080Y42433D01*
X48187Y42808D01*
Y44600D01*
G01X49480D02*
X50120D01*
G01X49800D02*
Y42100D01*
G01X49480D02*
X50120D01*
G01X51467Y44600D02*
Y42100D01*
X52533D01*
G01X54200Y44600D02*
Y42100D01*
G01X53587Y44600D02*
X54813D01*
G01X59080Y42100D02*
Y43767D01*
G01Y43475D02*
X58973Y43642D01*
X58813Y43725D01*
X58627Y43767D01*
X58440Y43683D01*
X58280Y43517D01*
X58173Y43267D01*
X58120Y42933D01*
X58173Y42600D01*
X58280Y42350D01*
X58440Y42183D01*
X58627Y42100D01*
X58813Y42142D01*
X58973Y42267D01*
X59080Y42433D01*
G01X60347Y42100D02*
Y43767D01*
G01Y43350D02*
X60453Y43558D01*
X60613Y43725D01*
X60827Y43767D01*
X61013Y43725D01*
X61173Y43558D01*
X61253Y43267D01*
Y42100D01*
G01X63480Y44600D02*
Y42100D01*
G01Y42475D02*
X63373Y42267D01*
X63213Y42142D01*
X63027Y42100D01*
X62813Y42183D01*
X62653Y42392D01*
X62547Y42642D01*
X62520Y42933D01*
X62547Y43225D01*
X62653Y43475D01*
X62813Y43683D01*
X63027Y43767D01*
X63213Y43725D01*
X63347Y43642D01*
X63480Y43475D01*
G01X66813Y44600D02*
Y42808D01*
X66920Y42433D01*
X67133Y42183D01*
X67400Y42100D01*
X67667Y42183D01*
X67880Y42433D01*
X67987Y42808D01*
Y44600D01*
G01X68987Y42100D02*
Y44600D01*
X70213Y42100D01*
Y44600D01*
G01X71213Y42100D02*
Y44600D01*
X71747D01*
X71960Y44475D01*
X72120Y44308D01*
X72253Y44058D01*
X72360Y43767D01*
X72387Y43350D01*
X72360Y42933D01*
X72253Y42642D01*
X72120Y42392D01*
X71960Y42225D01*
X71747Y42100D01*
X71213D01*
G01X74533D02*
X73467D01*
Y44600D01*
X74533D01*
G01X74107Y43392D02*
X73467D01*
G01X75667Y42100D02*
Y44600D01*
X76333D01*
X76547Y44475D01*
X76680Y44308D01*
X76733Y43975D01*
X76680Y43642D01*
X76520Y43433D01*
X76333Y43308D01*
X75667D01*
G01X76333D02*
X76733Y42100D01*
G01X77867D02*
Y44600D01*
X78507D01*
X78720Y44475D01*
X78880Y44183D01*
X78933Y43850D01*
X78880Y43517D01*
X78747Y43267D01*
X78507Y43142D01*
X77867D01*
G01X79933Y42100D02*
X80600Y44600D01*
X81267Y42100D01*
G01X81027Y42975D02*
X80173D01*
G01X82480Y44600D02*
X83120D01*
G01X82800D02*
Y42100D01*
G01X82480D02*
X83120D01*
G01X84413D02*
Y44600D01*
X84947D01*
X85160Y44475D01*
X85320Y44308D01*
X85453Y44058D01*
X85560Y43767D01*
X85587Y43350D01*
X85560Y42933D01*
X85453Y42642D01*
X85320Y42392D01*
X85160Y42225D01*
X84947Y42100D01*
X84413D01*
M02*
