G04 ================== begin FILE IDENTIFICATION RECORD ==================*
G04 Layout Name:  C:/Users/Dart/Desktop/FMCW/FMCW/PCB/Transmitter/PLL_VCO_FINAL.brd*
G04 Film Name:    TOP*
G04 File Format:  Gerber RS274X*
G04 File Origin:  Cadence Allegro 16.6-S042*
G04 Origin Date:  Sun Feb 28 22:11:29 2016*
G04 *
G04 Layer:  ETCH/TOP*
G04 Layer:  PIN/TOP*
G04 Layer:  VIA CLASS/TOP*
G04 *
G04 Offset:    (0.00 0.00)*
G04 Mirror:    No*
G04 Mode:      Positive*
G04 Rotation:  0*
G04 FullContactRelief:  No*
G04 UndefLineWidth:     0.00*
G04 ================== end FILE IDENTIFICATION RECORD ====================*
%FSLAX35Y35*MOIN*%
%IR0*IPPOS*OFA0.00000B0.00000*MIA0B0*SFA1.00000B1.00000*%
%ADD16C,.06*%
%ADD11C,.026*%
%ADD14R,.059X.156*%
%ADD10R,.156X.059*%
%ADD17R,.059X.167*%
%ADD12R,.167X.059*%
%ADD18C,.05709*%
%ADD29R,.00984X.02362*%
%ADD15R,.03937X.03937*%
%ADD23R,.00984X.02559*%
%ADD21R,.032X.012*%
%ADD20R,.012X.032*%
%ADD19R,.104X.104*%
%ADD27R,.05906X.04331*%
%ADD26R,.02775X.01181*%
%ADD13R,.05512X.0748*%
%ADD25R,.01181X.02775*%
%ADD28R,.07087X.04331*%
%ADD24R,.14764X.14764*%
%ADD22R,.01772X.08268*%
%ADD30C,.03242*%
%ADD31C,.008*%
%ADD33C,.07312*%
%ADD32R,.06716X.08682*%
G75*
%LPD*%
G75*
G36*
G01X-19601Y-45043D02*
Y-45058D01*
X-19424Y-57998D01*
X-21752D01*
Y-75376D01*
X-60000Y-75400D01*
X-60038Y-64352D01*
X-42598D01*
Y-61819D01*
X-40652Y-61801D01*
X-40651D01*
G03X-37049Y-60307I-5J5102D01*
G01X-30148Y-53406D01*
Y-38270D01*
X-28680D01*
Y-33130D01*
X-30198D01*
Y-27856D01*
X-28067Y-25725D01*
X-27965Y-25743D01*
G03X-24622Y-24699I666J3743D01*
G02X-24058Y-24700I281J-284D01*
G01X-19356Y-29402D01*
X-5744D01*
X5456Y-18202D01*
X8527D01*
X8706Y-18022D01*
X9877D01*
Y-18250D01*
G02X9682Y-18450I-200J0D01*
G03X7068Y-19574I103J-3840D01*
G01X-9616Y-36259D01*
G02X-10233Y-36197I-283J283D01*
G03X-16708Y-40175I-3168J-2103D01*
G01X-16633Y-40307D01*
X-18351Y-42025D01*
G03X-19601Y-45043I3017J-3017D01*
G37*
G36*
G01X-14648Y-75371D02*
Y-57998D01*
X-17221D01*
X-17322Y-50597D01*
G02X-16587Y-50373I400J6D01*
G03X-16643Y-46315I3187J2073D01*
G02X-17384Y-46112I-341J209D01*
G01X-17398Y-45036D01*
G02X-16793Y-43583I2064J-7D01*
G01X-14974Y-41764D01*
X-14850Y-41814D01*
G03X-9819Y-39576I1450J3514D01*
G01X8626Y-21132D01*
G02X9378Y-20703I1159J-1158D01*
G02X9877Y-21090I99J-387D01*
G01Y-21752D01*
X11946D01*
Y-25142D01*
X4853Y-33327D01*
X4720Y-33273D01*
G03X2630Y-33057I-1421J-3527D01*
G02X2277Y-32381I-70J394D01*
G01X5251Y-29407D01*
X5374Y-29458D01*
G03X4252Y-27249I726J1758D01*
G01X4239Y-27303D01*
X-4307Y-35849D01*
G03X-5802Y-39457I3606J-3608D01*
G01Y-45403D01*
G03X-3598Y-45842I802J-1725D01*
G01Y-39457D01*
G02X-2749Y-37407I2899J0D01*
G01X-1119Y-35777D01*
G02X-443Y-36130I282J-283D01*
G03X1916Y-40341I3743J-670D01*
G01X2049Y-40393D01*
X1904Y-43880D01*
X330D01*
Y-49020D01*
X5470D01*
Y-43880D01*
X4526D01*
G02X4126Y-43463I0J400D01*
G01X4250Y-40484D01*
X4386Y-40443D01*
G03X6589Y-34893I-1086J3643D01*
G01X6517Y-34769D01*
X13212Y-27044D01*
G02X13914Y-27306I302J-262D01*
G01Y-31029D01*
G03X13298Y-32456I1345J-1427D01*
G03X13299Y-32481I1101J32D01*
G01X13315Y-33185D01*
X13181Y-33234D01*
G03X13226Y-40382I1319J-3566D01*
G01X13361Y-40430D01*
X13325Y-43880D01*
X11830D01*
Y-49020D01*
X16970D01*
Y-43880D01*
X15528D01*
X15564Y-40453D01*
X15699Y-40408D01*
G03X15653Y-33177I-1199J3608D01*
G01X15517Y-33134D01*
X15504Y-32554D01*
X16118Y-31940D01*
Y-25541D01*
G02X16800Y-25258I400J0D01*
G01X24089Y-32547D01*
X24075Y-33236D01*
X23939Y-33280D01*
G03X23900Y-40508I1161J-3620D01*
G01X24036Y-40553D01*
X24072Y-44080D01*
X22630D01*
Y-49220D01*
X27770D01*
Y-44080D01*
X26275D01*
X26239Y-40530D01*
X26373Y-40482D01*
G03X26411Y-33331I-1273J3582D01*
G01X26277Y-33282D01*
X26311Y-31653D01*
X18086Y-23428D01*
Y-22878D01*
X18396D01*
X18455Y-22971D01*
G03X19002Y-23657I3324J2089D01*
G01X29149Y-33804D01*
G02X29998Y-35854I-2050J-2050D01*
G01Y-60356D01*
X39044Y-69402D01*
X39008Y-69517D01*
G03X40380Y-67622I3492J-1084D01*
G01X32202Y-59444D01*
Y-54926D01*
X34830D01*
Y-56420D01*
X39970D01*
Y-51280D01*
X34830D01*
Y-52722D01*
X32202D01*
Y-35854D01*
G03X30707Y-32246I-5101J0D01*
G01X28285Y-29824D01*
G02X28530Y-29143I283J283D01*
G03X30209Y-27653I-180J1893D01*
G03X30884Y-27206I-763J1885D01*
G01X32172Y-25918D01*
X45009D01*
G02X47059Y-26767I0J-2899D01*
G01X51968Y-31676D01*
G02X51827Y-32018I-141J-142D01*
G01X51825D01*
X47245Y-36597D01*
X47165Y-36598D01*
G03X49047Y-38047I35J-1902D01*
G01X49020Y-37937D01*
X51897Y-35061D01*
G02X52580Y-35343I283J-282D01*
G01Y-35870D01*
X54148D01*
Y-43530D01*
X52680D01*
Y-48670D01*
X57820D01*
Y-43530D01*
X56352D01*
Y-35870D01*
X57720D01*
Y-30730D01*
X54138D01*
X48617Y-25209D01*
G03X45009Y-23714I-3608J-3606D01*
G01X32172D01*
X28401Y-19943D01*
G03X24752Y-18449I-3607J-3608D01*
G01Y-18022D01*
X25852D01*
Y-12018D01*
X29609D01*
G02X31659Y-12867I0J-2899D01*
G01X32330Y-13538D01*
Y-17120D01*
X37470D01*
Y-15652D01*
X41230D01*
Y-17120D01*
X46370D01*
Y-15652D01*
X47055D01*
G03X49902Y-12805I0J2847D01*
G01Y-12451D01*
G03X47698I-1102J1551D01*
G01Y-12805D01*
G02X47055Y-13448I-643J0D01*
G01X46370D01*
Y-11980D01*
X41230D01*
Y-13448D01*
X37470D01*
Y-12152D01*
X40056D01*
X42688Y-9520D01*
X46270D01*
Y-4380D01*
X41130D01*
Y-7962D01*
X40637Y-8455D01*
G02X39954Y-8172I-283J283D01*
G01Y-3073D01*
X32846D01*
Y-4598D01*
X28144D01*
X26865Y-5878D01*
X25852D01*
Y-5778D01*
X24752D01*
Y-3406D01*
X32156Y3998D01*
X47994D01*
X51430Y562D01*
Y-3020D01*
X56570D01*
Y2120D01*
X55102D01*
Y3449D01*
G03X52822Y3506I-1102J1551D01*
G01X52898Y3446D01*
Y3175D01*
G02X52216Y2892I-400J0D01*
G01X48906Y6202D01*
X31244D01*
X22548Y-2494D01*
Y-5778D01*
X21448D01*
Y-17348D01*
X10552D01*
Y-15620D01*
X6148D01*
Y-15998D01*
X4544D01*
X-6656Y-27198D01*
X-18444D01*
X-23500Y-22143D01*
X-23498Y-22058D01*
G03X-30066Y-24608I-3802J58D01*
G01X-32402Y-26944D01*
Y-33130D01*
X-33820D01*
Y-38270D01*
X-32352D01*
Y-52494D01*
X-38607Y-58749D01*
G02X-40662Y-59598I-2050J2050D01*
G01X-42598Y-59616D01*
Y-57248D01*
X-60062D01*
X-60209Y-14452D01*
X-42698D01*
Y-13222D01*
X-32981D01*
X-32931Y-13272D01*
X-31670D01*
Y-13520D01*
X-26530D01*
Y-13272D01*
X-22770D01*
Y-13520D01*
X-17630D01*
Y-8380D01*
X-22770D01*
Y-8628D01*
X-26530D01*
Y-8380D01*
X-31670D01*
Y-8578D01*
X-42698D01*
Y-7348D01*
X-60234D01*
X-60574Y91600D01*
X96756D01*
X96799Y70952D01*
X79398D01*
Y69722D01*
X54120D01*
Y69970D01*
X48980D01*
Y64830D01*
X54120D01*
Y65078D01*
X79398D01*
Y63848D01*
X96813D01*
X96982Y-17820D01*
G02X96261Y-18060I-400J-1D01*
G03X94231Y-17365I-1524J-1138D01*
G02X93777Y-16781I-107J386D01*
G03X94183Y-15815I-3799J2165D01*
G01X94225Y-15670D01*
X95820D01*
Y-10530D01*
X94352D01*
Y-5370D01*
X95820D01*
Y-230D01*
X94352D01*
Y5930D01*
X95820D01*
Y11070D01*
X94352D01*
Y19130D01*
X95820D01*
Y24270D01*
X90680D01*
Y19130D01*
X92148D01*
Y11070D01*
X90680D01*
Y5930D01*
X92148D01*
Y-230D01*
X90680D01*
Y-4007D01*
G02X89997Y-4289I-400J0D01*
G01X89520Y-3812D01*
Y-230D01*
X84380D01*
Y-5370D01*
X87962D01*
X88788Y-6196D01*
G02X89008Y-6518I-749J-748D01*
G03X91479Y-9407I1192J-1482D01*
G02X92148Y-9703I269J-296D01*
G01Y-10530D01*
X90680D01*
Y-15670D01*
X91696D01*
Y-15942D01*
X91650Y-15998D01*
G02X91513Y-16148I-1669J1387D01*
G01X91093Y-16568D01*
G03X89598Y-20176I3606J-3608D01*
G01Y-23588D01*
G03X89605Y-23710I1102J2D01*
G01X89606Y-23721D01*
Y-25370D01*
X91794D01*
Y-23721D01*
X91795Y-23710D01*
G03X91802Y-23588I-1095J124D01*
G01Y-20176D01*
G02X92651Y-18126I2899J0D01*
G01X92922Y-17855D01*
X93173Y-18105D01*
X93095Y-18238D01*
G03X93636Y-20749I1642J-960D01*
G01Y-21806D01*
X93346D01*
Y-23455D01*
X93345Y-23466D01*
G03Y-23710I1095J-122D01*
G01X93346Y-23721D01*
Y-25370D01*
X95534D01*
Y-24052D01*
X95838Y-23747D01*
Y-20749D01*
G03X96266Y-20330I-1100J1552D01*
G02X96987Y-20567I321J-238D01*
G01X97100Y-75300D01*
X-14648Y-75371D01*
G37*
G36*
G01X29376Y-25598D02*
X29293D01*
G03X26457Y-27070I-943J-1652D01*
G02X25776Y-27315I-398J38D01*
G01X20560Y-22099D01*
G02X20554Y-22093I1215J1221D01*
G01X20496Y-22034D01*
Y-21752D01*
X22123D01*
Y-20652D01*
X24793D01*
G02X26843Y-21501I0J-2899D01*
G01X30158Y-24816D01*
X29376Y-25598D01*
G37*
G36*
G01X33906Y-9948D02*
X33248Y-9290D01*
G02X33530Y-8607I282J283D01*
G01X39520D01*
G02X39802Y-9290I0J-400D01*
G01X39144Y-9948D01*
X33906D01*
G37*
%LPC*%
G75*
G36*
G01X-22380Y-33130D02*
Y-38270D01*
X-27520D01*
Y-33130D01*
X-26052D01*
Y-32201D01*
G02X-23848I1102J1551D01*
G01Y-33130D01*
X-22380D01*
G37*
G36*
G01X15292Y38880D02*
Y30859D01*
G02X10646I-2323J0D01*
G01Y38880D01*
X10330D01*
Y44020D01*
X15470D01*
Y38880D01*
X15292D01*
G37*
G36*
G01X-11780Y22370D02*
Y17230D01*
X-16920D01*
Y22370D01*
X-15452D01*
Y26830D01*
X-16920D01*
Y31970D01*
X-15452D01*
Y36430D01*
X-16920D01*
Y41570D01*
X-15452D01*
Y44830D01*
X-16920D01*
Y46398D01*
X-19343D01*
G02X-22951Y47893I0J5101D01*
G01X-23281Y48224D01*
X-29458D01*
Y56906D01*
X-22742D01*
Y50800D01*
X-21393Y49451D01*
G03X-19343Y48602I2050J2050D01*
G01X-16920D01*
Y49970D01*
X-11780D01*
Y44830D01*
X-13248D01*
Y41570D01*
X-11780D01*
Y36430D01*
X-13248D01*
Y31970D01*
X-11780D01*
Y26830D01*
X-13248D01*
Y22370D01*
X-11780D01*
G37*
G36*
G01X2049Y48393D02*
X-3407Y53849D01*
G02X-4902Y57457I3606J3608D01*
G01Y79243D01*
G02X-3407Y82851I5101J0D01*
G01X-1114Y85144D01*
G02X232Y85702I1346J-1344D01*
G01X11273D01*
G02X13918Y83057I0J-2645D01*
G01Y82044D01*
X21882D01*
Y78482D01*
X25444D01*
Y73222D01*
G03X25985Y72848I400J0D01*
G03X27974Y74132I-1986J5259D01*
G01X30932Y77090D01*
Y78110D01*
X30215Y78827D01*
G02X29198Y81281I2452J2454D01*
G01Y81730D01*
G03X28622Y83120I-1966J0D01*
G01X25193Y86549D01*
G03X23143Y87398I-2050J-2050D01*
G01X-343D01*
G03X-2393Y86549I0J-2899D01*
G01X-6099Y82843D01*
G03X-6948Y80793I2050J-2050D01*
G01Y49970D01*
X-5480D01*
Y48502D01*
X-2251D01*
G02Y46298I1551J-1102D01*
G01X-5480D01*
Y44830D01*
X-10620D01*
Y49970D01*
X-9152D01*
Y80793D01*
G02X-7657Y84401I5101J0D01*
G01X-3951Y88107D01*
G02X-343Y89602I3608J-3606D01*
G01X23143D01*
G02X26751Y88107I0J-5101D01*
G01X30180Y84678D01*
G02X31402Y81730I-2947J-2949D01*
G01Y81281D01*
G03X31773Y80385I1267J0D01*
G01X32256Y79902D01*
X32930D01*
Y81420D01*
X38070D01*
Y79952D01*
X46330D01*
Y81320D01*
X51470D01*
Y79852D01*
X60430D01*
Y81320D01*
X65570D01*
Y76180D01*
X60430D01*
Y77648D01*
X51470D01*
Y76180D01*
X46330D01*
Y77748D01*
X38070D01*
Y76280D01*
X33238D01*
X29532Y72574D01*
G02X25603Y70449I-5532J5534D01*
G01X25444Y70415D01*
Y68602D01*
X27151D01*
X28151Y69602D01*
X28959D01*
X28989Y69611D01*
G02X29700Y69722I709J-2211D01*
G01X42680D01*
Y69970D01*
X47820D01*
Y64830D01*
X42680D01*
Y65078D01*
X29700D01*
G02X28989Y65189I-2J2322D01*
G01X28959Y65198D01*
X28251D01*
X27151Y66298D01*
X25444D01*
Y62318D01*
X21882D01*
Y58756D01*
X14002D01*
Y57049D01*
X15102Y55949D01*
Y55541D01*
X15111Y55511D01*
G02X15222Y54800I-2211J-709D01*
G01Y50320D01*
X15470D01*
Y45180D01*
X10330D01*
Y50320D01*
X10578D01*
Y54800D01*
G02X10689Y55511I2322J2D01*
G01X10698Y55541D01*
Y56149D01*
X11598Y57049D01*
Y58756D01*
X5718D01*
Y62318D01*
X2156D01*
Y68639D01*
X6134D01*
Y62734D01*
X21466D01*
Y78066D01*
X6134D01*
Y70192D01*
X2156D01*
Y78482D01*
X5718D01*
Y82044D01*
X11714D01*
Y83057D01*
G03X11273Y83498I-441J0D01*
G01X356D01*
X-1849Y81293D01*
G03X-2698Y79243I2050J-2050D01*
G01Y57457D01*
G03X-1849Y55407I2899J0D01*
G01X3607Y49951D01*
G02X5102Y46343I-3606J-3608D01*
G01Y16451D01*
G02X2898I-1102J-1551D01*
G01Y46343D01*
G03X2049Y48393I-2899J0D01*
G37*
G36*
G01X74693Y18651D02*
X77249Y21207D01*
G02X80857Y22702I3608J-3606D01*
G01X83525D01*
X83625Y22802D01*
X84380D01*
Y24270D01*
X89520D01*
Y19130D01*
X84380D01*
Y20498D01*
X80857D01*
G03X78807Y19649I0J-2899D01*
G01X76251Y17093D01*
G02X72643Y15598I-3608J3606D01*
G01X59339D01*
G02Y17802I-3639J1102D01*
G01X72643D01*
G03X74693Y18651I0J2899D01*
G37*
G36*
G01X15570Y17420D02*
Y12280D01*
X10430D01*
Y17420D01*
X10678D01*
Y25362D01*
X10675Y25378D01*
G02X14611Y27383I2294J363D01*
G01X15322Y26672D01*
Y17420D01*
X15570D01*
G37*
G36*
G01X-10620Y41570D02*
X-5480D01*
Y37988D01*
X-2698Y35206D01*
Y34656D01*
X-2615Y34573D01*
G02X-1998Y33085I-1486J-1488D01*
G01Y13120D01*
X-530D01*
Y7980D01*
X-5670D01*
Y11562D01*
X-7557Y13449D01*
G03X-9607Y14298I-2050J-2050D01*
G01X-22803D01*
G02X-23018Y16502I-1647J952D01*
G01X-9607D01*
G02X-5999Y15007I0J-5101D01*
G01X-4884Y13892D01*
G03X-4202Y14175I282J283D01*
G01Y33044D01*
X-4902Y33744D01*
Y34294D01*
X-7038Y36430D01*
X-10620D01*
Y41570D01*
G37*
G36*
G01X66070Y2120D02*
Y-3020D01*
X60930D01*
Y2120D01*
X62398D01*
Y3449D01*
G02X64602I1102J1551D01*
G01Y2120D01*
X66070D01*
G37*
G36*
G01X-17630Y-6972D02*
Y-7220D01*
X-22770D01*
Y-2080D01*
X-17630D01*
Y-2328D01*
X-14670D01*
Y-2080D01*
X-9530D01*
Y-2328D01*
X-5470D01*
Y-2080D01*
X-330D01*
Y-7220D01*
X-5470D01*
Y-6972D01*
X-9530D01*
Y-7220D01*
X-14670D01*
Y-6972D01*
X-17630D01*
G37*
G36*
G01X-49710Y19244D02*
X-28385Y-2080D01*
X-26530D01*
Y-7220D01*
X-31670D01*
Y-5365D01*
X-52994Y15960D01*
G02X-58422Y29065I13106J13105D01*
G01Y48224D01*
X-59458D01*
Y56906D01*
X-52742D01*
Y48224D01*
X-53778D01*
Y29065D01*
G03X-49710Y19244I13889J0D01*
G37*
G36*
G01X57262Y5580D02*
X47780Y15062D01*
G03X46968Y15398I-812J-813D01*
G01X45239D01*
G02Y17602I-3639J1102D01*
G01X46968D01*
G02X49338Y16620I0J-3351D01*
G01X58820Y7138D01*
G02X59802Y4768I-2369J-2370D01*
G01Y-4655D01*
G03X60307Y-5604I1144J0D01*
G03X60930Y-5272I223J332D01*
G01Y-4180D01*
X66070D01*
Y-9320D01*
X64602D01*
Y-10631D01*
X67645D01*
Y-16165D01*
X59355D01*
Y-10631D01*
X62398D01*
Y-9320D01*
X60930D01*
Y-8001D01*
G02X57598Y-4655I14J3346D01*
G01Y4768D01*
G03X57262Y5580I-1149J0D01*
G37*
G36*
G01X56570Y-11980D02*
Y-17120D01*
X51430D01*
Y-11980D01*
X52898D01*
Y-9320D01*
X51430D01*
Y-4180D01*
X56570D01*
Y-9320D01*
X55102D01*
Y-11980D01*
X56570D01*
G37*
G36*
G01X80934Y-23621D02*
Y-25270D01*
X78746D01*
Y-23621D01*
X78745Y-23610D01*
G02X78738Y-23488I1095J124D01*
G01Y-21106D01*
G02X80942Y-21192I1162J1506D01*
G01Y-23488D01*
G02X80935Y-23610I-1102J2D01*
G01X80934Y-23621D01*
G37*
G36*
G01X77194Y-25270D02*
X75006D01*
Y-23621D01*
X75005Y-23610D01*
G02X74998Y-23488I1095J124D01*
G01Y-20076D01*
G02X76493Y-16468I5101J0D01*
G01X76913Y-16048D01*
G03X77050Y-15898I-1532J1537D01*
G01X77096Y-15842D01*
Y-15570D01*
X76080D01*
Y-10430D01*
X77548D01*
Y-9397D01*
G03X76845Y-9137I-400J0D01*
G02X74248Y-6386I-1444J1238D01*
G03X73917Y-5825I-1250J-359D01*
G01X73362Y-5270D01*
X69780D01*
Y-130D01*
X74920D01*
Y-3712D01*
X75475Y-4267D01*
G02X75724Y-4545I-2482J-2473D01*
G03X76080Y-4419I156J126D01*
G01Y-130D01*
X77548D01*
Y5930D01*
X76080D01*
Y11070D01*
X77548D01*
Y13375D01*
G02X79752Y13814I802J1725D01*
G01Y11070D01*
X81220D01*
Y5930D01*
X79752D01*
Y-130D01*
X81220D01*
Y-5270D01*
X79752D01*
Y-10430D01*
X81220D01*
Y-15570D01*
X79625D01*
X79583Y-15715D01*
G02X78471Y-17606I-4205J1200D01*
G01X78051Y-18026D01*
G03X77202Y-20076I2050J-2050D01*
G01Y-23488D01*
G02X77195Y-23610I-1102J2D01*
G01X77194Y-23621D01*
Y-25270D01*
G37*
G36*
G01X73454Y-23621D02*
Y-25270D01*
X71266D01*
Y-23621D01*
X71265Y-23610D01*
G02X71258Y-23488I1095J124D01*
G01Y-21863D01*
X71248Y-21853D01*
Y-15570D01*
X69780D01*
Y-10430D01*
X74920D01*
Y-15570D01*
X73452D01*
Y-20941D01*
X73462Y-20951D01*
Y-23488D01*
G02X73455Y-23610I-1102J2D01*
G01X73454Y-23621D01*
G37*
G36*
G01X88054Y-23721D02*
Y-25370D01*
X85866D01*
Y-23721D01*
X85865Y-23710D01*
G02X85858Y-23588I1095J124D01*
G01Y-21963D01*
X85848Y-21953D01*
Y-15670D01*
X84380D01*
Y-10530D01*
X89520D01*
Y-15670D01*
X88052D01*
Y-21041D01*
X88062Y-21051D01*
Y-23588D01*
G02X88055Y-23710I-1102J2D01*
G01X88054Y-23721D01*
G37*
G36*
G01X-4961Y-14203D02*
G03X-5243Y-13520I-282J283D01*
G01X-5470D01*
Y-8380D01*
X-330D01*
Y-8628D01*
X2250D01*
G02X3091Y-8785I2J-2322D01*
G01X3125Y-8798D01*
X3549D01*
X4449Y-9698D01*
X6148D01*
Y-5778D01*
X7248D01*
Y-5119D01*
X153Y1976D01*
G03X-530Y1694I-283J-282D01*
G01Y1680D01*
X-5670D01*
Y3148D01*
X-9730D01*
Y1680D01*
X-14870D01*
Y3148D01*
X-17530D01*
Y1680D01*
X-22670D01*
Y6820D01*
X-17530D01*
Y5352D01*
X-14870D01*
Y6820D01*
X-9730D01*
Y5352D01*
X-5670D01*
Y6820D01*
X-530D01*
Y5352D01*
X-107D01*
X8806Y-3562D01*
X9877D01*
Y-2048D01*
X11798D01*
Y-1549D01*
X10798Y-549D01*
Y-141D01*
X10789Y-111D01*
G02X10678Y600I2211J709D01*
G01Y5980D01*
X10430D01*
Y11120D01*
X15570D01*
Y5980D01*
X15322D01*
Y1290D01*
G03X16005Y1007I400J0D01*
G01X19201Y4202D01*
X19189Y4299D01*
G02X21256Y6416I1889J223D01*
G01X21349Y6407D01*
X25998Y11056D01*
Y11380D01*
X24530D01*
Y16520D01*
X29670D01*
Y11380D01*
X28202D01*
Y10144D01*
X22947Y4889D01*
X22961Y4790D01*
G02X20855Y2633I-1883J-268D01*
G01X20758Y2645D01*
X16218Y-1896D01*
Y-6452D01*
X10552D01*
Y-12118D01*
X6148D01*
Y-12102D01*
X4849D01*
X3749Y-13202D01*
X2820D01*
X2797Y-13207D01*
G02X2250Y-13272I-546J2257D01*
G01X-330D01*
Y-13520D01*
X-1798D01*
Y-14156D01*
X-8046Y-20404D01*
X-7983Y-20532D01*
G02X-9732Y-18783I-3417J-1668D01*
G01X-9604Y-18846D01*
X-4961Y-14203D01*
G37*
G36*
G01X39970Y-48652D02*
Y-50120D01*
X34830D01*
Y-44980D01*
X39970D01*
Y-46448D01*
X44930D01*
Y-44880D01*
X50070D01*
Y-50020D01*
X44930D01*
Y-48652D01*
X39970D01*
G37*
G36*
G01X84802Y-64443D02*
G02X83993Y-67199I-5102J1D01*
G02X81967Y-65515I-3293J-1901D01*
G03X82484Y-65249I133J377D01*
G03X82598Y-64443I-2785J805D01*
G01Y-55520D01*
X81130D01*
Y-50380D01*
X85858D01*
Y-49220D01*
X81130D01*
Y-47752D01*
X74970D01*
Y-49220D01*
X69830D01*
Y-44080D01*
X71298D01*
Y-37089D01*
X71258Y-37049D01*
Y-34512D01*
G02X71265Y-34390I1102J-2D01*
G01X71266Y-34379D01*
Y-32730D01*
X73454D01*
Y-33410D01*
X75006D01*
Y-32730D01*
X77194D01*
Y-34379D01*
X77195Y-34390D01*
G02Y-34634I-1095J-122D01*
G01X77194Y-34645D01*
Y-36294D01*
X75006D01*
Y-35614D01*
X73462D01*
Y-36137D01*
X73502Y-36177D01*
Y-44080D01*
X74970D01*
Y-45548D01*
X81130D01*
Y-44080D01*
X85858D01*
Y-34612D01*
G02X85865Y-34490I1102J-2D01*
G01X85866Y-34479D01*
Y-32830D01*
X88054D01*
Y-33510D01*
X89606D01*
Y-32830D01*
X91794D01*
Y-34479D01*
X91795Y-34490D01*
G02Y-34734I-1095J-122D01*
G01X91794Y-34745D01*
Y-36394D01*
X89606D01*
Y-35714D01*
X88062D01*
Y-51848D01*
X90330D01*
Y-50380D01*
X95470D01*
Y-55520D01*
X90330D01*
Y-54052D01*
X86270D01*
Y-55520D01*
X84802D01*
Y-64443D01*
G37*
G36*
G01X49351Y-66593D02*
X50377Y-67619D01*
X50513Y-67531D01*
G02X49008Y-69517I1987J-3069D01*
G01X49044Y-69402D01*
X47793Y-68151D01*
G02X46298Y-64543I3606J3608D01*
G01Y-56320D01*
X44930D01*
Y-51180D01*
X50070D01*
Y-56320D01*
X48502D01*
Y-64543D01*
G03X49351Y-66593I2899J0D01*
G37*
G36*
G01X21598Y-67054D02*
Y-63644D01*
X24298Y-60944D01*
Y-56475D01*
X24098Y-56275D01*
Y-55520D01*
X22630D01*
Y-50380D01*
X27770D01*
Y-55520D01*
X26502D01*
Y-61856D01*
X23802Y-64556D01*
Y-67184D01*
G02X21456Y-67096I-1303J-3416D01*
G01X21598Y-67054D01*
G37*
G36*
G01X11831Y-67006D02*
X11892Y-66994D01*
X12827Y-66059D01*
G03X13298Y-64921I-1139J1138D01*
G01Y-55320D01*
X11830D01*
Y-50180D01*
X16970D01*
Y-55320D01*
X15502D01*
Y-64921D01*
G02X14737Y-67211I-3813J1D01*
G03X14805Y-67762I320J-240D01*
G02X11831Y-67006I-2305J-2838D01*
G37*
G36*
G01X1645Y-67045D02*
X1798Y-67008D01*
Y-55320D01*
X330D01*
Y-50180D01*
X5470D01*
Y-55320D01*
X4002D01*
Y-67267D01*
G02X1645Y-67045I-1503J-3333D01*
G37*
G54D33*
X32500Y-70600D03*
G54D32*
X-26100Y85635D03*
%LPD*%
G75*
G36*
G01X12400Y-4400D02*
Y-1200D01*
X13700D01*
Y-4400D01*
X12400D01*
G37*
G36*
G01X11400Y600D02*
Y-300D01*
X12400Y-1300D01*
X13700D01*
X14600Y-400D01*
Y600D01*
X11400D01*
G37*
G36*
G01X8700Y-10300D02*
Y-11500D01*
X4000D01*
Y-10300D01*
X8700D01*
G37*
G36*
G01X2200Y-9400D02*
X3300D01*
X4200Y-10300D01*
Y-11900D01*
X3500Y-12600D01*
X2200D01*
Y-9400D01*
G37*
G36*
G01X12200Y61100D02*
Y56500D01*
X13400D01*
Y61100D01*
X12200D01*
G37*
G36*
G01Y56800D02*
X11300Y55900D01*
Y54800D01*
X14500D01*
Y55700D01*
X13400Y56800D01*
X12200D01*
G37*
G36*
G01X23000Y68000D02*
Y66900D01*
X28100D01*
Y68000D01*
X23000D01*
G37*
G36*
G01X30000Y69000D02*
X28400D01*
X27400Y68000D01*
Y66900D01*
X28500Y65800D01*
X30000D01*
Y69000D01*
G37*
G54D10*
X-52100Y-71700D03*
Y-49900D03*
X-52200Y-21800D03*
Y0D03*
X88900Y56500D03*
Y78300D03*
G54D20*
X13047Y-19550D03*
X11079D03*
Y-4250D03*
X13047D03*
X20921Y-19550D03*
X18953D03*
X16984D03*
X15016D03*
Y-4250D03*
X16984D03*
X18953D03*
X20921D03*
G54D11*
X-52100Y-71700D03*
Y-49900D03*
X-57000Y-42500D03*
X-56800Y-35600D03*
X-57300Y-29100D03*
X-52200Y-21800D03*
Y0D03*
X-51800Y12100D03*
X-56200Y7600D03*
X-57000Y16600D03*
X-56100Y85635D03*
X-37600Y-64900D03*
X-39500Y-55300D03*
X-45400Y-42700D03*
X-45700Y-35500D03*
X-45500Y-29200D03*
X-46800Y6900D03*
X-40800Y15500D03*
X-42800Y24300D03*
X-50200Y23700D03*
X-42600Y33200D03*
X-50700Y33500D03*
X-43000Y42100D03*
X-50200Y42200D03*
X-48100Y66700D03*
X-43100D03*
X-38100D03*
X-48100Y61700D03*
X-43100D03*
X-38100D03*
X-48100Y76700D03*
X-43100D03*
X-38100D03*
X-48100Y71700D03*
X-43100D03*
X-38100D03*
X-29100Y-67500D03*
X-37100Y-72300D03*
X-25500Y-55600D03*
X-35300Y-42500D03*
X-26800Y-47200D03*
Y-43100D03*
X-24950Y-30650D03*
X-35300Y-25200D03*
Y-17600D03*
X-24450Y15250D03*
X-34100Y7900D03*
X-31100Y15100D03*
X-33900Y23500D03*
X-24200Y23000D03*
X-25400Y32500D03*
X-35300Y32400D03*
X-35600Y42100D03*
X-27300D03*
X-33100Y66700D03*
Y61700D03*
Y76700D03*
Y71700D03*
X-22000Y-47200D03*
X-22100Y-42900D03*
X-12400Y53400D03*
X-18700Y53800D03*
X-12500Y58700D03*
X-18900Y59100D03*
X-12200Y63600D03*
X-18600Y64000D03*
X-11900Y68800D03*
X-18800Y69000D03*
X-12000Y74500D03*
X-19100Y74700D03*
X-12300Y80300D03*
X-19200Y80200D03*
X-12500Y85100D03*
X-19100D03*
X-7300Y-67500D03*
X-600Y-64200D03*
X-800Y-58800D03*
X-5000Y-47128D03*
X-700Y47400D03*
X7300Y-65200D03*
X7200Y-58800D03*
X6100Y-27700D03*
X4000Y14900D03*
X7800Y11800D03*
X8400Y2900D03*
X8700Y20200D03*
X8500Y35500D03*
X7600Y42700D03*
X7400Y49100D03*
X8300Y53600D03*
X20300Y-59400D03*
X28350Y-27250D03*
X21078Y4522D03*
X18600Y11800D03*
X18000Y28700D03*
X17100Y20400D03*
X17300Y35500D03*
X28300Y37100D03*
X28600Y31600D03*
X18500Y42800D03*
X18300Y49200D03*
X17600Y53600D03*
X28200Y48800D03*
X28000Y43200D03*
X31300Y-65300D03*
X42300Y-60000D03*
X37900Y-38500D03*
X33800Y8200D03*
X37000Y30600D03*
X36300Y48900D03*
X31100Y63200D03*
X38500Y62800D03*
X31400Y71400D03*
X38000Y71200D03*
X42600Y-65700D03*
X53600Y-63700D03*
X53900Y-57600D03*
X47200Y-38500D03*
X48800Y-10900D03*
X54000Y5000D03*
X51800Y31100D03*
X43400Y31600D03*
X43900Y49100D03*
X51700D03*
X51300Y63000D03*
X44400Y62900D03*
X51300Y71900D03*
X44700Y71800D03*
X65500Y-69700D03*
X59600Y-69800D03*
X60000Y-63700D03*
X60200Y-57600D03*
X65800Y-63900D03*
X67100Y-57500D03*
X55900Y-52300D03*
X63100Y-52100D03*
X68100Y-39100D03*
X63500Y5000D03*
X65200Y10900D03*
X59200Y31200D03*
X68800D03*
X68400Y49200D03*
X59900Y49000D03*
X65000Y62600D03*
X57600Y62700D03*
X57400Y72100D03*
X65000Y72200D03*
X71900Y-69800D03*
Y-63900D03*
X77000Y-59300D03*
X79300Y-39500D03*
X79900Y-19600D03*
X75400Y-7900D03*
X78350Y15100D03*
X78200Y31400D03*
X77900Y49200D03*
X81900Y61500D03*
X72000Y62600D03*
X82000Y73500D03*
X72200Y72400D03*
X72600Y88200D03*
X80100Y88100D03*
X89800Y-59800D03*
X94737Y-19198D03*
X90200Y-8000D03*
X93200Y30900D03*
X86000D03*
X93600Y38000D03*
X84700Y49000D03*
X93800D03*
Y43100D03*
X94800Y61400D03*
X88900Y61500D03*
Y56500D03*
X94800Y73700D03*
X88900D03*
Y78300D03*
X87000Y88100D03*
X93700Y88000D03*
G54D30*
G01X-56100Y52565D02*
Y29065D01*
G03X-51352Y17602I16211J0D01*
G01X-29100Y-4650D01*
G01X-51650Y-10900D02*
X-32019D01*
X-31969Y-10950D01*
X-29100D01*
G01D02*
X-20200D01*
G01X-2900Y-4650D02*
X-12100D01*
G01D02*
X-20200D01*
G01X-2900Y-10950D02*
X2250D01*
G01X13000Y600D02*
Y8550D01*
G01X12969Y25741D02*
X13000Y25710D01*
Y14850D01*
G01X12969Y30859D02*
Y41381D01*
X12900Y41450D01*
G01Y47750D02*
Y54800D01*
G01X29700Y67400D02*
X45250D01*
G01X51550D02*
X88350D01*
G54D21*
X8350Y-16821D03*
Y-14853D03*
Y-12884D03*
Y-10916D03*
Y-8947D03*
Y-6979D03*
X23650Y-12884D03*
Y-14853D03*
Y-16821D03*
Y-6979D03*
Y-8947D03*
Y-10916D03*
G54D12*
X-51550Y-60800D03*
X-51650Y-10900D03*
X88350Y67400D03*
G54D31*
G01X-51550Y-60800D02*
X-40657Y-60700D01*
G03X-37828Y-59528I0J4000D01*
G01X-31250Y-52950D01*
Y-35700D01*
G01D02*
X-31300Y-35650D01*
Y-27400D01*
X-27300Y-23400D01*
Y-22000D01*
G01D02*
X-25200D01*
X-18900Y-28300D01*
X-6200D01*
X5000Y-17100D01*
X8071D01*
X8350Y-16821D01*
G01X-18200Y-66950D02*
X-18500Y-45043D01*
G02X-17572Y-42804I3165J0D01*
G01X-13635Y-38867D01*
G03X-13400Y-38300I-567J567D01*
G01D02*
X-10100D01*
X7847Y-20353D01*
G02X9785Y-19550I1938J-1937D01*
G01X11079D01*
G01X-24950Y-35700D02*
Y-30650D01*
G01X-20100Y4250D02*
X-12300D01*
G01X-3100Y10550D02*
X-6778Y14228D01*
G03X-9607Y15400I-2829J-2828D01*
G01X-24300D01*
X-24450Y15250D01*
G01X-14350Y29400D02*
Y19800D01*
G01Y39000D02*
Y29400D01*
G01Y47400D02*
Y39000D01*
G01X-26100Y52565D02*
X-26065D01*
X-22172Y48672D01*
G03X-19343Y47500I2829J2828D01*
G01X-14450D01*
X-14350Y47400D01*
G01X-5000Y-47128D02*
X-4700Y-46828D01*
Y-39457D01*
G02X-3528Y-36628I4000J0D01*
G01X-1100Y-34200D01*
G01D02*
X5400Y-27700D01*
X6100D01*
G01X-1099Y-34200D02*
X-1100D01*
G01X-11400Y-22200D02*
X-2900Y-13700D01*
Y-10950D01*
G01X8350Y-4663D02*
X-563Y4250D01*
X-3100D01*
G01D02*
X-12300D01*
G01X-8050Y39000D02*
X-3800Y34750D01*
Y34200D01*
X-3394Y33794D01*
G02X-3100Y33085I-708J-709D01*
G01Y10550D01*
G01X31800Y78800D02*
X30994Y79606D01*
G02X30300Y81281I1674J1675D01*
G01Y81730D01*
G03X29401Y83899I-3068J-1D01*
G01X25972Y87328D01*
G03X23143Y88500I-2829J-2828D01*
G01X-343D01*
G03X-3172Y87328I0J-4000D01*
G01X-6878Y83622D01*
G03X-8050Y80793I2828J-2829D01*
G01Y47400D01*
G01D02*
X-700D01*
G01X12816Y80055D02*
Y83057D01*
G03X11273Y84600I-1543J0D01*
G01X232D01*
G03X-335Y84365I0J-802D01*
G01X-2628Y82072D01*
G03X-3800Y79243I2828J-2829D01*
G01Y57457D01*
G03X-2628Y54628I4000J0D01*
G01X2828Y49172D01*
G02X4000Y46343I-2828J-2829D01*
G01Y14900D01*
G01X2900Y-52750D02*
Y-70200D01*
X2500Y-70600D01*
G01X14400Y-52750D02*
Y-64921D01*
G02X13606Y-66838I-2711J0D01*
G01X12500Y-67944D01*
Y-70600D01*
G01X2900Y-46450D02*
X3300Y-36800D01*
G01D02*
X13047Y-25553D01*
Y-19550D01*
G01X15016Y-12884D02*
X13047Y-14853D01*
X8350D01*
G01X8200Y-12800D02*
X8284Y-12884D01*
X8350D01*
G01X11079Y-4250D02*
X10666Y-4663D01*
X8350D01*
G01D02*
Y-6979D01*
G01D02*
Y-8947D01*
G01X15016Y-12884D02*
X8350D01*
G01X13000Y8550D02*
X13047Y8503D01*
G01X4145Y69416D02*
X12816D01*
X13800Y70400D01*
G01X25200Y-52950D02*
Y-55819D01*
X25400Y-56019D01*
Y-61400D01*
X22700Y-64100D01*
Y-70400D01*
X22500Y-70600D01*
G01X25200Y-46650D02*
X25100Y-36900D01*
G01X14400Y-46450D02*
X14500Y-36800D01*
G01X25100Y-36900D02*
X25200Y-32100D01*
X16984Y-23884D01*
Y-19550D01*
G01X18953D02*
Y-20880D01*
G03X19781Y-22878I2825J0D01*
G01X29928Y-33025D01*
G02X31100Y-35854I-2828J-2829D01*
G01Y-53824D01*
G01X14500Y-36800D02*
X14400Y-32456D01*
G02X14652Y-31848I859J0D01*
G01X15016Y-31484D01*
Y-19550D01*
G01X23650Y-16821D02*
Y-18321D01*
X22421Y-19550D01*
G01D02*
X24793D01*
G02X27622Y-20722I0J-4000D01*
G01X31716Y-24816D01*
G01X22421Y-19550D02*
X20921D01*
G01X16000Y-11900D02*
X15016Y-12884D01*
G01X34900Y-14550D02*
X32438Y-12088D01*
G03X29609Y-10916I-2829J-2828D01*
G01X23650D01*
G01X36400Y-5840D02*
X36260Y-5700D01*
X28600D01*
X27321Y-6979D01*
X23650D01*
G01X54000Y-450D02*
X48450Y5100D01*
X31700D01*
X23650Y-2950D01*
Y-6979D01*
G01X15016Y-4250D02*
Y-1540D01*
X21078Y4522D01*
G01X43700Y-6950D02*
X39600Y-11050D01*
X33450D01*
X31347Y-8947D01*
X23650D01*
G01X16000Y-11900D02*
X16984Y-10916D01*
G01X18953Y-8947D02*
X20921Y-6979D01*
Y-4250D01*
G01X16984Y-10916D02*
X18953Y-8947D01*
G01X16984Y-10916D02*
Y-4250D01*
G01X18953Y-8947D02*
Y-4250D01*
G01X27100Y13950D02*
Y10600D01*
X21078Y4578D01*
Y4522D01*
G01X23455Y71384D02*
X23999D01*
G03X28753Y73353I0J6724D01*
G01X32034Y76634D01*
Y78566D01*
X31800Y78800D01*
G01X42500Y-70600D02*
X41800D01*
X31100Y-59900D01*
Y-53824D01*
G01X37400Y-53850D02*
X37374Y-53824D01*
X31100D01*
G01X47500Y-47450D02*
X47400Y-47550D01*
X37400D01*
G01X31716Y-24816D02*
X30105Y-26427D01*
G02X29446Y-26700I-659J659D01*
G01X28900D01*
X28350Y-27250D01*
G01X43800Y-14550D02*
X34900D01*
G01X54969Y-33119D02*
X47838Y-25988D01*
G03X45009Y-24816I-2829J-2828D01*
G01X31716D01*
G01X31800Y78800D02*
X35450D01*
X35500Y78850D01*
G01X48900Y78750D02*
X48800Y78850D01*
X35500D01*
G01X47500Y-53750D02*
X47400Y-53850D01*
Y-64543D01*
G03X48572Y-67372I4000J0D01*
G01X51800Y-70600D01*
X52500D01*
G01X54969Y-33119D02*
X52281D01*
X47200Y-38200D01*
Y-38500D01*
G01X48800Y-10900D02*
Y-12805D01*
G02X47055Y-14550I-1745J0D01*
G01X43800D01*
G01X41600Y16500D02*
X46968D01*
G02X48559Y15841I0J-2250D01*
G01X58041Y6359D01*
G02X58700Y4768I-1591J-1591D01*
G01Y-4655D01*
G03X60945Y-6900I2245J0D01*
G01X63350D01*
X63500Y-6750D01*
G01X63000Y78750D02*
X48900D01*
G01X45250Y67400D02*
X45203Y67447D01*
G01X55150Y-33300D02*
X55250Y-33400D01*
Y-46100D01*
G01X54969Y-33119D02*
X55150Y-33300D01*
G01Y-32550D02*
Y-33300D01*
G01X54000Y-6750D02*
Y-14550D01*
G01X63500Y-6750D02*
Y-13398D01*
G01Y-450D02*
Y5000D01*
G01X54000D02*
Y-450D01*
G01X55700Y16700D02*
X72643D01*
G03X75472Y17872I0J4000D01*
G01X78028Y20428D01*
G02X80857Y21600I2829J-2828D01*
G01X83981D01*
X84081Y21700D01*
X86950D01*
G01X83700Y-46650D02*
X72400D01*
G01D02*
Y-36633D01*
X72360Y-36593D01*
Y-34512D01*
G01X76100D02*
X72360D01*
G01X72350Y-13000D02*
Y-21397D01*
X72360Y-21407D01*
Y-23488D01*
G01X78650Y-2700D02*
Y-13000D01*
G01D02*
Y-14514D01*
G02X77692Y-16827I-3271J0D01*
G01X77272Y-17247D01*
G03X76100Y-20076I2828J-2829D01*
G01Y-23488D01*
G01X79840D02*
Y-19660D01*
X79900Y-19600D01*
G01X78650Y-2700D02*
Y8500D01*
G01X72350Y-2700D02*
X74696Y-5046D01*
G02X75400Y-6745I-1698J-1699D01*
G01Y-7900D01*
G01X78350Y15100D02*
X78650Y14800D01*
Y8500D01*
G01X80700Y-69100D02*
X82528Y-67272D01*
G03X83700Y-64443I-2828J2829D01*
G01Y-52950D01*
G01X87000D02*
X92900D01*
G01X86960Y-34612D02*
Y-52910D01*
X87000Y-52950D01*
G01X83700D02*
X87000D01*
G01X90700Y-34612D02*
X86960D01*
G01X93250Y-2800D02*
Y-13100D01*
G01D02*
Y-14614D01*
G02X92292Y-16927I-3271J0D01*
G01X91872Y-17347D01*
G03X90700Y-20176I2828J-2829D01*
G01Y-23588D01*
G01X86950Y-13100D02*
Y-21497D01*
X86960Y-21507D01*
Y-23588D01*
G01X93250Y8500D02*
Y-2800D01*
G01X86950D02*
X89567Y-5417D01*
G02X90200Y-6945I-1528J-1528D01*
G01Y-8000D01*
G01X93250Y21700D02*
Y8500D01*
G01X94440Y-23588D02*
X94737Y-23291D01*
Y-19198D01*
G54D22*
X9425Y28300D03*
G54D13*
X-56100Y52565D03*
Y85635D03*
X-26100Y52565D03*
Y85635D03*
G54D23*
X12969Y25741D03*
Y30859D03*
G54D14*
X-29100Y-67500D03*
X-7300D03*
G54D24*
X13800Y70400D03*
G54D15*
X-31250Y-35700D03*
X-24950D03*
X-29100Y-10950D03*
Y-4650D03*
X-20200D03*
Y-10950D03*
X-12100Y-4650D03*
Y-10950D03*
X-12300Y4250D03*
Y10550D03*
X-20100Y4250D03*
Y10550D03*
X-14350Y19800D03*
Y29400D03*
Y39000D03*
Y47400D03*
X-2900Y-10950D03*
Y-4650D03*
X-3100Y10550D03*
Y4250D03*
X-8050Y19800D03*
Y29400D03*
Y39000D03*
Y47400D03*
X2900Y-52750D03*
X14400D03*
X2900Y-46450D03*
X14400D03*
X13000Y14850D03*
Y8550D03*
X12900Y41450D03*
Y47750D03*
X25200Y-52950D03*
Y-46650D03*
X27100Y13950D03*
Y20250D03*
X37400Y-53850D03*
Y-47550D03*
X34900Y-20850D03*
Y-14550D03*
X35500Y78850D03*
Y85150D03*
X47500Y-53750D03*
X55250Y-46100D03*
X47500Y-47450D03*
X55150Y-33300D03*
X43800Y-20850D03*
Y-14550D03*
X54000D03*
Y-20850D03*
Y-450D03*
Y-6750D03*
X43700Y-650D03*
Y-6950D03*
X51550Y67400D03*
X45250D03*
X48900Y78750D03*
Y85050D03*
X61550Y-46100D03*
X61450Y-33300D03*
X63500Y-6750D03*
Y-450D03*
X63000Y78750D03*
Y85050D03*
X72400Y-52950D03*
Y-46650D03*
X78650Y-13000D03*
X72350D03*
X78650Y-2700D03*
X72350D03*
X78650Y8500D03*
X72350D03*
X92900Y-52950D03*
X83700D03*
X92900Y-46650D03*
X83700D03*
X93250Y-13100D03*
X86950D03*
X93250Y-2800D03*
X86950D03*
X93250Y8500D03*
X86950D03*
Y21700D03*
X93250D03*
G54D25*
X12816Y60745D03*
X10847D03*
X8879D03*
X6910D03*
Y80055D03*
X8879D03*
X10847D03*
X12816D03*
X20690Y60745D03*
X18721D03*
X16753D03*
X14784D03*
Y80055D03*
X16753D03*
X18721D03*
X20690D03*
G54D16*
X-27300Y-22000D03*
X-13400Y-48300D03*
Y-38300D03*
X-11400Y-22200D03*
X3300Y-36800D03*
X14500D03*
X25100Y-36900D03*
X41600Y16500D03*
X55700Y16700D03*
X80700Y-69100D03*
X90700D03*
G54D26*
X4145Y63510D03*
Y65479D03*
Y67447D03*
Y69416D03*
Y71384D03*
Y73353D03*
Y75321D03*
Y77290D03*
X23455Y65479D03*
Y63510D03*
Y77290D03*
Y75321D03*
Y73353D03*
Y71384D03*
Y69416D03*
Y67447D03*
G54D17*
X-18200Y-66950D03*
G54D27*
X36400Y-5840D03*
Y1640D03*
G54D18*
X2500Y-70600D03*
X12500D03*
X22500D03*
X42500D03*
X32500D03*
X52500D03*
G54D28*
X63500Y-25602D03*
Y-13398D03*
G54D19*
X16000Y-11900D03*
G54D29*
X79840Y-34512D03*
X76100D03*
X72360D03*
X79840Y-23488D03*
X76100D03*
X72360D03*
X90700Y-34612D03*
X86960D03*
X90700Y-23588D03*
X86960D03*
X94440Y-34612D03*
Y-23588D03*
M02*
