G04 ================== begin FILE IDENTIFICATION RECORD ==================*
G04 Layout Name:  C:/Users/Dart/Desktop/FMCW/FMCW/PCB/Transmitter/PLL_VCO_FINAL.brd*
G04 Film Name:    BOTTOM*
G04 File Format:  Gerber RS274X*
G04 File Origin:  Cadence Allegro 16.6-S042*
G04 Origin Date:  Sun Feb 28 21:55:35 2016*
G04 *
G04 Layer:  ETCH/BOTTOM*
G04 Layer:  PIN/BOTTOM*
G04 Layer:  VIA CLASS/BOTTOM*
G04 *
G04 Offset:    (0.00 0.00)*
G04 Mirror:    No*
G04 Mode:      Positive*
G04 Rotation:  0*
G04 FullContactRelief:  No*
G04 UndefLineWidth:     3.00*
G04 ================== end FILE IDENTIFICATION RECORD ====================*
%FSLAX35Y35*MOIN*%
%IR0*IPPOS*OFA0.00000B0.00000*MIA0B0*SFA1.00000B1.00000*%
%ADD13C,.06*%
%ADD11C,.026*%
%ADD12R,.059X.156*%
%ADD10R,.156X.059*%
%ADD14C,.05709*%
%ADD15C,.008*%
%ADD17C,.07312*%
%ADD18C,.03804*%
%ADD16C,.07604*%
G75*
%LPD*%
G75*
G36*
G01X-60000Y-75400D02*
X-60574Y91600D01*
X96756D01*
X96982Y-17820D01*
G02X96261Y-18060I-400J-1D01*
G03X94564Y-17304I-1524J-1138D01*
G01X94470Y-17312D01*
X92151Y-14993D01*
G02X91302Y-12943I2050J2050D01*
G01Y-9551D01*
G03X89098I-1102J1551D01*
G01Y-12943D01*
G03X90593Y-16551I5101J0D01*
G01X92150Y-18108D01*
Y-18169D01*
X92860Y-18878D01*
X92848Y-18975D01*
G03X96266Y-20330I1889J-223D01*
G02X96987Y-20567I321J-238D01*
G01X97100Y-75300D01*
X-60000Y-75400D01*
G37*
%LPC*%
G75*
G36*
G01X61949Y3898D02*
X55551D01*
G02Y6102I-1551J1102D01*
G01X61949D01*
G02Y3898I1551J-1102D01*
G37*
G36*
G01X78023Y-19280D02*
X75793Y-17051D01*
G02X74298Y-13443I3606J3608D01*
G01Y-9451D01*
G02X76502I1102J1551D01*
G01Y-13443D01*
G03X77351Y-15493I2899J0D01*
G01X79580Y-17723D01*
X79677Y-17711D01*
G02X78011Y-19377I223J-1889D01*
G01X78023Y-19280D01*
G37*
G36*
G01X47520Y-36623D02*
X67898Y-16244D01*
Y12156D01*
X71944Y16202D01*
X76799D01*
G02Y13998I1551J-1102D01*
G01X72856D01*
X70102Y11244D01*
Y-17156D01*
X49077Y-38180D01*
X49089Y-38277D01*
G02X47423Y-36611I-1889J-223D01*
G01X47520Y-36623D01*
G37*
G36*
G01X-24843Y5599D02*
X-37249Y-6807D01*
G03X-38098Y-8857I2050J-2050D01*
G01Y-48244D01*
X-35644Y-50698D01*
X-17356D01*
X-16752Y-50094D01*
G02X-9761Y-47198I3352J1794D01*
G01X-9257D01*
G03X-7207Y-46349I0J2899D01*
G02X-6556Y-46034I779J-779D01*
G02X-6336Y-48482I1556J-1094D01*
G02X-9257Y-49402I-2923J4182D01*
G01X-9761D01*
G02X-15194Y-51652I-3639J1102D01*
G01X-16444Y-52902D01*
X-36556D01*
X-40302Y-49156D01*
Y-8857D01*
G02X-38807Y-5249I5101J0D01*
G01X-26401Y7157D01*
G03X-25552Y9207I-2050J2050D01*
G01Y13699D01*
G02X-23348I1102J1551D01*
G01Y9207D01*
G02X-24843Y5599I-5101J0D01*
G37*
G36*
G01X21250Y-65208D02*
X-11556Y-32402D01*
X-23040D01*
X-23386Y-32056D01*
G03X-23663Y-32050I-142J-141D01*
G02X-23399Y-29548I-1287J1401D01*
G01X-22778D01*
X-22128Y-30198D01*
X-10644D01*
X22808Y-63650D01*
G03X25339Y-64698I2531J2532D01*
G01X25343D01*
G02X28951Y-66193I0J-5101D01*
G01X30377Y-67619D01*
X30513Y-67531D01*
G02X29008Y-69517I1987J-3069D01*
G01X29044Y-69402D01*
X27393Y-67751D01*
G03X25343Y-66902I-2050J-2050D01*
G01X25339D01*
G02X21250Y-65208I0J5782D01*
G37*
G36*
G01X26643Y-32502D02*
X7557D01*
G02X3949Y-31007I0J5101D01*
G01X-307Y-26751D01*
G02X-1802Y-23143I3606J3608D01*
G01Y45849D01*
G02X402I1102J1551D01*
G01Y-23143D01*
G03X1251Y-25193I2899J0D01*
G01X3565Y-27507D01*
G03X4239Y-27307I283J283D01*
G02X4983Y-26161I1861J-394D01*
G03X4984Y-25515I-235J323D01*
G02X2898Y-21400I3016J4115D01*
G01Y13349D01*
G02X5102I1102J1551D01*
G01Y-21400D01*
G03X8000Y-24298I2898J0D01*
G01X24243D01*
G03X26293Y-23449I0J2899D01*
G01X39849Y-9893D01*
G03X40698Y-7843I-2050J2050D01*
G01Y12803D01*
X40554Y12845D01*
G02X42902Y12928I1046J3655D01*
G01Y-7843D01*
G02X41407Y-11451I-5101J0D01*
G01X27851Y-25007D01*
G02X27815Y-25043I-3626J3590D01*
G03X27992Y-25382I140J-143D01*
G02X30235Y-26998I358J-1868D01*
G03X30914Y-27228I396J53D01*
G01X46923Y-11220D01*
X46911Y-11123D01*
G02X47698Y-9349I1889J224D01*
G01Y8143D01*
G02X49193Y11751I5101J0D01*
G01X52346Y14904D01*
X52283Y15032D01*
G02X59339Y17802I3417J1667D01*
G01X59600D01*
G02Y15598I0J-1102D01*
G01X59339D01*
G02X54032Y13283I-3639J1102D01*
G01X53904Y13346D01*
X50751Y10193D01*
G03X49902Y8143I2050J-2050D01*
G01Y-9349D01*
G02X48577Y-12789I-1101J-1551D01*
G01X48480Y-12777D01*
X30251Y-31007D01*
G02X26643Y-32502I-3608J3606D01*
G37*
G54D17*
X2500Y-70600D03*
X12500D03*
X22500D03*
X42500D03*
X52500D03*
G54D18*
X21078Y4522D03*
G54D16*
X-27300Y-22000D03*
X-13400Y-38300D03*
X-11400Y-22200D03*
X3300Y-36800D03*
X14500D03*
X25100Y-36900D03*
X80700Y-69100D03*
%LPD*%
G75*
G36*
G01X7557Y-30298D02*
G02X6881Y-30219I-4J2899D01*
G02X6822Y-29460I93J389D01*
G03X7651Y-28802I-721J1760D01*
G01X27250D01*
G03X28033Y-29125I1099J1553D01*
G02X28178Y-29859I-67J-395D01*
G02X26643Y-30298I-1534J2460D01*
G01X7557D01*
G37*
G54D10*
X-52100Y-71700D03*
Y-49900D03*
X-52200Y-21800D03*
Y0D03*
X88900Y56500D03*
Y78300D03*
G54D11*
X-52100Y-71700D03*
Y-49900D03*
X-57000Y-42500D03*
X-56800Y-35600D03*
X-57300Y-29100D03*
X-52200Y-21800D03*
Y0D03*
X-51800Y12100D03*
X-56200Y7600D03*
X-57000Y16600D03*
X-56100Y85635D03*
X-37600Y-64900D03*
X-39500Y-55300D03*
X-45400Y-42700D03*
X-45700Y-35500D03*
X-45500Y-29200D03*
X-46800Y6900D03*
X-40800Y15500D03*
X-42800Y24300D03*
X-50200Y23700D03*
X-42600Y33200D03*
X-50700Y33500D03*
X-43000Y42100D03*
X-50200Y42200D03*
X-48100Y66700D03*
X-43100D03*
X-38100D03*
X-48100Y61700D03*
X-43100D03*
X-38100D03*
X-48100Y76700D03*
X-43100D03*
X-38100D03*
X-48100Y71700D03*
X-43100D03*
X-38100D03*
X-29100Y-67500D03*
X-37100Y-72300D03*
X-25500Y-55600D03*
X-35300Y-42500D03*
X-26800Y-47200D03*
Y-43100D03*
X-24950Y-30650D03*
X-35300Y-25200D03*
Y-17600D03*
X-24450Y15250D03*
X-34100Y7900D03*
X-31100Y15100D03*
X-33900Y23500D03*
X-24200Y23000D03*
X-25400Y32500D03*
X-35300Y32400D03*
X-35600Y42100D03*
X-27300D03*
X-33100Y66700D03*
Y61700D03*
Y76700D03*
Y71700D03*
X-22000Y-47200D03*
X-22100Y-42900D03*
X-12400Y53400D03*
X-18700Y53800D03*
X-12500Y58700D03*
X-18900Y59100D03*
X-12200Y63600D03*
X-18600Y64000D03*
X-11900Y68800D03*
X-18800Y69000D03*
X-12000Y74500D03*
X-19100Y74700D03*
X-12300Y80300D03*
X-19200Y80200D03*
X-12500Y85100D03*
X-19100D03*
X-7300Y-67500D03*
X-600Y-64200D03*
X-800Y-58800D03*
X-5000Y-47128D03*
X-700Y47400D03*
X7300Y-65200D03*
X7200Y-58800D03*
X6100Y-27700D03*
X4000Y14900D03*
X7800Y11800D03*
X8400Y2900D03*
X8700Y20200D03*
X8500Y35500D03*
X7600Y42700D03*
X7400Y49100D03*
X8300Y53600D03*
X20300Y-59400D03*
X28350Y-27250D03*
X21078Y4522D03*
X18600Y11800D03*
X18000Y28700D03*
X17100Y20400D03*
X17300Y35500D03*
X28300Y37100D03*
X28600Y31600D03*
X18500Y42800D03*
X18300Y49200D03*
X17600Y53600D03*
X28200Y48800D03*
X28000Y43200D03*
X31300Y-65300D03*
X42300Y-60000D03*
X37900Y-38500D03*
X33800Y8200D03*
X37000Y30600D03*
X36300Y48900D03*
X31100Y63200D03*
X38500Y62800D03*
X31400Y71400D03*
X38000Y71200D03*
X42600Y-65700D03*
X53600Y-63700D03*
X53900Y-57600D03*
X47200Y-38500D03*
X48800Y-10900D03*
X54000Y5000D03*
X51800Y31100D03*
X43400Y31600D03*
X43900Y49100D03*
X51700D03*
X51300Y63000D03*
X44400Y62900D03*
X51300Y71900D03*
X44700Y71800D03*
X65500Y-69700D03*
X59600Y-69800D03*
X60000Y-63700D03*
X60200Y-57600D03*
X65800Y-63900D03*
X67100Y-57500D03*
X55900Y-52300D03*
X63100Y-52100D03*
X68100Y-39100D03*
X63500Y5000D03*
X65200Y10900D03*
X59200Y31200D03*
X68800D03*
X68400Y49200D03*
X59900Y49000D03*
X65000Y62600D03*
X57600Y62700D03*
X57400Y72100D03*
X65000Y72200D03*
X71900Y-69800D03*
Y-63900D03*
X77000Y-59300D03*
X79300Y-39500D03*
X79900Y-19600D03*
X75400Y-7900D03*
X78350Y15100D03*
X78200Y31400D03*
X77900Y49200D03*
X81900Y61500D03*
X72000Y62600D03*
X82000Y73500D03*
X72200Y72400D03*
X72600Y88200D03*
X80100Y88100D03*
X89800Y-59800D03*
X94737Y-19198D03*
X90200Y-8000D03*
X93200Y30900D03*
X86000D03*
X93600Y38000D03*
X84700Y49000D03*
X93800D03*
Y43100D03*
X94800Y61400D03*
X88900Y61500D03*
Y56500D03*
X94800Y73700D03*
X88900D03*
Y78300D03*
X87000Y88100D03*
X93700Y88000D03*
G54D12*
X-29100Y-67500D03*
X-7300D03*
G54D13*
X-27300Y-22000D03*
X-13400Y-48300D03*
Y-38300D03*
X-11400Y-22200D03*
X3300Y-36800D03*
X14500D03*
X25100Y-36900D03*
X41600Y16500D03*
X55700Y16700D03*
X80700Y-69100D03*
X90700D03*
G54D14*
X2500Y-70600D03*
X12500D03*
X22500D03*
X42500D03*
X32500D03*
X52500D03*
G54D15*
G01X-24450Y15250D02*
Y9207D01*
G02X-25622Y6378I-4000J0D01*
G01X-38028Y-6028D01*
G03X-39200Y-8857I2828J-2829D01*
G01Y-48700D01*
X-36100Y-51800D01*
X-16900D01*
X-13400Y-48300D01*
G01D02*
X-9257D01*
G03X-6428Y-47128I0J4000D01*
G01X-5000D01*
G01X32500Y-70600D02*
X31800D01*
X28172Y-66972D01*
G03X25343Y-65800I-2829J-2828D01*
G01X25339D01*
G02X22029Y-64429I0J4681D01*
G01X-11100Y-31300D01*
X-22584D01*
X-23234Y-30650D01*
X-24950D01*
G01X48800Y-10900D02*
X29472Y-30228D01*
G02X26643Y-31400I-2829J2828D01*
G01X7557D01*
G02X4728Y-30228I0J4000D01*
G01X472Y-25972D01*
G02X-700Y-23143I2828J2829D01*
G01Y47400D01*
G01X28350Y-27250D02*
X27900Y-27700D01*
X6100D01*
G01X41600Y16500D02*
X41800Y16300D01*
Y-7843D01*
G02X40628Y-10672I-4000J0D01*
G01X27072Y-24228D01*
G02X24243Y-25400I-2829J2828D01*
G01X8000D01*
G02X4000Y-21400I0J4000D01*
G01Y14900D01*
G01X78350Y15100D02*
X72400D01*
X69000Y11700D01*
Y-16700D01*
X47200Y-38500D01*
G01X48800Y-10900D02*
Y8143D01*
G02X49972Y10972I4000J0D01*
G01X55700Y16700D01*
G01X54000Y5000D02*
X63500D01*
G01X55700Y16700D02*
X59600D01*
G01X75400Y-7900D02*
Y-13443D01*
G03X76572Y-16272I4000J0D01*
G01X79900Y-19600D01*
G01X90200Y-8000D02*
Y-12943D01*
G03X91372Y-15772I4000J0D01*
G01X93252Y-17652D01*
Y-17713D01*
X94737Y-19198D01*
M02*
