G04 ================== begin FILE IDENTIFICATION RECORD ==================*
G04 Layout Name:  C:/Users/Dart/Desktop/FMCW/FMCW/PCB/Transmitter/PLL_VCO_FINAL.brd*
G04 Film Name:    BOTTOM*
G04 File Format:  Gerber RS274X*
G04 File Origin:  Cadence Allegro 16.6-S042*
G04 Origin Date:  Fri Feb 26 13:31:46 2016*
G04 *
G04 Layer:  ETCH/BOTTOM*
G04 Layer:  PIN/BOTTOM*
G04 Layer:  VIA CLASS/BOTTOM*
G04 *
G04 Offset:    (0.00 0.00)*
G04 Mirror:    No*
G04 Mode:      Positive*
G04 Rotation:  0*
G04 FullContactRelief:  No*
G04 UndefLineWidth:     5.00*
G04 ================== end FILE IDENTIFICATION RECORD ====================*
%FSLAX35Y35*MOIN*%
%IR0*IPPOS*OFA0.00000B0.00000*MIA0B0*SFA1.00000B1.00000*%
%ADD13C,.06*%
%ADD11C,.024*%
%ADD12R,.059X.156*%
%ADD10R,.156X.059*%
%ADD14C,.05709*%
%ADD15C,.008*%
%ADD16C,.07004*%
%ADD17C,.06712*%
G75*
%LPD*%
G75*
G36*
G01X-60500Y70100D02*
X96800D01*
X97100Y-75300D01*
X-60000Y-75400D01*
X-60500Y70100D01*
G37*
%LPC*%
G75*
G36*
G01X44Y37898D02*
X-2859Y40802D01*
X-2946Y40799D01*
G02X-1299Y42446I-54J1701D01*
G01X-1302Y42359D01*
X956Y40102D01*
X17956D01*
X23402Y34656D01*
Y31797D01*
G02X21198I-1102J-1297D01*
G01Y33744D01*
X17044Y37898D01*
X44D01*
G37*
G36*
G01X38468Y18074D02*
X28898Y27644D01*
Y65903D01*
G02X31102I1102J1297D01*
G01Y28556D01*
X40026Y19632D01*
X40152Y19689D01*
G02X38411Y17948I1448J-3189D01*
G01X38468Y18074D01*
G37*
G36*
G01X2202Y14856D02*
X7956Y9102D01*
X19556D01*
X21859Y6798D01*
X21946Y6801D01*
G02X20299Y5154I54J-1701D01*
G01X20302Y5241D01*
X18644Y6898D01*
X7044D01*
X-2Y13944D01*
Y20056D01*
X98Y20156D01*
Y20500D01*
X35Y20559D01*
G02X2302Y20503I1165J1241D01*
G01Y19244D01*
X2202Y19144D01*
Y14856D01*
G37*
G36*
G01X62203Y3898D02*
X55297D01*
G02Y6102I-1297J1102D01*
G01X62203D01*
G02Y3898I1297J-1102D01*
G37*
G36*
G01X59483Y18141D02*
X72448Y31106D01*
Y58753D01*
G02X74652I1102J1297D01*
G01Y30194D01*
X60056Y15598D01*
X59024D01*
G02X54252Y13511I-3324J1102D01*
G01X54126Y13568D01*
X49902Y9344D01*
Y-9603D01*
G02X47698I-1102J-1297D01*
G01Y10256D01*
X52568Y15126D01*
X52511Y15252D01*
G02X58842Y18247I3189J1448D01*
G03X59483Y18141I359J177D01*
G37*
G36*
G01X92150Y-18108D02*
X89098Y-15056D01*
Y-9297D01*
G02X91302I1102J1297D01*
G01Y-14144D01*
X94354Y-17196D01*
Y-17257D01*
X94596Y-17500D01*
X94683Y-17497D01*
G02X93036Y-19144I54J-1701D01*
G01X93039Y-19057D01*
X92150Y-18169D01*
Y-18108D01*
G37*
G36*
G01X76502Y-14644D02*
X79759Y-17902D01*
X79846Y-17899D01*
G02X78199Y-19546I54J-1701D01*
G01X78202Y-19459D01*
X74298Y-15556D01*
Y-9197D01*
G02X76502I1102J1297D01*
G01Y-14644D01*
G37*
G36*
G01X28954Y-24999D02*
X29041Y-25002D01*
X29456Y-24586D01*
Y12706D01*
G03X28928Y13085I-400J0D01*
G02X24476Y15298I-1128J3315D01*
G01X6397D01*
G02Y17502I-1297J1102D01*
G01X24476D01*
G02X30989Y14952I3324J-1103D01*
G01X30932Y14826D01*
X31660Y14098D01*
Y-25498D01*
X30598Y-26559D01*
X30601Y-26646D01*
G02X27603Y-27802I-1701J-54D01*
G01X7697D01*
G02Y-25598I-1297J1102D01*
G01X27603D01*
G02X28954Y-24999I1297J-1102D01*
G37*
G36*
G01X-4841Y-47098D02*
X-7144Y-49402D01*
X-10076D01*
G02Y-47198I-3324J1102D01*
G01X-8056D01*
X-6398Y-45541D01*
X-6401Y-45454D01*
G02X-4754Y-47101I1701J54D01*
G01X-4841Y-47098D01*
G37*
G36*
G01X-4198Y-39644D02*
X20856Y-64698D01*
X27456D01*
X31235Y-68477D01*
X31360Y-68423D01*
G02X29623Y-70160I1340J-3077D01*
G01X29677Y-70035D01*
X26544Y-66902D01*
X19944D01*
X-6402Y-40556D01*
Y-33856D01*
X-8859Y-31398D01*
X-8946Y-31401D01*
G02X-7299Y-29754I-54J1701D01*
G01X-7302Y-29841D01*
X-4198Y-32944D01*
Y-39644D01*
G37*
G54D16*
X-31200Y-22900D03*
X-13400Y-38300D03*
X-17200Y-23000D03*
X2900Y-35700D03*
X14400Y-36000D03*
X25200D03*
X80700Y-69100D03*
G54D17*
X2700Y-71500D03*
X12700D03*
X22700D03*
X42700D03*
X52700D03*
%LPD*%
G75*
G54D10*
X-51100Y-71600D03*
Y-49800D03*
X-51200Y-21800D03*
Y0D03*
X88000Y40000D03*
Y61800D03*
G54D11*
X-57000Y-42500D03*
X-56800Y-35600D03*
X-57300Y-29100D03*
X-57100Y7200D03*
Y14300D03*
Y20900D03*
X-45400Y-42700D03*
X-45500Y-29200D03*
X-45700Y-35500D03*
X-49600Y7500D03*
X-46700Y23300D03*
X-38800Y23600D03*
X-39000Y16900D03*
X-36700Y-42000D03*
X-36300Y-50200D03*
X-29100Y-34900D03*
X-36500Y-35200D03*
X-30500Y9000D03*
X-31100Y23400D03*
X-30700Y17000D03*
X-22600Y23300D03*
X-22800Y16500D03*
X-19400Y54100D03*
X-12000Y54000D03*
X-19400Y66300D03*
X-19700Y60500D03*
X-11900Y66300D03*
Y60400D03*
X-4700Y-45400D03*
X-9000Y-29700D03*
X1200Y21800D03*
X-3000Y42500D03*
X-4900Y54000D03*
X-4800Y66500D03*
Y60800D03*
X6400Y-26700D03*
X5100Y16400D03*
X22000Y5100D03*
X22300Y30500D03*
X37900Y-38500D03*
X28900Y-26700D03*
X40700Y37100D03*
X34000Y37400D03*
X34200Y29700D03*
X40500D03*
X34000Y44000D03*
X39900Y43700D03*
X30000Y67200D03*
X53900Y-57600D03*
X53600Y-63700D03*
X47200Y-38500D03*
X48800Y-10900D03*
X54000Y5000D03*
X46400Y36900D03*
X51800D03*
X52600Y29400D03*
X46500Y29900D03*
X46100Y43800D03*
X52200Y43700D03*
X59600Y-69800D03*
X65500Y-69700D03*
X60200Y-57600D03*
X67100Y-57500D03*
X65800Y-63900D03*
X60000Y-63700D03*
X63500Y5000D03*
X58800Y37200D03*
X64600Y37100D03*
X58300Y29400D03*
X64200D03*
X57900Y44100D03*
X63700Y44500D03*
X71900Y-69800D03*
Y-63900D03*
X79900Y-19600D03*
X75400Y-7900D03*
X77800Y27300D03*
X71700Y21700D03*
X69700Y36900D03*
X77900Y32500D03*
X69800Y43800D03*
X73550Y60050D03*
X94737Y-19198D03*
X90200Y-8000D03*
X85300Y27600D03*
X92700Y28000D03*
X85200Y32900D03*
X92800Y33300D03*
G54D12*
X-29400Y-66300D03*
X-7600D03*
G54D13*
X-31200Y-22900D03*
X-13400Y-48300D03*
Y-38300D03*
X-17200Y-23000D03*
X2900Y-35700D03*
X14400Y-36000D03*
X25200D03*
X27800Y16400D03*
X41600Y16500D03*
X55700Y16700D03*
X80700Y-69100D03*
X90700D03*
G54D14*
X2700Y-71500D03*
X12700D03*
X22700D03*
X42700D03*
X32700D03*
X52700D03*
G54D15*
G01X-46700Y23300D02*
Y23200D01*
G01X-13400Y-48300D02*
X-7600D01*
X-4700Y-45400D01*
G01X-9000Y-29700D02*
X-5300Y-33400D01*
Y-40100D01*
X20400Y-65800D01*
X27000D01*
X32700Y-71500D01*
G01X-3000Y42500D02*
X500Y39000D01*
X17500D01*
X22300Y34200D01*
Y30500D01*
G01X28900Y-26700D02*
X6400D01*
G01X22000Y5100D02*
X19100Y8000D01*
X7500D01*
X1100Y14400D01*
Y19600D01*
X1200Y19700D01*
Y21800D01*
G01X5100Y16400D02*
X27800D01*
G01X28900Y-26700D02*
X30558Y-25042D01*
Y13642D01*
X27800Y16400D01*
G01X30000Y67200D02*
Y28100D01*
X41600Y16500D01*
G01X48800Y-10900D02*
Y9800D01*
X55700Y16700D01*
G01X54000Y5000D02*
X63500D01*
G01X73550Y60050D02*
Y30650D01*
X59600Y16700D01*
X55700D01*
G01X75400Y-7900D02*
Y-15100D01*
X79900Y-19600D01*
G01X94737Y-19198D02*
X93252Y-17713D01*
Y-17652D01*
X90200Y-14600D01*
Y-8000D01*
M02*
