 0
SECTION
 2
HEADER
 9
$ACADVER
 1
AC1009
 0
ENDSEC
 0
SECTION
 2
ENTITIES
 0
POLYLINE
 8
TITLE
 66
1
 70
1
 10
0.0
 20
0.0
 30
0.0
 0
VERTEX
 8
TITLE
 10
 -0.1000
 20
  0.1000
 30
0.0
 0
VERTEX
 8
TITLE
 10
 20.1000
 20
  0.1000
 30
0.0
 0
VERTEX
 8
TITLE
 10
 20.1000
 20
 15.3000
 30
0.0
 0
VERTEX
 8
TITLE
 10
 -0.1000
 20
 15.3000
 30
0.0
 0
SEQEND
 8
TITLE
 0
POLYLINE
 8
TITLE
 66
1
 70
1
 10
0.0
 20
0.0
 30
0.0
 0
VERTEX
 8
TITLE
 10
  0.0000
 20
  0.2000
 30
0.0
 0
VERTEX
 8
TITLE
 10
 20.0000
 20
  0.2000
 30
0.0
 0
VERTEX
 8
TITLE
 10
 20.0000
 20
 15.2000
 30
0.0
 0
VERTEX
 8
TITLE
 10
  0.0000
 20
 15.2000
 30
0.0
 0
SEQEND
 8
TITLE
 0
POLYLINE
 8
TITLE
 66
1
 10
0.0
 20
0.0
 30
0.0
 0
VERTEX
 8
TITLE
 10
  4.1600
 20
  0.2000
 30
0.0
 0
VERTEX
 8
TITLE
 10
  4.1600
 20
  0.1000
 30
0.0
 0
SEQEND
 8
TITLE
 0
POLYLINE
 8
TITLE
 66
1
 10
0.0
 20
0.0
 30
0.0
 0
VERTEX
 8
TITLE
 10
  4.1600
 20
 15.2000
 30
0.0
 0
VERTEX
 8
TITLE
 10
  4.1600
 20
 15.3000
 30
0.0
 0
SEQEND
 8
TITLE
 0
POLYLINE
 8
TITLE
 66
1
 10
0.0
 20
0.0
 30
0.0
 0
VERTEX
 8
TITLE
 10
  8.1200
 20
  0.2000
 30
0.0
 0
VERTEX
 8
TITLE
 10
  8.1200
 20
  0.1000
 30
0.0
 0
SEQEND
 8
TITLE
 0
POLYLINE
 8
TITLE
 66
1
 10
0.0
 20
0.0
 30
0.0
 0
VERTEX
 8
TITLE
 10
  8.1200
 20
 15.2000
 30
0.0
 0
VERTEX
 8
TITLE
 10
  8.1200
 20
 15.3000
 30
0.0
 0
SEQEND
 8
TITLE
 0
POLYLINE
 8
TITLE
 66
1
 10
0.0
 20
0.0
 30
0.0
 0
VERTEX
 8
TITLE
 10
 12.0800
 20
  0.2000
 30
0.0
 0
VERTEX
 8
TITLE
 10
 12.0800
 20
  0.1000
 30
0.0
 0
SEQEND
 8
TITLE
 0
POLYLINE
 8
TITLE
 66
1
 10
0.0
 20
0.0
 30
0.0
 0
VERTEX
 8
TITLE
 10
 12.0800
 20
 15.2000
 30
0.0
 0
VERTEX
 8
TITLE
 10
 12.0800
 20
 15.3000
 30
0.0
 0
SEQEND
 8
TITLE
 0
POLYLINE
 8
TITLE
 66
1
 10
0.0
 20
0.0
 30
0.0
 0
VERTEX
 8
TITLE
 10
 16.0400
 20
  0.2000
 30
0.0
 0
VERTEX
 8
TITLE
 10
 16.0400
 20
  0.1000
 30
0.0
 0
SEQEND
 8
TITLE
 0
POLYLINE
 8
TITLE
 66
1
 10
0.0
 20
0.0
 30
0.0
 0
VERTEX
 8
TITLE
 10
 16.0400
 20
 15.2000
 30
0.0
 0
VERTEX
 8
TITLE
 10
 16.0400
 20
 15.3000
 30
0.0
 0
SEQEND
 8
TITLE
 0
TEXT
 8
TITLE
 10
  2.1800
 20
  0.1200
 30
0.0
 40
  0.0500
 1
5
 0
TEXT
 8
TITLE
 10
  2.1800
 20
 15.2200
 30
0.0
 40
  0.0500
 1
5
 0
TEXT
 8
TITLE
 10
  6.1400
 20
  0.1200
 30
0.0
 40
  0.0500
 1
4
 0
TEXT
 8
TITLE
 10
  6.1400
 20
 15.2200
 30
0.0
 40
  0.0500
 1
4
 0
TEXT
 8
TITLE
 10
 10.1000
 20
  0.1200
 30
0.0
 40
  0.0500
 1
3
 0
TEXT
 8
TITLE
 10
 10.1000
 20
 15.2200
 30
0.0
 40
  0.0500
 1
3
 0
TEXT
 8
TITLE
 10
 14.0600
 20
  0.1200
 30
0.0
 40
  0.0500
 1
2
 0
TEXT
 8
TITLE
 10
 14.0600
 20
 15.2200
 30
0.0
 40
  0.0500
 1
2
 0
TEXT
 8
TITLE
 10
 18.0200
 20
  0.1200
 30
0.0
 40
  0.0500
 1
1
 0
TEXT
 8
TITLE
 10
 18.0200
 20
 15.2200
 30
0.0
 40
  0.0500
 1
1
 0
POLYLINE
 8
TITLE
 66
1
 10
0.0
 20
0.0
 30
0.0
 0
VERTEX
 8
TITLE
 10
 -0.1000
 20
 11.3000
 30
0.0
 0
VERTEX
 8
TITLE
 10
  0.0000
 20
 11.3000
 30
0.0
 0
SEQEND
 8
TITLE
 0
POLYLINE
 8
TITLE
 66
1
 10
0.0
 20
0.0
 30
0.0
 0
VERTEX
 8
TITLE
 10
 20.0000
 20
 11.3000
 30
0.0
 0
VERTEX
 8
TITLE
 10
 20.1000
 20
 11.3000
 30
0.0
 0
SEQEND
 8
TITLE
 0
SOLID
 8
TITLE
 10
  0.0000
 20
  7.6000
 30
0.0
 11
 -0.0500
 21
  7.6200
 31
0.0
 12
 -0.0500
 22
  7.5800
 32
0.0
 13
 -0.0500
 23
  7.6000
 33
0.0
 0
SOLID
 8
TITLE
 10
 20.0000
 20
  7.6000
 30
0.0
 11
 20.0500
 21
  7.6200
 31
0.0
 12
 20.0500
 22
  7.5800
 32
0.0
 13
 20.0500
 23
  7.6000
 33
0.0
 0
POLYLINE
 8
TITLE
 66
1
 10
0.0
 20
0.0
 30
0.0
 0
VERTEX
 8
TITLE
 10
 -0.1000
 20
  7.6000
 30
0.0
 0
VERTEX
 8
TITLE
 10
  0.0000
 20
  7.6000
 30
0.0
 0
SEQEND
 8
TITLE
 0
POLYLINE
 8
TITLE
 66
1
 10
0.0
 20
0.0
 30
0.0
 0
VERTEX
 8
TITLE
 10
 20.0000
 20
  7.6000
 30
0.0
 0
VERTEX
 8
TITLE
 10
 20.1000
 20
  7.6000
 30
0.0
 0
SEQEND
 8
TITLE
 0
SOLID
 8
TITLE
 10
  0.0000
 20
  7.6000
 30
0.0
 11
 -0.0500
 21
  7.6200
 31
0.0
 12
 -0.0500
 22
  7.5800
 32
0.0
 13
 -0.0500
 23
  7.6000
 33
0.0
 0
SOLID
 8
TITLE
 10
 20.0000
 20
  7.6000
 30
0.0
 11
 20.0500
 21
  7.6200
 31
0.0
 12
 20.0500
 22
  7.5800
 32
0.0
 13
 20.0500
 23
  7.6000
 33
0.0
 0
POLYLINE
 8
TITLE
 66
1
 10
0.0
 20
0.0
 30
0.0
 0
VERTEX
 8
TITLE
 10
 -0.1000
 20
  3.9000
 30
0.0
 0
VERTEX
 8
TITLE
 10
  0.0000
 20
  3.9000
 30
0.0
 0
SEQEND
 8
TITLE
 0
POLYLINE
 8
TITLE
 66
1
 10
0.0
 20
0.0
 30
0.0
 0
VERTEX
 8
TITLE
 10
 20.0000
 20
  3.9000
 30
0.0
 0
VERTEX
 8
TITLE
 10
 20.1000
 20
  3.9000
 30
0.0
 0
SEQEND
 8
TITLE
 0
SOLID
 8
TITLE
 10
  0.0000
 20
  7.6000
 30
0.0
 11
 -0.0500
 21
  7.6200
 31
0.0
 12
 -0.0500
 22
  7.5800
 32
0.0
 13
 -0.0500
 23
  7.6000
 33
0.0
 0
SOLID
 8
TITLE
 10
 20.0000
 20
  7.6000
 30
0.0
 11
 20.0500
 21
  7.6200
 31
0.0
 12
 20.0500
 22
  7.5800
 32
0.0
 13
 20.0500
 23
  7.6000
 33
0.0
 0
TEXT
 8
TITLE
 10
 -0.0800
 20
 13.1500
 30
0.0
 40
  0.0500
 1
D
 0
TEXT
 8
TITLE
 10
 20.0200
 20
 13.1500
 30
0.0
 40
  0.0500
 1
D
 0
TEXT
 8
TITLE
 10
 -0.0800
 20
  9.4500
 30
0.0
 40
  0.0500
 1
C
 0
TEXT
 8
TITLE
 10
 20.0200
 20
  9.4500
 30
0.0
 40
  0.0500
 1
C
 0
TEXT
 8
TITLE
 10
 -0.0800
 20
  5.7500
 30
0.0
 40
  0.0500
 1
B
 0
TEXT
 8
TITLE
 10
 20.0200
 20
  5.7500
 30
0.0
 40
  0.0500
 1
B
 0
TEXT
 8
TITLE
 10
 -0.0800
 20
  2.0500
 30
0.0
 40
  0.0500
 1
A
 0
TEXT
 8
TITLE
 10
 20.0200
 20
  2.0500
 30
0.0
 40
  0.0500
 1
A
 0
TEXT
 8
TITLE
 10
 16.8000
 20
  0.4186
 30
0.0
 40
  0.0514
 1
<Doc>
 0
TEXT
 8
TITLE
 10
 19.8000
 20
  0.4186
 30
0.0
 40
  0.0514
 1
<RevCode>
 0
TEXT
 8
TITLE
 10
 16.8000
 20
  0.7186
 30
0.0
 40
  0.0514
 1
<Title>
 0
TEXT
 8
TITLE
 10
 16.5000
 20
  0.4186
 30
0.0
 40
  0.0514
 1
C
 0
TEXT
 8
TITLE
 10
 18.9000
 20
  0.2186
 30
0.0
 40
  0.0514
 1
1
 0
TEXT
 8
TITLE
 10
 19.5000
 20
  0.2186
 30
0.0
 40
  0.0514
 1
5
 0
TEXT
 8
TITLE
 10
 16.9200
 20
  0.2186
 30
0.0
 40
  0.0514
 1
Sunday, February 21, 2016
 0
TEXT
 8
PARTTEXT
 10
 16.4000
 20
  0.8186
 30
0.0
 40
  0.0514
 1
Title
 0
TEXT
 8
PARTTEXT
 10
 16.4000
 20
  0.5186
 30
0.0
 40
  0.0514
 1
Size
 0
TEXT
 8
PARTTEXT
 10
 16.8000
 20
  0.5186
 30
0.0
 40
  0.0514
 1
Document Number
 0
TEXT
 8
PARTTEXT
 10
 19.7000
 20
  0.5186
 30
0.0
 40
  0.0514
 1
Rev
 0
TEXT
 8
PARTTEXT
 10
 16.4000
 20
  0.2186
 30
0.0
 40
  0.0514
 1
Date:
 0
TEXT
 8
PARTTEXT
 10
 18.4000
 20
  0.2186
 30
0.0
 40
  0.0514
 1
Sheet
 0
POLYLINE
 8
TITLE
 66
1
 70
1
 10
0.0
 20
0.0
 30
0.0
 0
VERTEX
 8
TITLE
 10
 16.4000
 20
  1.1000
 30
0.0
 0
VERTEX
 8
TITLE
 10
 20.0000
 20
  1.1000
 30
0.0
 0
VERTEX
 8
TITLE
 10
 20.0000
 20
  0.9000
 30
0.0
 0
VERTEX
 8
TITLE
 10
 16.4000
 20
  0.9000
 30
0.0
 0
SEQEND
 8
TITLE
 0
POLYLINE
 8
TITLE
 66
1
 70
1
 10
0.0
 20
0.0
 30
0.0
 0
VERTEX
 8
TITLE
 10
 16.4000
 20
  0.9000
 30
0.0
 0
VERTEX
 8
TITLE
 10
 20.0000
 20
  0.9000
 30
0.0
 0
VERTEX
 8
TITLE
 10
 20.0000
 20
  0.6000
 30
0.0
 0
VERTEX
 8
TITLE
 10
 16.4000
 20
  0.6000
 30
0.0
 0
SEQEND
 8
TITLE
 0
POLYLINE
 8
TITLE
 66
1
 70
1
 10
0.0
 20
0.0
 30
0.0
 0
VERTEX
 8
TITLE
 10
 16.4000
 20
  0.6000
 30
0.0
 0
VERTEX
 8
TITLE
 10
 16.7000
 20
  0.6000
 30
0.0
 0
VERTEX
 8
TITLE
 10
 16.7000
 20
  0.3000
 30
0.0
 0
VERTEX
 8
TITLE
 10
 16.4000
 20
  0.3000
 30
0.0
 0
SEQEND
 8
TITLE
 0
POLYLINE
 8
TITLE
 66
1
 70
1
 10
0.0
 20
0.0
 30
0.0
 0
VERTEX
 8
TITLE
 10
 16.7000
 20
  0.6000
 30
0.0
 0
VERTEX
 8
TITLE
 10
 19.7000
 20
  0.6000
 30
0.0
 0
VERTEX
 8
TITLE
 10
 19.7000
 20
  0.3000
 30
0.0
 0
VERTEX
 8
TITLE
 10
 16.7000
 20
  0.3000
 30
0.0
 0
SEQEND
 8
TITLE
 0
POLYLINE
 8
TITLE
 66
1
 70
1
 10
0.0
 20
0.0
 30
0.0
 0
VERTEX
 8
TITLE
 10
 19.7000
 20
  0.6000
 30
0.0
 0
VERTEX
 8
TITLE
 10
 20.0000
 20
  0.6000
 30
0.0
 0
VERTEX
 8
TITLE
 10
 20.0000
 20
  0.3000
 30
0.0
 0
VERTEX
 8
TITLE
 10
 19.7000
 20
  0.3000
 30
0.0
 0
SEQEND
 8
TITLE
 0
POLYLINE
 8
TITLE
 66
1
 70
1
 10
0.0
 20
0.0
 30
0.0
 0
VERTEX
 8
TITLE
 10
 16.4000
 20
  0.3000
 30
0.0
 0
VERTEX
 8
TITLE
 10
 18.4000
 20
  0.3000
 30
0.0
 0
VERTEX
 8
TITLE
 10
 18.4000
 20
  0.2000
 30
0.0
 0
VERTEX
 8
TITLE
 10
 16.4000
 20
  0.2000
 30
0.0
 0
SEQEND
 8
TITLE
 0
POLYLINE
 8
TITLE
 66
1
 70
1
 10
0.0
 20
0.0
 30
0.0
 0
VERTEX
 8
TITLE
 10
 18.4000
 20
  0.3000
 30
0.0
 0
VERTEX
 8
TITLE
 10
 20.0000
 20
  0.3000
 30
0.0
 0
VERTEX
 8
TITLE
 10
 20.0000
 20
  0.2000
 30
0.0
 0
VERTEX
 8
TITLE
 10
 18.4000
 20
  0.2000
 30
0.0
 0
SEQEND
 8
TITLE
 0
TEXT
 8
PARTTEXT
 10
 19.2000
 20
  0.2186
 30
0.0
 40
  0.0514
 1
of
 0
TEXT
 8
TITLE
 10
 16.8000
 20
  0.4186
 30
0.0
 40
  0.0514
 1
<Doc>
 0
TEXT
 8
TITLE
 10
 19.8000
 20
  0.4186
 30
0.0
 40
  0.0514
 1
<RevCode>
 0
TEXT
 8
TITLE
 10
 16.8000
 20
  0.7186
 30
0.0
 40
  0.0514
 1
<Title>
 0
TEXT
 8
TITLE
 10
 16.5000
 20
  0.4186
 30
0.0
 40
  0.0514
 1
C
 0
TEXT
 8
TITLE
 10
 18.9000
 20
  0.2186
 30
0.0
 40
  0.0514
 1
1
 0
TEXT
 8
TITLE
 10
 19.5000
 20
  0.2186
 30
0.0
 40
  0.0514
 1
5
 0
TEXT
 8
TITLE
 10
 16.9200
 20
  0.2186
 30
0.0
 40
  0.0514
 1
Sunday, February 21, 2016
 0
TEXT
 8
PARTTEXT
 10
 16.4000
 20
  0.8186
 30
0.0
 40
  0.0514
 1
Title
 0
TEXT
 8
PARTTEXT
 10
 16.4000
 20
  0.5186
 30
0.0
 40
  0.0514
 1
Size
 0
TEXT
 8
PARTTEXT
 10
 16.8000
 20
  0.5186
 30
0.0
 40
  0.0514
 1
Document Number
 0
TEXT
 8
PARTTEXT
 10
 19.7000
 20
  0.5186
 30
0.0
 40
  0.0514
 1
Rev
 0
TEXT
 8
PARTTEXT
 10
 16.4000
 20
  0.2186
 30
0.0
 40
  0.0514
 1
Date:
 0
TEXT
 8
PARTTEXT
 10
 18.4000
 20
  0.2186
 30
0.0
 40
  0.0514
 1
Sheet
 0
POLYLINE
 8
TITLE
 66
1
 70
1
 10
0.0
 20
0.0
 30
0.0
 0
VERTEX
 8
TITLE
 10
 16.4000
 20
  1.1000
 30
0.0
 0
VERTEX
 8
TITLE
 10
 20.0000
 20
  1.1000
 30
0.0
 0
VERTEX
 8
TITLE
 10
 20.0000
 20
  0.9000
 30
0.0
 0
VERTEX
 8
TITLE
 10
 16.4000
 20
  0.9000
 30
0.0
 0
SEQEND
 8
TITLE
 0
POLYLINE
 8
TITLE
 66
1
 70
1
 10
0.0
 20
0.0
 30
0.0
 0
VERTEX
 8
TITLE
 10
 16.4000
 20
  0.9000
 30
0.0
 0
VERTEX
 8
TITLE
 10
 20.0000
 20
  0.9000
 30
0.0
 0
VERTEX
 8
TITLE
 10
 20.0000
 20
  0.6000
 30
0.0
 0
VERTEX
 8
TITLE
 10
 16.4000
 20
  0.6000
 30
0.0
 0
SEQEND
 8
TITLE
 0
POLYLINE
 8
TITLE
 66
1
 70
1
 10
0.0
 20
0.0
 30
0.0
 0
VERTEX
 8
TITLE
 10
 16.4000
 20
  0.6000
 30
0.0
 0
VERTEX
 8
TITLE
 10
 16.7000
 20
  0.6000
 30
0.0
 0
VERTEX
 8
TITLE
 10
 16.7000
 20
  0.3000
 30
0.0
 0
VERTEX
 8
TITLE
 10
 16.4000
 20
  0.3000
 30
0.0
 0
SEQEND
 8
TITLE
 0
POLYLINE
 8
TITLE
 66
1
 70
1
 10
0.0
 20
0.0
 30
0.0
 0
VERTEX
 8
TITLE
 10
 16.7000
 20
  0.6000
 30
0.0
 0
VERTEX
 8
TITLE
 10
 19.7000
 20
  0.6000
 30
0.0
 0
VERTEX
 8
TITLE
 10
 19.7000
 20
  0.3000
 30
0.0
 0
VERTEX
 8
TITLE
 10
 16.7000
 20
  0.3000
 30
0.0
 0
SEQEND
 8
TITLE
 0
POLYLINE
 8
TITLE
 66
1
 70
1
 10
0.0
 20
0.0
 30
0.0
 0
VERTEX
 8
TITLE
 10
 19.7000
 20
  0.6000
 30
0.0
 0
VERTEX
 8
TITLE
 10
 20.0000
 20
  0.6000
 30
0.0
 0
VERTEX
 8
TITLE
 10
 20.0000
 20
  0.3000
 30
0.0
 0
VERTEX
 8
TITLE
 10
 19.7000
 20
  0.3000
 30
0.0
 0
SEQEND
 8
TITLE
 0
POLYLINE
 8
TITLE
 66
1
 70
1
 10
0.0
 20
0.0
 30
0.0
 0
VERTEX
 8
TITLE
 10
 16.4000
 20
  0.3000
 30
0.0
 0
VERTEX
 8
TITLE
 10
 18.4000
 20
  0.3000
 30
0.0
 0
VERTEX
 8
TITLE
 10
 18.4000
 20
  0.2000
 30
0.0
 0
VERTEX
 8
TITLE
 10
 16.4000
 20
  0.2000
 30
0.0
 0
SEQEND
 8
TITLE
 0
POLYLINE
 8
TITLE
 66
1
 70
1
 10
0.0
 20
0.0
 30
0.0
 0
VERTEX
 8
TITLE
 10
 18.4000
 20
  0.3000
 30
0.0
 0
VERTEX
 8
TITLE
 10
 20.0000
 20
  0.3000
 30
0.0
 0
VERTEX
 8
TITLE
 10
 20.0000
 20
  0.2000
 30
0.0
 0
VERTEX
 8
TITLE
 10
 18.4000
 20
  0.2000
 30
0.0
 0
SEQEND
 8
TITLE
 0
TEXT
 8
PARTTEXT
 10
 19.2000
 20
  0.2186
 30
0.0
 40
  0.0514
 1
of
 0
TEXT
 8
PARTTEXT
 10
 13.4600
 20
 12.6186
 30
0.0
 40
  0.0514
 1
R3
 0
TEXT
 8
PARTTEXT
 10
 13.4600
 20
 12.4986
 30
0.0
 40
  0.0514
 1
29.4
 0
LINE
 8
PARTS
 10
 13.3000
 20
 12.8000
 30
0.0
 11
 13.3000
 21
 12.7000
 31
0.0
 0
LINE
 8
PARTS
 10
 13.3000
 20
 12.2000
 30
0.0
 11
 13.3000
 21
 12.3000
 31
0.0
 0
POLYLINE
 8
PARTS
 66
1
 10
0.0
 20
0.0
 30
0.0
 0
VERTEX
 8
PARTS
 10
 13.3200
 20
 12.4400
 30
0.0
 0
VERTEX
 8
PARTS
 10
 13.2600
 20
 12.5000
 30
0.0
 0
SEQEND
 8
PARTS
 0
POLYLINE
 8
PARTS
 66
1
 10
0.0
 20
0.0
 30
0.0
 0
VERTEX
 8
PARTS
 10
 13.3200
 20
 12.4400
 30
0.0
 0
VERTEX
 8
PARTS
 10
 13.2600
 20
 12.3800
 30
0.0
 0
SEQEND
 8
PARTS
 0
POLYLINE
 8
PARTS
 66
1
 10
0.0
 20
0.0
 30
0.0
 0
VERTEX
 8
PARTS
 10
 13.2600
 20
 12.3800
 30
0.0
 0
VERTEX
 8
PARTS
 10
 13.3000
 20
 12.3400
 30
0.0
 0
SEQEND
 8
PARTS
 0
POLYLINE
 8
PARTS
 66
1
 10
0.0
 20
0.0
 30
0.0
 0
VERTEX
 8
PARTS
 10
 13.2600
 20
 12.5000
 30
0.0
 0
VERTEX
 8
PARTS
 10
 13.3200
 20
 12.5600
 30
0.0
 0
SEQEND
 8
PARTS
 0
POLYLINE
 8
PARTS
 66
1
 10
0.0
 20
0.0
 30
0.0
 0
VERTEX
 8
PARTS
 10
 13.3200
 20
 12.5600
 30
0.0
 0
VERTEX
 8
PARTS
 10
 13.2600
 20
 12.6200
 30
0.0
 0
SEQEND
 8
PARTS
 0
POLYLINE
 8
PARTS
 66
1
 10
0.0
 20
0.0
 30
0.0
 0
VERTEX
 8
PARTS
 10
 13.3000
 20
 12.6600
 30
0.0
 0
VERTEX
 8
PARTS
 10
 13.2600
 20
 12.6200
 30
0.0
 0
SEQEND
 8
PARTS
 0
POLYLINE
 8
PARTS
 66
1
 10
0.0
 20
0.0
 30
0.0
 0
VERTEX
 8
PARTS
 10
 13.3000
 20
 12.6600
 30
0.0
 0
VERTEX
 8
PARTS
 10
 13.3000
 20
 12.7000
 30
0.0
 0
SEQEND
 8
PARTS
 0
POLYLINE
 8
PARTS
 66
1
 10
0.0
 20
0.0
 30
0.0
 0
VERTEX
 8
PARTS
 10
 13.3000
 20
 12.3400
 30
0.0
 0
VERTEX
 8
PARTS
 10
 13.3000
 20
 12.3000
 30
0.0
 0
SEQEND
 8
PARTS
 0
TEXT
 8
PARTTEXT
 10
 10.9000
 20
  4.4586
 30
0.0
 40
  0.0514
 1
TP8
 0
TEXT
 8
PARTTEXT
 10
 10.9000
 20
  4.3386
 30
0.0
 40
  0.0514
 1
TEST POINT
 0
LINE
 8
PARTS
 10
 11.0000
 20
  3.9000
 30
0.0
 11
 11.0000
 21
  4.2000
 31
0.0
 0
TEXT
 8
PARTS
 10
 10.9700
 20
  4.0800
 30
0.0
 40
  0.0500
 50
 90.0000
 1
1
 0
POLYLINE
 8
PARTS
 66
1
 70
1
 10
0.0
 20
0.0
 30
0.0
 0
VERTEX
 8
PARTS
 10
 10.9000
 20
  4.2000
 30
0.0
 0
VERTEX
 8
PARTS
 10
 10.9000
 20
  4.3000
 30
0.0
 0
VERTEX
 8
PARTS
 10
 11.1000
 20
  4.3000
 30
0.0
 0
VERTEX
 8
PARTS
 10
 11.1000
 20
  4.2000
 30
0.0
 0
SEQEND
 8
PARTS
 0
TEXT
 8
PARTTEXT
 10
 13.4600
 20
 12.0186
 30
0.0
 40
  0.0514
 1
C12
 0
TEXT
 8
PARTTEXT
 10
 13.4600
 20
 11.8986
 30
0.0
 40
  0.0514
 1
1.51uF
 0
LINE
 8
PARTS
 10
 13.3000
 20
 11.6000
 30
0.0
 11
 13.3000
 21
 11.7000
 31
0.0
 0
LINE
 8
PARTS
 10
 13.3000
 20
 12.2000
 30
0.0
 11
 13.3000
 21
 12.1000
 31
0.0
 0
POLYLINE
 8
PARTS
 66
1
 10
0.0
 20
0.0
 30
0.0
 0
VERTEX
 8
PARTS
 10
 13.3800
 20
 11.8700
 30
0.0
 0
VERTEX
 8
PARTS
 10
 13.2200
 20
 11.8700
 30
0.0
 0
SEQEND
 8
PARTS
 0
POLYLINE
 8
PARTS
 66
1
 10
0.0
 20
0.0
 30
0.0
 0
VERTEX
 8
PARTS
 10
 13.3000
 20
 11.9300
 30
0.0
 0
VERTEX
 8
PARTS
 10
 13.3000
 20
 12.1000
 30
0.0
 0
SEQEND
 8
PARTS
 0
POLYLINE
 8
PARTS
 66
1
 10
0.0
 20
0.0
 30
0.0
 0
VERTEX
 8
PARTS
 10
 13.3000
 20
 11.7000
 30
0.0
 0
VERTEX
 8
PARTS
 10
 13.3000
 20
 11.8700
 30
0.0
 0
SEQEND
 8
PARTS
 0
POLYLINE
 8
PARTS
 66
1
 10
0.0
 20
0.0
 30
0.0
 0
VERTEX
 8
PARTS
 10
 13.3800
 20
 11.9300
 30
0.0
 0
VERTEX
 8
PARTS
 10
 13.2200
 20
 11.9300
 30
0.0
 0
SEQEND
 8
PARTS
 0
TEXT
 8
PARTTEXT
 10
  3.4700
 20
 12.0586
 30
0.0
 40
  0.0514
 1
Y1
 0
TEXT
 8
PARTTEXT
 10
  3.4800
 20
 11.4786
 30
0.0
 40
  0.0514
 1
Fox801
 0
LINE
 8
PARTS
 10
  3.3000
 20
 11.7000
 30
0.0
 11
  3.4000
 21
 11.7000
 31
0.0
 0
LINE
 8
PARTS
 10
  3.2750
 20
 11.7250
 30
0.0
 11
  3.3250
 21
 11.6750
 31
0.0
 0
LINE
 8
PARTS
 10
  3.3250
 20
 11.7250
 30
0.0
 11
  3.2750
 21
 11.6750
 31
0.0
 0
TEXT
 8
PARTS
 10
  3.4900
 20
 11.6750
 30
0.0
 40
  0.0500
 1
NC
 0
TEXT
 8
PARTS
 10
  3.3000
 20
 11.7300
 30
0.0
 40
  0.0500
 1
1
 0
LINE
 8
PARTS
 10
  3.3000
 20
 11.9000
 30
0.0
 11
  3.4000
 21
 11.9000
 31
0.0
 0
TEXT
 8
PARTS
 10
  3.4900
 20
 11.8750
 30
0.0
 40
  0.0500
 1
Vdd
 0
TEXT
 8
PARTS
 10
  3.3000
 20
 11.9300
 30
0.0
 40
  0.0500
 1
4
 0
LINE
 8
PARTS
 10
  4.0000
 20
 11.9000
 30
0.0
 11
  3.9000
 21
 11.9000
 31
0.0
 0
TEXT
 8
PARTS
 10
  3.6900
 20
 11.8750
 30
0.0
 40
  0.0500
 1
Out
 0
TEXT
 8
PARTS
 10
  3.9600
 20
 11.9300
 30
0.0
 40
  0.0500
 1
3
 0
LINE
 8
PARTS
 10
  4.0000
 20
 11.7000
 30
0.0
 11
  3.9000
 21
 11.7000
 31
0.0
 0
TEXT
 8
PARTS
 10
  3.6900
 20
 11.6750
 30
0.0
 40
  0.0500
 1
GND
 0
TEXT
 8
PARTS
 10
  3.9600
 20
 11.7300
 30
0.0
 40
  0.0500
 1
2
 0
POLYLINE
 8
PARTS
 66
1
 70
1
 10
0.0
 20
0.0
 30
0.0
 0
VERTEX
 8
PARTS
 10
  3.4000
 20
 12.0000
 30
0.0
 0
VERTEX
 8
PARTS
 10
  3.9000
 20
 12.0000
 30
0.0
 0
VERTEX
 8
PARTS
 10
  3.9000
 20
 11.6000
 30
0.0
 0
VERTEX
 8
PARTS
 10
  3.4000
 20
 11.6000
 30
0.0
 0
SEQEND
 8
PARTS
 0
TEXT
 8
PARTTEXT
 10
  2.3000
 20
  6.2186
 30
0.0
 40
  0.0514
 1
J9
 0
TEXT
 8
PARTTEXT
 10
  2.3000
 20
  5.4186
 30
0.0
 40
  0.0514
 1
HEADER 2
 0
LINE
 8
PARTS
 10
  2.9000
 20
  5.9000
 30
0.0
 11
  2.6000
 21
  5.9000
 31
0.0
 0
TEXT
 8
PARTS
 10
  2.6600
 20
  5.9300
 30
0.0
 40
  0.0500
 1
1
 0
LINE
 8
PARTS
 10
  2.9000
 20
  5.8000
 30
0.0
 11
  2.6000
 21
  5.8000
 31
0.0
 0
TEXT
 8
PARTS
 10
  2.6600
 20
  5.8300
 30
0.0
 40
  0.0500
 1
2
 0
POLYLINE
 8
PARTS
 66
1
 70
1
 10
0.0
 20
0.0
 30
0.0
 0
VERTEX
 8
PARTS
 10
  2.3000
 20
  6.0000
 30
0.0
 0
VERTEX
 8
PARTS
 10
  2.6000
 20
  6.0000
 30
0.0
 0
VERTEX
 8
PARTS
 10
  2.6000
 20
  5.7000
 30
0.0
 0
VERTEX
 8
PARTS
 10
  2.3000
 20
  5.7000
 30
0.0
 0
SEQEND
 8
PARTS
 0
POLYLINE
 8
PARTS
 66
1
 10
0.0
 20
0.0
 30
0.0
 0
VERTEX
 8
PARTS
 10
  2.5000
 20
  6.0000
 30
0.0
 0
VERTEX
 8
PARTS
 10
  2.5000
 20
  6.0000
 30
0.0
 0
VERTEX
 8
PARTS
 10
  2.5000
 20
  6.0300
 30
0.0
 0
VERTEX
 8
PARTS
 10
  2.4100
 20
  6.0300
 30
0.0
 0
VERTEX
 8
PARTS
 10
  2.4100
 20
  6.0000
 30
0.0
 0
SEQEND
 8
PARTS
 0
POLYLINE
 8
PARTS
 66
1
 10
0.0
 20
0.0
 30
0.0
 0
VERTEX
 8
PARTS
 10
  2.4100
 20
  5.7000
 30
0.0
 0
VERTEX
 8
PARTS
 10
  2.4100
 20
  5.7000
 30
0.0
 0
VERTEX
 8
PARTS
 10
  2.4100
 20
  5.6700
 30
0.0
 0
VERTEX
 8
PARTS
 10
  2.5000
 20
  5.6700
 30
0.0
 0
VERTEX
 8
PARTS
 10
  2.5000
 20
  5.7000
 30
0.0
 0
SEQEND
 8
PARTS
 0
TEXT
 8
PARTTEXT
 10
  8.4000
 20
  3.7186
 30
0.0
 40
  0.0514
 1
R16
 0
TEXT
 8
PARTTEXT
 10
  9.0000
 20
  3.7186
 30
0.0
 40
  0.0514
 1
330
 0
LINE
 8
PARTS
 10
  9.1000
 20
  3.7000
 30
0.0
 11
  9.0000
 21
  3.7000
 31
0.0
 0
LINE
 8
PARTS
 10
  8.5000
 20
  3.7000
 30
0.0
 11
  8.6000
 21
  3.7000
 31
0.0
 0
POLYLINE
 8
PARTS
 66
1
 10
0.0
 20
0.0
 30
0.0
 0
VERTEX
 8
PARTS
 10
  8.7400
 20
  3.6800
 30
0.0
 0
VERTEX
 8
PARTS
 10
  8.8000
 20
  3.7400
 30
0.0
 0
SEQEND
 8
PARTS
 0
POLYLINE
 8
PARTS
 66
1
 10
0.0
 20
0.0
 30
0.0
 0
VERTEX
 8
PARTS
 10
  8.7400
 20
  3.6800
 30
0.0
 0
VERTEX
 8
PARTS
 10
  8.6800
 20
  3.7400
 30
0.0
 0
SEQEND
 8
PARTS
 0
POLYLINE
 8
PARTS
 66
1
 10
0.0
 20
0.0
 30
0.0
 0
VERTEX
 8
PARTS
 10
  8.6800
 20
  3.7400
 30
0.0
 0
VERTEX
 8
PARTS
 10
  8.6400
 20
  3.7000
 30
0.0
 0
SEQEND
 8
PARTS
 0
POLYLINE
 8
PARTS
 66
1
 10
0.0
 20
0.0
 30
0.0
 0
VERTEX
 8
PARTS
 10
  8.8000
 20
  3.7400
 30
0.0
 0
VERTEX
 8
PARTS
 10
  8.8600
 20
  3.6800
 30
0.0
 0
SEQEND
 8
PARTS
 0
POLYLINE
 8
PARTS
 66
1
 10
0.0
 20
0.0
 30
0.0
 0
VERTEX
 8
PARTS
 10
  8.8600
 20
  3.6800
 30
0.0
 0
VERTEX
 8
PARTS
 10
  8.9200
 20
  3.7400
 30
0.0
 0
SEQEND
 8
PARTS
 0
POLYLINE
 8
PARTS
 66
1
 10
0.0
 20
0.0
 30
0.0
 0
VERTEX
 8
PARTS
 10
  8.9600
 20
  3.7000
 30
0.0
 0
VERTEX
 8
PARTS
 10
  8.9200
 20
  3.7400
 30
0.0
 0
SEQEND
 8
PARTS
 0
POLYLINE
 8
PARTS
 66
1
 10
0.0
 20
0.0
 30
0.0
 0
VERTEX
 8
PARTS
 10
  8.9600
 20
  3.7000
 30
0.0
 0
VERTEX
 8
PARTS
 10
  9.0000
 20
  3.7000
 30
0.0
 0
SEQEND
 8
PARTS
 0
POLYLINE
 8
PARTS
 66
1
 10
0.0
 20
0.0
 30
0.0
 0
VERTEX
 8
PARTS
 10
  8.6400
 20
  3.7000
 30
0.0
 0
VERTEX
 8
PARTS
 10
  8.6000
 20
  3.7000
 30
0.0
 0
SEQEND
 8
PARTS
 0
TEXT
 8
PARTTEXT
 10
  9.5000
 20
  7.5686
 30
0.0
 40
  0.0514
 1
TP7
 0
TEXT
 8
PARTTEXT
 10
  9.5000
 20
  7.1586
 30
0.0
 40
  0.0514
 1
TEST POINT
 0
LINE
 8
PARTS
 10
  9.9000
 20
  7.4000
 30
0.0
 11
  9.6000
 21
  7.4000
 31
0.0
 0
TEXT
 8
PARTS
 10
  9.6600
 20
  7.4300
 30
0.0
 40
  0.0500
 1
1
 0
POLYLINE
 8
PARTS
 66
1
 70
1
 10
0.0
 20
0.0
 30
0.0
 0
VERTEX
 8
PARTS
 10
  9.6000
 20
  7.3000
 30
0.0
 0
VERTEX
 8
PARTS
 10
  9.5000
 20
  7.3000
 30
0.0
 0
VERTEX
 8
PARTS
 10
  9.5000
 20
  7.5000
 30
0.0
 0
VERTEX
 8
PARTS
 10
  9.6000
 20
  7.5000
 30
0.0
 0
SEQEND
 8
PARTS
 0
TEXT
 8
PARTTEXT
 10
 18.7000
 20
 11.9186
 30
0.0
 40
  0.0514
 1
J2
 0
TEXT
 8
PARTTEXT
 10
 18.7000
 20
 11.2186
 30
0.0
 40
  0.0514
 1
CON3
 0
LINE
 8
PARTS
 10
 18.4000
 20
 11.7000
 30
0.0
 11
 18.7000
 21
 11.7000
 31
0.0
 0
TEXT
 8
PARTS
 10
 18.6000
 20
 11.7300
 30
0.0
 40
  0.0500
 1
1
 0
LINE
 8
PARTS
 10
 18.4000
 20
 11.6000
 30
0.0
 11
 18.7000
 21
 11.6000
 31
0.0
 0
TEXT
 8
PARTS
 10
 18.6000
 20
 11.6300
 30
0.0
 40
  0.0500
 1
2
 0
LINE
 8
PARTS
 10
 18.4000
 20
 11.5000
 30
0.0
 11
 18.7000
 21
 11.5000
 31
0.0
 0
TEXT
 8
PARTS
 10
 18.6000
 20
 11.5300
 30
0.0
 40
  0.0500
 1
3
 0
POLYLINE
 8
PARTS
 66
1
 70
1
 10
0.0
 20
0.0
 30
0.0
 0
VERTEX
 8
PARTS
 10
 18.7000
 20
 11.8000
 30
0.0
 0
VERTEX
 8
PARTS
 10
 18.9000
 20
 11.8000
 30
0.0
 0
VERTEX
 8
PARTS
 10
 18.9000
 20
 11.4000
 30
0.0
 0
VERTEX
 8
PARTS
 10
 18.7000
 20
 11.4000
 30
0.0
 0
SEQEND
 8
PARTS
 0
TEXT
 8
PARTTEXT
 10
  5.9000
 20
  4.2186
 30
0.0
 40
  0.0514
 1
R15
 0
TEXT
 8
PARTTEXT
 10
  5.9000
 20
  3.9186
 30
0.0
 40
  0.0514
 1
0
 0
LINE
 8
PARTS
 10
  6.4000
 20
  4.1000
 30
0.0
 11
  6.3000
 21
  4.1000
 31
0.0
 0
LINE
 8
PARTS
 10
  5.8000
 20
  4.1000
 30
0.0
 11
  5.9000
 21
  4.1000
 31
0.0
 0
POLYLINE
 8
PARTS
 66
1
 10
0.0
 20
0.0
 30
0.0
 0
VERTEX
 8
PARTS
 10
  6.0400
 20
  4.0800
 30
0.0
 0
VERTEX
 8
PARTS
 10
  6.1000
 20
  4.1400
 30
0.0
 0
SEQEND
 8
PARTS
 0
POLYLINE
 8
PARTS
 66
1
 10
0.0
 20
0.0
 30
0.0
 0
VERTEX
 8
PARTS
 10
  6.0400
 20
  4.0800
 30
0.0
 0
VERTEX
 8
PARTS
 10
  5.9800
 20
  4.1400
 30
0.0
 0
SEQEND
 8
PARTS
 0
POLYLINE
 8
PARTS
 66
1
 10
0.0
 20
0.0
 30
0.0
 0
VERTEX
 8
PARTS
 10
  5.9800
 20
  4.1400
 30
0.0
 0
VERTEX
 8
PARTS
 10
  5.9400
 20
  4.1000
 30
0.0
 0
SEQEND
 8
PARTS
 0
POLYLINE
 8
PARTS
 66
1
 10
0.0
 20
0.0
 30
0.0
 0
VERTEX
 8
PARTS
 10
  6.1000
 20
  4.1400
 30
0.0
 0
VERTEX
 8
PARTS
 10
  6.1600
 20
  4.0800
 30
0.0
 0
SEQEND
 8
PARTS
 0
POLYLINE
 8
PARTS
 66
1
 10
0.0
 20
0.0
 30
0.0
 0
VERTEX
 8
PARTS
 10
  6.1600
 20
  4.0800
 30
0.0
 0
VERTEX
 8
PARTS
 10
  6.2200
 20
  4.1400
 30
0.0
 0
SEQEND
 8
PARTS
 0
POLYLINE
 8
PARTS
 66
1
 10
0.0
 20
0.0
 30
0.0
 0
VERTEX
 8
PARTS
 10
  6.2600
 20
  4.1000
 30
0.0
 0
VERTEX
 8
PARTS
 10
  6.2200
 20
  4.1400
 30
0.0
 0
SEQEND
 8
PARTS
 0
POLYLINE
 8
PARTS
 66
1
 10
0.0
 20
0.0
 30
0.0
 0
VERTEX
 8
PARTS
 10
  6.2600
 20
  4.1000
 30
0.0
 0
VERTEX
 8
PARTS
 10
  6.3000
 20
  4.1000
 30
0.0
 0
SEQEND
 8
PARTS
 0
POLYLINE
 8
PARTS
 66
1
 10
0.0
 20
0.0
 30
0.0
 0
VERTEX
 8
PARTS
 10
  5.9400
 20
  4.1000
 30
0.0
 0
VERTEX
 8
PARTS
 10
  5.9000
 20
  4.1000
 30
0.0
 0
SEQEND
 8
PARTS
 0
TEXT
 8
PARTTEXT
 10
  7.1000
 20
 11.7586
 30
0.0
 40
  0.0514
 1
TP3
 0
TEXT
 8
PARTTEXT
 10
  7.1000
 20
 11.6386
 30
0.0
 40
  0.0514
 1
TEST POINT
 0
LINE
 8
PARTS
 10
  7.2000
 20
 11.2000
 30
0.0
 11
  7.2000
 21
 11.5000
 31
0.0
 0
TEXT
 8
PARTS
 10
  7.1700
 20
 11.3800
 30
0.0
 40
  0.0500
 50
 90.0000
 1
1
 0
POLYLINE
 8
PARTS
 66
1
 70
1
 10
0.0
 20
0.0
 30
0.0
 0
VERTEX
 8
PARTS
 10
  7.1000
 20
 11.5000
 30
0.0
 0
VERTEX
 8
PARTS
 10
  7.1000
 20
 11.6000
 30
0.0
 0
VERTEX
 8
PARTS
 10
  7.3000
 20
 11.6000
 30
0.0
 0
VERTEX
 8
PARTS
 10
  7.3000
 20
 11.5000
 30
0.0
 0
SEQEND
 8
PARTS
 0
TEXT
 8
PARTTEXT
 10
  8.4600
 20
 14.4186
 30
0.0
 40
  0.0514
 1
R1
 0
TEXT
 8
PARTTEXT
 10
  8.4600
 20
 14.2986
 30
0.0
 40
  0.0514
 1
0
 0
LINE
 8
PARTS
 10
  8.3000
 20
 14.6000
 30
0.0
 11
  8.3000
 21
 14.5000
 31
0.0
 0
LINE
 8
PARTS
 10
  8.3000
 20
 14.0000
 30
0.0
 11
  8.3000
 21
 14.1000
 31
0.0
 0
POLYLINE
 8
PARTS
 66
1
 10
0.0
 20
0.0
 30
0.0
 0
VERTEX
 8
PARTS
 10
  8.3200
 20
 14.2400
 30
0.0
 0
VERTEX
 8
PARTS
 10
  8.2600
 20
 14.3000
 30
0.0
 0
SEQEND
 8
PARTS
 0
POLYLINE
 8
PARTS
 66
1
 10
0.0
 20
0.0
 30
0.0
 0
VERTEX
 8
PARTS
 10
  8.3200
 20
 14.2400
 30
0.0
 0
VERTEX
 8
PARTS
 10
  8.2600
 20
 14.1800
 30
0.0
 0
SEQEND
 8
PARTS
 0
POLYLINE
 8
PARTS
 66
1
 10
0.0
 20
0.0
 30
0.0
 0
VERTEX
 8
PARTS
 10
  8.2600
 20
 14.1800
 30
0.0
 0
VERTEX
 8
PARTS
 10
  8.3000
 20
 14.1400
 30
0.0
 0
SEQEND
 8
PARTS
 0
POLYLINE
 8
PARTS
 66
1
 10
0.0
 20
0.0
 30
0.0
 0
VERTEX
 8
PARTS
 10
  8.2600
 20
 14.3000
 30
0.0
 0
VERTEX
 8
PARTS
 10
  8.3200
 20
 14.3600
 30
0.0
 0
SEQEND
 8
PARTS
 0
POLYLINE
 8
PARTS
 66
1
 10
0.0
 20
0.0
 30
0.0
 0
VERTEX
 8
PARTS
 10
  8.3200
 20
 14.3600
 30
0.0
 0
VERTEX
 8
PARTS
 10
  8.2600
 20
 14.4200
 30
0.0
 0
SEQEND
 8
PARTS
 0
POLYLINE
 8
PARTS
 66
1
 10
0.0
 20
0.0
 30
0.0
 0
VERTEX
 8
PARTS
 10
  8.3000
 20
 14.4600
 30
0.0
 0
VERTEX
 8
PARTS
 10
  8.2600
 20
 14.4200
 30
0.0
 0
SEQEND
 8
PARTS
 0
POLYLINE
 8
PARTS
 66
1
 10
0.0
 20
0.0
 30
0.0
 0
VERTEX
 8
PARTS
 10
  8.3000
 20
 14.4600
 30
0.0
 0
VERTEX
 8
PARTS
 10
  8.3000
 20
 14.5000
 30
0.0
 0
SEQEND
 8
PARTS
 0
POLYLINE
 8
PARTS
 66
1
 10
0.0
 20
0.0
 30
0.0
 0
VERTEX
 8
PARTS
 10
  8.3000
 20
 14.1400
 30
0.0
 0
VERTEX
 8
PARTS
 10
  8.3000
 20
 14.1000
 30
0.0
 0
SEQEND
 8
PARTS
 0
TEXT
 8
PARTTEXT
 10
  7.0600
 20
  0.9186
 30
0.0
 40
  0.0514
 1
C26
 0
TEXT
 8
PARTTEXT
 10
  7.0600
 20
  0.7986
 30
0.0
 40
  0.0514
 1
1uF
 0
LINE
 8
PARTS
 10
  6.9000
 20
  0.5000
 30
0.0
 11
  6.9000
 21
  0.6000
 31
0.0
 0
LINE
 8
PARTS
 10
  6.9000
 20
  1.1000
 30
0.0
 11
  6.9000
 21
  1.0000
 31
0.0
 0
POLYLINE
 8
PARTS
 66
1
 10
0.0
 20
0.0
 30
0.0
 0
VERTEX
 8
PARTS
 10
  6.9800
 20
  0.7700
 30
0.0
 0
VERTEX
 8
PARTS
 10
  6.8200
 20
  0.7700
 30
0.0
 0
SEQEND
 8
PARTS
 0
POLYLINE
 8
PARTS
 66
1
 10
0.0
 20
0.0
 30
0.0
 0
VERTEX
 8
PARTS
 10
  6.9000
 20
  0.8300
 30
0.0
 0
VERTEX
 8
PARTS
 10
  6.9000
 20
  1.0000
 30
0.0
 0
SEQEND
 8
PARTS
 0
POLYLINE
 8
PARTS
 66
1
 10
0.0
 20
0.0
 30
0.0
 0
VERTEX
 8
PARTS
 10
  6.9000
 20
  0.6000
 30
0.0
 0
VERTEX
 8
PARTS
 10
  6.9000
 20
  0.7700
 30
0.0
 0
SEQEND
 8
PARTS
 0
POLYLINE
 8
PARTS
 66
1
 10
0.0
 20
0.0
 30
0.0
 0
VERTEX
 8
PARTS
 10
  6.9800
 20
  0.8300
 30
0.0
 0
VERTEX
 8
PARTS
 10
  6.8200
 20
  0.8300
 30
0.0
 0
SEQEND
 8
PARTS
 0
TEXT
 8
PARTTEXT
 10
  9.9600
 20
 12.6586
 30
0.0
 40
  0.0514
 1
U2
 0
TEXT
 8
PARTTEXT
 10
  9.9600
 20
 12.5386
 30
0.0
 40
  0.0514
 1
ADF4158
 0
LINE
 8
PARTS
 10
  9.7000
 20
 12.6000
 30
0.0
 11
  9.7000
 21
 12.5000
 31
0.0
 0
TEXT
 8
PARTS
 10
  9.7250
 20
 12.2100
 30
0.0
 40
  0.0500
 50
 90.0000
 1
CPGND
 0
TEXT
 8
PARTS
 10
  9.6700
 20
 12.5600
 30
0.0
 40
  0.0500
 50
 90.0000
 1
1
 0
LINE
 8
PARTS
 10
  9.5000
 20
 12.6000
 30
0.0
 11
  9.5000
 21
 12.5000
 31
0.0
 0
TEXT
 8
PARTS
 10
  9.5250
 20
 12.2100
 30
0.0
 40
  0.0500
 50
 90.0000
 1
AGND1
 0
TEXT
 8
PARTS
 10
  9.4700
 20
 12.5600
 30
0.0
 40
  0.0500
 50
 90.0000
 1
2
 0
LINE
 8
PARTS
 10
  9.3000
 20
 12.6000
 30
0.0
 11
  9.3000
 21
 12.5000
 31
0.0
 0
TEXT
 8
PARTS
 10
  9.3250
 20
 12.2100
 30
0.0
 40
  0.0500
 50
 90.0000
 1
AGND2
 0
TEXT
 8
PARTS
 10
  9.2700
 20
 12.5600
 30
0.0
 40
  0.0500
 50
 90.0000
 1
3
 0
LINE
 8
PARTS
 10
  9.1000
 20
 12.6000
 30
0.0
 11
  9.1000
 21
 12.5000
 31
0.0
 0
TEXT
 8
PARTS
 10
  9.1250
 20
 12.2100
 30
0.0
 40
  0.0500
 50
 90.0000
 1
RFinB
 0
TEXT
 8
PARTS
 10
  9.0700
 20
 12.5600
 30
0.0
 40
  0.0500
 50
 90.0000
 1
4
 0
LINE
 8
PARTS
 10
  8.9000
 20
 12.6000
 30
0.0
 11
  8.9000
 21
 12.5000
 31
0.0
 0
TEXT
 8
PARTS
 10
  8.9250
 20
 12.2100
 30
0.0
 40
  0.0500
 50
 90.0000
 1
RFinA
 0
TEXT
 8
PARTS
 10
  8.8700
 20
 12.5600
 30
0.0
 40
  0.0500
 50
 90.0000
 1
5
 0
LINE
 8
PARTS
 10
  8.7000
 20
 12.6000
 30
0.0
 11
  8.7000
 21
 12.5000
 31
0.0
 0
TEXT
 8
PARTS
 10
  8.7250
 20
 12.2500
 30
0.0
 40
  0.0500
 50
 90.0000
 1
AVdd
 0
TEXT
 8
PARTS
 10
  8.6700
 20
 12.5600
 30
0.0
 40
  0.0500
 50
 90.0000
 1
6
 0
LINE
 8
PARTS
 10
  8.4000
 20
 12.4000
 30
0.0
 11
  8.5000
 21
 12.4000
 31
0.0
 0
TEXT
 8
PARTS
 10
  8.5900
 20
 12.3750
 30
0.0
 40
  0.0500
 1
AVdd1
 0
TEXT
 8
PARTS
 10
  8.4000
 20
 12.4300
 30
0.0
 40
  0.0500
 1
7
 0
LINE
 8
PARTS
 10
  8.4000
 20
 12.2000
 30
0.0
 11
  8.5000
 21
 12.2000
 31
0.0
 0
TEXT
 8
PARTS
 10
  8.5900
 20
 12.1750
 30
0.0
 40
  0.0500
 1
AVdd2
 0
TEXT
 8
PARTS
 10
  8.4000
 20
 12.2300
 30
0.0
 40
  0.0500
 1
8
 0
LINE
 8
PARTS
 10
  8.4000
 20
 12.0000
 30
0.0
 11
  8.5000
 21
 12.0000
 31
0.0
 0
TEXT
 8
PARTS
 10
  8.5900
 20
 11.9750
 30
0.0
 40
  0.0500
 1
REFin
 0
TEXT
 8
PARTS
 10
  8.4000
 20
 12.0300
 30
0.0
 40
  0.0500
 1
9
 0
LINE
 8
PARTS
 10
  8.4000
 20
 11.8000
 30
0.0
 11
  8.5000
 21
 11.8000
 31
0.0
 0
TEXT
 8
PARTS
 10
  8.5900
 20
 11.7750
 30
0.0
 40
  0.0500
 1
DGND
 0
TEXT
 8
PARTS
 10
  8.3600
 20
 11.8300
 30
0.0
 40
  0.0500
 1
10
 0
LINE
 8
PARTS
 10
  8.4000
 20
 11.6000
 30
0.0
 11
  8.5000
 21
 11.6000
 31
0.0
 0
TEXT
 8
PARTS
 10
  8.5900
 20
 11.5750
 30
0.0
 40
  0.0500
 1
SDGND
 0
TEXT
 8
PARTS
 10
  8.3600
 20
 11.6300
 30
0.0
 40
  0.0500
 1
11
 0
LINE
 8
PARTS
 10
  8.4000
 20
 11.4000
 30
0.0
 11
  8.5000
 21
 11.4000
 31
0.0
 0
TEXT
 8
PARTS
 10
  8.5900
 20
 11.3750
 30
0.0
 40
  0.0500
 1
TXdata
 0
TEXT
 8
PARTS
 10
  8.3600
 20
 11.4300
 30
0.0
 40
  0.0500
 1
12
 0
LINE
 8
PARTS
 10
  9.7000
 20
 11.0000
 30
0.0
 11
  9.7000
 21
 11.1000
 31
0.0
 0
LINE
 8
PARTS
 10
  9.7250
 20
 11.0250
 30
0.0
 11
  9.6750
 21
 10.9750
 31
0.0
 0
LINE
 8
PARTS
 10
  9.6750
 20
 11.0250
 30
0.0
 11
  9.7250
 21
 10.9750
 31
0.0
 0
TEXT
 8
PARTS
 10
  9.7250
 20
 11.1900
 30
0.0
 40
  0.0500
 50
 90.0000
 1
SDVdd
 0
TEXT
 8
PARTS
 10
  9.6700
 20
 10.9800
 30
0.0
 40
  0.0500
 50
 90.0000
 1
18
 0
LINE
 8
PARTS
 10
  9.5000
 20
 11.0000
 30
0.0
 11
  9.5000
 21
 11.1000
 31
0.0
 0
TEXT
 8
PARTS
 10
  9.5250
 20
 11.1900
 30
0.0
 40
  0.0500
 50
 90.0000
 1
MUXOUT
 0
TEXT
 8
PARTS
 10
  9.4700
 20
 10.9800
 30
0.0
 40
  0.0500
 50
 90.0000
 1
17
 0
LINE
 8
PARTS
 10
  9.3000
 20
 11.0000
 30
0.0
 11
  9.3000
 21
 11.1000
 31
0.0
 0
TEXT
 8
PARTS
 10
  9.3250
 20
 11.1900
 30
0.0
 40
  0.0500
 50
 90.0000
 1
LE
 0
TEXT
 8
PARTS
 10
  9.2700
 20
 10.9800
 30
0.0
 40
  0.0500
 50
 90.0000
 1
16
 0
LINE
 8
PARTS
 10
  9.1000
 20
 11.0000
 30
0.0
 11
  9.1000
 21
 11.1000
 31
0.0
 0
TEXT
 8
PARTS
 10
  9.1250
 20
 11.1900
 30
0.0
 40
  0.0500
 50
 90.0000
 1
DATA
 0
TEXT
 8
PARTS
 10
  9.0700
 20
 10.9800
 30
0.0
 40
  0.0500
 50
 90.0000
 1
15
 0
LINE
 8
PARTS
 10
  8.9000
 20
 11.0000
 30
0.0
 11
  8.9000
 21
 11.1000
 31
0.0
 0
TEXT
 8
PARTS
 10
  8.9250
 20
 11.1900
 30
0.0
 40
  0.0500
 50
 90.0000
 1
CLK
 0
TEXT
 8
PARTS
 10
  8.8700
 20
 10.9800
 30
0.0
 40
  0.0500
 50
 90.0000
 1
14
 0
LINE
 8
PARTS
 10
  8.7000
 20
 11.0000
 30
0.0
 11
  8.7000
 21
 11.1000
 31
0.0
 0
TEXT
 8
PARTS
 10
  8.7250
 20
 11.1900
 30
0.0
 40
  0.0500
 50
 90.0000
 1
CE
 0
TEXT
 8
PARTS
 10
  8.6700
 20
 10.9800
 30
0.0
 40
  0.0500
 50
 90.0000
 1
13
 0
LINE
 8
PARTS
 10
 10.0000
 20
 12.3000
 30
0.0
 11
  9.9000
 21
 12.3000
 31
0.0
 0
TEXT
 8
PARTS
 10
  9.7300
 20
 12.2750
 30
0.0
 40
  0.0500
 1
CP
 0
TEXT
 8
PARTS
 10
  9.9600
 20
 12.3300
 30
0.0
 40
  0.0500
 1
24
 0
LINE
 8
PARTS
 10
 10.0000
 20
 12.1000
 30
0.0
 11
  9.9000
 21
 12.1000
 31
0.0
 0
TEXT
 8
PARTS
 10
  9.6500
 20
 12.0750
 30
0.0
 40
  0.0500
 1
Rset
 0
TEXT
 8
PARTS
 10
  9.9600
 20
 12.1300
 30
0.0
 40
  0.0500
 1
23
 0
LINE
 8
PARTS
 10
 10.0000
 20
 11.9000
 30
0.0
 11
  9.9000
 21
 11.9000
 31
0.0
 0
TEXT
 8
PARTS
 10
  9.7300
 20
 11.8750
 30
0.0
 40
  0.0500
 1
Vp
 0
TEXT
 8
PARTS
 10
  9.9600
 20
 11.9300
 30
0.0
 40
  0.0500
 1
22
 0
LINE
 8
PARTS
 10
 10.0000
 20
 11.7000
 30
0.0
 11
  9.9000
 21
 11.7000
 31
0.0
 0
TEXT
 8
PARTS
 10
  9.6900
 20
 11.6750
 30
0.0
 40
  0.0500
 1
SW2
 0
TEXT
 8
PARTS
 10
  9.9600
 20
 11.7300
 30
0.0
 40
  0.0500
 1
21
 0
LINE
 8
PARTS
 10
 10.0000
 20
 11.5000
 30
0.0
 11
  9.9000
 21
 11.5000
 31
0.0
 0
TEXT
 8
PARTS
 10
  9.6900
 20
 11.4750
 30
0.0
 40
  0.0500
 1
SW1
 0
TEXT
 8
PARTS
 10
  9.9600
 20
 11.5300
 30
0.0
 40
  0.0500
 1
20
 0
LINE
 8
PARTS
 10
 10.0000
 20
 11.3000
 30
0.0
 11
  9.9000
 21
 11.3000
 31
0.0
 0
LINE
 8
PARTS
 10
 10.0250
 20
 11.3250
 30
0.0
 11
  9.9750
 21
 11.2750
 31
0.0
 0
LINE
 8
PARTS
 10
  9.9750
 20
 11.3250
 30
0.0
 11
 10.0250
 21
 11.2750
 31
0.0
 0
TEXT
 8
PARTS
 10
  9.6500
 20
 11.2750
 30
0.0
 40
  0.0500
 1
DVdd
 0
TEXT
 8
PARTS
 10
  9.9600
 20
 11.3300
 30
0.0
 40
  0.0500
 1
19
 0
LINE
 8
PARTS
 10
 10.0000
 20
 12.4000
 30
0.0
 11
  9.9000
 21
 12.4000
 31
0.0
 0
TEXT
 8
PARTS
 10
  9.6900
 20
 12.3750
 30
0.0
 40
  0.0500
 1
GND
 0
TEXT
 8
PARTS
 10
  9.9600
 20
 12.4300
 30
0.0
 40
  0.0500
 1
25
 0
POLYLINE
 8
PARTS
 66
1
 70
1
 10
0.0
 20
0.0
 30
0.0
 0
VERTEX
 8
PARTS
 10
  9.9000
 20
 12.5000
 30
0.0
 0
VERTEX
 8
PARTS
 10
  9.9000
 20
 11.1000
 30
0.0
 0
VERTEX
 8
PARTS
 10
  8.5000
 20
 11.1000
 30
0.0
 0
VERTEX
 8
PARTS
 10
  8.5000
 20
 12.5000
 30
0.0
 0
SEQEND
 8
PARTS
 0
TEXT
 8
PARTTEXT
 10
 10.0600
 20
  1.2186
 30
0.0
 40
  0.0514
 1
C25
 0
TEXT
 8
PARTTEXT
 10
 10.0600
 20
  1.0986
 30
0.0
 40
  0.0514
 1
4.7uF
 0
LINE
 8
PARTS
 10
  9.9000
 20
  0.8000
 30
0.0
 11
  9.9000
 21
  0.9000
 31
0.0
 0
LINE
 8
PARTS
 10
  9.9000
 20
  1.4000
 30
0.0
 11
  9.9000
 21
  1.3000
 31
0.0
 0
POLYLINE
 8
PARTS
 66
1
 10
0.0
 20
0.0
 30
0.0
 0
VERTEX
 8
PARTS
 10
  9.9800
 20
  1.0700
 30
0.0
 0
VERTEX
 8
PARTS
 10
  9.8200
 20
  1.0700
 30
0.0
 0
SEQEND
 8
PARTS
 0
POLYLINE
 8
PARTS
 66
1
 10
0.0
 20
0.0
 30
0.0
 0
VERTEX
 8
PARTS
 10
  9.9000
 20
  1.1300
 30
0.0
 0
VERTEX
 8
PARTS
 10
  9.9000
 20
  1.3000
 30
0.0
 0
SEQEND
 8
PARTS
 0
POLYLINE
 8
PARTS
 66
1
 10
0.0
 20
0.0
 30
0.0
 0
VERTEX
 8
PARTS
 10
  9.9000
 20
  0.9000
 30
0.0
 0
VERTEX
 8
PARTS
 10
  9.9000
 20
  1.0700
 30
0.0
 0
SEQEND
 8
PARTS
 0
POLYLINE
 8
PARTS
 66
1
 10
0.0
 20
0.0
 30
0.0
 0
VERTEX
 8
PARTS
 10
  9.9800
 20
  1.1300
 30
0.0
 0
VERTEX
 8
PARTS
 10
  9.8200
 20
  1.1300
 30
0.0
 0
SEQEND
 8
PARTS
 0
TEXT
 8
PARTTEXT
 10
  6.5000
 20
  8.7686
 30
0.0
 40
  0.0514
 1
J6
 0
TEXT
 8
PARTTEXT
 10
  6.5000
 20
  8.2586
 30
0.0
 40
  0.0514
 1
JUMPER1
 0
LINE
 8
PARTS
 10
  7.2000
 20
  8.5000
 30
0.0
 11
  6.9000
 21
  8.5000
 31
0.0
 0
TEXT
 8
PARTS
 10
  6.9600
 20
  8.5300
 30
0.0
 40
  0.0500
 1
1
 0
LINE
 8
PARTS
 10
  6.2000
 20
  8.5000
 30
0.0
 11
  6.5000
 21
  8.5000
 31
0.0
 0
TEXT
 8
PARTS
 10
  6.4000
 20
  8.5300
 30
0.0
 40
  0.0500
 1
2
 0
POLYLINE
 8
PARTS
 66
1
 10
0.0
 20
0.0
 30
0.0
 0
VERTEX
 8
PARTS
 10
  6.8000
 20
  8.5000
 30
0.0
 42
  1.0000
 0
VERTEX
 8
PARTS
 10
  6.6000
 20
  8.5000
 30
0.0
 0
SEQEND
 8
PARTS
 0
POLYLINE
 8
PARTS
 66
1
 70
1
 10
0.0
 20
0.0
 30
0.0
 0
VERTEX
 8
PARTS
 10
  6.6100
 20
  8.5000
 30
0.0
 42
  0.0985
 0
VERTEX
 8
PARTS
 10
  6.6092
 20
  8.5038
 30
0.0
 42
  0.0985
 0
VERTEX
 8
PARTS
 10
  6.6071
 20
  8.5071
 30
0.0
 42
  0.0985
 0
VERTEX
 8
PARTS
 10
  6.6038
 20
  8.5092
 30
0.0
 42
  0.0985
 0
VERTEX
 8
PARTS
 10
  6.6000
 20
  8.5100
 30
0.0
 42
  0.0985
 0
VERTEX
 8
PARTS
 10
  6.5962
 20
  8.5092
 30
0.0
 42
  0.0985
 0
VERTEX
 8
PARTS
 10
  6.5929
 20
  8.5071
 30
0.0
 42
  0.0985
 0
VERTEX
 8
PARTS
 10
  6.5908
 20
  8.5038
 30
0.0
 42
  0.0985
 0
VERTEX
 8
PARTS
 10
  6.5900
 20
  8.5000
 30
0.0
 42
  0.0985
 0
VERTEX
 8
PARTS
 10
  6.5908
 20
  8.4962
 30
0.0
 42
  0.0985
 0
VERTEX
 8
PARTS
 10
  6.5929
 20
  8.4929
 30
0.0
 42
  0.0985
 0
VERTEX
 8
PARTS
 10
  6.5962
 20
  8.4908
 30
0.0
 42
  0.0985
 0
VERTEX
 8
PARTS
 10
  6.6000
 20
  8.4900
 30
0.0
 42
  0.0985
 0
VERTEX
 8
PARTS
 10
  6.6038
 20
  8.4908
 30
0.0
 42
  0.0985
 0
VERTEX
 8
PARTS
 10
  6.6071
 20
  8.4929
 30
0.0
 42
  0.0985
 0
VERTEX
 8
PARTS
 10
  6.6092
 20
  8.4962
 30
0.0
 42
  0.0985
 0
SEQEND
 8
PARTS
 0
POLYLINE
 8
PARTS
 66
1
 70
1
 10
0.0
 20
0.0
 30
0.0
 0
VERTEX
 8
PARTS
 10
  6.8100
 20
  8.5000
 30
0.0
 42
  0.0985
 0
VERTEX
 8
PARTS
 10
  6.8092
 20
  8.5038
 30
0.0
 42
  0.0985
 0
VERTEX
 8
PARTS
 10
  6.8071
 20
  8.5071
 30
0.0
 42
  0.0985
 0
VERTEX
 8
PARTS
 10
  6.8038
 20
  8.5092
 30
0.0
 42
  0.0985
 0
VERTEX
 8
PARTS
 10
  6.8000
 20
  8.5100
 30
0.0
 42
  0.0985
 0
VERTEX
 8
PARTS
 10
  6.7962
 20
  8.5092
 30
0.0
 42
  0.0985
 0
VERTEX
 8
PARTS
 10
  6.7929
 20
  8.5071
 30
0.0
 42
  0.0985
 0
VERTEX
 8
PARTS
 10
  6.7908
 20
  8.5038
 30
0.0
 42
  0.0985
 0
VERTEX
 8
PARTS
 10
  6.7900
 20
  8.5000
 30
0.0
 42
  0.0985
 0
VERTEX
 8
PARTS
 10
  6.7908
 20
  8.4962
 30
0.0
 42
  0.0985
 0
VERTEX
 8
PARTS
 10
  6.7929
 20
  8.4929
 30
0.0
 42
  0.0985
 0
VERTEX
 8
PARTS
 10
  6.7962
 20
  8.4908
 30
0.0
 42
  0.0985
 0
VERTEX
 8
PARTS
 10
  6.8000
 20
  8.4900
 30
0.0
 42
  0.0985
 0
VERTEX
 8
PARTS
 10
  6.8038
 20
  8.4908
 30
0.0
 42
  0.0985
 0
VERTEX
 8
PARTS
 10
  6.8071
 20
  8.4929
 30
0.0
 42
  0.0985
 0
VERTEX
 8
PARTS
 10
  6.8092
 20
  8.4962
 30
0.0
 42
  0.0985
 0
SEQEND
 8
PARTS
 0
POLYLINE
 8
PARTS
 66
1
 10
0.0
 20
0.0
 30
0.0
 0
VERTEX
 8
PARTS
 10
  6.5000
 20
  8.5000
 30
0.0
 0
VERTEX
 8
PARTS
 10
  6.6000
 20
  8.5000
 30
0.0
 0
SEQEND
 8
PARTS
 0
POLYLINE
 8
PARTS
 66
1
 10
0.0
 20
0.0
 30
0.0
 0
VERTEX
 8
PARTS
 10
  6.8000
 20
  8.5000
 30
0.0
 0
VERTEX
 8
PARTS
 10
  6.9000
 20
  8.5000
 30
0.0
 0
SEQEND
 8
PARTS
 0
POLYLINE
 8
PARTS
 66
1
 70
1
 10
0.0
 20
0.0
 30
0.0
 0
VERTEX
 8
PARTS
 10
  6.9000
 20
  8.4000
 30
0.0
 0
VERTEX
 8
PARTS
 10
  6.5000
 20
  8.4000
 30
0.0
 0
VERTEX
 8
PARTS
 10
  6.5000
 20
  8.7000
 30
0.0
 0
VERTEX
 8
PARTS
 10
  6.9000
 20
  8.7000
 30
0.0
 0
SEQEND
 8
PARTS
 0
TEXT
 8
PARTTEXT
 10
  7.6000
 20
  9.8686
 30
0.0
 40
  0.0514
 1
TP4
 0
TEXT
 8
PARTTEXT
 10
  7.6000
 20
  9.4586
 30
0.0
 40
  0.0514
 1
TEST POINT
 0
LINE
 8
PARTS
 10
  8.0000
 20
  9.7000
 30
0.0
 11
  7.7000
 21
  9.7000
 31
0.0
 0
TEXT
 8
PARTS
 10
  7.7600
 20
  9.7300
 30
0.0
 40
  0.0500
 1
1
 0
POLYLINE
 8
PARTS
 66
1
 70
1
 10
0.0
 20
0.0
 30
0.0
 0
VERTEX
 8
PARTS
 10
  7.7000
 20
  9.6000
 30
0.0
 0
VERTEX
 8
PARTS
 10
  7.6000
 20
  9.6000
 30
0.0
 0
VERTEX
 8
PARTS
 10
  7.6000
 20
  9.8000
 30
0.0
 0
VERTEX
 8
PARTS
 10
  7.7000
 20
  9.8000
 30
0.0
 0
SEQEND
 8
PARTS
 0
TEXT
 8
PARTTEXT
 10
  2.9600
 20
 11.7186
 30
0.0
 40
  0.0514
 1
C14
 0
TEXT
 8
PARTTEXT
 10
  2.9600
 20
 11.5986
 30
0.0
 40
  0.0514
 1
10nF
 0
LINE
 8
PARTS
 10
  2.8000
 20
 11.3000
 30
0.0
 11
  2.8000
 21
 11.4000
 31
0.0
 0
LINE
 8
PARTS
 10
  2.8000
 20
 11.9000
 30
0.0
 11
  2.8000
 21
 11.8000
 31
0.0
 0
POLYLINE
 8
PARTS
 66
1
 10
0.0
 20
0.0
 30
0.0
 0
VERTEX
 8
PARTS
 10
  2.8800
 20
 11.5700
 30
0.0
 0
VERTEX
 8
PARTS
 10
  2.7200
 20
 11.5700
 30
0.0
 0
SEQEND
 8
PARTS
 0
POLYLINE
 8
PARTS
 66
1
 10
0.0
 20
0.0
 30
0.0
 0
VERTEX
 8
PARTS
 10
  2.8000
 20
 11.6300
 30
0.0
 0
VERTEX
 8
PARTS
 10
  2.8000
 20
 11.8000
 30
0.0
 0
SEQEND
 8
PARTS
 0
POLYLINE
 8
PARTS
 66
1
 10
0.0
 20
0.0
 30
0.0
 0
VERTEX
 8
PARTS
 10
  2.8000
 20
 11.4000
 30
0.0
 0
VERTEX
 8
PARTS
 10
  2.8000
 20
 11.5700
 30
0.0
 0
SEQEND
 8
PARTS
 0
POLYLINE
 8
PARTS
 66
1
 10
0.0
 20
0.0
 30
0.0
 0
VERTEX
 8
PARTS
 10
  2.8800
 20
 11.6300
 30
0.0
 0
VERTEX
 8
PARTS
 10
  2.7200
 20
 11.6300
 30
0.0
 0
SEQEND
 8
PARTS
 0
TEXT
 8
PARTTEXT
 10
 17.6500
 20
 13.0886
 30
0.0
 40
  0.0514
 1
C6
 0
TEXT
 8
PARTTEXT
 10
 17.5500
 20
 12.8186
 30
0.0
 40
  0.0514
 1
1nF
 0
LINE
 8
PARTS
 10
 17.4000
 20
 13.0000
 30
0.0
 11
 17.5000
 21
 13.0000
 31
0.0
 0
LINE
 8
PARTS
 10
 18.0000
 20
 13.0000
 30
0.0
 11
 17.9000
 21
 13.0000
 31
0.0
 0
POLYLINE
 8
PARTS
 66
1
 10
0.0
 20
0.0
 30
0.0
 0
VERTEX
 8
PARTS
 10
 17.6700
 20
 12.9200
 30
0.0
 0
VERTEX
 8
PARTS
 10
 17.6700
 20
 13.0800
 30
0.0
 0
SEQEND
 8
PARTS
 0
POLYLINE
 8
PARTS
 66
1
 10
0.0
 20
0.0
 30
0.0
 0
VERTEX
 8
PARTS
 10
 17.7300
 20
 13.0000
 30
0.0
 0
VERTEX
 8
PARTS
 10
 17.9000
 20
 13.0000
 30
0.0
 0
SEQEND
 8
PARTS
 0
POLYLINE
 8
PARTS
 66
1
 10
0.0
 20
0.0
 30
0.0
 0
VERTEX
 8
PARTS
 10
 17.5000
 20
 13.0000
 30
0.0
 0
VERTEX
 8
PARTS
 10
 17.6700
 20
 13.0000
 30
0.0
 0
SEQEND
 8
PARTS
 0
POLYLINE
 8
PARTS
 66
1
 10
0.0
 20
0.0
 30
0.0
 0
VERTEX
 8
PARTS
 10
 17.7300
 20
 12.9200
 30
0.0
 0
VERTEX
 8
PARTS
 10
 17.7300
 20
 13.0800
 30
0.0
 0
SEQEND
 8
PARTS
 0
TEXT
 8
PARTTEXT
 10
 10.4000
 20
  1.5186
 30
0.0
 40
  0.0514
 1
R17
 0
TEXT
 8
PARTTEXT
 10
 10.4000
 20
  1.2186
 30
0.0
 40
  0.0514
 1
0
 0
LINE
 8
PARTS
 10
 10.9000
 20
  1.4000
 30
0.0
 11
 10.8000
 21
  1.4000
 31
0.0
 0
LINE
 8
PARTS
 10
 10.3000
 20
  1.4000
 30
0.0
 11
 10.4000
 21
  1.4000
 31
0.0
 0
POLYLINE
 8
PARTS
 66
1
 10
0.0
 20
0.0
 30
0.0
 0
VERTEX
 8
PARTS
 10
 10.5400
 20
  1.3800
 30
0.0
 0
VERTEX
 8
PARTS
 10
 10.6000
 20
  1.4400
 30
0.0
 0
SEQEND
 8
PARTS
 0
POLYLINE
 8
PARTS
 66
1
 10
0.0
 20
0.0
 30
0.0
 0
VERTEX
 8
PARTS
 10
 10.5400
 20
  1.3800
 30
0.0
 0
VERTEX
 8
PARTS
 10
 10.4800
 20
  1.4400
 30
0.0
 0
SEQEND
 8
PARTS
 0
POLYLINE
 8
PARTS
 66
1
 10
0.0
 20
0.0
 30
0.0
 0
VERTEX
 8
PARTS
 10
 10.4800
 20
  1.4400
 30
0.0
 0
VERTEX
 8
PARTS
 10
 10.4400
 20
  1.4000
 30
0.0
 0
SEQEND
 8
PARTS
 0
POLYLINE
 8
PARTS
 66
1
 10
0.0
 20
0.0
 30
0.0
 0
VERTEX
 8
PARTS
 10
 10.6000
 20
  1.4400
 30
0.0
 0
VERTEX
 8
PARTS
 10
 10.6600
 20
  1.3800
 30
0.0
 0
SEQEND
 8
PARTS
 0
POLYLINE
 8
PARTS
 66
1
 10
0.0
 20
0.0
 30
0.0
 0
VERTEX
 8
PARTS
 10
 10.6600
 20
  1.3800
 30
0.0
 0
VERTEX
 8
PARTS
 10
 10.7200
 20
  1.4400
 30
0.0
 0
SEQEND
 8
PARTS
 0
POLYLINE
 8
PARTS
 66
1
 10
0.0
 20
0.0
 30
0.0
 0
VERTEX
 8
PARTS
 10
 10.7600
 20
  1.4000
 30
0.0
 0
VERTEX
 8
PARTS
 10
 10.7200
 20
  1.4400
 30
0.0
 0
SEQEND
 8
PARTS
 0
POLYLINE
 8
PARTS
 66
1
 10
0.0
 20
0.0
 30
0.0
 0
VERTEX
 8
PARTS
 10
 10.7600
 20
  1.4000
 30
0.0
 0
VERTEX
 8
PARTS
 10
 10.8000
 20
  1.4000
 30
0.0
 0
SEQEND
 8
PARTS
 0
POLYLINE
 8
PARTS
 66
1
 10
0.0
 20
0.0
 30
0.0
 0
VERTEX
 8
PARTS
 10
 10.4400
 20
  1.4000
 30
0.0
 0
VERTEX
 8
PARTS
 10
 10.4000
 20
  1.4000
 30
0.0
 0
SEQEND
 8
PARTS
 0
TEXT
 8
PARTTEXT
 10
  6.5000
 20
  9.4686
 30
0.0
 40
  0.0514
 1
J5
 0
TEXT
 8
PARTTEXT
 10
  6.5000
 20
  8.9586
 30
0.0
 40
  0.0514
 1
JUMPER1
 0
LINE
 8
PARTS
 10
  7.2000
 20
  9.2000
 30
0.0
 11
  6.9000
 21
  9.2000
 31
0.0
 0
TEXT
 8
PARTS
 10
  6.9600
 20
  9.2300
 30
0.0
 40
  0.0500
 1
1
 0
LINE
 8
PARTS
 10
  6.2000
 20
  9.2000
 30
0.0
 11
  6.5000
 21
  9.2000
 31
0.0
 0
TEXT
 8
PARTS
 10
  6.4000
 20
  9.2300
 30
0.0
 40
  0.0500
 1
2
 0
POLYLINE
 8
PARTS
 66
1
 10
0.0
 20
0.0
 30
0.0
 0
VERTEX
 8
PARTS
 10
  6.8000
 20
  9.2000
 30
0.0
 42
  1.0000
 0
VERTEX
 8
PARTS
 10
  6.6000
 20
  9.2000
 30
0.0
 0
SEQEND
 8
PARTS
 0
POLYLINE
 8
PARTS
 66
1
 70
1
 10
0.0
 20
0.0
 30
0.0
 0
VERTEX
 8
PARTS
 10
  6.6100
 20
  9.2000
 30
0.0
 42
  0.0985
 0
VERTEX
 8
PARTS
 10
  6.6092
 20
  9.2038
 30
0.0
 42
  0.0985
 0
VERTEX
 8
PARTS
 10
  6.6071
 20
  9.2071
 30
0.0
 42
  0.0985
 0
VERTEX
 8
PARTS
 10
  6.6038
 20
  9.2092
 30
0.0
 42
  0.0985
 0
VERTEX
 8
PARTS
 10
  6.6000
 20
  9.2100
 30
0.0
 42
  0.0985
 0
VERTEX
 8
PARTS
 10
  6.5962
 20
  9.2092
 30
0.0
 42
  0.0985
 0
VERTEX
 8
PARTS
 10
  6.5929
 20
  9.2071
 30
0.0
 42
  0.0985
 0
VERTEX
 8
PARTS
 10
  6.5908
 20
  9.2038
 30
0.0
 42
  0.0985
 0
VERTEX
 8
PARTS
 10
  6.5900
 20
  9.2000
 30
0.0
 42
  0.0985
 0
VERTEX
 8
PARTS
 10
  6.5908
 20
  9.1962
 30
0.0
 42
  0.0985
 0
VERTEX
 8
PARTS
 10
  6.5929
 20
  9.1929
 30
0.0
 42
  0.0985
 0
VERTEX
 8
PARTS
 10
  6.5962
 20
  9.1908
 30
0.0
 42
  0.0985
 0
VERTEX
 8
PARTS
 10
  6.6000
 20
  9.1900
 30
0.0
 42
  0.0985
 0
VERTEX
 8
PARTS
 10
  6.6038
 20
  9.1908
 30
0.0
 42
  0.0985
 0
VERTEX
 8
PARTS
 10
  6.6071
 20
  9.1929
 30
0.0
 42
  0.0985
 0
VERTEX
 8
PARTS
 10
  6.6092
 20
  9.1962
 30
0.0
 42
  0.0985
 0
SEQEND
 8
PARTS
 0
POLYLINE
 8
PARTS
 66
1
 70
1
 10
0.0
 20
0.0
 30
0.0
 0
VERTEX
 8
PARTS
 10
  6.8100
 20
  9.2000
 30
0.0
 42
  0.0985
 0
VERTEX
 8
PARTS
 10
  6.8092
 20
  9.2038
 30
0.0
 42
  0.0985
 0
VERTEX
 8
PARTS
 10
  6.8071
 20
  9.2071
 30
0.0
 42
  0.0985
 0
VERTEX
 8
PARTS
 10
  6.8038
 20
  9.2092
 30
0.0
 42
  0.0985
 0
VERTEX
 8
PARTS
 10
  6.8000
 20
  9.2100
 30
0.0
 42
  0.0985
 0
VERTEX
 8
PARTS
 10
  6.7962
 20
  9.2092
 30
0.0
 42
  0.0985
 0
VERTEX
 8
PARTS
 10
  6.7929
 20
  9.2071
 30
0.0
 42
  0.0985
 0
VERTEX
 8
PARTS
 10
  6.7908
 20
  9.2038
 30
0.0
 42
  0.0985
 0
VERTEX
 8
PARTS
 10
  6.7900
 20
  9.2000
 30
0.0
 42
  0.0985
 0
VERTEX
 8
PARTS
 10
  6.7908
 20
  9.1962
 30
0.0
 42
  0.0985
 0
VERTEX
 8
PARTS
 10
  6.7929
 20
  9.1929
 30
0.0
 42
  0.0985
 0
VERTEX
 8
PARTS
 10
  6.7962
 20
  9.1908
 30
0.0
 42
  0.0985
 0
VERTEX
 8
PARTS
 10
  6.8000
 20
  9.1900
 30
0.0
 42
  0.0985
 0
VERTEX
 8
PARTS
 10
  6.8038
 20
  9.1908
 30
0.0
 42
  0.0985
 0
VERTEX
 8
PARTS
 10
  6.8071
 20
  9.1929
 30
0.0
 42
  0.0985
 0
VERTEX
 8
PARTS
 10
  6.8092
 20
  9.1962
 30
0.0
 42
  0.0985
 0
SEQEND
 8
PARTS
 0
POLYLINE
 8
PARTS
 66
1
 10
0.0
 20
0.0
 30
0.0
 0
VERTEX
 8
PARTS
 10
  6.5000
 20
  9.2000
 30
0.0
 0
VERTEX
 8
PARTS
 10
  6.6000
 20
  9.2000
 30
0.0
 0
SEQEND
 8
PARTS
 0
POLYLINE
 8
PARTS
 66
1
 10
0.0
 20
0.0
 30
0.0
 0
VERTEX
 8
PARTS
 10
  6.8000
 20
  9.2000
 30
0.0
 0
VERTEX
 8
PARTS
 10
  6.9000
 20
  9.2000
 30
0.0
 0
SEQEND
 8
PARTS
 0
POLYLINE
 8
PARTS
 66
1
 70
1
 10
0.0
 20
0.0
 30
0.0
 0
VERTEX
 8
PARTS
 10
  6.9000
 20
  9.1000
 30
0.0
 0
VERTEX
 8
PARTS
 10
  6.5000
 20
  9.1000
 30
0.0
 0
VERTEX
 8
PARTS
 10
  6.5000
 20
  9.4000
 30
0.0
 0
VERTEX
 8
PARTS
 10
  6.9000
 20
  9.4000
 30
0.0
 0
SEQEND
 8
PARTS
 0
TEXT
 8
PARTTEXT
 10
  7.4700
 20
  4.3586
 30
0.0
 40
  0.0514
 1
U3
 0
TEXT
 8
PARTTEXT
 10
  7.6800
 20
  3.3786
 30
0.0
 40
  0.0514
 1
ADP3300
 0
LINE
 8
PARTS
 10
  7.3000
 20
  4.1000
 30
0.0
 11
  7.4000
 21
  4.1000
 31
0.0
 0
TEXT
 8
PARTS
 10
  7.4900
 20
  4.0750
 30
0.0
 40
  0.0500
 1
GND
 0
TEXT
 8
PARTS
 10
  7.3000
 20
  4.1300
 30
0.0
 40
  0.0500
 1
1
 0
LINE
 8
PARTS
 10
  7.3000
 20
  3.9000
 30
0.0
 11
  7.4000
 21
  3.9000
 31
0.0
 0
TEXT
 8
PARTS
 10
  7.4900
 20
  3.8750
 30
0.0
 40
  0.0500
 1
NR
 0
TEXT
 8
PARTS
 10
  7.3000
 20
  3.9300
 30
0.0
 40
  0.0500
 1
2
 0
LINE
 8
PARTS
 10
  7.3000
 20
  3.7000
 30
0.0
 11
  7.4000
 21
  3.7000
 31
0.0
 0
TEXT
 8
PARTS
 10
  7.4900
 20
  3.6750
 30
0.0
 40
  0.0500
 1
SD
 0
TEXT
 8
PARTS
 10
  7.3000
 20
  3.7300
 30
0.0
 40
  0.0500
 1
3
 0
LINE
 8
PARTS
 10
  8.1000
 20
  4.1000
 30
0.0
 11
  8.0000
 21
  4.1000
 31
0.0
 0
TEXT
 8
PARTS
 10
  7.7900
 20
  4.0750
 30
0.0
 40
  0.0500
 1
ERR
 0
TEXT
 8
PARTS
 10
  8.0600
 20
  4.1300
 30
0.0
 40
  0.0500
 1
4
 0
LINE
 8
PARTS
 10
  8.1000
 20
  3.9000
 30
0.0
 11
  8.0000
 21
  3.9000
 31
0.0
 0
TEXT
 8
PARTS
 10
  7.8300
 20
  3.8750
 30
0.0
 40
  0.0500
 1
IN
 0
TEXT
 8
PARTS
 10
  8.0600
 20
  3.9300
 30
0.0
 40
  0.0500
 1
5
 0
LINE
 8
PARTS
 10
  8.1000
 20
  3.7000
 30
0.0
 11
  8.0000
 21
  3.7000
 31
0.0
 0
TEXT
 8
PARTS
 10
  7.7900
 20
  3.6750
 30
0.0
 40
  0.0500
 1
OUT
 0
TEXT
 8
PARTS
 10
  8.0600
 20
  3.7300
 30
0.0
 40
  0.0500
 1
6
 0
POLYLINE
 8
PARTS
 66
1
 70
1
 10
0.0
 20
0.0
 30
0.0
 0
VERTEX
 8
PARTS
 10
  7.4000
 20
  4.3000
 30
0.0
 0
VERTEX
 8
PARTS
 10
  8.0000
 20
  4.3000
 30
0.0
 0
VERTEX
 8
PARTS
 10
  8.0000
 20
  3.5000
 30
0.0
 0
VERTEX
 8
PARTS
 10
  7.4000
 20
  3.5000
 30
0.0
 0
SEQEND
 8
PARTS
 0
TEXT
 8
PARTTEXT
 10
  7.9500
 20
 13.7886
 30
0.0
 40
  0.0514
 1
C2
 0
TEXT
 8
PARTTEXT
 10
  7.8500
 20
 13.5186
 30
0.0
 40
  0.0514
 1
0.1uF
 0
LINE
 8
PARTS
 10
  7.7000
 20
 13.7000
 30
0.0
 11
  7.8000
 21
 13.7000
 31
0.0
 0
LINE
 8
PARTS
 10
  8.3000
 20
 13.7000
 30
0.0
 11
  8.2000
 21
 13.7000
 31
0.0
 0
POLYLINE
 8
PARTS
 66
1
 10
0.0
 20
0.0
 30
0.0
 0
VERTEX
 8
PARTS
 10
  7.9700
 20
 13.6200
 30
0.0
 0
VERTEX
 8
PARTS
 10
  7.9700
 20
 13.7800
 30
0.0
 0
SEQEND
 8
PARTS
 0
POLYLINE
 8
PARTS
 66
1
 10
0.0
 20
0.0
 30
0.0
 0
VERTEX
 8
PARTS
 10
  8.0300
 20
 13.7000
 30
0.0
 0
VERTEX
 8
PARTS
 10
  8.2000
 20
 13.7000
 30
0.0
 0
SEQEND
 8
PARTS
 0
POLYLINE
 8
PARTS
 66
1
 10
0.0
 20
0.0
 30
0.0
 0
VERTEX
 8
PARTS
 10
  7.8000
 20
 13.7000
 30
0.0
 0
VERTEX
 8
PARTS
 10
  7.9700
 20
 13.7000
 30
0.0
 0
SEQEND
 8
PARTS
 0
POLYLINE
 8
PARTS
 66
1
 10
0.0
 20
0.0
 30
0.0
 0
VERTEX
 8
PARTS
 10
  8.0300
 20
 13.6200
 30
0.0
 0
VERTEX
 8
PARTS
 10
  8.0300
 20
 13.7800
 30
0.0
 0
SEQEND
 8
PARTS
 0
TEXT
 8
PARTTEXT
 10
  6.8500
 20
 12.8886
 30
0.0
 40
  0.0514
 1
C8
 0
TEXT
 8
PARTTEXT
 10
  6.7500
 20
 12.6186
 30
0.0
 40
  0.0514
 1
1nF
 0
LINE
 8
PARTS
 10
  6.6000
 20
 12.8000
 30
0.0
 11
  6.7000
 21
 12.8000
 31
0.0
 0
LINE
 8
PARTS
 10
  7.2000
 20
 12.8000
 30
0.0
 11
  7.1000
 21
 12.8000
 31
0.0
 0
POLYLINE
 8
PARTS
 66
1
 10
0.0
 20
0.0
 30
0.0
 0
VERTEX
 8
PARTS
 10
  6.8700
 20
 12.7200
 30
0.0
 0
VERTEX
 8
PARTS
 10
  6.8700
 20
 12.8800
 30
0.0
 0
SEQEND
 8
PARTS
 0
POLYLINE
 8
PARTS
 66
1
 10
0.0
 20
0.0
 30
0.0
 0
VERTEX
 8
PARTS
 10
  6.9300
 20
 12.8000
 30
0.0
 0
VERTEX
 8
PARTS
 10
  7.1000
 20
 12.8000
 30
0.0
 0
SEQEND
 8
PARTS
 0
POLYLINE
 8
PARTS
 66
1
 10
0.0
 20
0.0
 30
0.0
 0
VERTEX
 8
PARTS
 10
  6.7000
 20
 12.8000
 30
0.0
 0
VERTEX
 8
PARTS
 10
  6.8700
 20
 12.8000
 30
0.0
 0
SEQEND
 8
PARTS
 0
POLYLINE
 8
PARTS
 66
1
 10
0.0
 20
0.0
 30
0.0
 0
VERTEX
 8
PARTS
 10
  6.9300
 20
 12.7200
 30
0.0
 0
VERTEX
 8
PARTS
 10
  6.9300
 20
 12.8800
 30
0.0
 0
SEQEND
 8
PARTS
 0
TEXT
 8
PARTTEXT
 10
  1.1000
 20
 11.5186
 30
0.0
 40
  0.0514
 1
R8
 0
TEXT
 8
PARTTEXT
 10
  1.1000
 20
 11.2186
 30
0.0
 40
  0.0514
 1
0
 0
LINE
 8
PARTS
 10
  1.6000
 20
 11.4000
 30
0.0
 11
  1.5000
 21
 11.4000
 31
0.0
 0
LINE
 8
PARTS
 10
  1.0000
 20
 11.4000
 30
0.0
 11
  1.1000
 21
 11.4000
 31
0.0
 0
POLYLINE
 8
PARTS
 66
1
 10
0.0
 20
0.0
 30
0.0
 0
VERTEX
 8
PARTS
 10
  1.2400
 20
 11.3800
 30
0.0
 0
VERTEX
 8
PARTS
 10
  1.3000
 20
 11.4400
 30
0.0
 0
SEQEND
 8
PARTS
 0
POLYLINE
 8
PARTS
 66
1
 10
0.0
 20
0.0
 30
0.0
 0
VERTEX
 8
PARTS
 10
  1.2400
 20
 11.3800
 30
0.0
 0
VERTEX
 8
PARTS
 10
  1.1800
 20
 11.4400
 30
0.0
 0
SEQEND
 8
PARTS
 0
POLYLINE
 8
PARTS
 66
1
 10
0.0
 20
0.0
 30
0.0
 0
VERTEX
 8
PARTS
 10
  1.1800
 20
 11.4400
 30
0.0
 0
VERTEX
 8
PARTS
 10
  1.1400
 20
 11.4000
 30
0.0
 0
SEQEND
 8
PARTS
 0
POLYLINE
 8
PARTS
 66
1
 10
0.0
 20
0.0
 30
0.0
 0
VERTEX
 8
PARTS
 10
  1.3000
 20
 11.4400
 30
0.0
 0
VERTEX
 8
PARTS
 10
  1.3600
 20
 11.3800
 30
0.0
 0
SEQEND
 8
PARTS
 0
POLYLINE
 8
PARTS
 66
1
 10
0.0
 20
0.0
 30
0.0
 0
VERTEX
 8
PARTS
 10
  1.3600
 20
 11.3800
 30
0.0
 0
VERTEX
 8
PARTS
 10
  1.4200
 20
 11.4400
 30
0.0
 0
SEQEND
 8
PARTS
 0
POLYLINE
 8
PARTS
 66
1
 10
0.0
 20
0.0
 30
0.0
 0
VERTEX
 8
PARTS
 10
  1.4600
 20
 11.4000
 30
0.0
 0
VERTEX
 8
PARTS
 10
  1.4200
 20
 11.4400
 30
0.0
 0
SEQEND
 8
PARTS
 0
POLYLINE
 8
PARTS
 66
1
 10
0.0
 20
0.0
 30
0.0
 0
VERTEX
 8
PARTS
 10
  1.4600
 20
 11.4000
 30
0.0
 0
VERTEX
 8
PARTS
 10
  1.5000
 20
 11.4000
 30
0.0
 0
SEQEND
 8
PARTS
 0
POLYLINE
 8
PARTS
 66
1
 10
0.0
 20
0.0
 30
0.0
 0
VERTEX
 8
PARTS
 10
  1.1400
 20
 11.4000
 30
0.0
 0
VERTEX
 8
PARTS
 10
  1.1000
 20
 11.4000
 30
0.0
 0
SEQEND
 8
PARTS
 0
TEXT
 8
PARTTEXT
 10
  5.1000
 20
 11.4686
 30
0.0
 40
  0.0514
 1
J3
 0
TEXT
 8
PARTTEXT
 10
  5.1000
 20
 10.8586
 30
0.0
 40
  0.0514
 1
CON3
 0
LINE
 8
PARTS
 10
  5.6000
 20
 11.1000
 30
0.0
 11
  5.3000
 21
 11.1000
 31
0.0
 0
TEXT
 8
PARTS
 10
  5.3600
 20
 11.1300
 30
0.0
 40
  0.0500
 1
1
 0
LINE
 8
PARTS
 10
  5.6000
 20
 11.2000
 30
0.0
 11
  5.3000
 21
 11.2000
 31
0.0
 0
TEXT
 8
PARTS
 10
  5.3600
 20
 11.2300
 30
0.0
 40
  0.0500
 1
2
 0
LINE
 8
PARTS
 10
  5.6000
 20
 11.3000
 30
0.0
 11
  5.3000
 21
 11.3000
 31
0.0
 0
TEXT
 8
PARTS
 10
  5.3600
 20
 11.3300
 30
0.0
 40
  0.0500
 1
3
 0
POLYLINE
 8
PARTS
 66
1
 70
1
 10
0.0
 20
0.0
 30
0.0
 0
VERTEX
 8
PARTS
 10
  5.3000
 20
 11.0000
 30
0.0
 0
VERTEX
 8
PARTS
 10
  5.1000
 20
 11.0000
 30
0.0
 0
VERTEX
 8
PARTS
 10
  5.1000
 20
 11.4000
 30
0.0
 0
VERTEX
 8
PARTS
 10
  5.3000
 20
 11.4000
 30
0.0
 0
SEQEND
 8
PARTS
 0
TEXT
 8
PARTTEXT
 10
 15.2600
 20
 12.6186
 30
0.0
 40
  0.0514
 1
C9
 0
TEXT
 8
PARTTEXT
 10
 15.2600
 20
 12.4986
 30
0.0
 40
  0.0514
 1
50.8nF
 0
LINE
 8
PARTS
 10
 15.1000
 20
 12.2000
 30
0.0
 11
 15.1000
 21
 12.3000
 31
0.0
 0
LINE
 8
PARTS
 10
 15.1000
 20
 12.8000
 30
0.0
 11
 15.1000
 21
 12.7000
 31
0.0
 0
POLYLINE
 8
PARTS
 66
1
 10
0.0
 20
0.0
 30
0.0
 0
VERTEX
 8
PARTS
 10
 15.1800
 20
 12.4700
 30
0.0
 0
VERTEX
 8
PARTS
 10
 15.0200
 20
 12.4700
 30
0.0
 0
SEQEND
 8
PARTS
 0
POLYLINE
 8
PARTS
 66
1
 10
0.0
 20
0.0
 30
0.0
 0
VERTEX
 8
PARTS
 10
 15.1000
 20
 12.5300
 30
0.0
 0
VERTEX
 8
PARTS
 10
 15.1000
 20
 12.7000
 30
0.0
 0
SEQEND
 8
PARTS
 0
POLYLINE
 8
PARTS
 66
1
 10
0.0
 20
0.0
 30
0.0
 0
VERTEX
 8
PARTS
 10
 15.1000
 20
 12.3000
 30
0.0
 0
VERTEX
 8
PARTS
 10
 15.1000
 20
 12.4700
 30
0.0
 0
SEQEND
 8
PARTS
 0
POLYLINE
 8
PARTS
 66
1
 10
0.0
 20
0.0
 30
0.0
 0
VERTEX
 8
PARTS
 10
 15.1800
 20
 12.5300
 30
0.0
 0
VERTEX
 8
PARTS
 10
 15.0200
 20
 12.5300
 30
0.0
 0
SEQEND
 8
PARTS
 0
TEXT
 8
PARTTEXT
 10
  8.1000
 20
  9.8686
 30
0.0
 40
  0.0514
 1
TP5
 0
TEXT
 8
PARTTEXT
 10
  8.1000
 20
  9.4586
 30
0.0
 40
  0.0514
 1
TEST POINT
 0
LINE
 8
PARTS
 10
  8.5000
 20
  9.7000
 30
0.0
 11
  8.2000
 21
  9.7000
 31
0.0
 0
TEXT
 8
PARTS
 10
  8.2600
 20
  9.7300
 30
0.0
 40
  0.0500
 1
1
 0
POLYLINE
 8
PARTS
 66
1
 70
1
 10
0.0
 20
0.0
 30
0.0
 0
VERTEX
 8
PARTS
 10
  8.2000
 20
  9.6000
 30
0.0
 0
VERTEX
 8
PARTS
 10
  8.1000
 20
  9.6000
 30
0.0
 0
VERTEX
 8
PARTS
 10
  8.1000
 20
  9.8000
 30
0.0
 0
VERTEX
 8
PARTS
 10
  8.2000
 20
  9.8000
 30
0.0
 0
SEQEND
 8
PARTS
 0
TEXT
 8
PARTTEXT
 10
 10.2500
 20
 10.7886
 30
0.0
 40
  0.0514
 1
C18
 0
TEXT
 8
PARTTEXT
 10
 10.1500
 20
 10.5186
 30
0.0
 40
  0.0514
 1
CAP
 0
LINE
 8
PARTS
 10
 10.0000
 20
 10.7000
 30
0.0
 11
 10.1000
 21
 10.7000
 31
0.0
 0
LINE
 8
PARTS
 10
 10.6000
 20
 10.7000
 30
0.0
 11
 10.5000
 21
 10.7000
 31
0.0
 0
POLYLINE
 8
PARTS
 66
1
 10
0.0
 20
0.0
 30
0.0
 0
VERTEX
 8
PARTS
 10
 10.2700
 20
 10.6200
 30
0.0
 0
VERTEX
 8
PARTS
 10
 10.2700
 20
 10.7800
 30
0.0
 0
SEQEND
 8
PARTS
 0
POLYLINE
 8
PARTS
 66
1
 10
0.0
 20
0.0
 30
0.0
 0
VERTEX
 8
PARTS
 10
 10.3300
 20
 10.7000
 30
0.0
 0
VERTEX
 8
PARTS
 10
 10.5000
 20
 10.7000
 30
0.0
 0
SEQEND
 8
PARTS
 0
POLYLINE
 8
PARTS
 66
1
 10
0.0
 20
0.0
 30
0.0
 0
VERTEX
 8
PARTS
 10
 10.1000
 20
 10.7000
 30
0.0
 0
VERTEX
 8
PARTS
 10
 10.2700
 20
 10.7000
 30
0.0
 0
SEQEND
 8
PARTS
 0
POLYLINE
 8
PARTS
 66
1
 10
0.0
 20
0.0
 30
0.0
 0
VERTEX
 8
PARTS
 10
 10.3300
 20
 10.6200
 30
0.0
 0
VERTEX
 8
PARTS
 10
 10.3300
 20
 10.7800
 30
0.0
 0
SEQEND
 8
PARTS
 0
TEXT
 8
PARTTEXT
 10
 11.6000
 20
  7.7186
 30
0.0
 40
  0.0514
 1
J7
 0
TEXT
 8
PARTTEXT
 10
 11.6000
 20
  7.0186
 30
0.0
 40
  0.0514
 1
CON3
 0
LINE
 8
PARTS
 10
 11.3000
 20
  7.5000
 30
0.0
 11
 11.6000
 21
  7.5000
 31
0.0
 0
TEXT
 8
PARTS
 10
 11.5000
 20
  7.5300
 30
0.0
 40
  0.0500
 1
1
 0
LINE
 8
PARTS
 10
 11.3000
 20
  7.4000
 30
0.0
 11
 11.6000
 21
  7.4000
 31
0.0
 0
TEXT
 8
PARTS
 10
 11.5000
 20
  7.4300
 30
0.0
 40
  0.0500
 1
2
 0
LINE
 8
PARTS
 10
 11.3000
 20
  7.3000
 30
0.0
 11
 11.6000
 21
  7.3000
 31
0.0
 0
TEXT
 8
PARTS
 10
 11.5000
 20
  7.3300
 30
0.0
 40
  0.0500
 1
3
 0
POLYLINE
 8
PARTS
 66
1
 70
1
 10
0.0
 20
0.0
 30
0.0
 0
VERTEX
 8
PARTS
 10
 11.6000
 20
  7.6000
 30
0.0
 0
VERTEX
 8
PARTS
 10
 11.8000
 20
  7.6000
 30
0.0
 0
VERTEX
 8
PARTS
 10
 11.8000
 20
  7.2000
 30
0.0
 0
VERTEX
 8
PARTS
 10
 11.6000
 20
  7.2000
 30
0.0
 0
SEQEND
 8
PARTS
 0
TEXT
 8
PARTTEXT
 10
 10.0600
 20
  3.7186
 30
0.0
 40
  0.0514
 1
C22
 0
TEXT
 8
PARTTEXT
 10
 10.0600
 20
  3.5986
 30
0.0
 40
  0.0514
 1
4.7uF
 0
LINE
 8
PARTS
 10
  9.9000
 20
  3.3000
 30
0.0
 11
  9.9000
 21
  3.4000
 31
0.0
 0
LINE
 8
PARTS
 10
  9.9000
 20
  3.9000
 30
0.0
 11
  9.9000
 21
  3.8000
 31
0.0
 0
POLYLINE
 8
PARTS
 66
1
 10
0.0
 20
0.0
 30
0.0
 0
VERTEX
 8
PARTS
 10
  9.9800
 20
  3.5700
 30
0.0
 0
VERTEX
 8
PARTS
 10
  9.8200
 20
  3.5700
 30
0.0
 0
SEQEND
 8
PARTS
 0
POLYLINE
 8
PARTS
 66
1
 10
0.0
 20
0.0
 30
0.0
 0
VERTEX
 8
PARTS
 10
  9.9000
 20
  3.6300
 30
0.0
 0
VERTEX
 8
PARTS
 10
  9.9000
 20
  3.8000
 30
0.0
 0
SEQEND
 8
PARTS
 0
POLYLINE
 8
PARTS
 66
1
 10
0.0
 20
0.0
 30
0.0
 0
VERTEX
 8
PARTS
 10
  9.9000
 20
  3.4000
 30
0.0
 0
VERTEX
 8
PARTS
 10
  9.9000
 20
  3.5700
 30
0.0
 0
SEQEND
 8
PARTS
 0
POLYLINE
 8
PARTS
 66
1
 10
0.0
 20
0.0
 30
0.0
 0
VERTEX
 8
PARTS
 10
  9.9800
 20
  3.6300
 30
0.0
 0
VERTEX
 8
PARTS
 10
  9.8200
 20
  3.6300
 30
0.0
 0
SEQEND
 8
PARTS
 0
TEXT
 8
PARTTEXT
 10
  1.1000
 20
 12.0186
 30
0.0
 40
  0.0514
 1
R7
 0
TEXT
 8
PARTTEXT
 10
  1.1000
 20
 11.7186
 30
0.0
 40
  0.0514
 1
0
 0
LINE
 8
PARTS
 10
  1.6000
 20
 11.9000
 30
0.0
 11
  1.5000
 21
 11.9000
 31
0.0
 0
LINE
 8
PARTS
 10
  1.0000
 20
 11.9000
 30
0.0
 11
  1.1000
 21
 11.9000
 31
0.0
 0
POLYLINE
 8
PARTS
 66
1
 10
0.0
 20
0.0
 30
0.0
 0
VERTEX
 8
PARTS
 10
  1.2400
 20
 11.8800
 30
0.0
 0
VERTEX
 8
PARTS
 10
  1.3000
 20
 11.9400
 30
0.0
 0
SEQEND
 8
PARTS
 0
POLYLINE
 8
PARTS
 66
1
 10
0.0
 20
0.0
 30
0.0
 0
VERTEX
 8
PARTS
 10
  1.2400
 20
 11.8800
 30
0.0
 0
VERTEX
 8
PARTS
 10
  1.1800
 20
 11.9400
 30
0.0
 0
SEQEND
 8
PARTS
 0
POLYLINE
 8
PARTS
 66
1
 10
0.0
 20
0.0
 30
0.0
 0
VERTEX
 8
PARTS
 10
  1.1800
 20
 11.9400
 30
0.0
 0
VERTEX
 8
PARTS
 10
  1.1400
 20
 11.9000
 30
0.0
 0
SEQEND
 8
PARTS
 0
POLYLINE
 8
PARTS
 66
1
 10
0.0
 20
0.0
 30
0.0
 0
VERTEX
 8
PARTS
 10
  1.3000
 20
 11.9400
 30
0.0
 0
VERTEX
 8
PARTS
 10
  1.3600
 20
 11.8800
 30
0.0
 0
SEQEND
 8
PARTS
 0
POLYLINE
 8
PARTS
 66
1
 10
0.0
 20
0.0
 30
0.0
 0
VERTEX
 8
PARTS
 10
  1.3600
 20
 11.8800
 30
0.0
 0
VERTEX
 8
PARTS
 10
  1.4200
 20
 11.9400
 30
0.0
 0
SEQEND
 8
PARTS
 0
POLYLINE
 8
PARTS
 66
1
 10
0.0
 20
0.0
 30
0.0
 0
VERTEX
 8
PARTS
 10
  1.4600
 20
 11.9000
 30
0.0
 0
VERTEX
 8
PARTS
 10
  1.4200
 20
 11.9400
 30
0.0
 0
SEQEND
 8
PARTS
 0
POLYLINE
 8
PARTS
 66
1
 10
0.0
 20
0.0
 30
0.0
 0
VERTEX
 8
PARTS
 10
  1.4600
 20
 11.9000
 30
0.0
 0
VERTEX
 8
PARTS
 10
  1.5000
 20
 11.9000
 30
0.0
 0
SEQEND
 8
PARTS
 0
POLYLINE
 8
PARTS
 66
1
 10
0.0
 20
0.0
 30
0.0
 0
VERTEX
 8
PARTS
 10
  1.1400
 20
 11.9000
 30
0.0
 0
VERTEX
 8
PARTS
 10
  1.1000
 20
 11.9000
 30
0.0
 0
SEQEND
 8
PARTS
 0
TEXT
 8
PARTTEXT
 10
  6.2600
 20
 11.0186
 30
0.0
 40
  0.0514
 1
R9
 0
TEXT
 8
PARTTEXT
 10
  6.2600
 20
 10.8986
 30
0.0
 40
  0.0514
 1
0
 0
LINE
 8
PARTS
 10
  6.1000
 20
 11.2000
 30
0.0
 11
  6.1000
 21
 11.1000
 31
0.0
 0
LINE
 8
PARTS
 10
  6.1000
 20
 10.6000
 30
0.0
 11
  6.1000
 21
 10.7000
 31
0.0
 0
POLYLINE
 8
PARTS
 66
1
 10
0.0
 20
0.0
 30
0.0
 0
VERTEX
 8
PARTS
 10
  6.1200
 20
 10.8400
 30
0.0
 0
VERTEX
 8
PARTS
 10
  6.0600
 20
 10.9000
 30
0.0
 0
SEQEND
 8
PARTS
 0
POLYLINE
 8
PARTS
 66
1
 10
0.0
 20
0.0
 30
0.0
 0
VERTEX
 8
PARTS
 10
  6.1200
 20
 10.8400
 30
0.0
 0
VERTEX
 8
PARTS
 10
  6.0600
 20
 10.7800
 30
0.0
 0
SEQEND
 8
PARTS
 0
POLYLINE
 8
PARTS
 66
1
 10
0.0
 20
0.0
 30
0.0
 0
VERTEX
 8
PARTS
 10
  6.0600
 20
 10.7800
 30
0.0
 0
VERTEX
 8
PARTS
 10
  6.1000
 20
 10.7400
 30
0.0
 0
SEQEND
 8
PARTS
 0
POLYLINE
 8
PARTS
 66
1
 10
0.0
 20
0.0
 30
0.0
 0
VERTEX
 8
PARTS
 10
  6.0600
 20
 10.9000
 30
0.0
 0
VERTEX
 8
PARTS
 10
  6.1200
 20
 10.9600
 30
0.0
 0
SEQEND
 8
PARTS
 0
POLYLINE
 8
PARTS
 66
1
 10
0.0
 20
0.0
 30
0.0
 0
VERTEX
 8
PARTS
 10
  6.1200
 20
 10.9600
 30
0.0
 0
VERTEX
 8
PARTS
 10
  6.0600
 20
 11.0200
 30
0.0
 0
SEQEND
 8
PARTS
 0
POLYLINE
 8
PARTS
 66
1
 10
0.0
 20
0.0
 30
0.0
 0
VERTEX
 8
PARTS
 10
  6.1000
 20
 11.0600
 30
0.0
 0
VERTEX
 8
PARTS
 10
  6.0600
 20
 11.0200
 30
0.0
 0
SEQEND
 8
PARTS
 0
POLYLINE
 8
PARTS
 66
1
 10
0.0
 20
0.0
 30
0.0
 0
VERTEX
 8
PARTS
 10
  6.1000
 20
 11.0600
 30
0.0
 0
VERTEX
 8
PARTS
 10
  6.1000
 20
 11.1000
 30
0.0
 0
SEQEND
 8
PARTS
 0
POLYLINE
 8
PARTS
 66
1
 10
0.0
 20
0.0
 30
0.0
 0
VERTEX
 8
PARTS
 10
  6.1000
 20
 10.7400
 30
0.0
 0
VERTEX
 8
PARTS
 10
  6.1000
 20
 10.7000
 30
0.0
 0
SEQEND
 8
PARTS
 0
TEXT
 8
PARTTEXT
 10
  7.0000
 20
  7.1586
 30
0.0
 40
  0.0514
 1
J8
 0
TEXT
 8
PARTTEXT
 10
  7.0000
 20
  7.0386
 30
0.0
 40
  0.0514
 1
CON3
 0
LINE
 8
PARTS
 10
  7.3000
 20
  7.8000
 30
0.0
 11
  7.3000
 21
  7.5000
 31
0.0
 0
TEXT
 8
PARTS
 10
  7.2700
 20
  7.5600
 30
0.0
 40
  0.0500
 50
 90.0000
 1
1
 0
LINE
 8
PARTS
 10
  7.2000
 20
  7.8000
 30
0.0
 11
  7.2000
 21
  7.5000
 31
0.0
 0
TEXT
 8
PARTS
 10
  7.1700
 20
  7.5600
 30
0.0
 40
  0.0500
 50
 90.0000
 1
2
 0
LINE
 8
PARTS
 10
  7.1000
 20
  7.8000
 30
0.0
 11
  7.1000
 21
  7.5000
 31
0.0
 0
TEXT
 8
PARTS
 10
  7.0700
 20
  7.5600
 30
0.0
 40
  0.0500
 50
 90.0000
 1
3
 0
POLYLINE
 8
PARTS
 66
1
 70
1
 10
0.0
 20
0.0
 30
0.0
 0
VERTEX
 8
PARTS
 10
  7.4000
 20
  7.5000
 30
0.0
 0
VERTEX
 8
PARTS
 10
  7.4000
 20
  7.3000
 30
0.0
 0
VERTEX
 8
PARTS
 10
  7.0000
 20
  7.3000
 30
0.0
 0
VERTEX
 8
PARTS
 10
  7.0000
 20
  7.5000
 30
0.0
 0
SEQEND
 8
PARTS
 0
TEXT
 8
PARTTEXT
 10
 10.0600
 20
  7.0186
 30
0.0
 40
  0.0514
 1
R14
 0
TEXT
 8
PARTTEXT
 10
 10.0600
 20
  6.8986
 30
0.0
 40
  0.0514
 1
10k
 0
LINE
 8
PARTS
 10
  9.9000
 20
  7.2000
 30
0.0
 11
  9.9000
 21
  7.1000
 31
0.0
 0
LINE
 8
PARTS
 10
  9.9000
 20
  6.6000
 30
0.0
 11
  9.9000
 21
  6.7000
 31
0.0
 0
POLYLINE
 8
PARTS
 66
1
 10
0.0
 20
0.0
 30
0.0
 0
VERTEX
 8
PARTS
 10
  9.9200
 20
  6.8400
 30
0.0
 0
VERTEX
 8
PARTS
 10
  9.8600
 20
  6.9000
 30
0.0
 0
SEQEND
 8
PARTS
 0
POLYLINE
 8
PARTS
 66
1
 10
0.0
 20
0.0
 30
0.0
 0
VERTEX
 8
PARTS
 10
  9.9200
 20
  6.8400
 30
0.0
 0
VERTEX
 8
PARTS
 10
  9.8600
 20
  6.7800
 30
0.0
 0
SEQEND
 8
PARTS
 0
POLYLINE
 8
PARTS
 66
1
 10
0.0
 20
0.0
 30
0.0
 0
VERTEX
 8
PARTS
 10
  9.8600
 20
  6.7800
 30
0.0
 0
VERTEX
 8
PARTS
 10
  9.9000
 20
  6.7400
 30
0.0
 0
SEQEND
 8
PARTS
 0
POLYLINE
 8
PARTS
 66
1
 10
0.0
 20
0.0
 30
0.0
 0
VERTEX
 8
PARTS
 10
  9.8600
 20
  6.9000
 30
0.0
 0
VERTEX
 8
PARTS
 10
  9.9200
 20
  6.9600
 30
0.0
 0
SEQEND
 8
PARTS
 0
POLYLINE
 8
PARTS
 66
1
 10
0.0
 20
0.0
 30
0.0
 0
VERTEX
 8
PARTS
 10
  9.9200
 20
  6.9600
 30
0.0
 0
VERTEX
 8
PARTS
 10
  9.8600
 20
  7.0200
 30
0.0
 0
SEQEND
 8
PARTS
 0
POLYLINE
 8
PARTS
 66
1
 10
0.0
 20
0.0
 30
0.0
 0
VERTEX
 8
PARTS
 10
  9.9000
 20
  7.0600
 30
0.0
 0
VERTEX
 8
PARTS
 10
  9.8600
 20
  7.0200
 30
0.0
 0
SEQEND
 8
PARTS
 0
POLYLINE
 8
PARTS
 66
1
 10
0.0
 20
0.0
 30
0.0
 0
VERTEX
 8
PARTS
 10
  9.9000
 20
  7.0600
 30
0.0
 0
VERTEX
 8
PARTS
 10
  9.9000
 20
  7.1000
 30
0.0
 0
SEQEND
 8
PARTS
 0
POLYLINE
 8
PARTS
 66
1
 10
0.0
 20
0.0
 30
0.0
 0
VERTEX
 8
PARTS
 10
  9.9000
 20
  6.7400
 30
0.0
 0
VERTEX
 8
PARTS
 10
  9.9000
 20
  6.7000
 30
0.0
 0
SEQEND
 8
PARTS
 0
TEXT
 8
PARTTEXT
 10
  2.3600
 20
 11.7186
 30
0.0
 40
  0.0514
 1
C13
 0
TEXT
 8
PARTTEXT
 10
  2.3600
 20
 11.5986
 30
0.0
 40
  0.0514
 1
10nF
 0
LINE
 8
PARTS
 10
  2.2000
 20
 11.3000
 30
0.0
 11
  2.2000
 21
 11.4000
 31
0.0
 0
LINE
 8
PARTS
 10
  2.2000
 20
 11.9000
 30
0.0
 11
  2.2000
 21
 11.8000
 31
0.0
 0
POLYLINE
 8
PARTS
 66
1
 10
0.0
 20
0.0
 30
0.0
 0
VERTEX
 8
PARTS
 10
  2.2800
 20
 11.5700
 30
0.0
 0
VERTEX
 8
PARTS
 10
  2.1200
 20
 11.5700
 30
0.0
 0
SEQEND
 8
PARTS
 0
POLYLINE
 8
PARTS
 66
1
 10
0.0
 20
0.0
 30
0.0
 0
VERTEX
 8
PARTS
 10
  2.2000
 20
 11.6300
 30
0.0
 0
VERTEX
 8
PARTS
 10
  2.2000
 20
 11.8000
 30
0.0
 0
SEQEND
 8
PARTS
 0
POLYLINE
 8
PARTS
 66
1
 10
0.0
 20
0.0
 30
0.0
 0
VERTEX
 8
PARTS
 10
  2.2000
 20
 11.4000
 30
0.0
 0
VERTEX
 8
PARTS
 10
  2.2000
 20
 11.5700
 30
0.0
 0
SEQEND
 8
PARTS
 0
POLYLINE
 8
PARTS
 66
1
 10
0.0
 20
0.0
 30
0.0
 0
VERTEX
 8
PARTS
 10
  2.2800
 20
 11.6300
 30
0.0
 0
VERTEX
 8
PARTS
 10
  2.1200
 20
 11.6300
 30
0.0
 0
SEQEND
 8
PARTS
 0
TEXT
 8
PARTTEXT
 10
 17.6500
 20
 13.6886
 30
0.0
 40
  0.0514
 1
C3
 0
TEXT
 8
PARTTEXT
 10
 17.5500
 20
 13.4186
 30
0.0
 40
  0.0514
 1
22uF
 0
LINE
 8
PARTS
 10
 17.4000
 20
 13.6000
 30
0.0
 11
 17.5000
 21
 13.6000
 31
0.0
 0
LINE
 8
PARTS
 10
 18.0000
 20
 13.6000
 30
0.0
 11
 17.9000
 21
 13.6000
 31
0.0
 0
POLYLINE
 8
PARTS
 66
1
 10
0.0
 20
0.0
 30
0.0
 0
VERTEX
 8
PARTS
 10
 17.6700
 20
 13.5200
 30
0.0
 0
VERTEX
 8
PARTS
 10
 17.6700
 20
 13.6800
 30
0.0
 0
SEQEND
 8
PARTS
 0
POLYLINE
 8
PARTS
 66
1
 10
0.0
 20
0.0
 30
0.0
 0
VERTEX
 8
PARTS
 10
 17.7300
 20
 13.6000
 30
0.0
 0
VERTEX
 8
PARTS
 10
 17.9000
 20
 13.6000
 30
0.0
 0
SEQEND
 8
PARTS
 0
POLYLINE
 8
PARTS
 66
1
 10
0.0
 20
0.0
 30
0.0
 0
VERTEX
 8
PARTS
 10
 17.5000
 20
 13.6000
 30
0.0
 0
VERTEX
 8
PARTS
 10
 17.6700
 20
 13.6000
 30
0.0
 0
SEQEND
 8
PARTS
 0
POLYLINE
 8
PARTS
 66
1
 10
0.0
 20
0.0
 30
0.0
 0
VERTEX
 8
PARTS
 10
 17.7300
 20
 13.5200
 30
0.0
 0
VERTEX
 8
PARTS
 10
 17.7300
 20
 13.6800
 30
0.0
 0
SEQEND
 8
PARTS
 0
TEXT
 8
PARTTEXT
 10
  4.6600
 20
 12.5186
 30
0.0
 40
  0.0514
 1
R4
 0
TEXT
 8
PARTTEXT
 10
  4.6600
 20
 12.3986
 30
0.0
 40
  0.0514
 1
0
 0
LINE
 8
PARTS
 10
  4.5000
 20
 12.7000
 30
0.0
 11
  4.5000
 21
 12.6000
 31
0.0
 0
LINE
 8
PARTS
 10
  4.5000
 20
 12.1000
 30
0.0
 11
  4.5000
 21
 12.2000
 31
0.0
 0
POLYLINE
 8
PARTS
 66
1
 10
0.0
 20
0.0
 30
0.0
 0
VERTEX
 8
PARTS
 10
  4.5200
 20
 12.3400
 30
0.0
 0
VERTEX
 8
PARTS
 10
  4.4600
 20
 12.4000
 30
0.0
 0
SEQEND
 8
PARTS
 0
POLYLINE
 8
PARTS
 66
1
 10
0.0
 20
0.0
 30
0.0
 0
VERTEX
 8
PARTS
 10
  4.5200
 20
 12.3400
 30
0.0
 0
VERTEX
 8
PARTS
 10
  4.4600
 20
 12.2800
 30
0.0
 0
SEQEND
 8
PARTS
 0
POLYLINE
 8
PARTS
 66
1
 10
0.0
 20
0.0
 30
0.0
 0
VERTEX
 8
PARTS
 10
  4.4600
 20
 12.2800
 30
0.0
 0
VERTEX
 8
PARTS
 10
  4.5000
 20
 12.2400
 30
0.0
 0
SEQEND
 8
PARTS
 0
POLYLINE
 8
PARTS
 66
1
 10
0.0
 20
0.0
 30
0.0
 0
VERTEX
 8
PARTS
 10
  4.4600
 20
 12.4000
 30
0.0
 0
VERTEX
 8
PARTS
 10
  4.5200
 20
 12.4600
 30
0.0
 0
SEQEND
 8
PARTS
 0
POLYLINE
 8
PARTS
 66
1
 10
0.0
 20
0.0
 30
0.0
 0
VERTEX
 8
PARTS
 10
  4.5200
 20
 12.4600
 30
0.0
 0
VERTEX
 8
PARTS
 10
  4.4600
 20
 12.5200
 30
0.0
 0
SEQEND
 8
PARTS
 0
POLYLINE
 8
PARTS
 66
1
 10
0.0
 20
0.0
 30
0.0
 0
VERTEX
 8
PARTS
 10
  4.5000
 20
 12.5600
 30
0.0
 0
VERTEX
 8
PARTS
 10
  4.4600
 20
 12.5200
 30
0.0
 0
SEQEND
 8
PARTS
 0
POLYLINE
 8
PARTS
 66
1
 10
0.0
 20
0.0
 30
0.0
 0
VERTEX
 8
PARTS
 10
  4.5000
 20
 12.5600
 30
0.0
 0
VERTEX
 8
PARTS
 10
  4.5000
 20
 12.6000
 30
0.0
 0
SEQEND
 8
PARTS
 0
POLYLINE
 8
PARTS
 66
1
 10
0.0
 20
0.0
 30
0.0
 0
VERTEX
 8
PARTS
 10
  4.5000
 20
 12.2400
 30
0.0
 0
VERTEX
 8
PARTS
 10
  4.5000
 20
 12.2000
 30
0.0
 0
SEQEND
 8
PARTS
 0
TEXT
 8
PARTTEXT
 10
  7.9500
 20
 13.3886
 30
0.0
 40
  0.0514
 1
C5
 0
TEXT
 8
PARTTEXT
 10
  7.8500
 20
 13.1186
 30
0.0
 40
  0.0514
 1
10pF
 0
LINE
 8
PARTS
 10
  7.7000
 20
 13.3000
 30
0.0
 11
  7.8000
 21
 13.3000
 31
0.0
 0
LINE
 8
PARTS
 10
  8.3000
 20
 13.3000
 30
0.0
 11
  8.2000
 21
 13.3000
 31
0.0
 0
POLYLINE
 8
PARTS
 66
1
 10
0.0
 20
0.0
 30
0.0
 0
VERTEX
 8
PARTS
 10
  7.9700
 20
 13.2200
 30
0.0
 0
VERTEX
 8
PARTS
 10
  7.9700
 20
 13.3800
 30
0.0
 0
SEQEND
 8
PARTS
 0
POLYLINE
 8
PARTS
 66
1
 10
0.0
 20
0.0
 30
0.0
 0
VERTEX
 8
PARTS
 10
  8.0300
 20
 13.3000
 30
0.0
 0
VERTEX
 8
PARTS
 10
  8.2000
 20
 13.3000
 30
0.0
 0
SEQEND
 8
PARTS
 0
POLYLINE
 8
PARTS
 66
1
 10
0.0
 20
0.0
 30
0.0
 0
VERTEX
 8
PARTS
 10
  7.8000
 20
 13.3000
 30
0.0
 0
VERTEX
 8
PARTS
 10
  7.9700
 20
 13.3000
 30
0.0
 0
SEQEND
 8
PARTS
 0
POLYLINE
 8
PARTS
 66
1
 10
0.0
 20
0.0
 30
0.0
 0
VERTEX
 8
PARTS
 10
  8.0300
 20
 13.2200
 30
0.0
 0
VERTEX
 8
PARTS
 10
  8.0300
 20
 13.3800
 30
0.0
 0
SEQEND
 8
PARTS
 0
TEXT
 8
PARTTEXT
 10
 19.4600
 20
 13.3586
 30
0.0
 40
  0.0514
 1
U1
 0
TEXT
 8
PARTTEXT
 10
 19.4600
 20
 13.2386
 30
0.0
 40
  0.0514
 1
PAT129
 0
LINE
 8
PARTS
 10
 19.2000
 20
 12.5000
 30
0.0
 11
 19.2000
 21
 12.6000
 31
0.0
 0
TEXT
 8
PARTS
 10
 19.2250
 20
 12.6900
 30
0.0
 40
  0.0500
 50
 90.0000
 1
IN
 0
TEXT
 8
PARTS
 10
 19.1700
 20
 12.4800
 30
0.0
 40
  0.0500
 50
 90.0000
 1
1
 0
LINE
 8
PARTS
 10
 19.2000
 20
 13.3000
 30
0.0
 11
 19.2000
 21
 13.2000
 31
0.0
 0
TEXT
 8
PARTS
 10
 19.2250
 20
 12.9900
 30
0.0
 40
  0.0500
 50
 90.0000
 1
OUT
 0
TEXT
 8
PARTS
 10
 19.1700
 20
 13.2600
 30
0.0
 40
  0.0500
 50
 90.0000
 1
3
 0
LINE
 8
PARTS
 10
 19.5000
 20
 12.9000
 30
0.0
 11
 19.4000
 21
 12.9000
 31
0.0
 0
TEXT
 8
PARTS
 10
 19.1900
 20
 12.8750
 30
0.0
 40
  0.0500
 1
GND
 0
TEXT
 8
PARTS
 10
 19.4600
 20
 12.9300
 30
0.0
 40
  0.0500
 1
2
 0
POLYLINE
 8
PARTS
 66
1
 70
1
 10
0.0
 20
0.0
 30
0.0
 0
VERTEX
 8
PARTS
 10
 19.1000
 20
 12.6000
 30
0.0
 0
VERTEX
 8
PARTS
 10
 19.1000
 20
 13.2000
 30
0.0
 0
VERTEX
 8
PARTS
 10
 19.4000
 20
 13.2000
 30
0.0
 0
VERTEX
 8
PARTS
 10
 19.4000
 20
 12.6000
 30
0.0
 0
SEQEND
 8
PARTS
 0
TEXT
 8
PARTTEXT
 10
 12.3500
 20
 11.1886
 30
0.0
 40
  0.0514
 1
C17
 0
TEXT
 8
PARTTEXT
 10
 12.2500
 20
 10.9186
 30
0.0
 40
  0.0514
 1
CAP
 0
LINE
 8
PARTS
 10
 12.1000
 20
 11.1000
 30
0.0
 11
 12.2000
 21
 11.1000
 31
0.0
 0
LINE
 8
PARTS
 10
 12.7000
 20
 11.1000
 30
0.0
 11
 12.6000
 21
 11.1000
 31
0.0
 0
POLYLINE
 8
PARTS
 66
1
 10
0.0
 20
0.0
 30
0.0
 0
VERTEX
 8
PARTS
 10
 12.3700
 20
 11.0200
 30
0.0
 0
VERTEX
 8
PARTS
 10
 12.3700
 20
 11.1800
 30
0.0
 0
SEQEND
 8
PARTS
 0
POLYLINE
 8
PARTS
 66
1
 10
0.0
 20
0.0
 30
0.0
 0
VERTEX
 8
PARTS
 10
 12.4300
 20
 11.1000
 30
0.0
 0
VERTEX
 8
PARTS
 10
 12.6000
 20
 11.1000
 30
0.0
 0
SEQEND
 8
PARTS
 0
POLYLINE
 8
PARTS
 66
1
 10
0.0
 20
0.0
 30
0.0
 0
VERTEX
 8
PARTS
 10
 12.2000
 20
 11.1000
 30
0.0
 0
VERTEX
 8
PARTS
 10
 12.3700
 20
 11.1000
 30
0.0
 0
SEQEND
 8
PARTS
 0
POLYLINE
 8
PARTS
 66
1
 10
0.0
 20
0.0
 30
0.0
 0
VERTEX
 8
PARTS
 10
 12.4300
 20
 11.0200
 30
0.0
 0
VERTEX
 8
PARTS
 10
 12.4300
 20
 11.1800
 30
0.0
 0
SEQEND
 8
PARTS
 0
TEXT
 8
PARTTEXT
 10
 10.2500
 20
 10.2886
 30
0.0
 40
  0.0514
 1
C20
 0
TEXT
 8
PARTTEXT
 10
 10.1500
 20
 10.0186
 30
0.0
 40
  0.0514
 1
CAP
 0
LINE
 8
PARTS
 10
 10.0000
 20
 10.2000
 30
0.0
 11
 10.1000
 21
 10.2000
 31
0.0
 0
LINE
 8
PARTS
 10
 10.6000
 20
 10.2000
 30
0.0
 11
 10.5000
 21
 10.2000
 31
0.0
 0
POLYLINE
 8
PARTS
 66
1
 10
0.0
 20
0.0
 30
0.0
 0
VERTEX
 8
PARTS
 10
 10.2700
 20
 10.1200
 30
0.0
 0
VERTEX
 8
PARTS
 10
 10.2700
 20
 10.2800
 30
0.0
 0
SEQEND
 8
PARTS
 0
POLYLINE
 8
PARTS
 66
1
 10
0.0
 20
0.0
 30
0.0
 0
VERTEX
 8
PARTS
 10
 10.3300
 20
 10.2000
 30
0.0
 0
VERTEX
 8
PARTS
 10
 10.5000
 20
 10.2000
 30
0.0
 0
SEQEND
 8
PARTS
 0
POLYLINE
 8
PARTS
 66
1
 10
0.0
 20
0.0
 30
0.0
 0
VERTEX
 8
PARTS
 10
 10.1000
 20
 10.2000
 30
0.0
 0
VERTEX
 8
PARTS
 10
 10.2700
 20
 10.2000
 30
0.0
 0
SEQEND
 8
PARTS
 0
POLYLINE
 8
PARTS
 66
1
 10
0.0
 20
0.0
 30
0.0
 0
VERTEX
 8
PARTS
 10
 10.3300
 20
 10.1200
 30
0.0
 0
VERTEX
 8
PARTS
 10
 10.3300
 20
 10.2800
 30
0.0
 0
SEQEND
 8
PARTS
 0
TEXT
 8
PARTTEXT
 10
  8.6000
 20
  9.8686
 30
0.0
 40
  0.0514
 1
TP6
 0
TEXT
 8
PARTTEXT
 10
  8.6000
 20
  9.4586
 30
0.0
 40
  0.0514
 1
TEST POINT
 0
LINE
 8
PARTS
 10
  9.0000
 20
  9.7000
 30
0.0
 11
  8.7000
 21
  9.7000
 31
0.0
 0
TEXT
 8
PARTS
 10
  8.7600
 20
  9.7300
 30
0.0
 40
  0.0500
 1
1
 0
POLYLINE
 8
PARTS
 66
1
 70
1
 10
0.0
 20
0.0
 30
0.0
 0
VERTEX
 8
PARTS
 10
  8.7000
 20
  9.6000
 30
0.0
 0
VERTEX
 8
PARTS
 10
  8.6000
 20
  9.6000
 30
0.0
 0
VERTEX
 8
PARTS
 10
  8.6000
 20
  9.8000
 30
0.0
 0
VERTEX
 8
PARTS
 10
  8.7000
 20
  9.8000
 30
0.0
 0
SEQEND
 8
PARTS
 0
TEXT
 8
PARTTEXT
 10
  1.1000
 20
 13.0186
 30
0.0
 40
  0.0514
 1
J1
 0
TEXT
 8
PARTTEXT
 10
  1.1000
 20
 12.4586
 30
0.0
 40
  0.0514
 1
CON3
 0
LINE
 8
PARTS
 10
  1.6000
 20
 12.7000
 30
0.0
 11
  1.3000
 21
 12.7000
 31
0.0
 0
TEXT
 8
PARTS
 10
  1.3600
 20
 12.7300
 30
0.0
 40
  0.0500
 1
1
 0
LINE
 8
PARTS
 10
  1.6000
 20
 12.8000
 30
0.0
 11
  1.3000
 21
 12.8000
 31
0.0
 0
TEXT
 8
PARTS
 10
  1.3600
 20
 12.8300
 30
0.0
 40
  0.0500
 1
2
 0
LINE
 8
PARTS
 10
  1.6000
 20
 12.9000
 30
0.0
 11
  1.3000
 21
 12.9000
 31
0.0
 0
TEXT
 8
PARTS
 10
  1.3600
 20
 12.9300
 30
0.0
 40
  0.0500
 1
3
 0
POLYLINE
 8
PARTS
 66
1
 70
1
 10
0.0
 20
0.0
 30
0.0
 0
VERTEX
 8
PARTS
 10
  1.3000
 20
 12.6000
 30
0.0
 0
VERTEX
 8
PARTS
 10
  1.1000
 20
 12.6000
 30
0.0
 0
VERTEX
 8
PARTS
 10
  1.1000
 20
 13.0000
 30
0.0
 0
VERTEX
 8
PARTS
 10
  1.3000
 20
 13.0000
 30
0.0
 0
SEQEND
 8
PARTS
 0
TEXT
 8
PARTTEXT
 10
  6.3600
 20
 12.5186
 30
0.0
 40
  0.0514
 1
R5
 0
TEXT
 8
PARTTEXT
 10
  6.3600
 20
 12.3986
 30
0.0
 40
  0.0514
 1
51
 0
LINE
 8
PARTS
 10
  6.2000
 20
 12.7000
 30
0.0
 11
  6.2000
 21
 12.6000
 31
0.0
 0
LINE
 8
PARTS
 10
  6.2000
 20
 12.1000
 30
0.0
 11
  6.2000
 21
 12.2000
 31
0.0
 0
POLYLINE
 8
PARTS
 66
1
 10
0.0
 20
0.0
 30
0.0
 0
VERTEX
 8
PARTS
 10
  6.2200
 20
 12.3400
 30
0.0
 0
VERTEX
 8
PARTS
 10
  6.1600
 20
 12.4000
 30
0.0
 0
SEQEND
 8
PARTS
 0
POLYLINE
 8
PARTS
 66
1
 10
0.0
 20
0.0
 30
0.0
 0
VERTEX
 8
PARTS
 10
  6.2200
 20
 12.3400
 30
0.0
 0
VERTEX
 8
PARTS
 10
  6.1600
 20
 12.2800
 30
0.0
 0
SEQEND
 8
PARTS
 0
POLYLINE
 8
PARTS
 66
1
 10
0.0
 20
0.0
 30
0.0
 0
VERTEX
 8
PARTS
 10
  6.1600
 20
 12.2800
 30
0.0
 0
VERTEX
 8
PARTS
 10
  6.2000
 20
 12.2400
 30
0.0
 0
SEQEND
 8
PARTS
 0
POLYLINE
 8
PARTS
 66
1
 10
0.0
 20
0.0
 30
0.0
 0
VERTEX
 8
PARTS
 10
  6.1600
 20
 12.4000
 30
0.0
 0
VERTEX
 8
PARTS
 10
  6.2200
 20
 12.4600
 30
0.0
 0
SEQEND
 8
PARTS
 0
POLYLINE
 8
PARTS
 66
1
 10
0.0
 20
0.0
 30
0.0
 0
VERTEX
 8
PARTS
 10
  6.2200
 20
 12.4600
 30
0.0
 0
VERTEX
 8
PARTS
 10
  6.1600
 20
 12.5200
 30
0.0
 0
SEQEND
 8
PARTS
 0
POLYLINE
 8
PARTS
 66
1
 10
0.0
 20
0.0
 30
0.0
 0
VERTEX
 8
PARTS
 10
  6.2000
 20
 12.5600
 30
0.0
 0
VERTEX
 8
PARTS
 10
  6.1600
 20
 12.5200
 30
0.0
 0
SEQEND
 8
PARTS
 0
POLYLINE
 8
PARTS
 66
1
 10
0.0
 20
0.0
 30
0.0
 0
VERTEX
 8
PARTS
 10
  6.2000
 20
 12.5600
 30
0.0
 0
VERTEX
 8
PARTS
 10
  6.2000
 20
 12.6000
 30
0.0
 0
SEQEND
 8
PARTS
 0
POLYLINE
 8
PARTS
 66
1
 10
0.0
 20
0.0
 30
0.0
 0
VERTEX
 8
PARTS
 10
  6.2000
 20
 12.2400
 30
0.0
 0
VERTEX
 8
PARTS
 10
  6.2000
 20
 12.2000
 30
0.0
 0
SEQEND
 8
PARTS
 0
TEXT
 8
PARTTEXT
 10
 15.0000
 20
 13.3586
 30
0.0
 40
  0.0514
 1
TP1
 0
TEXT
 8
PARTTEXT
 10
 15.0000
 20
 13.2386
 30
0.0
 40
  0.0514
 1
TEST POINT
 0
LINE
 8
PARTS
 10
 15.1000
 20
 12.8000
 30
0.0
 11
 15.1000
 21
 13.1000
 31
0.0
 0
TEXT
 8
PARTS
 10
 15.0700
 20
 12.9800
 30
0.0
 40
  0.0500
 50
 90.0000
 1
1
 0
POLYLINE
 8
PARTS
 66
1
 70
1
 10
0.0
 20
0.0
 30
0.0
 0
VERTEX
 8
PARTS
 10
 15.0000
 20
 13.1000
 30
0.0
 0
VERTEX
 8
PARTS
 10
 15.0000
 20
 13.2000
 30
0.0
 0
VERTEX
 8
PARTS
 10
 15.2000
 20
 13.2000
 30
0.0
 0
VERTEX
 8
PARTS
 10
 15.2000
 20
 13.1000
 30
0.0
 0
SEQEND
 8
PARTS
 0
TEXT
 8
PARTTEXT
 10
  8.1000
 20
  9.2186
 30
0.0
 40
  0.0514
 1
R10
 0
TEXT
 8
PARTTEXT
 10
  8.1000
 20
  9.1186
 30
0.0
 40
  0.0514
 1
330
 0
LINE
 8
PARTS
 10
  8.0000
 20
  9.4000
 30
0.0
 11
  8.0000
 21
  9.3000
 31
0.0
 0
LINE
 8
PARTS
 10
  8.0000
 20
  8.8000
 30
0.0
 11
  8.0000
 21
  8.9000
 31
0.0
 0
POLYLINE
 8
PARTS
 66
1
 10
0.0
 20
0.0
 30
0.0
 0
VERTEX
 8
PARTS
 10
  8.0200
 20
  9.0400
 30
0.0
 0
VERTEX
 8
PARTS
 10
  7.9600
 20
  9.1000
 30
0.0
 0
SEQEND
 8
PARTS
 0
POLYLINE
 8
PARTS
 66
1
 10
0.0
 20
0.0
 30
0.0
 0
VERTEX
 8
PARTS
 10
  8.0200
 20
  9.0400
 30
0.0
 0
VERTEX
 8
PARTS
 10
  7.9600
 20
  8.9800
 30
0.0
 0
SEQEND
 8
PARTS
 0
POLYLINE
 8
PARTS
 66
1
 10
0.0
 20
0.0
 30
0.0
 0
VERTEX
 8
PARTS
 10
  7.9600
 20
  8.9800
 30
0.0
 0
VERTEX
 8
PARTS
 10
  8.0000
 20
  8.9400
 30
0.0
 0
SEQEND
 8
PARTS
 0
POLYLINE
 8
PARTS
 66
1
 10
0.0
 20
0.0
 30
0.0
 0
VERTEX
 8
PARTS
 10
  7.9600
 20
  9.1000
 30
0.0
 0
VERTEX
 8
PARTS
 10
  8.0200
 20
  9.1600
 30
0.0
 0
SEQEND
 8
PARTS
 0
POLYLINE
 8
PARTS
 66
1
 10
0.0
 20
0.0
 30
0.0
 0
VERTEX
 8
PARTS
 10
  8.0200
 20
  9.1600
 30
0.0
 0
VERTEX
 8
PARTS
 10
  7.9600
 20
  9.2200
 30
0.0
 0
SEQEND
 8
PARTS
 0
POLYLINE
 8
PARTS
 66
1
 10
0.0
 20
0.0
 30
0.0
 0
VERTEX
 8
PARTS
 10
  8.0000
 20
  9.2600
 30
0.0
 0
VERTEX
 8
PARTS
 10
  7.9600
 20
  9.2200
 30
0.0
 0
SEQEND
 8
PARTS
 0
POLYLINE
 8
PARTS
 66
1
 10
0.0
 20
0.0
 30
0.0
 0
VERTEX
 8
PARTS
 10
  8.0000
 20
  9.2600
 30
0.0
 0
VERTEX
 8
PARTS
 10
  8.0000
 20
  9.3000
 30
0.0
 0
SEQEND
 8
PARTS
 0
POLYLINE
 8
PARTS
 66
1
 10
0.0
 20
0.0
 30
0.0
 0
VERTEX
 8
PARTS
 10
  8.0000
 20
  8.9400
 30
0.0
 0
VERTEX
 8
PARTS
 10
  8.0000
 20
  8.9000
 30
0.0
 0
SEQEND
 8
PARTS
 0
TEXT
 8
PARTTEXT
 10
 12.4500
 20
 11.6886
 30
0.0
 40
  0.0514
 1
C15
 0
TEXT
 8
PARTTEXT
 10
 12.3500
 20
 11.4186
 30
0.0
 40
  0.0514
 1
0.1uF
 0
LINE
 8
PARTS
 10
 12.2000
 20
 11.6000
 30
0.0
 11
 12.3000
 21
 11.6000
 31
0.0
 0
LINE
 8
PARTS
 10
 12.8000
 20
 11.6000
 30
0.0
 11
 12.7000
 21
 11.6000
 31
0.0
 0
POLYLINE
 8
PARTS
 66
1
 10
0.0
 20
0.0
 30
0.0
 0
VERTEX
 8
PARTS
 10
 12.4700
 20
 11.5200
 30
0.0
 0
VERTEX
 8
PARTS
 10
 12.4700
 20
 11.6800
 30
0.0
 0
SEQEND
 8
PARTS
 0
POLYLINE
 8
PARTS
 66
1
 10
0.0
 20
0.0
 30
0.0
 0
VERTEX
 8
PARTS
 10
 12.5300
 20
 11.6000
 30
0.0
 0
VERTEX
 8
PARTS
 10
 12.7000
 20
 11.6000
 30
0.0
 0
SEQEND
 8
PARTS
 0
POLYLINE
 8
PARTS
 66
1
 10
0.0
 20
0.0
 30
0.0
 0
VERTEX
 8
PARTS
 10
 12.3000
 20
 11.6000
 30
0.0
 0
VERTEX
 8
PARTS
 10
 12.4700
 20
 11.6000
 30
0.0
 0
SEQEND
 8
PARTS
 0
POLYLINE
 8
PARTS
 66
1
 10
0.0
 20
0.0
 30
0.0
 0
VERTEX
 8
PARTS
 10
 12.5300
 20
 11.5200
 30
0.0
 0
VERTEX
 8
PARTS
 10
 12.5300
 20
 11.6800
 30
0.0
 0
SEQEND
 8
PARTS
 0
TEXT
 8
PARTTEXT
 10
  8.5000
 20
  1.6186
 30
0.0
 40
  0.0514
 1
C24
 0
TEXT
 8
PARTTEXT
 10
  9.0000
 20
  1.6186
 30
0.0
 40
  0.0514
 1
10nF
 0
LINE
 8
PARTS
 10
  8.5000
 20
  1.6000
 30
0.0
 11
  8.6000
 21
  1.6000
 31
0.0
 0
LINE
 8
PARTS
 10
  9.1000
 20
  1.6000
 30
0.0
 11
  9.0000
 21
  1.6000
 31
0.0
 0
POLYLINE
 8
PARTS
 66
1
 10
0.0
 20
0.0
 30
0.0
 0
VERTEX
 8
PARTS
 10
  8.7700
 20
  1.5200
 30
0.0
 0
VERTEX
 8
PARTS
 10
  8.7700
 20
  1.6800
 30
0.0
 0
SEQEND
 8
PARTS
 0
POLYLINE
 8
PARTS
 66
1
 10
0.0
 20
0.0
 30
0.0
 0
VERTEX
 8
PARTS
 10
  8.8300
 20
  1.6000
 30
0.0
 0
VERTEX
 8
PARTS
 10
  9.0000
 20
  1.6000
 30
0.0
 0
SEQEND
 8
PARTS
 0
POLYLINE
 8
PARTS
 66
1
 10
0.0
 20
0.0
 30
0.0
 0
VERTEX
 8
PARTS
 10
  8.6000
 20
  1.6000
 30
0.0
 0
VERTEX
 8
PARTS
 10
  8.7700
 20
  1.6000
 30
0.0
 0
SEQEND
 8
PARTS
 0
POLYLINE
 8
PARTS
 66
1
 10
0.0
 20
0.0
 30
0.0
 0
VERTEX
 8
PARTS
 10
  8.8300
 20
  1.5200
 30
0.0
 0
VERTEX
 8
PARTS
 10
  8.8300
 20
  1.6800
 30
0.0
 0
SEQEND
 8
PARTS
 0
TEXT
 8
PARTTEXT
 10
 15.6000
 20
 12.4186
 30
0.0
 40
  0.0514
 1
VCO1
 0
TEXT
 8
PARTTEXT
 10
 15.6000
 20
 11.0186
 30
0.0
 40
  0.0514
 1
hmc509
 0
LINE
 8
PARTS
 10
 15.7000
 20
 11.9000
 30
0.0
 11
 15.8000
 21
 11.9000
 31
0.0
 0
TEXT
 8
PARTS
 10
 15.8900
 20
 11.8750
 30
0.0
 40
  0.0500
 1
N/C3
 0
TEXT
 8
PARTS
 10
 15.7000
 20
 11.9300
 30
0.0
 40
  0.0500
 1
3
 0
LINE
 8
PARTS
 10
 15.7000
 20
 11.8000
 30
0.0
 11
 15.8000
 21
 11.8000
 31
0.0
 0
TEXT
 8
PARTS
 10
 15.8900
 20
 11.7750
 30
0.0
 40
  0.0500
 1
N/C4
 0
TEXT
 8
PARTS
 10
 15.7000
 20
 11.8300
 30
0.0
 40
  0.0500
 1
4
 0
LINE
 8
PARTS
 10
 15.7000
 20
 11.7000
 30
0.0
 11
 15.8000
 21
 11.7000
 31
0.0
 0
TEXT
 8
PARTS
 10
 15.8900
 20
 11.6750
 30
0.0
 40
  0.0500
 1
GND5
 0
TEXT
 8
PARTS
 10
 15.7000
 20
 11.7300
 30
0.0
 40
  0.0500
 1
5
 0
LINE
 8
PARTS
 10
 15.7000
 20
 11.6000
 30
0.0
 11
 15.8000
 21
 11.6000
 31
0.0
 0
TEXT
 8
PARTS
 10
 15.8900
 20
 11.5750
 30
0.0
 40
  0.0500
 1
N/C6
 0
TEXT
 8
PARTS
 10
 15.7000
 20
 11.6300
 30
0.0
 40
  0.0500
 1
6
 0
LINE
 8
PARTS
 10
 15.7000
 20
 11.5000
 30
0.0
 11
 15.8000
 21
 11.5000
 31
0.0
 0
TEXT
 8
PARTS
 10
 15.8900
 20
 11.4750
 30
0.0
 40
  0.0500
 1
N/C7
 0
TEXT
 8
PARTS
 10
 15.7000
 20
 11.5300
 30
0.0
 40
  0.0500
 1
7
 0
LINE
 8
PARTS
 10
 15.7000
 20
 11.4000
 30
0.0
 11
 15.8000
 21
 11.4000
 31
0.0
 0
TEXT
 8
PARTS
 10
 15.8900
 20
 11.3750
 30
0.0
 40
  0.0500
 1
N/C8
 0
TEXT
 8
PARTS
 10
 15.7000
 20
 11.4300
 30
0.0
 40
  0.0500
 1
8
 0
LINE
 8
PARTS
 10
 16.1000
 20
 11.0000
 30
0.0
 11
 16.1000
 21
 11.1000
 31
0.0
 0
TEXT
 8
PARTS
 10
 16.1250
 20
 11.1900
 30
0.0
 40
  0.0500
 50
 90.0000
 1
N/C9
 0
TEXT
 8
PARTS
 10
 16.0700
 20
 10.9800
 30
0.0
 40
  0.0500
 50
 90.0000
 1
9
 0
LINE
 8
PARTS
 10
 16.2000
 20
 11.0000
 30
0.0
 11
 16.2000
 21
 11.1000
 31
0.0
 0
TEXT
 8
PARTS
 10
 16.2250
 20
 11.1900
 30
0.0
 40
  0.0500
 50
 90.0000
 1
N/C10
 0
TEXT
 8
PARTS
 10
 16.1700
 20
 10.9800
 30
0.0
 40
  0.0500
 50
 90.0000
 1
10
 0
LINE
 8
PARTS
 10
 16.3000
 20
 11.0000
 30
0.0
 11
 16.3000
 21
 11.1000
 31
0.0
 0
TEXT
 8
PARTS
 10
 16.3250
 20
 11.1900
 30
0.0
 40
  0.0500
 50
 90.0000
 1
GND11
 0
TEXT
 8
PARTS
 10
 16.2700
 20
 10.9800
 30
0.0
 40
  0.0500
 50
 90.0000
 1
11
 0
LINE
 8
PARTS
 10
 16.4000
 20
 11.0000
 30
0.0
 11
 16.4000
 21
 11.1000
 31
0.0
 0
TEXT
 8
PARTS
 10
 16.4250
 20
 11.1900
 30
0.0
 40
  0.0500
 50
 90.0000
 1
RFOUT/2
 0
TEXT
 8
PARTS
 10
 16.3700
 20
 10.9800
 30
0.0
 40
  0.0500
 50
 90.0000
 1
12
 0
LINE
 8
PARTS
 10
 16.5000
 20
 11.0000
 30
0.0
 11
 16.5000
 21
 11.1000
 31
0.0
 0
TEXT
 8
PARTS
 10
 16.5250
 20
 11.1900
 30
0.0
 40
  0.0500
 50
 90.0000
 1
N/C13
 0
TEXT
 8
PARTS
 10
 16.4700
 20
 10.9800
 30
0.0
 40
  0.0500
 50
 90.0000
 1
13
 0
LINE
 8
PARTS
 10
 16.6000
 20
 11.0000
 30
0.0
 11
 16.6000
 21
 11.1000
 31
0.0
 0
TEXT
 8
PARTS
 10
 16.6250
 20
 11.1900
 30
0.0
 40
  0.0500
 50
 90.0000
 1
N/C14
 0
TEXT
 8
PARTS
 10
 16.5700
 20
 10.9800
 30
0.0
 40
  0.0500
 50
 90.0000
 1
14
 0
LINE
 8
PARTS
 10
 16.7000
 20
 11.0000
 30
0.0
 11
 16.7000
 21
 11.1000
 31
0.0
 0
TEXT
 8
PARTS
 10
 16.7250
 20
 11.1900
 30
0.0
 40
  0.0500
 50
 90.0000
 1
N/C15
 0
TEXT
 8
PARTS
 10
 16.6700
 20
 10.9800
 30
0.0
 40
  0.0500
 50
 90.0000
 1
15
 0
LINE
 8
PARTS
 10
 16.8000
 20
 11.0000
 30
0.0
 11
 16.8000
 21
 11.1000
 31
0.0
 0
TEXT
 8
PARTS
 10
 16.8250
 20
 11.1900
 30
0.0
 40
  0.0500
 50
 90.0000
 1
N/C16
 0
TEXT
 8
PARTS
 10
 16.7700
 20
 10.9800
 30
0.0
 40
  0.0500
 50
 90.0000
 1
16
 0
LINE
 8
PARTS
 10
 17.2000
 20
 12.1000
 30
0.0
 11
 17.1000
 21
 12.1000
 31
0.0
 0
TEXT
 8
PARTS
 10
 16.8100
 20
 12.0750
 30
0.0
 40
  0.0500
 1
N/C24
 0
TEXT
 8
PARTS
 10
 17.1600
 20
 12.1300
 30
0.0
 40
  0.0500
 1
24
 0
LINE
 8
PARTS
 10
 17.2000
 20
 12.0000
 30
0.0
 11
 17.1000
 21
 12.0000
 31
0.0
 0
TEXT
 8
PARTS
 10
 16.8100
 20
 11.9750
 30
0.0
 40
  0.0500
 1
N/C23
 0
TEXT
 8
PARTS
 10
 17.1600
 20
 12.0300
 30
0.0
 40
  0.0500
 1
23
 0
LINE
 8
PARTS
 10
 17.2000
 20
 11.9000
 30
0.0
 11
 17.1000
 21
 11.9000
 31
0.0
 0
TEXT
 8
PARTS
 10
 16.8100
 20
 11.8750
 30
0.0
 40
  0.0500
 1
N/C22
 0
TEXT
 8
PARTS
 10
 17.1600
 20
 11.9300
 30
0.0
 40
  0.0500
 1
22
 0
LINE
 8
PARTS
 10
 17.2000
 20
 11.8000
 30
0.0
 11
 17.1000
 21
 11.8000
 31
0.0
 0
TEXT
 8
PARTS
 10
 16.8900
 20
 11.7750
 30
0.0
 40
  0.0500
 1
Vcc
 0
TEXT
 8
PARTS
 10
 17.1600
 20
 11.8300
 30
0.0
 40
  0.0500
 1
21
 0
LINE
 8
PARTS
 10
 17.2000
 20
 11.7000
 30
0.0
 11
 17.1000
 21
 11.7000
 31
0.0
 0
TEXT
 8
PARTS
 10
 16.8100
 20
 11.6750
 30
0.0
 40
  0.0500
 1
N/C20
 0
TEXT
 8
PARTS
 10
 17.1600
 20
 11.7300
 30
0.0
 40
  0.0500
 1
20
 0
LINE
 8
PARTS
 10
 17.2000
 20
 11.6000
 30
0.0
 11
 17.1000
 21
 11.6000
 31
0.0
 0
TEXT
 8
PARTS
 10
 16.8100
 20
 11.5750
 30
0.0
 40
  0.0500
 1
RFOUT
 0
TEXT
 8
PARTS
 10
 17.1600
 20
 11.6300
 30
0.0
 40
  0.0500
 1
19
 0
LINE
 8
PARTS
 10
 17.2000
 20
 11.5000
 30
0.0
 11
 17.1000
 21
 11.5000
 31
0.0
 0
TEXT
 8
PARTS
 10
 16.8100
 20
 11.4750
 30
0.0
 40
  0.0500
 1
N/C18
 0
TEXT
 8
PARTS
 10
 17.1600
 20
 11.5300
 30
0.0
 40
  0.0500
 1
18
 0
LINE
 8
PARTS
 10
 17.2000
 20
 11.4000
 30
0.0
 11
 17.1000
 21
 11.4000
 31
0.0
 0
TEXT
 8
PARTS
 10
 16.8100
 20
 11.3750
 30
0.0
 40
  0.0500
 1
N/C17
 0
TEXT
 8
PARTS
 10
 17.1600
 20
 11.4300
 30
0.0
 40
  0.0500
 1
17
 0
LINE
 8
PARTS
 10
 16.1000
 20
 12.5000
 30
0.0
 11
 16.1000
 21
 12.4000
 31
0.0
 0
TEXT
 8
PARTS
 10
 16.1250
 20
 12.1100
 30
0.0
 40
  0.0500
 50
 90.0000
 1
N/C32
 0
TEXT
 8
PARTS
 10
 16.0700
 20
 12.4600
 30
0.0
 40
  0.0500
 50
 90.0000
 1
32
 0
LINE
 8
PARTS
 10
 16.2000
 20
 12.5000
 30
0.0
 11
 16.2000
 21
 12.4000
 31
0.0
 0
TEXT
 8
PARTS
 10
 16.2250
 20
 12.1100
 30
0.0
 40
  0.0500
 50
 90.0000
 1
N/C31
 0
TEXT
 8
PARTS
 10
 16.1700
 20
 12.4600
 30
0.0
 40
  0.0500
 50
 90.0000
 1
31
 0
LINE
 8
PARTS
 10
 16.3000
 20
 12.5000
 30
0.0
 11
 16.3000
 21
 12.4000
 31
0.0
 0
TEXT
 8
PARTS
 10
 16.3250
 20
 12.1100
 30
0.0
 40
  0.0500
 50
 90.0000
 1
N/C30
 0
TEXT
 8
PARTS
 10
 16.2700
 20
 12.4600
 30
0.0
 40
  0.0500
 50
 90.0000
 1
30
 0
LINE
 8
PARTS
 10
 16.4000
 20
 12.5000
 30
0.0
 11
 16.4000
 21
 12.4000
 31
0.0
 0
TEXT
 8
PARTS
 10
 16.4250
 20
 12.1100
 30
0.0
 40
  0.0500
 50
 90.0000
 1
VTUNE
 0
TEXT
 8
PARTS
 10
 16.3700
 20
 12.4600
 30
0.0
 40
  0.0500
 50
 90.0000
 1
29
 0
LINE
 8
PARTS
 10
 16.5000
 20
 12.5000
 30
0.0
 11
 16.5000
 21
 12.4000
 31
0.0
 0
TEXT
 8
PARTS
 10
 16.5250
 20
 12.1100
 30
0.0
 40
  0.0500
 50
 90.0000
 1
N/C28
 0
TEXT
 8
PARTS
 10
 16.4700
 20
 12.4600
 30
0.0
 40
  0.0500
 50
 90.0000
 1
28
 0
LINE
 8
PARTS
 10
 16.6000
 20
 12.5000
 30
0.0
 11
 16.6000
 21
 12.4000
 31
0.0
 0
TEXT
 8
PARTS
 10
 16.6250
 20
 12.1100
 30
0.0
 40
  0.0500
 50
 90.0000
 1
N/C27
 0
TEXT
 8
PARTS
 10
 16.5700
 20
 12.4600
 30
0.0
 40
  0.0500
 50
 90.0000
 1
27
 0
LINE
 8
PARTS
 10
 16.7000
 20
 12.5000
 30
0.0
 11
 16.7000
 21
 12.4000
 31
0.0
 0
TEXT
 8
PARTS
 10
 16.7250
 20
 12.1100
 30
0.0
 40
  0.0500
 50
 90.0000
 1
N/C26
 0
TEXT
 8
PARTS
 10
 16.6700
 20
 12.4600
 30
0.0
 40
  0.0500
 50
 90.0000
 1
26
 0
LINE
 8
PARTS
 10
 16.8000
 20
 12.5000
 30
0.0
 11
 16.8000
 21
 12.4000
 31
0.0
 0
TEXT
 8
PARTS
 10
 16.8250
 20
 12.1100
 30
0.0
 40
  0.0500
 50
 90.0000
 1
N/C25
 0
TEXT
 8
PARTS
 10
 16.7700
 20
 12.4600
 30
0.0
 40
  0.0500
 50
 90.0000
 1
25
 0
LINE
 8
PARTS
 10
 15.7000
 20
 12.1000
 30
0.0
 11
 15.8000
 21
 12.1000
 31
0.0
 0
TEXT
 8
PARTS
 10
 15.8900
 20
 12.0750
 30
0.0
 40
  0.0500
 1
N/C1
 0
TEXT
 8
PARTS
 10
 15.7000
 20
 12.1300
 30
0.0
 40
  0.0500
 1
1
 0
LINE
 8
PARTS
 10
 15.7000
 20
 12.0000
 30
0.0
 11
 15.8000
 21
 12.0000
 31
0.0
 0
TEXT
 8
PARTS
 10
 15.8900
 20
 11.9750
 30
0.0
 40
  0.0500
 1
N/C2
 0
TEXT
 8
PARTS
 10
 15.7000
 20
 12.0300
 30
0.0
 40
  0.0500
 1
2
 0
LINE
 8
PARTS
 10
 16.0000
 20
 12.7000
 30
0.0
 11
 16.0000
 21
 12.4000
 31
0.0
 0
TEXT
 8
PARTS
 10
 16.0250
 20
 12.1100
 30
0.0
 40
  0.0500
 50
 90.0000
 1
GND33
 0
TEXT
 8
PARTS
 10
 15.9700
 20
 12.4600
 30
0.0
 40
  0.0500
 50
 90.0000
 1
33
 0
POLYLINE
 8
PARTS
 66
1
 70
1
 10
0.0
 20
0.0
 30
0.0
 0
VERTEX
 8
PARTS
 10
 15.8000
 20
 12.4000
 30
0.0
 0
VERTEX
 8
PARTS
 10
 17.1000
 20
 12.4000
 30
0.0
 0
VERTEX
 8
PARTS
 10
 17.1000
 20
 11.1000
 30
0.0
 0
VERTEX
 8
PARTS
 10
 15.8000
 20
 11.1000
 30
0.0
 0
SEQEND
 8
PARTS
 0
TEXT
 8
PARTTEXT
 10
  8.5000
 20
  4.1186
 30
0.0
 40
  0.0514
 1
C21
 0
TEXT
 8
PARTTEXT
 10
  8.9000
 20
  4.1186
 30
0.0
 40
  0.0514
 1
10nF
 0
LINE
 8
PARTS
 10
  8.5000
 20
  4.1000
 30
0.0
 11
  8.6000
 21
  4.1000
 31
0.0
 0
LINE
 8
PARTS
 10
  9.1000
 20
  4.1000
 30
0.0
 11
  9.0000
 21
  4.1000
 31
0.0
 0
POLYLINE
 8
PARTS
 66
1
 10
0.0
 20
0.0
 30
0.0
 0
VERTEX
 8
PARTS
 10
  8.7700
 20
  4.0200
 30
0.0
 0
VERTEX
 8
PARTS
 10
  8.7700
 20
  4.1800
 30
0.0
 0
SEQEND
 8
PARTS
 0
POLYLINE
 8
PARTS
 66
1
 10
0.0
 20
0.0
 30
0.0
 0
VERTEX
 8
PARTS
 10
  8.8300
 20
  4.1000
 30
0.0
 0
VERTEX
 8
PARTS
 10
  9.0000
 20
  4.1000
 30
0.0
 0
SEQEND
 8
PARTS
 0
POLYLINE
 8
PARTS
 66
1
 10
0.0
 20
0.0
 30
0.0
 0
VERTEX
 8
PARTS
 10
  8.6000
 20
  4.1000
 30
0.0
 0
VERTEX
 8
PARTS
 10
  8.7700
 20
  4.1000
 30
0.0
 0
SEQEND
 8
PARTS
 0
POLYLINE
 8
PARTS
 66
1
 10
0.0
 20
0.0
 30
0.0
 0
VERTEX
 8
PARTS
 10
  8.8300
 20
  4.0200
 30
0.0
 0
VERTEX
 8
PARTS
 10
  8.8300
 20
  4.1800
 30
0.0
 0
SEQEND
 8
PARTS
 0
TEXT
 8
PARTTEXT
 10
  8.6000
 20
  9.2186
 30
0.0
 40
  0.0514
 1
R11
 0
TEXT
 8
PARTTEXT
 10
  8.6000
 20
  9.1186
 30
0.0
 40
  0.0514
 1
330
 0
LINE
 8
PARTS
 10
  8.5000
 20
  9.4000
 30
0.0
 11
  8.5000
 21
  9.3000
 31
0.0
 0
LINE
 8
PARTS
 10
  8.5000
 20
  8.8000
 30
0.0
 11
  8.5000
 21
  8.9000
 31
0.0
 0
POLYLINE
 8
PARTS
 66
1
 10
0.0
 20
0.0
 30
0.0
 0
VERTEX
 8
PARTS
 10
  8.5200
 20
  9.0400
 30
0.0
 0
VERTEX
 8
PARTS
 10
  8.4600
 20
  9.1000
 30
0.0
 0
SEQEND
 8
PARTS
 0
POLYLINE
 8
PARTS
 66
1
 10
0.0
 20
0.0
 30
0.0
 0
VERTEX
 8
PARTS
 10
  8.5200
 20
  9.0400
 30
0.0
 0
VERTEX
 8
PARTS
 10
  8.4600
 20
  8.9800
 30
0.0
 0
SEQEND
 8
PARTS
 0
POLYLINE
 8
PARTS
 66
1
 10
0.0
 20
0.0
 30
0.0
 0
VERTEX
 8
PARTS
 10
  8.4600
 20
  8.9800
 30
0.0
 0
VERTEX
 8
PARTS
 10
  8.5000
 20
  8.9400
 30
0.0
 0
SEQEND
 8
PARTS
 0
POLYLINE
 8
PARTS
 66
1
 10
0.0
 20
0.0
 30
0.0
 0
VERTEX
 8
PARTS
 10
  8.4600
 20
  9.1000
 30
0.0
 0
VERTEX
 8
PARTS
 10
  8.5200
 20
  9.1600
 30
0.0
 0
SEQEND
 8
PARTS
 0
POLYLINE
 8
PARTS
 66
1
 10
0.0
 20
0.0
 30
0.0
 0
VERTEX
 8
PARTS
 10
  8.5200
 20
  9.1600
 30
0.0
 0
VERTEX
 8
PARTS
 10
  8.4600
 20
  9.2200
 30
0.0
 0
SEQEND
 8
PARTS
 0
POLYLINE
 8
PARTS
 66
1
 10
0.0
 20
0.0
 30
0.0
 0
VERTEX
 8
PARTS
 10
  8.5000
 20
  9.2600
 30
0.0
 0
VERTEX
 8
PARTS
 10
  8.4600
 20
  9.2200
 30
0.0
 0
SEQEND
 8
PARTS
 0
POLYLINE
 8
PARTS
 66
1
 10
0.0
 20
0.0
 30
0.0
 0
VERTEX
 8
PARTS
 10
  8.5000
 20
  9.2600
 30
0.0
 0
VERTEX
 8
PARTS
 10
  8.5000
 20
  9.3000
 30
0.0
 0
SEQEND
 8
PARTS
 0
POLYLINE
 8
PARTS
 66
1
 10
0.0
 20
0.0
 30
0.0
 0
VERTEX
 8
PARTS
 10
  8.5000
 20
  8.9400
 30
0.0
 0
VERTEX
 8
PARTS
 10
  8.5000
 20
  8.9000
 30
0.0
 0
SEQEND
 8
PARTS
 0
TEXT
 8
PARTTEXT
 10
 14.4500
 20
 14.3886
 30
0.0
 40
  0.0514
 1
C1
 0
TEXT
 8
PARTTEXT
 10
 14.3500
 20
 14.1186
 30
0.0
 40
  0.0514
 1
100pF
 0
LINE
 8
PARTS
 10
 14.2000
 20
 14.3000
 30
0.0
 11
 14.3000
 21
 14.3000
 31
0.0
 0
LINE
 8
PARTS
 10
 14.8000
 20
 14.3000
 30
0.0
 11
 14.7000
 21
 14.3000
 31
0.0
 0
POLYLINE
 8
PARTS
 66
1
 10
0.0
 20
0.0
 30
0.0
 0
VERTEX
 8
PARTS
 10
 14.4700
 20
 14.2200
 30
0.0
 0
VERTEX
 8
PARTS
 10
 14.4700
 20
 14.3800
 30
0.0
 0
SEQEND
 8
PARTS
 0
POLYLINE
 8
PARTS
 66
1
 10
0.0
 20
0.0
 30
0.0
 0
VERTEX
 8
PARTS
 10
 14.5300
 20
 14.3000
 30
0.0
 0
VERTEX
 8
PARTS
 10
 14.7000
 20
 14.3000
 30
0.0
 0
SEQEND
 8
PARTS
 0
POLYLINE
 8
PARTS
 66
1
 10
0.0
 20
0.0
 30
0.0
 0
VERTEX
 8
PARTS
 10
 14.3000
 20
 14.3000
 30
0.0
 0
VERTEX
 8
PARTS
 10
 14.4700
 20
 14.3000
 30
0.0
 0
SEQEND
 8
PARTS
 0
POLYLINE
 8
PARTS
 66
1
 10
0.0
 20
0.0
 30
0.0
 0
VERTEX
 8
PARTS
 10
 14.5300
 20
 14.2200
 30
0.0
 0
VERTEX
 8
PARTS
 10
 14.5300
 20
 14.3800
 30
0.0
 0
SEQEND
 8
PARTS
 0
TEXT
 8
PARTTEXT
 10
 17.6500
 20
 12.5886
 30
0.0
 40
  0.0514
 1
C11
 0
TEXT
 8
PARTTEXT
 10
 17.5500
 20
 12.3186
 30
0.0
 40
  0.0514
 1
100pF
 0
LINE
 8
PARTS
 10
 17.4000
 20
 12.5000
 30
0.0
 11
 17.5000
 21
 12.5000
 31
0.0
 0
LINE
 8
PARTS
 10
 18.0000
 20
 12.5000
 30
0.0
 11
 17.9000
 21
 12.5000
 31
0.0
 0
POLYLINE
 8
PARTS
 66
1
 10
0.0
 20
0.0
 30
0.0
 0
VERTEX
 8
PARTS
 10
 17.6700
 20
 12.4200
 30
0.0
 0
VERTEX
 8
PARTS
 10
 17.6700
 20
 12.5800
 30
0.0
 0
SEQEND
 8
PARTS
 0
POLYLINE
 8
PARTS
 66
1
 10
0.0
 20
0.0
 30
0.0
 0
VERTEX
 8
PARTS
 10
 17.7300
 20
 12.5000
 30
0.0
 0
VERTEX
 8
PARTS
 10
 17.9000
 20
 12.5000
 30
0.0
 0
SEQEND
 8
PARTS
 0
POLYLINE
 8
PARTS
 66
1
 10
0.0
 20
0.0
 30
0.0
 0
VERTEX
 8
PARTS
 10
 17.5000
 20
 12.5000
 30
0.0
 0
VERTEX
 8
PARTS
 10
 17.6700
 20
 12.5000
 30
0.0
 0
SEQEND
 8
PARTS
 0
POLYLINE
 8
PARTS
 66
1
 10
0.0
 20
0.0
 30
0.0
 0
VERTEX
 8
PARTS
 10
 17.7300
 20
 12.4200
 30
0.0
 0
VERTEX
 8
PARTS
 10
 17.7300
 20
 12.5800
 30
0.0
 0
SEQEND
 8
PARTS
 0
TEXT
 8
PARTTEXT
 10
  7.0600
 20
  3.5186
 30
0.0
 40
  0.0514
 1
C23
 0
TEXT
 8
PARTTEXT
 10
  7.0600
 20
  3.3986
 30
0.0
 40
  0.0514
 1
1uF
 0
LINE
 8
PARTS
 10
  6.9000
 20
  3.1000
 30
0.0
 11
  6.9000
 21
  3.2000
 31
0.0
 0
LINE
 8
PARTS
 10
  6.9000
 20
  3.7000
 30
0.0
 11
  6.9000
 21
  3.6000
 31
0.0
 0
POLYLINE
 8
PARTS
 66
1
 10
0.0
 20
0.0
 30
0.0
 0
VERTEX
 8
PARTS
 10
  6.9800
 20
  3.3700
 30
0.0
 0
VERTEX
 8
PARTS
 10
  6.8200
 20
  3.3700
 30
0.0
 0
SEQEND
 8
PARTS
 0
POLYLINE
 8
PARTS
 66
1
 10
0.0
 20
0.0
 30
0.0
 0
VERTEX
 8
PARTS
 10
  6.9000
 20
  3.4300
 30
0.0
 0
VERTEX
 8
PARTS
 10
  6.9000
 20
  3.6000
 30
0.0
 0
SEQEND
 8
PARTS
 0
POLYLINE
 8
PARTS
 66
1
 10
0.0
 20
0.0
 30
0.0
 0
VERTEX
 8
PARTS
 10
  6.9000
 20
  3.2000
 30
0.0
 0
VERTEX
 8
PARTS
 10
  6.9000
 20
  3.3700
 30
0.0
 0
SEQEND
 8
PARTS
 0
POLYLINE
 8
PARTS
 66
1
 10
0.0
 20
0.0
 30
0.0
 0
VERTEX
 8
PARTS
 10
  6.9800
 20
  3.4300
 30
0.0
 0
VERTEX
 8
PARTS
 10
  6.8200
 20
  3.4300
 30
0.0
 0
SEQEND
 8
PARTS
 0
TEXT
 8
PARTTEXT
 10
  9.4600
 20
 13.5186
 30
0.0
 40
  0.0514
 1
C4
 0
TEXT
 8
PARTTEXT
 10
  9.4600
 20
 13.3986
 30
0.0
 40
  0.0514
 1
100pF
 0
LINE
 8
PARTS
 10
  9.3000
 20
 13.1000
 30
0.0
 11
  9.3000
 21
 13.2000
 31
0.0
 0
LINE
 8
PARTS
 10
  9.3000
 20
 13.7000
 30
0.0
 11
  9.3000
 21
 13.6000
 31
0.0
 0
POLYLINE
 8
PARTS
 66
1
 10
0.0
 20
0.0
 30
0.0
 0
VERTEX
 8
PARTS
 10
  9.3800
 20
 13.3700
 30
0.0
 0
VERTEX
 8
PARTS
 10
  9.2200
 20
 13.3700
 30
0.0
 0
SEQEND
 8
PARTS
 0
POLYLINE
 8
PARTS
 66
1
 10
0.0
 20
0.0
 30
0.0
 0
VERTEX
 8
PARTS
 10
  9.3000
 20
 13.4300
 30
0.0
 0
VERTEX
 8
PARTS
 10
  9.3000
 20
 13.6000
 30
0.0
 0
SEQEND
 8
PARTS
 0
POLYLINE
 8
PARTS
 66
1
 10
0.0
 20
0.0
 30
0.0
 0
VERTEX
 8
PARTS
 10
  9.3000
 20
 13.2000
 30
0.0
 0
VERTEX
 8
PARTS
 10
  9.3000
 20
 13.3700
 30
0.0
 0
SEQEND
 8
PARTS
 0
POLYLINE
 8
PARTS
 66
1
 10
0.0
 20
0.0
 30
0.0
 0
VERTEX
 8
PARTS
 10
  9.3800
 20
 13.4300
 30
0.0
 0
VERTEX
 8
PARTS
 10
  9.2200
 20
 13.4300
 30
0.0
 0
SEQEND
 8
PARTS
 0
TEXT
 8
PARTTEXT
 10
 13.9000
 20
 12.9186
 30
0.0
 40
  0.0514
 1
R2
 0
TEXT
 8
PARTTEXT
 10
 13.9000
 20
 12.6186
 30
0.0
 40
  0.0514
 1
60.1
 0
LINE
 8
PARTS
 10
 14.4000
 20
 12.8000
 30
0.0
 11
 14.3000
 21
 12.8000
 31
0.0
 0
LINE
 8
PARTS
 10
 13.8000
 20
 12.8000
 30
0.0
 11
 13.9000
 21
 12.8000
 31
0.0
 0
POLYLINE
 8
PARTS
 66
1
 10
0.0
 20
0.0
 30
0.0
 0
VERTEX
 8
PARTS
 10
 14.0400
 20
 12.7800
 30
0.0
 0
VERTEX
 8
PARTS
 10
 14.1000
 20
 12.8400
 30
0.0
 0
SEQEND
 8
PARTS
 0
POLYLINE
 8
PARTS
 66
1
 10
0.0
 20
0.0
 30
0.0
 0
VERTEX
 8
PARTS
 10
 14.0400
 20
 12.7800
 30
0.0
 0
VERTEX
 8
PARTS
 10
 13.9800
 20
 12.8400
 30
0.0
 0
SEQEND
 8
PARTS
 0
POLYLINE
 8
PARTS
 66
1
 10
0.0
 20
0.0
 30
0.0
 0
VERTEX
 8
PARTS
 10
 13.9800
 20
 12.8400
 30
0.0
 0
VERTEX
 8
PARTS
 10
 13.9400
 20
 12.8000
 30
0.0
 0
SEQEND
 8
PARTS
 0
POLYLINE
 8
PARTS
 66
1
 10
0.0
 20
0.0
 30
0.0
 0
VERTEX
 8
PARTS
 10
 14.1000
 20
 12.8400
 30
0.0
 0
VERTEX
 8
PARTS
 10
 14.1600
 20
 12.7800
 30
0.0
 0
SEQEND
 8
PARTS
 0
POLYLINE
 8
PARTS
 66
1
 10
0.0
 20
0.0
 30
0.0
 0
VERTEX
 8
PARTS
 10
 14.1600
 20
 12.7800
 30
0.0
 0
VERTEX
 8
PARTS
 10
 14.2200
 20
 12.8400
 30
0.0
 0
SEQEND
 8
PARTS
 0
POLYLINE
 8
PARTS
 66
1
 10
0.0
 20
0.0
 30
0.0
 0
VERTEX
 8
PARTS
 10
 14.2600
 20
 12.8000
 30
0.0
 0
VERTEX
 8
PARTS
 10
 14.2200
 20
 12.8400
 30
0.0
 0
SEQEND
 8
PARTS
 0
POLYLINE
 8
PARTS
 66
1
 10
0.0
 20
0.0
 30
0.0
 0
VERTEX
 8
PARTS
 10
 14.2600
 20
 12.8000
 30
0.0
 0
VERTEX
 8
PARTS
 10
 14.3000
 20
 12.8000
 30
0.0
 0
SEQEND
 8
PARTS
 0
POLYLINE
 8
PARTS
 66
1
 10
0.0
 20
0.0
 30
0.0
 0
VERTEX
 8
PARTS
 10
 13.9400
 20
 12.8000
 30
0.0
 0
VERTEX
 8
PARTS
 10
 13.9000
 20
 12.8000
 30
0.0
 0
SEQEND
 8
PARTS
 0
TEXT
 8
PARTTEXT
 10
 10.0600
 20
  9.2186
 30
0.0
 40
  0.0514
 1
R13
 0
TEXT
 8
PARTTEXT
 10
 10.0600
 20
  9.0986
 30
0.0
 40
  0.0514
 1
0
 0
LINE
 8
PARTS
 10
  9.9000
 20
  9.4000
 30
0.0
 11
  9.9000
 21
  9.3000
 31
0.0
 0
LINE
 8
PARTS
 10
  9.9000
 20
  8.8000
 30
0.0
 11
  9.9000
 21
  8.9000
 31
0.0
 0
POLYLINE
 8
PARTS
 66
1
 10
0.0
 20
0.0
 30
0.0
 0
VERTEX
 8
PARTS
 10
  9.9200
 20
  9.0400
 30
0.0
 0
VERTEX
 8
PARTS
 10
  9.8600
 20
  9.1000
 30
0.0
 0
SEQEND
 8
PARTS
 0
POLYLINE
 8
PARTS
 66
1
 10
0.0
 20
0.0
 30
0.0
 0
VERTEX
 8
PARTS
 10
  9.9200
 20
  9.0400
 30
0.0
 0
VERTEX
 8
PARTS
 10
  9.8600
 20
  8.9800
 30
0.0
 0
SEQEND
 8
PARTS
 0
POLYLINE
 8
PARTS
 66
1
 10
0.0
 20
0.0
 30
0.0
 0
VERTEX
 8
PARTS
 10
  9.8600
 20
  8.9800
 30
0.0
 0
VERTEX
 8
PARTS
 10
  9.9000
 20
  8.9400
 30
0.0
 0
SEQEND
 8
PARTS
 0
POLYLINE
 8
PARTS
 66
1
 10
0.0
 20
0.0
 30
0.0
 0
VERTEX
 8
PARTS
 10
  9.8600
 20
  9.1000
 30
0.0
 0
VERTEX
 8
PARTS
 10
  9.9200
 20
  9.1600
 30
0.0
 0
SEQEND
 8
PARTS
 0
POLYLINE
 8
PARTS
 66
1
 10
0.0
 20
0.0
 30
0.0
 0
VERTEX
 8
PARTS
 10
  9.9200
 20
  9.1600
 30
0.0
 0
VERTEX
 8
PARTS
 10
  9.8600
 20
  9.2200
 30
0.0
 0
SEQEND
 8
PARTS
 0
POLYLINE
 8
PARTS
 66
1
 10
0.0
 20
0.0
 30
0.0
 0
VERTEX
 8
PARTS
 10
  9.9000
 20
  9.2600
 30
0.0
 0
VERTEX
 8
PARTS
 10
  9.8600
 20
  9.2200
 30
0.0
 0
SEQEND
 8
PARTS
 0
POLYLINE
 8
PARTS
 66
1
 10
0.0
 20
0.0
 30
0.0
 0
VERTEX
 8
PARTS
 10
  9.9000
 20
  9.2600
 30
0.0
 0
VERTEX
 8
PARTS
 10
  9.9000
 20
  9.3000
 30
0.0
 0
SEQEND
 8
PARTS
 0
POLYLINE
 8
PARTS
 66
1
 10
0.0
 20
0.0
 30
0.0
 0
VERTEX
 8
PARTS
 10
  9.9000
 20
  8.9400
 30
0.0
 0
VERTEX
 8
PARTS
 10
  9.9000
 20
  8.9000
 30
0.0
 0
SEQEND
 8
PARTS
 0
TEXT
 8
PARTTEXT
 10
  7.4700
 20
  1.8586
 30
0.0
 40
  0.0514
 1
U4
 0
TEXT
 8
PARTTEXT
 10
  7.6800
 20
  0.8786
 30
0.0
 40
  0.0514
 1
ADP3300
 0
LINE
 8
PARTS
 10
  7.3000
 20
  1.6000
 30
0.0
 11
  7.4000
 21
  1.6000
 31
0.0
 0
TEXT
 8
PARTS
 10
  7.4900
 20
  1.5750
 30
0.0
 40
  0.0500
 1
GND
 0
TEXT
 8
PARTS
 10
  7.3000
 20
  1.6300
 30
0.0
 40
  0.0500
 1
1
 0
LINE
 8
PARTS
 10
  7.3000
 20
  1.4000
 30
0.0
 11
  7.4000
 21
  1.4000
 31
0.0
 0
TEXT
 8
PARTS
 10
  7.4900
 20
  1.3750
 30
0.0
 40
  0.0500
 1
NR
 0
TEXT
 8
PARTS
 10
  7.3000
 20
  1.4300
 30
0.0
 40
  0.0500
 1
2
 0
LINE
 8
PARTS
 10
  7.3000
 20
  1.2000
 30
0.0
 11
  7.4000
 21
  1.2000
 31
0.0
 0
TEXT
 8
PARTS
 10
  7.4900
 20
  1.1750
 30
0.0
 40
  0.0500
 1
SD
 0
TEXT
 8
PARTS
 10
  7.3000
 20
  1.2300
 30
0.0
 40
  0.0500
 1
3
 0
LINE
 8
PARTS
 10
  8.1000
 20
  1.6000
 30
0.0
 11
  8.0000
 21
  1.6000
 31
0.0
 0
TEXT
 8
PARTS
 10
  7.7900
 20
  1.5750
 30
0.0
 40
  0.0500
 1
ERR
 0
TEXT
 8
PARTS
 10
  8.0600
 20
  1.6300
 30
0.0
 40
  0.0500
 1
4
 0
LINE
 8
PARTS
 10
  8.1000
 20
  1.4000
 30
0.0
 11
  8.0000
 21
  1.4000
 31
0.0
 0
TEXT
 8
PARTS
 10
  7.8300
 20
  1.3750
 30
0.0
 40
  0.0500
 1
IN
 0
TEXT
 8
PARTS
 10
  8.0600
 20
  1.4300
 30
0.0
 40
  0.0500
 1
5
 0
LINE
 8
PARTS
 10
  8.1000
 20
  1.2000
 30
0.0
 11
  8.0000
 21
  1.2000
 31
0.0
 0
TEXT
 8
PARTS
 10
  7.7900
 20
  1.1750
 30
0.0
 40
  0.0500
 1
OUT
 0
TEXT
 8
PARTS
 10
  8.0600
 20
  1.2300
 30
0.0
 40
  0.0500
 1
6
 0
POLYLINE
 8
PARTS
 66
1
 70
1
 10
0.0
 20
0.0
 30
0.0
 0
VERTEX
 8
PARTS
 10
  7.4000
 20
  1.8000
 30
0.0
 0
VERTEX
 8
PARTS
 10
  8.0000
 20
  1.8000
 30
0.0
 0
VERTEX
 8
PARTS
 10
  8.0000
 20
  1.0000
 30
0.0
 0
VERTEX
 8
PARTS
 10
  7.4000
 20
  1.0000
 30
0.0
 0
SEQEND
 8
PARTS
 0
TEXT
 8
PARTTEXT
 10
 11.0000
 20
  1.9586
 30
0.0
 40
  0.0514
 1
TP9
 0
TEXT
 8
PARTTEXT
 10
 11.0000
 20
  1.8386
 30
0.0
 40
  0.0514
 1
TEST POINT
 0
LINE
 8
PARTS
 10
 11.1000
 20
  1.4000
 30
0.0
 11
 11.1000
 21
  1.7000
 31
0.0
 0
TEXT
 8
PARTS
 10
 11.0700
 20
  1.5800
 30
0.0
 40
  0.0500
 50
 90.0000
 1
1
 0
POLYLINE
 8
PARTS
 66
1
 70
1
 10
0.0
 20
0.0
 30
0.0
 0
VERTEX
 8
PARTS
 10
 11.0000
 20
  1.7000
 30
0.0
 0
VERTEX
 8
PARTS
 10
 11.0000
 20
  1.8000
 30
0.0
 0
VERTEX
 8
PARTS
 10
 11.2000
 20
  1.8000
 30
0.0
 0
VERTEX
 8
PARTS
 10
 11.2000
 20
  1.7000
 30
0.0
 0
SEQEND
 8
PARTS
 0
TEXT
 8
PARTTEXT
 10
 17.6500
 20
 11.6886
 30
0.0
 40
  0.0514
 1
C16
 0
TEXT
 8
PARTTEXT
 10
 17.5500
 20
 11.4186
 30
0.0
 40
  0.0514
 1
100pF
 0
LINE
 8
PARTS
 10
 17.4000
 20
 11.6000
 30
0.0
 11
 17.5000
 21
 11.6000
 31
0.0
 0
LINE
 8
PARTS
 10
 18.0000
 20
 11.6000
 30
0.0
 11
 17.9000
 21
 11.6000
 31
0.0
 0
POLYLINE
 8
PARTS
 66
1
 10
0.0
 20
0.0
 30
0.0
 0
VERTEX
 8
PARTS
 10
 17.6700
 20
 11.5200
 30
0.0
 0
VERTEX
 8
PARTS
 10
 17.6700
 20
 11.6800
 30
0.0
 0
SEQEND
 8
PARTS
 0
POLYLINE
 8
PARTS
 66
1
 10
0.0
 20
0.0
 30
0.0
 0
VERTEX
 8
PARTS
 10
 17.7300
 20
 11.6000
 30
0.0
 0
VERTEX
 8
PARTS
 10
 17.9000
 20
 11.6000
 30
0.0
 0
SEQEND
 8
PARTS
 0
POLYLINE
 8
PARTS
 66
1
 10
0.0
 20
0.0
 30
0.0
 0
VERTEX
 8
PARTS
 10
 17.5000
 20
 11.6000
 30
0.0
 0
VERTEX
 8
PARTS
 10
 17.6700
 20
 11.6000
 30
0.0
 0
SEQEND
 8
PARTS
 0
POLYLINE
 8
PARTS
 66
1
 10
0.0
 20
0.0
 30
0.0
 0
VERTEX
 8
PARTS
 10
 17.7300
 20
 11.5200
 30
0.0
 0
VERTEX
 8
PARTS
 10
 17.7300
 20
 11.6800
 30
0.0
 0
SEQEND
 8
PARTS
 0
TEXT
 8
PARTTEXT
 10
 11.7600
 20
 12.5186
 30
0.0
 40
  0.0514
 1
C10
 0
TEXT
 8
PARTTEXT
 10
 11.7600
 20
 12.3986
 30
0.0
 40
  0.0514
 1
11nF
 0
LINE
 8
PARTS
 10
 11.6000
 20
 12.1000
 30
0.0
 11
 11.6000
 21
 12.2000
 31
0.0
 0
LINE
 8
PARTS
 10
 11.6000
 20
 12.7000
 30
0.0
 11
 11.6000
 21
 12.6000
 31
0.0
 0
POLYLINE
 8
PARTS
 66
1
 10
0.0
 20
0.0
 30
0.0
 0
VERTEX
 8
PARTS
 10
 11.6800
 20
 12.3700
 30
0.0
 0
VERTEX
 8
PARTS
 10
 11.5200
 20
 12.3700
 30
0.0
 0
SEQEND
 8
PARTS
 0
POLYLINE
 8
PARTS
 66
1
 10
0.0
 20
0.0
 30
0.0
 0
VERTEX
 8
PARTS
 10
 11.6000
 20
 12.4300
 30
0.0
 0
VERTEX
 8
PARTS
 10
 11.6000
 20
 12.6000
 30
0.0
 0
SEQEND
 8
PARTS
 0
POLYLINE
 8
PARTS
 66
1
 10
0.0
 20
0.0
 30
0.0
 0
VERTEX
 8
PARTS
 10
 11.6000
 20
 12.2000
 30
0.0
 0
VERTEX
 8
PARTS
 10
 11.6000
 20
 12.3700
 30
0.0
 0
SEQEND
 8
PARTS
 0
POLYLINE
 8
PARTS
 66
1
 10
0.0
 20
0.0
 30
0.0
 0
VERTEX
 8
PARTS
 10
 11.6800
 20
 12.4300
 30
0.0
 0
VERTEX
 8
PARTS
 10
 11.5200
 20
 12.4300
 30
0.0
 0
SEQEND
 8
PARTS
 0
TEXT
 8
PARTTEXT
 10
 17.6000
 20
 10.7186
 30
0.0
 40
  0.0514
 1
C19
 0
TEXT
 8
PARTTEXT
 10
 17.5500
 20
 10.4186
 30
0.0
 40
  0.0514
 1
100pF
 0
LINE
 8
PARTS
 10
 17.4000
 20
 10.6000
 30
0.0
 11
 17.5000
 21
 10.6000
 31
0.0
 0
LINE
 8
PARTS
 10
 18.0000
 20
 10.6000
 30
0.0
 11
 17.9000
 21
 10.6000
 31
0.0
 0
POLYLINE
 8
PARTS
 66
1
 10
0.0
 20
0.0
 30
0.0
 0
VERTEX
 8
PARTS
 10
 17.6700
 20
 10.5200
 30
0.0
 0
VERTEX
 8
PARTS
 10
 17.6700
 20
 10.6800
 30
0.0
 0
SEQEND
 8
PARTS
 0
POLYLINE
 8
PARTS
 66
1
 10
0.0
 20
0.0
 30
0.0
 0
VERTEX
 8
PARTS
 10
 17.7300
 20
 10.6000
 30
0.0
 0
VERTEX
 8
PARTS
 10
 17.9000
 20
 10.6000
 30
0.0
 0
SEQEND
 8
PARTS
 0
POLYLINE
 8
PARTS
 66
1
 10
0.0
 20
0.0
 30
0.0
 0
VERTEX
 8
PARTS
 10
 17.5000
 20
 10.6000
 30
0.0
 0
VERTEX
 8
PARTS
 10
 17.6700
 20
 10.6000
 30
0.0
 0
SEQEND
 8
PARTS
 0
POLYLINE
 8
PARTS
 66
1
 10
0.0
 20
0.0
 30
0.0
 0
VERTEX
 8
PARTS
 10
 17.7300
 20
 10.5200
 30
0.0
 0
VERTEX
 8
PARTS
 10
 17.7300
 20
 10.6800
 30
0.0
 0
SEQEND
 8
PARTS
 0
TEXT
 8
PARTTEXT
 10
  9.1000
 20
  9.2186
 30
0.0
 40
  0.0514
 1
R12
 0
TEXT
 8
PARTTEXT
 10
  9.1000
 20
  9.1186
 30
0.0
 40
  0.0514
 1
330
 0
LINE
 8
PARTS
 10
  9.0000
 20
  9.4000
 30
0.0
 11
  9.0000
 21
  9.3000
 31
0.0
 0
LINE
 8
PARTS
 10
  9.0000
 20
  8.8000
 30
0.0
 11
  9.0000
 21
  8.9000
 31
0.0
 0
POLYLINE
 8
PARTS
 66
1
 10
0.0
 20
0.0
 30
0.0
 0
VERTEX
 8
PARTS
 10
  9.0200
 20
  9.0400
 30
0.0
 0
VERTEX
 8
PARTS
 10
  8.9600
 20
  9.1000
 30
0.0
 0
SEQEND
 8
PARTS
 0
POLYLINE
 8
PARTS
 66
1
 10
0.0
 20
0.0
 30
0.0
 0
VERTEX
 8
PARTS
 10
  9.0200
 20
  9.0400
 30
0.0
 0
VERTEX
 8
PARTS
 10
  8.9600
 20
  8.9800
 30
0.0
 0
SEQEND
 8
PARTS
 0
POLYLINE
 8
PARTS
 66
1
 10
0.0
 20
0.0
 30
0.0
 0
VERTEX
 8
PARTS
 10
  8.9600
 20
  8.9800
 30
0.0
 0
VERTEX
 8
PARTS
 10
  9.0000
 20
  8.9400
 30
0.0
 0
SEQEND
 8
PARTS
 0
POLYLINE
 8
PARTS
 66
1
 10
0.0
 20
0.0
 30
0.0
 0
VERTEX
 8
PARTS
 10
  8.9600
 20
  9.1000
 30
0.0
 0
VERTEX
 8
PARTS
 10
  9.0200
 20
  9.1600
 30
0.0
 0
SEQEND
 8
PARTS
 0
POLYLINE
 8
PARTS
 66
1
 10
0.0
 20
0.0
 30
0.0
 0
VERTEX
 8
PARTS
 10
  9.0200
 20
  9.1600
 30
0.0
 0
VERTEX
 8
PARTS
 10
  8.9600
 20
  9.2200
 30
0.0
 0
SEQEND
 8
PARTS
 0
POLYLINE
 8
PARTS
 66
1
 10
0.0
 20
0.0
 30
0.0
 0
VERTEX
 8
PARTS
 10
  9.0000
 20
  9.2600
 30
0.0
 0
VERTEX
 8
PARTS
 10
  8.9600
 20
  9.2200
 30
0.0
 0
SEQEND
 8
PARTS
 0
POLYLINE
 8
PARTS
 66
1
 10
0.0
 20
0.0
 30
0.0
 0
VERTEX
 8
PARTS
 10
  9.0000
 20
  9.2600
 30
0.0
 0
VERTEX
 8
PARTS
 10
  9.0000
 20
  9.3000
 30
0.0
 0
SEQEND
 8
PARTS
 0
POLYLINE
 8
PARTS
 66
1
 10
0.0
 20
0.0
 30
0.0
 0
VERTEX
 8
PARTS
 10
  9.0000
 20
  8.9400
 30
0.0
 0
VERTEX
 8
PARTS
 10
  9.0000
 20
  8.9000
 30
0.0
 0
SEQEND
 8
PARTS
 0
TEXT
 8
PARTTEXT
 10
  2.2000
 20
  9.6186
 30
0.0
 40
  0.0514
 1
J4
 0
TEXT
 8
PARTTEXT
 10
  2.2000
 20
  8.4186
 30
0.0
 40
  0.0514
 1
HEADER 6
 0
LINE
 8
PARTS
 10
  2.7000
 20
  9.3000
 30
0.0
 11
  2.4000
 21
  9.3000
 31
0.0
 0
TEXT
 8
PARTS
 10
  2.4600
 20
  9.3300
 30
0.0
 40
  0.0500
 1
1
 0
LINE
 8
PARTS
 10
  2.7000
 20
  9.2000
 30
0.0
 11
  2.4000
 21
  9.2000
 31
0.0
 0
TEXT
 8
PARTS
 10
  2.4600
 20
  9.2300
 30
0.0
 40
  0.0500
 1
2
 0
LINE
 8
PARTS
 10
  2.7000
 20
  9.1000
 30
0.0
 11
  2.4000
 21
  9.1000
 31
0.0
 0
TEXT
 8
PARTS
 10
  2.4600
 20
  9.1300
 30
0.0
 40
  0.0500
 1
3
 0
LINE
 8
PARTS
 10
  2.7000
 20
  9.0000
 30
0.0
 11
  2.4000
 21
  9.0000
 31
0.0
 0
TEXT
 8
PARTS
 10
  2.4600
 20
  9.0300
 30
0.0
 40
  0.0500
 1
4
 0
LINE
 8
PARTS
 10
  2.7000
 20
  8.9000
 30
0.0
 11
  2.4000
 21
  8.9000
 31
0.0
 0
TEXT
 8
PARTS
 10
  2.4600
 20
  8.9300
 30
0.0
 40
  0.0500
 1
5
 0
LINE
 8
PARTS
 10
  2.7000
 20
  8.8000
 30
0.0
 11
  2.4000
 21
  8.8000
 31
0.0
 0
TEXT
 8
PARTS
 10
  2.4600
 20
  8.8300
 30
0.0
 40
  0.0500
 1
6
 0
POLYLINE
 8
PARTS
 66
1
 70
1
 10
0.0
 20
0.0
 30
0.0
 0
VERTEX
 8
PARTS
 10
  2.2000
 20
  9.4000
 30
0.0
 0
VERTEX
 8
PARTS
 10
  2.4000
 20
  9.4000
 30
0.0
 0
VERTEX
 8
PARTS
 10
  2.4000
 20
  8.7000
 30
0.0
 0
VERTEX
 8
PARTS
 10
  2.2000
 20
  8.7000
 30
0.0
 0
SEQEND
 8
PARTS
 0
POLYLINE
 8
PARTS
 66
1
 10
0.0
 20
0.0
 30
0.0
 0
VERTEX
 8
PARTS
 10
  2.3500
 20
  9.4000
 30
0.0
 0
VERTEX
 8
PARTS
 10
  2.3500
 20
  9.4000
 30
0.0
 0
VERTEX
 8
PARTS
 10
  2.3500
 20
  9.4400
 30
0.0
 0
VERTEX
 8
PARTS
 10
  2.2500
 20
  9.4400
 30
0.0
 0
VERTEX
 8
PARTS
 10
  2.2500
 20
  9.4000
 30
0.0
 0
SEQEND
 8
PARTS
 0
POLYLINE
 8
PARTS
 66
1
 10
0.0
 20
0.0
 30
0.0
 0
VERTEX
 8
PARTS
 10
  2.2500
 20
  8.7000
 30
0.0
 0
VERTEX
 8
PARTS
 10
  2.2500
 20
  8.6900
 30
0.0
 0
VERTEX
 8
PARTS
 10
  2.2500
 20
  8.6500
 30
0.0
 0
VERTEX
 8
PARTS
 10
  2.3500
 20
  8.6500
 30
0.0
 0
VERTEX
 8
PARTS
 10
  2.3500
 20
  8.7000
 30
0.0
 0
SEQEND
 8
PARTS
 0
TEXT
 8
PARTTEXT
 10
  7.7000
 20
 12.5586
 30
0.0
 40
  0.0514
 1
TP2
 0
TEXT
 8
PARTTEXT
 10
  7.7000
 20
 12.4386
 30
0.0
 40
  0.0514
 1
TEST POINT
 0
LINE
 8
PARTS
 10
  7.8000
 20
 12.0000
 30
0.0
 11
  7.8000
 21
 12.3000
 31
0.0
 0
TEXT
 8
PARTS
 10
  7.7700
 20
 12.1800
 30
0.0
 40
  0.0500
 50
 90.0000
 1
1
 0
POLYLINE
 8
PARTS
 66
1
 70
1
 10
0.0
 20
0.0
 30
0.0
 0
VERTEX
 8
PARTS
 10
  7.7000
 20
 12.3000
 30
0.0
 0
VERTEX
 8
PARTS
 10
  7.7000
 20
 12.4000
 30
0.0
 0
VERTEX
 8
PARTS
 10
  7.9000
 20
 12.4000
 30
0.0
 0
VERTEX
 8
PARTS
 10
  7.9000
 20
 12.3000
 30
0.0
 0
SEQEND
 8
PARTS
 0
TEXT
 8
PARTTEXT
 10
  8.4000
 20
  1.2186
 30
0.0
 40
  0.0514
 1
R18
 0
TEXT
 8
PARTTEXT
 10
  9.0000
 20
  1.2186
 30
0.0
 40
  0.0514
 1
330
 0
LINE
 8
PARTS
 10
  9.1000
 20
  1.2000
 30
0.0
 11
  9.0000
 21
  1.2000
 31
0.0
 0
LINE
 8
PARTS
 10
  8.5000
 20
  1.2000
 30
0.0
 11
  8.6000
 21
  1.2000
 31
0.0
 0
POLYLINE
 8
PARTS
 66
1
 10
0.0
 20
0.0
 30
0.0
 0
VERTEX
 8
PARTS
 10
  8.7400
 20
  1.1800
 30
0.0
 0
VERTEX
 8
PARTS
 10
  8.8000
 20
  1.2400
 30
0.0
 0
SEQEND
 8
PARTS
 0
POLYLINE
 8
PARTS
 66
1
 10
0.0
 20
0.0
 30
0.0
 0
VERTEX
 8
PARTS
 10
  8.7400
 20
  1.1800
 30
0.0
 0
VERTEX
 8
PARTS
 10
  8.6800
 20
  1.2400
 30
0.0
 0
SEQEND
 8
PARTS
 0
POLYLINE
 8
PARTS
 66
1
 10
0.0
 20
0.0
 30
0.0
 0
VERTEX
 8
PARTS
 10
  8.6800
 20
  1.2400
 30
0.0
 0
VERTEX
 8
PARTS
 10
  8.6400
 20
  1.2000
 30
0.0
 0
SEQEND
 8
PARTS
 0
POLYLINE
 8
PARTS
 66
1
 10
0.0
 20
0.0
 30
0.0
 0
VERTEX
 8
PARTS
 10
  8.8000
 20
  1.2400
 30
0.0
 0
VERTEX
 8
PARTS
 10
  8.8600
 20
  1.1800
 30
0.0
 0
SEQEND
 8
PARTS
 0
POLYLINE
 8
PARTS
 66
1
 10
0.0
 20
0.0
 30
0.0
 0
VERTEX
 8
PARTS
 10
  8.8600
 20
  1.1800
 30
0.0
 0
VERTEX
 8
PARTS
 10
  8.9200
 20
  1.2400
 30
0.0
 0
SEQEND
 8
PARTS
 0
POLYLINE
 8
PARTS
 66
1
 10
0.0
 20
0.0
 30
0.0
 0
VERTEX
 8
PARTS
 10
  8.9600
 20
  1.2000
 30
0.0
 0
VERTEX
 8
PARTS
 10
  8.9200
 20
  1.2400
 30
0.0
 0
SEQEND
 8
PARTS
 0
POLYLINE
 8
PARTS
 66
1
 10
0.0
 20
0.0
 30
0.0
 0
VERTEX
 8
PARTS
 10
  8.9600
 20
  1.2000
 30
0.0
 0
VERTEX
 8
PARTS
 10
  9.0000
 20
  1.2000
 30
0.0
 0
SEQEND
 8
PARTS
 0
POLYLINE
 8
PARTS
 66
1
 10
0.0
 20
0.0
 30
0.0
 0
VERTEX
 8
PARTS
 10
  8.6400
 20
  1.2000
 30
0.0
 0
VERTEX
 8
PARTS
 10
  8.6000
 20
  1.2000
 30
0.0
 0
SEQEND
 8
PARTS
 0
TEXT
 8
PARTTEXT
 10
  5.3500
 20
 12.8886
 30
0.0
 40
  0.0514
 1
C7
 0
TEXT
 8
PARTTEXT
 10
  5.2500
 20
 12.6186
 30
0.0
 40
  0.0514
 1
1nF
 0
LINE
 8
PARTS
 10
  5.1000
 20
 12.8000
 30
0.0
 11
  5.2000
 21
 12.8000
 31
0.0
 0
LINE
 8
PARTS
 10
  5.7000
 20
 12.8000
 30
0.0
 11
  5.6000
 21
 12.8000
 31
0.0
 0
POLYLINE
 8
PARTS
 66
1
 10
0.0
 20
0.0
 30
0.0
 0
VERTEX
 8
PARTS
 10
  5.3700
 20
 12.7200
 30
0.0
 0
VERTEX
 8
PARTS
 10
  5.3700
 20
 12.8800
 30
0.0
 0
SEQEND
 8
PARTS
 0
POLYLINE
 8
PARTS
 66
1
 10
0.0
 20
0.0
 30
0.0
 0
VERTEX
 8
PARTS
 10
  5.4300
 20
 12.8000
 30
0.0
 0
VERTEX
 8
PARTS
 10
  5.6000
 20
 12.8000
 30
0.0
 0
SEQEND
 8
PARTS
 0
POLYLINE
 8
PARTS
 66
1
 10
0.0
 20
0.0
 30
0.0
 0
VERTEX
 8
PARTS
 10
  5.2000
 20
 12.8000
 30
0.0
 0
VERTEX
 8
PARTS
 10
  5.3700
 20
 12.8000
 30
0.0
 0
SEQEND
 8
PARTS
 0
POLYLINE
 8
PARTS
 66
1
 10
0.0
 20
0.0
 30
0.0
 0
VERTEX
 8
PARTS
 10
  5.4300
 20
 12.7200
 30
0.0
 0
VERTEX
 8
PARTS
 10
  5.4300
 20
 12.8800
 30
0.0
 0
SEQEND
 8
PARTS
 0
TEXT
 8
PARTTEXT
 10
 10.7000
 20
 12.2186
 30
0.0
 40
  0.0514
 1
R6
 0
TEXT
 8
PARTTEXT
 10
 10.7000
 20
 11.9186
 30
0.0
 40
  0.0514
 1
4.7K
 0
LINE
 8
PARTS
 10
 11.2000
 20
 12.1000
 30
0.0
 11
 11.1000
 21
 12.1000
 31
0.0
 0
LINE
 8
PARTS
 10
 10.6000
 20
 12.1000
 30
0.0
 11
 10.7000
 21
 12.1000
 31
0.0
 0
POLYLINE
 8
PARTS
 66
1
 10
0.0
 20
0.0
 30
0.0
 0
VERTEX
 8
PARTS
 10
 10.8400
 20
 12.0800
 30
0.0
 0
VERTEX
 8
PARTS
 10
 10.9000
 20
 12.1400
 30
0.0
 0
SEQEND
 8
PARTS
 0
POLYLINE
 8
PARTS
 66
1
 10
0.0
 20
0.0
 30
0.0
 0
VERTEX
 8
PARTS
 10
 10.8400
 20
 12.0800
 30
0.0
 0
VERTEX
 8
PARTS
 10
 10.7800
 20
 12.1400
 30
0.0
 0
SEQEND
 8
PARTS
 0
POLYLINE
 8
PARTS
 66
1
 10
0.0
 20
0.0
 30
0.0
 0
VERTEX
 8
PARTS
 10
 10.7800
 20
 12.1400
 30
0.0
 0
VERTEX
 8
PARTS
 10
 10.7400
 20
 12.1000
 30
0.0
 0
SEQEND
 8
PARTS
 0
POLYLINE
 8
PARTS
 66
1
 10
0.0
 20
0.0
 30
0.0
 0
VERTEX
 8
PARTS
 10
 10.9000
 20
 12.1400
 30
0.0
 0
VERTEX
 8
PARTS
 10
 10.9600
 20
 12.0800
 30
0.0
 0
SEQEND
 8
PARTS
 0
POLYLINE
 8
PARTS
 66
1
 10
0.0
 20
0.0
 30
0.0
 0
VERTEX
 8
PARTS
 10
 10.9600
 20
 12.0800
 30
0.0
 0
VERTEX
 8
PARTS
 10
 11.0200
 20
 12.1400
 30
0.0
 0
SEQEND
 8
PARTS
 0
POLYLINE
 8
PARTS
 66
1
 10
0.0
 20
0.0
 30
0.0
 0
VERTEX
 8
PARTS
 10
 11.0600
 20
 12.1000
 30
0.0
 0
VERTEX
 8
PARTS
 10
 11.0200
 20
 12.1400
 30
0.0
 0
SEQEND
 8
PARTS
 0
POLYLINE
 8
PARTS
 66
1
 10
0.0
 20
0.0
 30
0.0
 0
VERTEX
 8
PARTS
 10
 11.0600
 20
 12.1000
 30
0.0
 0
VERTEX
 8
PARTS
 10
 11.1000
 20
 12.1000
 30
0.0
 0
SEQEND
 8
PARTS
 0
POLYLINE
 8
PARTS
 66
1
 10
0.0
 20
0.0
 30
0.0
 0
VERTEX
 8
PARTS
 10
 10.7400
 20
 12.1000
 30
0.0
 0
VERTEX
 8
PARTS
 10
 10.7000
 20
 12.1000
 30
0.0
 0
SEQEND
 8
PARTS
 0
POLYLINE
 8
WIRE
 66
1
 10
0.0
 20
0.0
 30
0.0
 0
VERTEX
 8
WIRE
 10
  7.3000
 20
  0.3000
 30
0.0
 0
VERTEX
 8
WIRE
 10
  7.3000
 20
  1.2000
 30
0.0
 0
SEQEND
 8
WIRE
 0
POLYLINE
 8
WIRE
 66
1
 10
0.0
 20
0.0
 30
0.0
 0
VERTEX
 8
WIRE
 10
  8.5000
 20
  1.6000
 30
0.0
 0
VERTEX
 8
WIRE
 10
  8.1000
 20
  1.6000
 30
0.0
 0
SEQEND
 8
WIRE
 0
POLYLINE
 8
WIRE
 66
1
 10
0.0
 20
0.0
 30
0.0
 0
VERTEX
 8
WIRE
 10
 11.6000
 20
 12.8000
 30
0.0
 0
VERTEX
 8
WIRE
 10
 10.4000
 20
 12.8000
 30
0.0
 0
SEQEND
 8
WIRE
 0
POLYLINE
 8
WIRE
 66
1
 10
0.0
 20
0.0
 30
0.0
 0
VERTEX
 8
WIRE
 10
  9.5000
 20
  1.4000
 30
0.0
 0
VERTEX
 8
WIRE
 10
  8.1000
 20
  1.4000
 30
0.0
 0
SEQEND
 8
WIRE
 0
POLYLINE
 8
WIRE
 66
1
 10
0.0
 20
0.0
 30
0.0
 0
VERTEX
 8
WIRE
 10
  8.5000
 20
  1.2000
 30
0.0
 0
VERTEX
 8
WIRE
 10
  8.1000
 20
  1.2000
 30
0.0
 0
SEQEND
 8
WIRE
 0
POLYLINE
 8
WIRE
 66
1
 10
0.0
 20
0.0
 30
0.0
 0
VERTEX
 8
WIRE
 10
  9.5000
 20
  1.4000
 30
0.0
 0
VERTEX
 8
WIRE
 10
  9.5000
 20
  1.6000
 30
0.0
 0
SEQEND
 8
WIRE
 0
POLYLINE
 8
WIRE
 66
1
 10
0.0
 20
0.0
 30
0.0
 0
VERTEX
 8
WIRE
 10
  9.9000
 20
  1.4000
 30
0.0
 0
VERTEX
 8
WIRE
 10
  9.5000
 20
  1.4000
 30
0.0
 0
SEQEND
 8
WIRE
 0
POLYLINE
 8
WIRE
 66
1
 10
0.0
 20
0.0
 30
0.0
 0
VERTEX
 8
WIRE
 10
  9.5000
 20
  1.2000
 30
0.0
 0
VERTEX
 8
WIRE
 10
  9.5000
 20
  1.4000
 30
0.0
 0
SEQEND
 8
WIRE
 0
POLYLINE
 8
WIRE
 66
1
 70
1
 10
0.0
 20
0.0
 30
0.0
 40
  0.0200
 41
  0.0200
 0
VERTEX
 8
WIRE
 10
  9.4900
 20
  1.4000
 30
0.0
 42
1.0
 0
VERTEX
 8
WIRE
 10
  9.5100
 20
  1.4000
 30
0.0
 42
1.0
 0
SEQEND
 8
WIRE
 0
POLYLINE
 8
WIRE
 66
1
 10
0.0
 20
0.0
 30
0.0
 0
VERTEX
 8
WIRE
 10
  9.5000
 20
  1.6000
 30
0.0
 0
VERTEX
 8
WIRE
 10
  9.1000
 20
  1.6000
 30
0.0
 0
SEQEND
 8
WIRE
 0
POLYLINE
 8
WIRE
 66
1
 10
0.0
 20
0.0
 30
0.0
 0
VERTEX
 8
WIRE
 10
  9.5000
 20
  1.2000
 30
0.0
 0
VERTEX
 8
WIRE
 10
  9.1000
 20
  1.2000
 30
0.0
 0
SEQEND
 8
WIRE
 0
POLYLINE
 8
WIRE
 66
1
 10
0.0
 20
0.0
 30
0.0
 0
VERTEX
 8
WIRE
 10
 11.1000
 20
  1.4000
 30
0.0
 0
VERTEX
 8
WIRE
 10
 10.9000
 20
  1.4000
 30
0.0
 0
SEQEND
 8
WIRE
 0
POLYLINE
 8
WIRE
 66
1
 10
0.0
 20
0.0
 30
0.0
 0
VERTEX
 8
WIRE
 10
 13.0000
 20
  1.4000
 30
0.0
 0
VERTEX
 8
WIRE
 10
 11.1000
 20
  1.4000
 30
0.0
 0
SEQEND
 8
WIRE
 0
POLYLINE
 8
WIRE
 66
1
 70
1
 10
0.0
 20
0.0
 30
0.0
 40
  0.0200
 41
  0.0200
 0
VERTEX
 8
WIRE
 10
 11.0900
 20
  1.4000
 30
0.0
 42
1.0
 0
VERTEX
 8
WIRE
 10
 11.1100
 20
  1.4000
 30
0.0
 42
1.0
 0
SEQEND
 8
WIRE
 0
TEXT
 8
WIRETEXT
 10
 12.0000
 20
  1.4300
 30
0.0
 40
  0.0514
 1
+5V
 0
POLYLINE
 8
WIRE
 66
1
 10
0.0
 20
0.0
 30
0.0
 0
VERTEX
 8
WIRE
 10
 10.4000
 20
 12.3000
 30
0.0
 0
VERTEX
 8
WIRE
 10
 10.4000
 20
 12.8000
 30
0.0
 0
SEQEND
 8
WIRE
 0
POLYLINE
 8
WIRE
 66
1
 10
0.0
 20
0.0
 30
0.0
 0
VERTEX
 8
WIRE
 10
 12.8000
 20
  3.9000
 30
0.0
 0
VERTEX
 8
WIRE
 10
 11.0000
 20
  3.9000
 30
0.0
 0
SEQEND
 8
WIRE
 0
POLYLINE
 8
WIRE
 66
1
 70
1
 10
0.0
 20
0.0
 30
0.0
 40
  0.0200
 41
  0.0200
 0
VERTEX
 8
WIRE
 10
 10.9900
 20
  3.9000
 30
0.0
 42
1.0
 0
VERTEX
 8
WIRE
 10
 11.0100
 20
  3.9000
 30
0.0
 42
1.0
 0
SEQEND
 8
WIRE
 0
TEXT
 8
WIRETEXT
 10
 11.7000
 20
  3.9300
 30
0.0
 40
  0.0514
 1
+3V
 0
POLYLINE
 8
WIRE
 66
1
 10
0.0
 20
0.0
 30
0.0
 0
VERTEX
 8
WIRE
 10
 12.0000
 20
 11.6000
 30
0.0
 0
VERTEX
 8
WIRE
 10
 12.0000
 20
 11.8000
 30
0.0
 0
SEQEND
 8
WIRE
 0
POLYLINE
 8
WIRE
 66
1
 10
0.0
 20
0.0
 30
0.0
 0
VERTEX
 8
WIRE
 10
 12.1000
 20
 11.1000
 30
0.0
 0
VERTEX
 8
WIRE
 10
 12.0000
 20
 11.1000
 30
0.0
 0
SEQEND
 8
WIRE
 0
POLYLINE
 8
WIRE
 66
1
 70
1
 10
0.0
 20
0.0
 30
0.0
 40
  0.0200
 41
  0.0200
 0
VERTEX
 8
WIRE
 10
 11.9900
 20
 11.1000
 30
0.0
 42
1.0
 0
VERTEX
 8
WIRE
 10
 12.0100
 20
 11.1000
 30
0.0
 42
1.0
 0
SEQEND
 8
WIRE
 0
POLYLINE
 8
WIRE
 66
1
 10
0.0
 20
0.0
 30
0.0
 0
VERTEX
 8
WIRE
 10
 12.2000
 20
 11.6000
 30
0.0
 0
VERTEX
 8
WIRE
 10
 12.0000
 20
 11.6000
 30
0.0
 0
SEQEND
 8
WIRE
 0
POLYLINE
 8
WIRE
 66
1
 70
1
 10
0.0
 20
0.0
 30
0.0
 40
  0.0200
 41
  0.0200
 0
VERTEX
 8
WIRE
 10
 11.9900
 20
 11.6000
 30
0.0
 42
1.0
 0
VERTEX
 8
WIRE
 10
 12.0100
 20
 11.6000
 30
0.0
 42
1.0
 0
SEQEND
 8
WIRE
 0
POLYLINE
 8
WIRE
 66
1
 10
0.0
 20
0.0
 30
0.0
 0
VERTEX
 8
WIRE
 10
 12.0000
 20
 11.1000
 30
0.0
 0
VERTEX
 8
WIRE
 10
 12.0000
 20
 11.6000
 30
0.0
 0
SEQEND
 8
WIRE
 0
POLYLINE
 8
WIRE
 66
1
 10
0.0
 20
0.0
 30
0.0
 0
VERTEX
 8
WIRE
 10
 12.8000
 20
 11.1000
 30
0.0
 0
VERTEX
 8
WIRE
 10
 12.7000
 20
 11.1000
 30
0.0
 0
SEQEND
 8
WIRE
 0
POLYLINE
 8
WIRE
 66
1
 10
0.0
 20
0.0
 30
0.0
 0
VERTEX
 8
WIRE
 10
 12.8000
 20
 11.1000
 30
0.0
 0
VERTEX
 8
WIRE
 10
 12.8000
 20
 11.6000
 30
0.0
 0
SEQEND
 8
WIRE
 0
POLYLINE
 8
WIRE
 66
1
 70
1
 10
0.0
 20
0.0
 30
0.0
 40
  0.0200
 41
  0.0200
 0
VERTEX
 8
WIRE
 10
 12.7900
 20
 11.1000
 30
0.0
 42
1.0
 0
VERTEX
 8
WIRE
 10
 12.8100
 20
 11.1000
 30
0.0
 42
1.0
 0
SEQEND
 8
WIRE
 0
POLYLINE
 8
WIRE
 66
1
 10
0.0
 20
0.0
 30
0.0
 0
VERTEX
 8
WIRE
 10
 12.8000
 20
 10.8000
 30
0.0
 0
VERTEX
 8
WIRE
 10
 12.8000
 20
 11.1000
 30
0.0
 0
SEQEND
 8
WIRE
 0
POLYLINE
 8
WIRE
 66
1
 10
0.0
 20
0.0
 30
0.0
 0
VERTEX
 8
WIRE
 10
 15.1000
 20
 12.8000
 30
0.0
 0
VERTEX
 8
WIRE
 10
 14.4000
 20
 12.8000
 30
0.0
 0
SEQEND
 8
WIRE
 0
POLYLINE
 8
WIRE
 66
1
 10
0.0
 20
0.0
 30
0.0
 0
VERTEX
 8
WIRE
 10
 16.4000
 20
 12.8000
 30
0.0
 0
VERTEX
 8
WIRE
 10
 15.1000
 20
 12.8000
 30
0.0
 0
SEQEND
 8
WIRE
 0
POLYLINE
 8
WIRE
 66
1
 70
1
 10
0.0
 20
0.0
 30
0.0
 40
  0.0200
 41
  0.0200
 0
VERTEX
 8
WIRE
 10
 15.0900
 20
 12.8000
 30
0.0
 42
1.0
 0
VERTEX
 8
WIRE
 10
 15.1100
 20
 12.8000
 30
0.0
 42
1.0
 0
SEQEND
 8
WIRE
 0
POLYLINE
 8
WIRE
 66
1
 10
0.0
 20
0.0
 30
0.0
 0
VERTEX
 8
WIRE
 10
 19.2000
 20
 10.6000
 30
0.0
 0
VERTEX
 8
WIRE
 10
 18.0000
 20
 10.6000
 30
0.0
 0
SEQEND
 8
WIRE
 0
POLYLINE
 8
WIRE
 66
1
 10
0.0
 20
0.0
 30
0.0
 0
VERTEX
 8
WIRE
 10
 17.4000
 20
 11.8000
 30
0.0
 0
VERTEX
 8
WIRE
 10
 17.2000
 20
 11.8000
 30
0.0
 0
SEQEND
 8
WIRE
 0
POLYLINE
 8
WIRE
 66
1
 10
0.0
 20
0.0
 30
0.0
 0
VERTEX
 8
WIRE
 10
 17.4000
 20
 13.0000
 30
0.0
 0
VERTEX
 8
WIRE
 10
 17.4000
 20
 13.6000
 30
0.0
 0
SEQEND
 8
WIRE
 0
POLYLINE
 8
WIRE
 66
1
 70
1
 10
0.0
 20
0.0
 30
0.0
 40
  0.0200
 41
  0.0200
 0
VERTEX
 8
WIRE
 10
 17.3900
 20
 13.6000
 30
0.0
 42
1.0
 0
VERTEX
 8
WIRE
 10
 17.4100
 20
 13.6000
 30
0.0
 42
1.0
 0
SEQEND
 8
WIRE
 0
POLYLINE
 8
WIRE
 66
1
 10
0.0
 20
0.0
 30
0.0
 0
VERTEX
 8
WIRE
 10
 17.4000
 20
 11.8000
 30
0.0
 0
VERTEX
 8
WIRE
 10
 17.4000
 20
 12.5000
 30
0.0
 0
SEQEND
 8
WIRE
 0
POLYLINE
 8
WIRE
 66
1
 10
0.0
 20
0.0
 30
0.0
 0
VERTEX
 8
WIRE
 10
 17.4000
 20
 13.6000
 30
0.0
 0
VERTEX
 8
WIRE
 10
 17.4000
 20
 13.9000
 30
0.0
 0
SEQEND
 8
WIRE
 0
POLYLINE
 8
WIRE
 66
1
 10
0.0
 20
0.0
 30
0.0
 0
VERTEX
 8
WIRE
 10
 18.0000
 20
 13.0000
 30
0.0
 0
VERTEX
 8
WIRE
 10
 18.0000
 20
 13.6000
 30
0.0
 0
SEQEND
 8
WIRE
 0
POLYLINE
 8
WIRE
 66
1
 10
0.0
 20
0.0
 30
0.0
 0
VERTEX
 8
WIRE
 10
 18.0000
 20
 12.3000
 30
0.0
 0
VERTEX
 8
WIRE
 10
 18.0000
 20
 12.5000
 30
0.0
 0
SEQEND
 8
WIRE
 0
POLYLINE
 8
WIRE
 66
1
 10
0.0
 20
0.0
 30
0.0
 0
VERTEX
 8
WIRE
 10
 16.4000
 20
 12.5000
 30
0.0
 0
VERTEX
 8
WIRE
 10
 16.4000
 20
 12.8000
 30
0.0
 0
SEQEND
 8
WIRE
 0
POLYLINE
 8
WIRE
 66
1
 10
0.0
 20
0.0
 30
0.0
 0
VERTEX
 8
WIRE
 10
 15.7000
 20
 11.7000
 30
0.0
 0
VERTEX
 8
WIRE
 10
 15.5000
 20
 11.7000
 30
0.0
 0
SEQEND
 8
WIRE
 0
POLYLINE
 8
WIRE
 66
1
 10
0.0
 20
0.0
 30
0.0
 0
VERTEX
 8
WIRE
 10
 15.5000
 20
 11.6000
 30
0.0
 0
VERTEX
 8
WIRE
 10
 15.5000
 20
 11.7000
 30
0.0
 0
SEQEND
 8
WIRE
 0
POLYLINE
 8
WIRE
 66
1
 10
0.0
 20
0.0
 30
0.0
 0
VERTEX
 8
WIRE
 10
 14.2000
 20
 14.3000
 30
0.0
 0
VERTEX
 8
WIRE
 10
  8.9000
 20
 14.3000
 30
0.0
 0
SEQEND
 8
WIRE
 0
POLYLINE
 8
WIRE
 66
1
 10
0.0
 20
0.0
 30
0.0
 0
VERTEX
 8
WIRE
 10
 19.2000
 20
 10.6000
 30
0.0
 0
VERTEX
 8
WIRE
 10
 19.2000
 20
 12.5000
 30
0.0
 0
SEQEND
 8
WIRE
 0
POLYLINE
 8
WIRE
 66
1
 10
0.0
 20
0.0
 30
0.0
 0
VERTEX
 8
WIRE
 10
 19.2000
 20
 14.3000
 30
0.0
 0
VERTEX
 8
WIRE
 10
 14.8000
 20
 14.3000
 30
0.0
 0
SEQEND
 8
WIRE
 0
POLYLINE
 8
WIRE
 66
1
 10
0.0
 20
0.0
 30
0.0
 0
VERTEX
 8
WIRE
 10
 13.8000
 20
 12.8000
 30
0.0
 0
VERTEX
 8
WIRE
 10
 13.3000
 20
 12.8000
 30
0.0
 0
SEQEND
 8
WIRE
 0
POLYLINE
 8
WIRE
 66
1
 10
0.0
 20
0.0
 30
0.0
 0
VERTEX
 8
WIRE
 10
 19.8000
 20
 12.9000
 30
0.0
 0
VERTEX
 8
WIRE
 10
 19.5000
 20
 12.9000
 30
0.0
 0
SEQEND
 8
WIRE
 0
POLYLINE
 8
WIRE
 66
1
 10
0.0
 20
0.0
 30
0.0
 0
VERTEX
 8
WIRE
 10
  9.1000
 20
 12.6000
 30
0.0
 0
VERTEX
 8
WIRE
 10
  9.1000
 20
 13.0000
 30
0.0
 0
SEQEND
 8
WIRE
 0
POLYLINE
 8
WIRE
 66
1
 10
0.0
 20
0.0
 30
0.0
 0
VERTEX
 8
WIRE
 10
  9.3000
 20
 13.0000
 30
0.0
 0
VERTEX
 8
WIRE
 10
  9.1000
 20
 13.0000
 30
0.0
 0
SEQEND
 8
WIRE
 0
POLYLINE
 8
WIRE
 66
1
 10
0.0
 20
0.0
 30
0.0
 0
VERTEX
 8
WIRE
 10
  9.3000
 20
 13.0000
 30
0.0
 0
VERTEX
 8
WIRE
 10
  9.3000
 20
 13.1000
 30
0.0
 0
SEQEND
 8
WIRE
 0
POLYLINE
 8
WIRE
 66
1
 10
0.0
 20
0.0
 30
0.0
 0
VERTEX
 8
WIRE
 10
  9.5000
 20
 13.7000
 30
0.0
 0
VERTEX
 8
WIRE
 10
  9.3000
 20
 13.7000
 30
0.0
 0
SEQEND
 8
WIRE
 0
POLYLINE
 8
WIRE
 66
1
 10
0.0
 20
0.0
 30
0.0
 0
VERTEX
 8
WIRE
 10
  9.3000
 20
 12.6000
 30
0.0
 0
VERTEX
 8
WIRE
 10
  9.3000
 20
 12.8000
 30
0.0
 0
SEQEND
 8
WIRE
 0
POLYLINE
 8
WIRE
 66
1
 10
0.0
 20
0.0
 30
0.0
 0
VERTEX
 8
WIRE
 10
  9.5000
 20
 12.8000
 30
0.0
 0
VERTEX
 8
WIRE
 10
  9.3000
 20
 12.8000
 30
0.0
 0
SEQEND
 8
WIRE
 0
POLYLINE
 8
WIRE
 66
1
 10
0.0
 20
0.0
 30
0.0
 0
VERTEX
 8
WIRE
 10
  9.5000
 20
 12.6000
 30
0.0
 0
VERTEX
 8
WIRE
 10
  9.5000
 20
 12.8000
 30
0.0
 0
SEQEND
 8
WIRE
 0
POLYLINE
 8
WIRE
 66
1
 70
1
 10
0.0
 20
0.0
 30
0.0
 40
  0.0200
 41
  0.0200
 0
VERTEX
 8
WIRE
 10
  9.4900
 20
 12.8000
 30
0.0
 42
1.0
 0
VERTEX
 8
WIRE
 10
  9.5100
 20
 12.8000
 30
0.0
 42
1.0
 0
SEQEND
 8
WIRE
 0
POLYLINE
 8
WIRE
 66
1
 10
0.0
 20
0.0
 30
0.0
 0
VERTEX
 8
WIRE
 10
  9.7000
 20
 12.8000
 30
0.0
 0
VERTEX
 8
WIRE
 10
  9.5000
 20
 12.8000
 30
0.0
 0
SEQEND
 8
WIRE
 0
POLYLINE
 8
WIRE
 66
1
 10
0.0
 20
0.0
 30
0.0
 0
VERTEX
 8
WIRE
 10
  9.7000
 20
 12.6000
 30
0.0
 0
VERTEX
 8
WIRE
 10
  9.7000
 20
 12.8000
 30
0.0
 0
SEQEND
 8
WIRE
 0
POLYLINE
 8
WIRE
 66
1
 70
1
 10
0.0
 20
0.0
 30
0.0
 40
  0.0200
 41
  0.0200
 0
VERTEX
 8
WIRE
 10
  9.6900
 20
 12.8000
 30
0.0
 42
1.0
 0
VERTEX
 8
WIRE
 10
  9.7100
 20
 12.8000
 30
0.0
 42
1.0
 0
SEQEND
 8
WIRE
 0
POLYLINE
 8
WIRE
 66
1
 10
0.0
 20
0.0
 30
0.0
 0
VERTEX
 8
WIRE
 10
  9.8000
 20
 12.8000
 30
0.0
 0
VERTEX
 8
WIRE
 10
  9.7000
 20
 12.8000
 30
0.0
 0
SEQEND
 8
WIRE
 0
POLYLINE
 8
WIRE
 66
1
 10
0.0
 20
0.0
 30
0.0
 0
VERTEX
 8
WIRE
 10
 10.4000
 20
 12.3000
 30
0.0
 0
VERTEX
 8
WIRE
 10
 10.0000
 20
 12.3000
 30
0.0
 0
SEQEND
 8
WIRE
 0
POLYLINE
 8
WIRE
 66
1
 10
0.0
 20
0.0
 30
0.0
 0
VERTEX
 8
WIRE
 10
  8.4000
 20
 11.8000
 30
0.0
 0
VERTEX
 8
WIRE
 10
  8.1000
 20
 11.8000
 30
0.0
 0
SEQEND
 8
WIRE
 0
POLYLINE
 8
WIRE
 66
1
 10
0.0
 20
0.0
 30
0.0
 0
VERTEX
 8
WIRE
 10
  8.4000
 20
 11.6000
 30
0.0
 0
VERTEX
 8
WIRE
 10
  8.1000
 20
 11.6000
 30
0.0
 0
SEQEND
 8
WIRE
 0
POLYLINE
 8
WIRE
 66
1
 10
0.0
 20
0.0
 30
0.0
 0
VERTEX
 8
WIRE
 10
  8.1000
 20
 11.6000
 30
0.0
 0
VERTEX
 8
WIRE
 10
  8.1000
 20
 11.8000
 30
0.0
 0
SEQEND
 8
WIRE
 0
POLYLINE
 8
WIRE
 66
1
 70
1
 10
0.0
 20
0.0
 30
0.0
 40
  0.0200
 41
  0.0200
 0
VERTEX
 8
WIRE
 10
  8.0900
 20
 11.6000
 30
0.0
 42
1.0
 0
VERTEX
 8
WIRE
 10
  8.1100
 20
 11.6000
 30
0.0
 42
1.0
 0
SEQEND
 8
WIRE
 0
POLYLINE
 8
WIRE
 66
1
 10
0.0
 20
0.0
 30
0.0
 0
VERTEX
 8
WIRE
 10
  8.1000
 20
 11.5000
 30
0.0
 0
VERTEX
 8
WIRE
 10
  8.1000
 20
 11.6000
 30
0.0
 0
SEQEND
 8
WIRE
 0
POLYLINE
 8
WIRE
 66
1
 10
0.0
 20
0.0
 30
0.0
 0
VERTEX
 8
WIRE
 10
  9.5000
 20
  9.7000
 30
0.0
 0
VERTEX
 8
WIRE
 10
  9.5000
 20
 11.0000
 30
0.0
 0
SEQEND
 8
WIRE
 0
POLYLINE
 8
WIRE
 66
1
 70
1
 10
0.0
 20
0.0
 30
0.0
 40
  0.0200
 41
  0.0200
 0
VERTEX
 8
WIRE
 10
  9.4900
 20
  9.7000
 30
0.0
 42
1.0
 0
VERTEX
 8
WIRE
 10
  9.5100
 20
  9.7000
 30
0.0
 42
1.0
 0
SEQEND
 8
WIRE
 0
POLYLINE
 8
WIRE
 66
1
 10
0.0
 20
0.0
 30
0.0
 0
VERTEX
 8
WIRE
 10
  9.9000
 20
  9.7000
 30
0.0
 0
VERTEX
 8
WIRE
 10
  9.5000
 20
  9.7000
 30
0.0
 0
SEQEND
 8
WIRE
 0
POLYLINE
 8
WIRE
 66
1
 10
0.0
 20
0.0
 30
0.0
 0
VERTEX
 8
WIRE
 10
  9.9000
 20
  9.4000
 30
0.0
 0
VERTEX
 8
WIRE
 10
  9.9000
 20
  9.7000
 30
0.0
 0
SEQEND
 8
WIRE
 0
POLYLINE
 8
WIRE
 66
1
 10
0.0
 20
0.0
 30
0.0
 0
VERTEX
 8
WIRE
 10
  9.9000
 20
  7.4000
 30
0.0
 0
VERTEX
 8
WIRE
 10
  9.9000
 20
  8.8000
 30
0.0
 0
SEQEND
 8
WIRE
 0
POLYLINE
 8
WIRE
 66
1
 70
1
 10
0.0
 20
0.0
 30
0.0
 40
  0.0200
 41
  0.0200
 0
VERTEX
 8
WIRE
 10
  9.8900
 20
  7.4000
 30
0.0
 42
1.0
 0
VERTEX
 8
WIRE
 10
  9.9100
 20
  7.4000
 30
0.0
 42
1.0
 0
SEQEND
 8
WIRE
 0
POLYLINE
 8
WIRE
 66
1
 10
0.0
 20
0.0
 30
0.0
 0
VERTEX
 8
WIRE
 10
  9.9000
 20
  6.1000
 30
0.0
 0
VERTEX
 8
WIRE
 10
  9.9000
 20
  6.6000
 30
0.0
 0
SEQEND
 8
WIRE
 0
POLYLINE
 8
WIRE
 66
1
 10
0.0
 20
0.0
 30
0.0
 0
VERTEX
 8
WIRE
 10
 11.3000
 20
  7.4000
 30
0.0
 0
VERTEX
 8
WIRE
 10
  9.9000
 20
  7.4000
 30
0.0
 0
SEQEND
 8
WIRE
 0
POLYLINE
 8
WIRE
 66
1
 10
0.0
 20
0.0
 30
0.0
 0
VERTEX
 8
WIRE
 10
  9.9000
 20
  7.2000
 30
0.0
 0
VERTEX
 8
WIRE
 10
  9.9000
 20
  7.4000
 30
0.0
 0
SEQEND
 8
WIRE
 0
POLYLINE
 8
WIRE
 66
1
 10
0.0
 20
0.0
 30
0.0
 0
VERTEX
 8
WIRE
 10
 10.6000
 20
 12.1000
 30
0.0
 0
VERTEX
 8
WIRE
 10
 10.0000
 20
 12.1000
 30
0.0
 0
SEQEND
 8
WIRE
 0
POLYLINE
 8
WIRE
 66
1
 10
0.0
 20
0.0
 30
0.0
 0
VERTEX
 8
WIRE
 10
 11.2000
 20
 11.9000
 30
0.0
 0
VERTEX
 8
WIRE
 10
 11.2000
 20
 12.1000
 30
0.0
 0
SEQEND
 8
WIRE
 0
POLYLINE
 8
WIRE
 66
1
 10
0.0
 20
0.0
 30
0.0
 0
VERTEX
 8
WIRE
 10
 10.5000
 20
 11.9000
 30
0.0
 0
VERTEX
 8
WIRE
 10
 10.0000
 20
 11.9000
 30
0.0
 0
SEQEND
 8
WIRE
 0
POLYLINE
 8
WIRE
 66
1
 10
0.0
 20
0.0
 30
0.0
 0
VERTEX
 8
WIRE
 10
 10.5000
 20
 11.1000
 30
0.0
 0
VERTEX
 8
WIRE
 10
 10.5000
 20
 11.9000
 30
0.0
 0
SEQEND
 8
WIRE
 0
POLYLINE
 8
WIRE
 66
1
 10
0.0
 20
0.0
 30
0.0
 0
VERTEX
 8
WIRE
 10
 12.0000
 20
 11.1000
 30
0.0
 0
VERTEX
 8
WIRE
 10
 10.5000
 20
 11.1000
 30
0.0
 0
SEQEND
 8
WIRE
 0
POLYLINE
 8
WIRE
 66
1
 10
0.0
 20
0.0
 30
0.0
 0
VERTEX
 8
WIRE
 10
  9.5000
 20
  8.3000
 30
0.0
 0
VERTEX
 8
WIRE
 10
  9.5000
 20
  9.7000
 30
0.0
 0
SEQEND
 8
WIRE
 0
POLYLINE
 8
WIRE
 66
1
 10
0.0
 20
0.0
 30
0.0
 0
VERTEX
 8
WIRE
 10
  9.3000
 20
  9.8000
 30
0.0
 0
VERTEX
 8
WIRE
 10
  9.3000
 20
 11.0000
 30
0.0
 0
SEQEND
 8
WIRE
 0
POLYLINE
 8
WIRE
 66
1
 10
0.0
 20
0.0
 30
0.0
 0
VERTEX
 8
WIRE
 10
  9.3000
 20
  9.8000
 30
0.0
 0
VERTEX
 8
WIRE
 10
  9.0000
 20
  9.8000
 30
0.0
 0
SEQEND
 8
WIRE
 0
POLYLINE
 8
WIRE
 66
1
 10
0.0
 20
0.0
 30
0.0
 0
VERTEX
 8
WIRE
 10
  9.0000
 20
  9.7000
 30
0.0
 0
VERTEX
 8
WIRE
 10
  9.0000
 20
  9.8000
 30
0.0
 0
SEQEND
 8
WIRE
 0
POLYLINE
 8
WIRE
 66
1
 10
0.0
 20
0.0
 30
0.0
 0
VERTEX
 8
WIRE
 10
  9.1000
 20
  9.9000
 30
0.0
 0
VERTEX
 8
WIRE
 10
  9.1000
 20
 11.0000
 30
0.0
 0
SEQEND
 8
WIRE
 0
POLYLINE
 8
WIRE
 66
1
 10
0.0
 20
0.0
 30
0.0
 0
VERTEX
 8
WIRE
 10
  9.1000
 20
  9.9000
 30
0.0
 0
VERTEX
 8
WIRE
 10
  8.5000
 20
  9.9000
 30
0.0
 0
SEQEND
 8
WIRE
 0
POLYLINE
 8
WIRE
 66
1
 10
0.0
 20
0.0
 30
0.0
 0
VERTEX
 8
WIRE
 10
  8.5000
 20
  9.7000
 30
0.0
 0
VERTEX
 8
WIRE
 10
  8.5000
 20
  9.9000
 30
0.0
 0
SEQEND
 8
WIRE
 0
POLYLINE
 8
WIRE
 66
1
 10
0.0
 20
0.0
 30
0.0
 0
VERTEX
 8
WIRE
 10
  8.9000
 20
 10.1000
 30
0.0
 0
VERTEX
 8
WIRE
 10
  8.9000
 20
 11.0000
 30
0.0
 0
SEQEND
 8
WIRE
 0
POLYLINE
 8
WIRE
 66
1
 10
0.0
 20
0.0
 30
0.0
 0
VERTEX
 8
WIRE
 10
  8.9000
 20
 10.1000
 30
0.0
 0
VERTEX
 8
WIRE
 10
  8.0000
 20
 10.1000
 30
0.0
 0
SEQEND
 8
WIRE
 0
POLYLINE
 8
WIRE
 66
1
 10
0.0
 20
0.0
 30
0.0
 0
VERTEX
 8
WIRE
 10
  8.0000
 20
  9.7000
 30
0.0
 0
VERTEX
 8
WIRE
 10
  8.0000
 20
 10.1000
 30
0.0
 0
SEQEND
 8
WIRE
 0
POLYLINE
 8
WIRE
 66
1
 10
0.0
 20
0.0
 30
0.0
 0
VERTEX
 8
WIRE
 10
  8.9000
 20
 12.6000
 30
0.0
 0
VERTEX
 8
WIRE
 10
  8.9000
 20
 14.3000
 30
0.0
 0
SEQEND
 8
WIRE
 0
POLYLINE
 8
WIRE
 66
1
 10
0.0
 20
0.0
 30
0.0
 0
VERTEX
 8
WIRE
 10
 11.6000
 20
 11.9000
 30
0.0
 0
VERTEX
 8
WIRE
 10
 11.6000
 20
 12.1000
 30
0.0
 0
SEQEND
 8
WIRE
 0
POLYLINE
 8
WIRE
 66
1
 10
0.0
 20
0.0
 30
0.0
 0
VERTEX
 8
WIRE
 10
  9.0000
 20
  8.3000
 30
0.0
 0
VERTEX
 8
WIRE
 10
  9.0000
 20
  8.8000
 30
0.0
 0
SEQEND
 8
WIRE
 0
POLYLINE
 8
WIRE
 66
1
 10
0.0
 20
0.0
 30
0.0
 0
VERTEX
 8
WIRE
 10
  8.5000
 20
  8.3000
 30
0.0
 0
VERTEX
 8
WIRE
 10
  8.5000
 20
  8.8000
 30
0.0
 0
SEQEND
 8
WIRE
 0
POLYLINE
 8
WIRE
 66
1
 10
0.0
 20
0.0
 30
0.0
 0
VERTEX
 8
WIRE
 10
  8.0000
 20
  8.3000
 30
0.0
 0
VERTEX
 8
WIRE
 10
  8.0000
 20
  8.8000
 30
0.0
 0
SEQEND
 8
WIRE
 0
POLYLINE
 8
WIRE
 66
1
 10
0.0
 20
0.0
 30
0.0
 0
VERTEX
 8
WIRE
 10
  8.0000
 20
  9.4000
 30
0.0
 0
VERTEX
 8
WIRE
 10
  8.0000
 20
  9.7000
 30
0.0
 0
SEQEND
 8
WIRE
 0
POLYLINE
 8
WIRE
 66
1
 70
1
 10
0.0
 20
0.0
 30
0.0
 40
  0.0200
 41
  0.0200
 0
VERTEX
 8
WIRE
 10
  7.9900
 20
  9.7000
 30
0.0
 42
1.0
 0
VERTEX
 8
WIRE
 10
  8.0100
 20
  9.7000
 30
0.0
 42
1.0
 0
SEQEND
 8
WIRE
 0
POLYLINE
 8
WIRE
 66
1
 10
0.0
 20
0.0
 30
0.0
 0
VERTEX
 8
WIRE
 10
  8.5000
 20
  9.4000
 30
0.0
 0
VERTEX
 8
WIRE
 10
  8.5000
 20
  9.7000
 30
0.0
 0
SEQEND
 8
WIRE
 0
POLYLINE
 8
WIRE
 66
1
 70
1
 10
0.0
 20
0.0
 30
0.0
 40
  0.0200
 41
  0.0200
 0
VERTEX
 8
WIRE
 10
  8.4900
 20
  9.7000
 30
0.0
 42
1.0
 0
VERTEX
 8
WIRE
 10
  8.5100
 20
  9.7000
 30
0.0
 42
1.0
 0
SEQEND
 8
WIRE
 0
POLYLINE
 8
WIRE
 66
1
 10
0.0
 20
0.0
 30
0.0
 0
VERTEX
 8
WIRE
 10
  9.0000
 20
  9.4000
 30
0.0
 0
VERTEX
 8
WIRE
 10
  9.0000
 20
  9.7000
 30
0.0
 0
SEQEND
 8
WIRE
 0
POLYLINE
 8
WIRE
 66
1
 70
1
 10
0.0
 20
0.0
 30
0.0
 40
  0.0200
 41
  0.0200
 0
VERTEX
 8
WIRE
 10
  8.9900
 20
  9.7000
 30
0.0
 42
1.0
 0
VERTEX
 8
WIRE
 10
  9.0100
 20
  9.7000
 30
0.0
 42
1.0
 0
SEQEND
 8
WIRE
 0
POLYLINE
 8
WIRE
 66
1
 10
0.0
 20
0.0
 30
0.0
 0
VERTEX
 8
WIRE
 10
 13.3000
 20
 12.8000
 30
0.0
 0
VERTEX
 8
WIRE
 10
 11.6000
 20
 12.8000
 30
0.0
 0
SEQEND
 8
WIRE
 0
POLYLINE
 8
WIRE
 66
1
 70
1
 10
0.0
 20
0.0
 30
0.0
 40
  0.0200
 41
  0.0200
 0
VERTEX
 8
WIRE
 10
 13.2900
 20
 12.8000
 30
0.0
 42
1.0
 0
VERTEX
 8
WIRE
 10
 13.3100
 20
 12.8000
 30
0.0
 42
1.0
 0
SEQEND
 8
WIRE
 0
POLYLINE
 8
WIRE
 66
1
 70
1
 10
0.0
 20
0.0
 30
0.0
 40
  0.0200
 41
  0.0200
 0
VERTEX
 8
WIRE
 10
 11.5900
 20
 12.8000
 30
0.0
 42
1.0
 0
VERTEX
 8
WIRE
 10
 11.6100
 20
 12.8000
 30
0.0
 42
1.0
 0
SEQEND
 8
WIRE
 0
POLYLINE
 8
WIRE
 66
1
 10
0.0
 20
0.0
 30
0.0
 0
VERTEX
 8
WIRE
 10
  8.4000
 20
 11.2000
 30
0.0
 0
VERTEX
 8
WIRE
 10
  8.4000
 20
 11.4000
 30
0.0
 0
SEQEND
 8
WIRE
 0
POLYLINE
 8
WIRE
 66
1
 10
0.0
 20
0.0
 30
0.0
 0
VERTEX
 8
WIRE
 10
  6.1000
 20
 11.2000
 30
0.0
 0
VERTEX
 8
WIRE
 10
  5.6000
 20
 11.2000
 30
0.0
 0
SEQEND
 8
WIRE
 0
POLYLINE
 8
WIRE
 66
1
 70
1
 10
0.0
 20
0.0
 30
0.0
 40
  0.0200
 41
  0.0200
 0
VERTEX
 8
WIRE
 10
  6.0900
 20
 11.2000
 30
0.0
 42
1.0
 0
VERTEX
 8
WIRE
 10
  6.1100
 20
 11.2000
 30
0.0
 42
1.0
 0
SEQEND
 8
WIRE
 0
POLYLINE
 8
WIRE
 66
1
 10
0.0
 20
0.0
 30
0.0
 0
VERTEX
 8
WIRE
 10
 11.6000
 20
 12.7000
 30
0.0
 0
VERTEX
 8
WIRE
 10
 11.6000
 20
 12.8000
 30
0.0
 0
SEQEND
 8
WIRE
 0
POLYLINE
 8
WIRE
 66
1
 10
0.0
 20
0.0
 30
0.0
 0
VERTEX
 8
WIRE
 10
  7.2000
 20
 11.2000
 30
0.0
 0
VERTEX
 8
WIRE
 10
  6.1000
 20
 11.2000
 30
0.0
 0
SEQEND
 8
WIRE
 0
POLYLINE
 8
WIRE
 66
1
 10
0.0
 20
0.0
 30
0.0
 0
VERTEX
 8
WIRE
 10
  6.1000
 20
 10.3000
 30
0.0
 0
VERTEX
 8
WIRE
 10
  6.1000
 20
 10.6000
 30
0.0
 0
SEQEND
 8
WIRE
 0
POLYLINE
 8
WIRE
 66
1
 10
0.0
 20
0.0
 30
0.0
 0
VERTEX
 8
WIRE
 10
  8.4000
 20
 11.2000
 30
0.0
 0
VERTEX
 8
WIRE
 10
  7.2000
 20
 11.2000
 30
0.0
 0
SEQEND
 8
WIRE
 0
POLYLINE
 8
WIRE
 66
1
 70
1
 10
0.0
 20
0.0
 30
0.0
 40
  0.0200
 41
  0.0200
 0
VERTEX
 8
WIRE
 10
  7.1900
 20
 11.2000
 30
0.0
 42
1.0
 0
VERTEX
 8
WIRE
 10
  7.2100
 20
 11.2000
 30
0.0
 42
1.0
 0
SEQEND
 8
WIRE
 0
POLYLINE
 8
WIRE
 66
1
 10
0.0
 20
0.0
 30
0.0
 0
VERTEX
 8
WIRE
 10
  7.8000
 20
 12.0000
 30
0.0
 0
VERTEX
 8
WIRE
 10
  7.4000
 20
 12.0000
 30
0.0
 0
SEQEND
 8
WIRE
 0
POLYLINE
 8
WIRE
 66
1
 10
0.0
 20
0.0
 30
0.0
 0
VERTEX
 8
WIRE
 10
  7.4000
 20
 12.0000
 30
0.0
 0
VERTEX
 8
WIRE
 10
  7.4000
 20
 12.8000
 30
0.0
 0
SEQEND
 8
WIRE
 0
POLYLINE
 8
WIRE
 66
1
 10
0.0
 20
0.0
 30
0.0
 0
VERTEX
 8
WIRE
 10
  7.4000
 20
 12.8000
 30
0.0
 0
VERTEX
 8
WIRE
 10
  7.2000
 20
 12.8000
 30
0.0
 0
SEQEND
 8
WIRE
 0
POLYLINE
 8
WIRE
 66
1
 10
0.0
 20
0.0
 30
0.0
 0
VERTEX
 8
WIRE
 10
  6.2000
 20
 12.7000
 30
0.0
 0
VERTEX
 8
WIRE
 10
  6.2000
 20
 12.8000
 30
0.0
 0
SEQEND
 8
WIRE
 0
POLYLINE
 8
WIRE
 66
1
 10
0.0
 20
0.0
 30
0.0
 0
VERTEX
 8
WIRE
 10
  6.6000
 20
 12.8000
 30
0.0
 0
VERTEX
 8
WIRE
 10
  6.2000
 20
 12.8000
 30
0.0
 0
SEQEND
 8
WIRE
 0
POLYLINE
 8
WIRE
 66
1
 10
0.0
 20
0.0
 30
0.0
 0
VERTEX
 8
WIRE
 10
  6.2000
 20
 12.8000
 30
0.0
 0
VERTEX
 8
WIRE
 10
  5.7000
 20
 12.8000
 30
0.0
 0
SEQEND
 8
WIRE
 0
POLYLINE
 8
WIRE
 66
1
 70
1
 10
0.0
 20
0.0
 30
0.0
 40
  0.0200
 41
  0.0200
 0
VERTEX
 8
WIRE
 10
  6.1900
 20
 12.8000
 30
0.0
 42
1.0
 0
VERTEX
 8
WIRE
 10
  6.2100
 20
 12.8000
 30
0.0
 42
1.0
 0
SEQEND
 8
WIRE
 0
POLYLINE
 8
WIRE
 66
1
 10
0.0
 20
0.0
 30
0.0
 0
VERTEX
 8
WIRE
 10
  5.1000
 20
 12.8000
 30
0.0
 0
VERTEX
 8
WIRE
 10
  4.5000
 20
 12.8000
 30
0.0
 0
SEQEND
 8
WIRE
 0
POLYLINE
 8
WIRE
 66
1
 10
0.0
 20
0.0
 30
0.0
 0
VERTEX
 8
WIRE
 10
  4.5000
 20
 12.7000
 30
0.0
 0
VERTEX
 8
WIRE
 10
  4.5000
 20
 12.8000
 30
0.0
 0
SEQEND
 8
WIRE
 0
POLYLINE
 8
WIRE
 66
1
 10
0.0
 20
0.0
 30
0.0
 0
VERTEX
 8
WIRE
 10
  4.5000
 20
 11.9000
 30
0.0
 0
VERTEX
 8
WIRE
 10
  4.0000
 20
 11.9000
 30
0.0
 0
SEQEND
 8
WIRE
 0
POLYLINE
 8
WIRE
 66
1
 10
0.0
 20
0.0
 30
0.0
 0
VERTEX
 8
WIRE
 10
  4.1000
 20
 11.7000
 30
0.0
 0
VERTEX
 8
WIRE
 10
  4.0000
 20
 11.7000
 30
0.0
 0
SEQEND
 8
WIRE
 0
POLYLINE
 8
WIRE
 66
1
 10
0.0
 20
0.0
 30
0.0
 0
VERTEX
 8
WIRE
 10
  4.1000
 20
 11.5000
 30
0.0
 0
VERTEX
 8
WIRE
 10
  4.1000
 20
 11.7000
 30
0.0
 0
SEQEND
 8
WIRE
 0
POLYLINE
 8
WIRE
 66
1
 10
0.0
 20
0.0
 30
0.0
 0
VERTEX
 8
WIRE
 10
  1.7000
 20
 11.9000
 30
0.0
 0
VERTEX
 8
WIRE
 10
  1.6000
 20
 11.9000
 30
0.0
 0
SEQEND
 8
WIRE
 0
POLYLINE
 8
WIRE
 66
1
 10
0.0
 20
0.0
 30
0.0
 0
VERTEX
 8
WIRE
 10
  2.8000
 20
 11.9000
 30
0.0
 0
VERTEX
 8
WIRE
 10
  2.2000
 20
 11.9000
 30
0.0
 0
SEQEND
 8
WIRE
 0
POLYLINE
 8
WIRE
 66
1
 10
0.0
 20
0.0
 30
0.0
 0
VERTEX
 8
WIRE
 10
  3.3000
 20
 11.9000
 30
0.0
 0
VERTEX
 8
WIRE
 10
  2.8000
 20
 11.9000
 30
0.0
 0
SEQEND
 8
WIRE
 0
POLYLINE
 8
WIRE
 66
1
 70
1
 10
0.0
 20
0.0
 30
0.0
 40
  0.0200
 41
  0.0200
 0
VERTEX
 8
WIRE
 10
  2.7900
 20
 11.9000
 30
0.0
 42
1.0
 0
VERTEX
 8
WIRE
 10
  2.8100
 20
 11.9000
 30
0.0
 42
1.0
 0
SEQEND
 8
WIRE
 0
POLYLINE
 8
WIRE
 66
1
 10
0.0
 20
0.0
 30
0.0
 0
VERTEX
 8
WIRE
 10
  1.0000
 20
 11.9000
 30
0.0
 0
VERTEX
 8
WIRE
 10
  0.6000
 20
 11.9000
 30
0.0
 0
SEQEND
 8
WIRE
 0
TEXT
 8
WIRETEXT
 10
  0.7000
 20
 11.9300
 30
0.0
 40
  0.0514
 1
+3V
 0
POLYLINE
 8
WIRE
 66
1
 10
0.0
 20
0.0
 30
0.0
 0
VERTEX
 8
WIRE
 10
  1.7000
 20
 11.4000
 30
0.0
 0
VERTEX
 8
WIRE
 10
  1.6000
 20
 11.4000
 30
0.0
 0
SEQEND
 8
WIRE
 0
POLYLINE
 8
WIRE
 66
1
 10
0.0
 20
0.0
 30
0.0
 0
VERTEX
 8
WIRE
 10
  1.7000
 20
 11.4000
 30
0.0
 0
VERTEX
 8
WIRE
 10
  1.7000
 20
 11.9000
 30
0.0
 0
SEQEND
 8
WIRE
 0
POLYLINE
 8
WIRE
 66
1
 70
1
 10
0.0
 20
0.0
 30
0.0
 40
  0.0200
 41
  0.0200
 0
VERTEX
 8
WIRE
 10
  1.6900
 20
 11.9000
 30
0.0
 42
1.0
 0
VERTEX
 8
WIRE
 10
  1.7100
 20
 11.9000
 30
0.0
 42
1.0
 0
SEQEND
 8
WIRE
 0
POLYLINE
 8
WIRE
 66
1
 10
0.0
 20
0.0
 30
0.0
 0
VERTEX
 8
WIRE
 10
  2.2000
 20
 11.9000
 30
0.0
 0
VERTEX
 8
WIRE
 10
  1.7000
 20
 11.9000
 30
0.0
 0
SEQEND
 8
WIRE
 0
POLYLINE
 8
WIRE
 66
1
 70
1
 10
0.0
 20
0.0
 30
0.0
 40
  0.0200
 41
  0.0200
 0
VERTEX
 8
WIRE
 10
  2.1900
 20
 11.9000
 30
0.0
 42
1.0
 0
VERTEX
 8
WIRE
 10
  2.2100
 20
 11.9000
 30
0.0
 42
1.0
 0
SEQEND
 8
WIRE
 0
POLYLINE
 8
WIRE
 66
1
 10
0.0
 20
0.0
 30
0.0
 0
VERTEX
 8
WIRE
 10
  1.0000
 20
 11.4000
 30
0.0
 0
VERTEX
 8
WIRE
 10
  0.1000
 20
 11.4000
 30
0.0
 0
SEQEND
 8
WIRE
 0
TEXT
 8
WIRETEXT
 10
  0.4000
 20
 11.4300
 30
0.0
 40
  0.0514
 1
+5V
 0
POLYLINE
 8
WIRE
 66
1
 10
0.0
 20
0.0
 30
0.0
 0
VERTEX
 8
WIRE
 10
  6.2000
 20
 11.9000
 30
0.0
 0
VERTEX
 8
WIRE
 10
  6.2000
 20
 12.1000
 30
0.0
 0
SEQEND
 8
WIRE
 0
POLYLINE
 8
WIRE
 66
1
 10
0.0
 20
0.0
 30
0.0
 0
VERTEX
 8
WIRE
 10
  4.5000
 20
 11.9000
 30
0.0
 0
VERTEX
 8
WIRE
 10
  4.5000
 20
 12.1000
 30
0.0
 0
SEQEND
 8
WIRE
 0
POLYLINE
 8
WIRE
 66
1
 10
0.0
 20
0.0
 30
0.0
 0
VERTEX
 8
WIRE
 10
  4.5000
 20
 12.8000
 30
0.0
 0
VERTEX
 8
WIRE
 10
  1.6000
 20
 12.8000
 30
0.0
 0
SEQEND
 8
WIRE
 0
POLYLINE
 8
WIRE
 66
1
 70
1
 10
0.0
 20
0.0
 30
0.0
 40
  0.0200
 41
  0.0200
 0
VERTEX
 8
WIRE
 10
  4.4900
 20
 12.8000
 30
0.0
 42
1.0
 0
VERTEX
 8
WIRE
 10
  4.5100
 20
 12.8000
 30
0.0
 42
1.0
 0
SEQEND
 8
WIRE
 0
POLYLINE
 8
WIRE
 66
1
 10
0.0
 20
0.0
 30
0.0
 0
VERTEX
 8
WIRE
 10
  8.7000
 20
 10.4000
 30
0.0
 0
VERTEX
 8
WIRE
 10
  8.7000
 20
 11.0000
 30
0.0
 0
SEQEND
 8
WIRE
 0
POLYLINE
 8
WIRE
 66
1
 10
0.0
 20
0.0
 30
0.0
 0
VERTEX
 8
WIRE
 10
  8.7000
 20
 10.4000
 30
0.0
 0
VERTEX
 8
WIRE
 10
  7.2000
 20
 10.4000
 30
0.0
 0
SEQEND
 8
WIRE
 0
POLYLINE
 8
WIRE
 66
1
 10
0.0
 20
0.0
 30
0.0
 0
VERTEX
 8
WIRE
 10
  7.2000
 20
  9.2000
 30
0.0
 0
VERTEX
 8
WIRE
 10
  7.2000
 20
 10.4000
 30
0.0
 0
SEQEND
 8
WIRE
 0
POLYLINE
 8
WIRE
 66
1
 70
1
 10
0.0
 20
0.0
 30
0.0
 40
  0.0200
 41
  0.0200
 0
VERTEX
 8
WIRE
 10
  7.1900
 20
  9.2000
 30
0.0
 42
1.0
 0
VERTEX
 8
WIRE
 10
  7.2100
 20
  9.2000
 30
0.0
 42
1.0
 0
SEQEND
 8
WIRE
 0
POLYLINE
 8
WIRE
 66
1
 10
0.0
 20
0.0
 30
0.0
 0
VERTEX
 8
WIRE
 10
  7.2000
 20
  8.5000
 30
0.0
 0
VERTEX
 8
WIRE
 10
  7.2000
 20
  9.2000
 30
0.0
 0
SEQEND
 8
WIRE
 0
POLYLINE
 8
WIRE
 66
1
 70
1
 10
0.0
 20
0.0
 30
0.0
 40
  0.0200
 41
  0.0200
 0
VERTEX
 8
WIRE
 10
  7.1900
 20
  8.5000
 30
0.0
 42
1.0
 0
VERTEX
 8
WIRE
 10
  7.2100
 20
  8.5000
 30
0.0
 42
1.0
 0
SEQEND
 8
WIRE
 0
POLYLINE
 8
WIRE
 66
1
 10
0.0
 20
0.0
 30
0.0
 0
VERTEX
 8
WIRE
 10
  7.2000
 20
  7.8000
 30
0.0
 0
VERTEX
 8
WIRE
 10
  7.2000
 20
  8.5000
 30
0.0
 0
SEQEND
 8
WIRE
 0
POLYLINE
 8
WIRE
 66
1
 10
0.0
 20
0.0
 30
0.0
 0
VERTEX
 8
WIRE
 10
  6.2000
 20
  9.2000
 30
0.0
 0
VERTEX
 8
WIRE
 10
  5.4000
 20
  9.2000
 30
0.0
 0
SEQEND
 8
WIRE
 0
POLYLINE
 8
WIRE
 66
1
 10
0.0
 20
0.0
 30
0.0
 0
VERTEX
 8
WIRE
 10
  5.4000
 20
  9.2000
 30
0.0
 0
VERTEX
 8
WIRE
 10
  5.4000
 20
  9.4000
 30
0.0
 0
SEQEND
 8
WIRE
 0
POLYLINE
 8
WIRE
 66
1
 10
0.0
 20
0.0
 30
0.0
 0
VERTEX
 8
WIRE
 10
  6.2000
 20
  8.5000
 30
0.0
 0
VERTEX
 8
WIRE
 10
  5.4000
 20
  8.5000
 30
0.0
 0
SEQEND
 8
WIRE
 0
POLYLINE
 8
WIRE
 66
1
 10
0.0
 20
0.0
 30
0.0
 0
VERTEX
 8
WIRE
 10
  5.4000
 20
  8.3000
 30
0.0
 0
VERTEX
 8
WIRE
 10
  5.4000
 20
  8.5000
 30
0.0
 0
SEQEND
 8
WIRE
 0
POLYLINE
 8
WIRE
 66
1
 10
0.0
 20
0.0
 30
0.0
 0
VERTEX
 8
WIRE
 10
  8.4000
 20
 12.0000
 30
0.0
 0
VERTEX
 8
WIRE
 10
  7.8000
 20
 12.0000
 30
0.0
 0
SEQEND
 8
WIRE
 0
POLYLINE
 8
WIRE
 66
1
 70
1
 10
0.0
 20
0.0
 30
0.0
 40
  0.0200
 41
  0.0200
 0
VERTEX
 8
WIRE
 10
  7.7900
 20
 12.0000
 30
0.0
 42
1.0
 0
VERTEX
 8
WIRE
 10
  7.8100
 20
 12.0000
 30
0.0
 42
1.0
 0
SEQEND
 8
WIRE
 0
POLYLINE
 8
WIRE
 66
1
 10
0.0
 20
0.0
 30
0.0
 0
VERTEX
 8
WIRE
 10
  8.4000
 20
 12.2000
 30
0.0
 0
VERTEX
 8
WIRE
 10
  8.3000
 20
 12.2000
 30
0.0
 0
SEQEND
 8
WIRE
 0
POLYLINE
 8
WIRE
 66
1
 10
0.0
 20
0.0
 30
0.0
 0
VERTEX
 8
WIRE
 10
  8.4000
 20
 12.4000
 30
0.0
 0
VERTEX
 8
WIRE
 10
  8.3000
 20
 12.4000
 30
0.0
 0
SEQEND
 8
WIRE
 0
POLYLINE
 8
WIRE
 66
1
 10
0.0
 20
0.0
 30
0.0
 0
VERTEX
 8
WIRE
 10
  8.3000
 20
 12.2000
 30
0.0
 0
VERTEX
 8
WIRE
 10
  8.3000
 20
 12.4000
 30
0.0
 0
SEQEND
 8
WIRE
 0
POLYLINE
 8
WIRE
 66
1
 70
1
 10
0.0
 20
0.0
 30
0.0
 40
  0.0200
 41
  0.0200
 0
VERTEX
 8
WIRE
 10
  8.2900
 20
 12.4000
 30
0.0
 42
1.0
 0
VERTEX
 8
WIRE
 10
  8.3100
 20
 12.4000
 30
0.0
 42
1.0
 0
SEQEND
 8
WIRE
 0
POLYLINE
 8
WIRE
 66
1
 10
0.0
 20
0.0
 30
0.0
 0
VERTEX
 8
WIRE
 10
  8.7000
 20
 12.6000
 30
0.0
 0
VERTEX
 8
WIRE
 10
  8.3000
 20
 12.6000
 30
0.0
 0
SEQEND
 8
WIRE
 0
POLYLINE
 8
WIRE
 66
1
 10
0.0
 20
0.0
 30
0.0
 0
VERTEX
 8
WIRE
 10
  8.3000
 20
 12.4000
 30
0.0
 0
VERTEX
 8
WIRE
 10
  8.3000
 20
 12.6000
 30
0.0
 0
SEQEND
 8
WIRE
 0
POLYLINE
 8
WIRE
 66
1
 10
0.0
 20
0.0
 30
0.0
 0
VERTEX
 8
WIRE
 10
 10.3000
 20
  1.4000
 30
0.0
 0
VERTEX
 8
WIRE
 10
  9.9000
 20
  1.4000
 30
0.0
 0
SEQEND
 8
WIRE
 0
POLYLINE
 8
WIRE
 66
1
 70
1
 10
0.0
 20
0.0
 30
0.0
 40
  0.0200
 41
  0.0200
 0
VERTEX
 8
WIRE
 10
  9.8900
 20
  1.4000
 30
0.0
 42
1.0
 0
VERTEX
 8
WIRE
 10
  9.9100
 20
  1.4000
 30
0.0
 42
1.0
 0
SEQEND
 8
WIRE
 0
POLYLINE
 8
WIRE
 66
1
 10
0.0
 20
0.0
 30
0.0
 0
VERTEX
 8
WIRE
 10
  8.3000
 20
 13.3000
 30
0.0
 0
VERTEX
 8
WIRE
 10
  8.3000
 20
 13.7000
 30
0.0
 0
SEQEND
 8
WIRE
 0
POLYLINE
 8
WIRE
 66
1
 10
0.0
 20
0.0
 30
0.0
 0
VERTEX
 8
WIRE
 10
  8.3000
 20
 12.6000
 30
0.0
 0
VERTEX
 8
WIRE
 10
  8.3000
 20
 13.3000
 30
0.0
 0
SEQEND
 8
WIRE
 0
POLYLINE
 8
WIRE
 66
1
 70
1
 10
0.0
 20
0.0
 30
0.0
 40
  0.0200
 41
  0.0200
 0
VERTEX
 8
WIRE
 10
  8.2900
 20
 12.6000
 30
0.0
 42
1.0
 0
VERTEX
 8
WIRE
 10
  8.3100
 20
 12.6000
 30
0.0
 42
1.0
 0
SEQEND
 8
WIRE
 0
POLYLINE
 8
WIRE
 66
1
 70
1
 10
0.0
 20
0.0
 30
0.0
 40
  0.0200
 41
  0.0200
 0
VERTEX
 8
WIRE
 10
  8.2900
 20
 13.3000
 30
0.0
 42
1.0
 0
VERTEX
 8
WIRE
 10
  8.3100
 20
 13.3000
 30
0.0
 42
1.0
 0
SEQEND
 8
WIRE
 0
POLYLINE
 8
WIRE
 66
1
 10
0.0
 20
0.0
 30
0.0
 0
VERTEX
 8
WIRE
 10
  7.7000
 20
 13.3000
 30
0.0
 0
VERTEX
 8
WIRE
 10
  7.7000
 20
 13.7000
 30
0.0
 0
SEQEND
 8
WIRE
 0
POLYLINE
 8
WIRE
 66
1
 70
1
 10
0.0
 20
0.0
 30
0.0
 40
  0.0200
 41
  0.0200
 0
VERTEX
 8
WIRE
 10
  7.6900
 20
 13.3000
 30
0.0
 42
1.0
 0
VERTEX
 8
WIRE
 10
  7.7100
 20
 13.3000
 30
0.0
 42
1.0
 0
SEQEND
 8
WIRE
 0
POLYLINE
 8
WIRE
 66
1
 10
0.0
 20
0.0
 30
0.0
 0
VERTEX
 8
WIRE
 10
  7.7000
 20
 13.0000
 30
0.0
 0
VERTEX
 8
WIRE
 10
  7.7000
 20
 13.3000
 30
0.0
 0
SEQEND
 8
WIRE
 0
POLYLINE
 8
WIRE
 66
1
 10
0.0
 20
0.0
 30
0.0
 0
VERTEX
 8
WIRE
 10
  8.3000
 20
 13.7000
 30
0.0
 0
VERTEX
 8
WIRE
 10
  8.3000
 20
 14.0000
 30
0.0
 0
SEQEND
 8
WIRE
 0
POLYLINE
 8
WIRE
 66
1
 70
1
 10
0.0
 20
0.0
 30
0.0
 40
  0.0200
 41
  0.0200
 0
VERTEX
 8
WIRE
 10
  8.2900
 20
 13.7000
 30
0.0
 42
1.0
 0
VERTEX
 8
WIRE
 10
  8.3100
 20
 13.7000
 30
0.0
 42
1.0
 0
SEQEND
 8
WIRE
 0
POLYLINE
 8
WIRE
 66
1
 10
0.0
 20
0.0
 30
0.0
 0
VERTEX
 8
WIRE
 10
 18.0000
 20
 12.5000
 30
0.0
 0
VERTEX
 8
WIRE
 10
 18.0000
 20
 13.0000
 30
0.0
 0
SEQEND
 8
WIRE
 0
POLYLINE
 8
WIRE
 66
1
 70
1
 10
0.0
 20
0.0
 30
0.0
 40
  0.0200
 41
  0.0200
 0
VERTEX
 8
WIRE
 10
 17.9900
 20
 12.5000
 30
0.0
 42
1.0
 0
VERTEX
 8
WIRE
 10
 18.0100
 20
 12.5000
 30
0.0
 42
1.0
 0
SEQEND
 8
WIRE
 0
POLYLINE
 8
WIRE
 66
1
 70
1
 10
0.0
 20
0.0
 30
0.0
 40
  0.0200
 41
  0.0200
 0
VERTEX
 8
WIRE
 10
 17.9900
 20
 13.0000
 30
0.0
 42
1.0
 0
VERTEX
 8
WIRE
 10
 18.0100
 20
 13.0000
 30
0.0
 42
1.0
 0
SEQEND
 8
WIRE
 0
POLYLINE
 8
WIRE
 66
1
 10
0.0
 20
0.0
 30
0.0
 0
VERTEX
 8
WIRE
 10
 17.4000
 20
 12.5000
 30
0.0
 0
VERTEX
 8
WIRE
 10
 17.4000
 20
 13.0000
 30
0.0
 0
SEQEND
 8
WIRE
 0
POLYLINE
 8
WIRE
 66
1
 70
1
 10
0.0
 20
0.0
 30
0.0
 40
  0.0200
 41
  0.0200
 0
VERTEX
 8
WIRE
 10
 17.3900
 20
 12.5000
 30
0.0
 42
1.0
 0
VERTEX
 8
WIRE
 10
 17.4100
 20
 12.5000
 30
0.0
 42
1.0
 0
SEQEND
 8
WIRE
 0
POLYLINE
 8
WIRE
 66
1
 70
1
 10
0.0
 20
0.0
 30
0.0
 40
  0.0200
 41
  0.0200
 0
VERTEX
 8
WIRE
 10
 17.3900
 20
 13.0000
 30
0.0
 42
1.0
 0
VERTEX
 8
WIRE
 10
 17.4100
 20
 13.0000
 30
0.0
 42
1.0
 0
SEQEND
 8
WIRE
 0
POLYLINE
 8
WIRE
 66
1
 10
0.0
 20
0.0
 30
0.0
 0
VERTEX
 8
WIRE
 10
 10.0000
 20
 11.0000
 30
0.0
 0
VERTEX
 8
WIRE
 10
  9.7000
 20
 11.0000
 30
0.0
 0
SEQEND
 8
WIRE
 0
POLYLINE
 8
WIRE
 66
1
 10
0.0
 20
0.0
 30
0.0
 0
VERTEX
 8
WIRE
 10
 10.0000
 20
 11.0000
 30
0.0
 0
VERTEX
 8
WIRE
 10
 10.0000
 20
 11.3000
 30
0.0
 0
SEQEND
 8
WIRE
 0
POLYLINE
 8
WIRE
 66
1
 10
0.0
 20
0.0
 30
0.0
 0
VERTEX
 8
WIRE
 10
 10.0000
 20
 10.7000
 30
0.0
 0
VERTEX
 8
WIRE
 10
 10.0000
 20
 11.0000
 30
0.0
 0
SEQEND
 8
WIRE
 0
POLYLINE
 8
WIRE
 66
1
 70
1
 10
0.0
 20
0.0
 30
0.0
 40
  0.0200
 41
  0.0200
 0
VERTEX
 8
WIRE
 10
  9.9900
 20
 10.7000
 30
0.0
 42
1.0
 0
VERTEX
 8
WIRE
 10
 10.0100
 20
 10.7000
 30
0.0
 42
1.0
 0
SEQEND
 8
WIRE
 0
POLYLINE
 8
WIRE
 66
1
 70
1
 10
0.0
 20
0.0
 30
0.0
 40
  0.0200
 41
  0.0200
 0
VERTEX
 8
WIRE
 10
  9.9900
 20
 11.0000
 30
0.0
 42
1.0
 0
VERTEX
 8
WIRE
 10
 10.0100
 20
 11.0000
 30
0.0
 42
1.0
 0
SEQEND
 8
WIRE
 0
POLYLINE
 8
WIRE
 66
1
 10
0.0
 20
0.0
 30
0.0
 0
VERTEX
 8
WIRE
 10
 10.0000
 20
 10.2000
 30
0.0
 0
VERTEX
 8
WIRE
 10
 10.0000
 20
 10.7000
 30
0.0
 0
SEQEND
 8
WIRE
 0
POLYLINE
 8
WIRE
 66
1
 10
0.0
 20
0.0
 30
0.0
 0
VERTEX
 8
WIRE
 10
 10.0000
 20
  9.8000
 30
0.0
 0
VERTEX
 8
WIRE
 10
 10.0000
 20
 10.2000
 30
0.0
 0
SEQEND
 8
WIRE
 0
POLYLINE
 8
WIRE
 66
1
 70
1
 10
0.0
 20
0.0
 30
0.0
 40
  0.0200
 41
  0.0200
 0
VERTEX
 8
WIRE
 10
  9.9900
 20
 10.2000
 30
0.0
 42
1.0
 0
VERTEX
 8
WIRE
 10
 10.0100
 20
 10.2000
 30
0.0
 42
1.0
 0
SEQEND
 8
WIRE
 0
POLYLINE
 8
WIRE
 66
1
 10
0.0
 20
0.0
 30
0.0
 0
VERTEX
 8
WIRE
 10
 11.0000
 20
  9.8000
 30
0.0
 0
VERTEX
 8
WIRE
 10
 10.0000
 20
  9.8000
 30
0.0
 0
SEQEND
 8
WIRE
 0
POLYLINE
 8
WIRE
 66
1
 10
0.0
 20
0.0
 30
0.0
 0
VERTEX
 8
WIRE
 10
 10.6000
 20
 10.2000
 30
0.0
 0
VERTEX
 8
WIRE
 10
 10.6000
 20
 10.7000
 30
0.0
 0
SEQEND
 8
WIRE
 0
POLYLINE
 8
WIRE
 66
1
 10
0.0
 20
0.0
 30
0.0
 0
VERTEX
 8
WIRE
 10
 10.6000
 20
 10.1000
 30
0.0
 0
VERTEX
 8
WIRE
 10
 10.6000
 20
 10.2000
 30
0.0
 0
SEQEND
 8
WIRE
 0
POLYLINE
 8
WIRE
 66
1
 70
1
 10
0.0
 20
0.0
 30
0.0
 40
  0.0200
 41
  0.0200
 0
VERTEX
 8
WIRE
 10
 10.5900
 20
 10.2000
 30
0.0
 42
1.0
 0
VERTEX
 8
WIRE
 10
 10.6100
 20
 10.2000
 30
0.0
 42
1.0
 0
SEQEND
 8
WIRE
 0
POLYLINE
 8
WIRE
 66
1
 10
0.0
 20
0.0
 30
0.0
 0
VERTEX
 8
WIRE
 10
 11.0000
 20
  9.8000
 30
0.0
 0
VERTEX
 8
WIRE
 10
 11.0000
 20
 10.1000
 30
0.0
 0
SEQEND
 8
WIRE
 0
POLYLINE
 8
WIRE
 66
1
 10
0.0
 20
0.0
 30
0.0
 0
VERTEX
 8
WIRE
 10
  3.3000
 20
  5.9000
 30
0.0
 0
VERTEX
 8
WIRE
 10
  2.9000
 20
  5.9000
 30
0.0
 0
SEQEND
 8
WIRE
 0
TEXT
 8
WIRETEXT
 10
  2.9000
 20
  5.9300
 30
0.0
 40
  0.0514
 1
+12V
 0
POLYLINE
 8
WIRE
 66
1
 10
0.0
 20
0.0
 30
0.0
 0
VERTEX
 8
WIRE
 10
  3.3000
 20
  5.8000
 30
0.0
 0
VERTEX
 8
WIRE
 10
  2.9000
 20
  5.8000
 30
0.0
 0
SEQEND
 8
WIRE
 0
TEXT
 8
WIRETEXT
 10
  2.9000
 20
  5.8300
 30
0.0
 40
  0.0514
 1
GND
 0
POLYLINE
 8
WIRE
 66
1
 10
0.0
 20
0.0
 30
0.0
 0
VERTEX
 8
WIRE
 10
  2.4000
 20
  4.4000
 30
0.0
 0
VERTEX
 8
WIRE
 10
  2.4000
 20
  5.2000
 30
0.0
 0
SEQEND
 8
WIRE
 0
TEXT
 8
WIRETEXT
 10
  2.4000
 20
  4.8300
 30
0.0
 40
  0.0514
 1
GND
 0
POLYLINE
 8
WIRE
 66
1
 10
0.0
 20
0.0
 30
0.0
 0
VERTEX
 8
WIRE
 10
 16.4000
 20
 10.6000
 30
0.0
 0
VERTEX
 8
WIRE
 10
 16.4000
 20
 11.0000
 30
0.0
 0
SEQEND
 8
WIRE
 0
POLYLINE
 8
WIRE
 66
1
 10
0.0
 20
0.0
 30
0.0
 0
VERTEX
 8
WIRE
 10
 17.4000
 20
 10.6000
 30
0.0
 0
VERTEX
 8
WIRE
 10
 16.4000
 20
 10.6000
 30
0.0
 0
SEQEND
 8
WIRE
 0
POLYLINE
 8
WIRE
 66
1
 10
0.0
 20
0.0
 30
0.0
 0
VERTEX
 8
WIRE
 10
 17.4000
 20
 11.6000
 30
0.0
 0
VERTEX
 8
WIRE
 10
 17.2000
 20
 11.6000
 30
0.0
 0
SEQEND
 8
WIRE
 0
POLYLINE
 8
WIRE
 66
1
 10
0.0
 20
0.0
 30
0.0
 0
VERTEX
 8
WIRE
 10
 18.4000
 20
 11.6000
 30
0.0
 0
VERTEX
 8
WIRE
 10
 18.0000
 20
 11.6000
 30
0.0
 0
SEQEND
 8
WIRE
 0
TEXT
 8
WIRETEXT
 10
 18.1000
 20
 11.6300
 30
0.0
 40
  0.0514
 1
RF_OUT
 0
POLYLINE
 8
WIRE
 66
1
 10
0.0
 20
0.0
 30
0.0
 0
VERTEX
 8
WIRE
 10
 19.2000
 20
 13.3000
 30
0.0
 0
VERTEX
 8
WIRE
 10
 19.2000
 20
 14.3000
 30
0.0
 0
SEQEND
 8
WIRE
 0
POLYLINE
 8
WIRE
 66
1
 10
0.0
 20
0.0
 30
0.0
 0
VERTEX
 8
WIRE
 10
  6.9000
 20
  4.1000
 30
0.0
 0
VERTEX
 8
WIRE
 10
  6.4000
 20
  4.1000
 30
0.0
 0
SEQEND
 8
WIRE
 0
POLYLINE
 8
WIRE
 66
1
 10
0.0
 20
0.0
 30
0.0
 0
VERTEX
 8
WIRE
 10
  5.3000
 20
  4.1000
 30
0.0
 0
VERTEX
 8
WIRE
 10
  4.0000
 20
  4.1000
 30
0.0
 0
SEQEND
 8
WIRE
 0
TEXT
 8
WIRETEXT
 10
  4.5000
 20
  4.1300
 30
0.0
 40
  0.0514
 1
+12V
 0
POLYLINE
 8
WIRE
 66
1
 10
0.0
 20
0.0
 30
0.0
 0
VERTEX
 8
WIRE
 10
  7.3000
 20
  3.9000
 30
0.0
 0
VERTEX
 8
WIRE
 10
  6.9000
 20
  3.9000
 30
0.0
 0
SEQEND
 8
WIRE
 0
POLYLINE
 8
WIRE
 66
1
 10
0.0
 20
0.0
 30
0.0
 0
VERTEX
 8
WIRE
 10
  6.9000
 20
  3.9000
 30
0.0
 0
VERTEX
 8
WIRE
 10
  6.9000
 20
  4.1000
 30
0.0
 0
SEQEND
 8
WIRE
 0
POLYLINE
 8
WIRE
 66
1
 10
0.0
 20
0.0
 30
0.0
 0
VERTEX
 8
WIRE
 10
  7.3000
 20
  4.1000
 30
0.0
 0
VERTEX
 8
WIRE
 10
  6.9000
 20
  4.1000
 30
0.0
 0
SEQEND
 8
WIRE
 0
POLYLINE
 8
WIRE
 66
1
 70
1
 10
0.0
 20
0.0
 30
0.0
 40
  0.0200
 41
  0.0200
 0
VERTEX
 8
WIRE
 10
  6.8900
 20
  4.1000
 30
0.0
 42
1.0
 0
VERTEX
 8
WIRE
 10
  6.9100
 20
  4.1000
 30
0.0
 42
1.0
 0
SEQEND
 8
WIRE
 0
POLYLINE
 8
WIRE
 66
1
 10
0.0
 20
0.0
 30
0.0
 0
VERTEX
 8
WIRE
 10
  6.9000
 20
  3.7000
 30
0.0
 0
VERTEX
 8
WIRE
 10
  6.9000
 20
  3.9000
 30
0.0
 0
SEQEND
 8
WIRE
 0
POLYLINE
 8
WIRE
 66
1
 70
1
 10
0.0
 20
0.0
 30
0.0
 40
  0.0200
 41
  0.0200
 0
VERTEX
 8
WIRE
 10
  6.8900
 20
  3.9000
 30
0.0
 42
1.0
 0
VERTEX
 8
WIRE
 10
  6.9100
 20
  3.9000
 30
0.0
 42
1.0
 0
SEQEND
 8
WIRE
 0
POLYLINE
 8
WIRE
 66
1
 10
0.0
 20
0.0
 30
0.0
 0
VERTEX
 8
WIRE
 10
  6.9000
 20
  2.8000
 30
0.0
 0
VERTEX
 8
WIRE
 10
  6.9000
 20
  3.1000
 30
0.0
 0
SEQEND
 8
WIRE
 0
POLYLINE
 8
WIRE
 66
1
 10
0.0
 20
0.0
 30
0.0
 0
VERTEX
 8
WIRE
 10
  7.3000
 20
  2.8000
 30
0.0
 0
VERTEX
 8
WIRE
 10
  7.3000
 20
  3.7000
 30
0.0
 0
SEQEND
 8
WIRE
 0
POLYLINE
 8
WIRE
 66
1
 10
0.0
 20
0.0
 30
0.0
 0
VERTEX
 8
WIRE
 10
  8.5000
 20
  4.1000
 30
0.0
 0
VERTEX
 8
WIRE
 10
  8.1000
 20
  4.1000
 30
0.0
 0
SEQEND
 8
WIRE
 0
POLYLINE
 8
WIRE
 66
1
 10
0.0
 20
0.0
 30
0.0
 0
VERTEX
 8
WIRE
 10
  9.5000
 20
  3.9000
 30
0.0
 0
VERTEX
 8
WIRE
 10
  8.1000
 20
  3.9000
 30
0.0
 0
SEQEND
 8
WIRE
 0
POLYLINE
 8
WIRE
 66
1
 10
0.0
 20
0.0
 30
0.0
 0
VERTEX
 8
WIRE
 10
  8.5000
 20
  3.7000
 30
0.0
 0
VERTEX
 8
WIRE
 10
  8.1000
 20
  3.7000
 30
0.0
 0
SEQEND
 8
WIRE
 0
POLYLINE
 8
WIRE
 66
1
 10
0.0
 20
0.0
 30
0.0
 0
VERTEX
 8
WIRE
 10
  9.5000
 20
  3.7000
 30
0.0
 0
VERTEX
 8
WIRE
 10
  9.1000
 20
  3.7000
 30
0.0
 0
SEQEND
 8
WIRE
 0
POLYLINE
 8
WIRE
 66
1
 10
0.0
 20
0.0
 30
0.0
 0
VERTEX
 8
WIRE
 10
  9.5000
 20
  4.1000
 30
0.0
 0
VERTEX
 8
WIRE
 10
  9.1000
 20
  4.1000
 30
0.0
 0
SEQEND
 8
WIRE
 0
POLYLINE
 8
WIRE
 66
1
 10
0.0
 20
0.0
 30
0.0
 0
VERTEX
 8
WIRE
 10
  9.5000
 20
  3.9000
 30
0.0
 0
VERTEX
 8
WIRE
 10
  9.5000
 20
  4.1000
 30
0.0
 0
SEQEND
 8
WIRE
 0
POLYLINE
 8
WIRE
 66
1
 10
0.0
 20
0.0
 30
0.0
 0
VERTEX
 8
WIRE
 10
  9.5000
 20
  3.7000
 30
0.0
 0
VERTEX
 8
WIRE
 10
  9.5000
 20
  3.9000
 30
0.0
 0
SEQEND
 8
WIRE
 0
POLYLINE
 8
WIRE
 66
1
 70
1
 10
0.0
 20
0.0
 30
0.0
 40
  0.0200
 41
  0.0200
 0
VERTEX
 8
WIRE
 10
  9.4900
 20
  3.9000
 30
0.0
 42
1.0
 0
VERTEX
 8
WIRE
 10
  9.5100
 20
  3.9000
 30
0.0
 42
1.0
 0
SEQEND
 8
WIRE
 0
POLYLINE
 8
WIRE
 66
1
 10
0.0
 20
0.0
 30
0.0
 0
VERTEX
 8
WIRE
 10
  9.9000
 20
  3.9000
 30
0.0
 0
VERTEX
 8
WIRE
 10
  9.5000
 20
  3.9000
 30
0.0
 0
SEQEND
 8
WIRE
 0
POLYLINE
 8
WIRE
 66
1
 10
0.0
 20
0.0
 30
0.0
 0
VERTEX
 8
WIRE
 10
 11.0000
 20
  3.9000
 30
0.0
 0
VERTEX
 8
WIRE
 10
  9.9000
 20
  3.9000
 30
0.0
 0
SEQEND
 8
WIRE
 0
POLYLINE
 8
WIRE
 66
1
 70
1
 10
0.0
 20
0.0
 30
0.0
 40
  0.0200
 41
  0.0200
 0
VERTEX
 8
WIRE
 10
  9.8900
 20
  3.9000
 30
0.0
 42
1.0
 0
VERTEX
 8
WIRE
 10
  9.9100
 20
  3.9000
 30
0.0
 42
1.0
 0
SEQEND
 8
WIRE
 0
POLYLINE
 8
WIRE
 66
1
 10
0.0
 20
0.0
 30
0.0
 0
VERTEX
 8
WIRE
 10
  6.9000
 20
  1.6000
 30
0.0
 0
VERTEX
 8
WIRE
 10
  5.3000
 20
  1.6000
 30
0.0
 0
SEQEND
 8
WIRE
 0
POLYLINE
 8
WIRE
 66
1
 70
1
 10
0.0
 20
0.0
 30
0.0
 40
  0.0200
 41
  0.0200
 0
VERTEX
 8
WIRE
 10
  6.8900
 20
  1.6000
 30
0.0
 42
1.0
 0
VERTEX
 8
WIRE
 10
  6.9100
 20
  1.6000
 30
0.0
 42
1.0
 0
SEQEND
 8
WIRE
 0
POLYLINE
 8
WIRE
 66
1
 10
0.0
 20
0.0
 30
0.0
 0
VERTEX
 8
WIRE
 10
  7.3000
 20
  1.4000
 30
0.0
 0
VERTEX
 8
WIRE
 10
  6.9000
 20
  1.4000
 30
0.0
 0
SEQEND
 8
WIRE
 0
POLYLINE
 8
WIRE
 66
1
 10
0.0
 20
0.0
 30
0.0
 0
VERTEX
 8
WIRE
 10
  6.9000
 20
  1.4000
 30
0.0
 0
VERTEX
 8
WIRE
 10
  6.9000
 20
  1.6000
 30
0.0
 0
SEQEND
 8
WIRE
 0
POLYLINE
 8
WIRE
 66
1
 10
0.0
 20
0.0
 30
0.0
 0
VERTEX
 8
WIRE
 10
  7.3000
 20
  1.6000
 30
0.0
 0
VERTEX
 8
WIRE
 10
  6.9000
 20
  1.6000
 30
0.0
 0
SEQEND
 8
WIRE
 0
POLYLINE
 8
WIRE
 66
1
 10
0.0
 20
0.0
 30
0.0
 0
VERTEX
 8
WIRE
 10
  6.9000
 20
  1.1000
 30
0.0
 0
VERTEX
 8
WIRE
 10
  6.9000
 20
  1.4000
 30
0.0
 0
SEQEND
 8
WIRE
 0
POLYLINE
 8
WIRE
 66
1
 70
1
 10
0.0
 20
0.0
 30
0.0
 40
  0.0200
 41
  0.0200
 0
VERTEX
 8
WIRE
 10
  6.8900
 20
  1.4000
 30
0.0
 42
1.0
 0
VERTEX
 8
WIRE
 10
  6.9100
 20
  1.4000
 30
0.0
 42
1.0
 0
SEQEND
 8
WIRE
 0
POLYLINE
 8
WIRE
 66
1
 10
0.0
 20
0.0
 30
0.0
 0
VERTEX
 8
WIRE
 10
  6.9000
 20
  0.3000
 30
0.0
 0
VERTEX
 8
WIRE
 10
  6.9000
 20
  0.5000
 30
0.0
 0
SEQEND
 8
WIRE
 0
POLYLINE
 8
WIRE
 66
1
 10
0.0
 20
0.0
 30
0.0
 0
VERTEX
 8
WIRE
 10
  3.2000
 20
  9.3000
 30
0.0
 0
VERTEX
 8
WIRE
 10
  2.7000
 20
  9.3000
 30
0.0
 0
SEQEND
 8
WIRE
 0
TEXT
 8
WIRETEXT
 10
  2.8000
 20
  9.3300
 30
0.0
 40
  0.0514
 1
CLK
 0
POLYLINE
 8
WIRE
 66
1
 10
0.0
 20
0.0
 30
0.0
 0
VERTEX
 8
WIRE
 10
  3.2000
 20
  9.2000
 30
0.0
 0
VERTEX
 8
WIRE
 10
  2.7000
 20
  9.2000
 30
0.0
 0
SEQEND
 8
WIRE
 0
TEXT
 8
WIRETEXT
 10
  2.8000
 20
  9.2300
 30
0.0
 40
  0.0514
 1
DATA
 0
POLYLINE
 8
WIRE
 66
1
 10
0.0
 20
0.0
 30
0.0
 0
VERTEX
 8
WIRE
 10
  3.2000
 20
  9.1000
 30
0.0
 0
VERTEX
 8
WIRE
 10
  2.7000
 20
  9.1000
 30
0.0
 0
SEQEND
 8
WIRE
 0
TEXT
 8
WIRETEXT
 10
  2.8000
 20
  9.1300
 30
0.0
 40
  0.0514
 1
LE
 0
POLYLINE
 8
WIRE
 66
1
 10
0.0
 20
0.0
 30
0.0
 0
VERTEX
 8
WIRE
 10
  3.2000
 20
  9.0000
 30
0.0
 0
VERTEX
 8
WIRE
 10
  2.7000
 20
  9.0000
 30
0.0
 0
SEQEND
 8
WIRE
 0
TEXT
 8
WIRETEXT
 10
  2.8000
 20
  9.0300
 30
0.0
 40
  0.0514
 1
TXDATA
 0
POLYLINE
 8
WIRE
 66
1
 10
0.0
 20
0.0
 30
0.0
 0
VERTEX
 8
WIRE
 10
  3.2000
 20
  8.9000
 30
0.0
 0
VERTEX
 8
WIRE
 10
  2.7000
 20
  8.9000
 30
0.0
 0
SEQEND
 8
WIRE
 0
TEXT
 8
WIRETEXT
 10
  2.8000
 20
  8.9300
 30
0.0
 40
  0.0514
 1
MUXOUT
 0
POLYLINE
 8
WIRE
 66
1
 10
0.0
 20
0.0
 30
0.0
 0
VERTEX
 8
WIRE
 10
  3.2000
 20
  8.8000
 30
0.0
 0
VERTEX
 8
WIRE
 10
  2.7000
 20
  8.8000
 30
0.0
 0
SEQEND
 8
WIRE
 0
TEXT
 8
WIRETEXT
 10
  2.8000
 20
  8.8300
 30
0.0
 40
  0.0514
 1
VDD
 0
POLYLINE
 8
WIRE
 66
1
 10
0.0
 20
0.0
 30
0.0
 0
VERTEX
 8
WIRE
 10
  5.3000
 20
  1.6000
 30
0.0
 0
VERTEX
 8
WIRE
 10
  5.3000
 20
  4.1000
 30
0.0
 0
SEQEND
 8
WIRE
 0
POLYLINE
 8
WIRE
 66
1
 70
1
 10
0.0
 20
0.0
 30
0.0
 40
  0.0200
 41
  0.0200
 0
VERTEX
 8
WIRE
 10
  5.2900
 20
  4.1000
 30
0.0
 42
1.0
 0
VERTEX
 8
WIRE
 10
  5.3100
 20
  4.1000
 30
0.0
 42
1.0
 0
SEQEND
 8
WIRE
 0
POLYLINE
 8
WIRE
 66
1
 10
0.0
 20
0.0
 30
0.0
 0
VERTEX
 8
WIRE
 10
  5.8000
 20
  4.1000
 30
0.0
 0
VERTEX
 8
WIRE
 10
  5.3000
 20
  4.1000
 30
0.0
 0
SEQEND
 8
WIRE
 0
POLYLINE
 8
WIRE
 66
1
 10
0.0
 20
0.0
 30
0.0
 0
VERTEX
 8
WIRE
 10
 10.2000
 20
 12.4000
 30
0.0
 0
VERTEX
 8
WIRE
 10
 10.0000
 20
 12.4000
 30
0.0
 0
SEQEND
 8
WIRE
 0
POLYLINE
 8
PARTS
 66
1
 10
0.0
 20
0.0
 30
0.0
 0
VERTEX
 8
PARTS
 10
  7.2000
 20
  0.3000
 30
0.0
 0
VERTEX
 8
PARTS
 10
  7.4000
 20
  0.3000
 30
0.0
 0
SEQEND
 8
PARTS
 0
POLYLINE
 8
PARTS
 66
1
 10
0.0
 20
0.0
 30
0.0
 0
VERTEX
 8
PARTS
 10
  7.2300
 20
  0.2700
 30
0.0
 0
VERTEX
 8
PARTS
 10
  7.3700
 20
  0.2700
 30
0.0
 0
SEQEND
 8
PARTS
 0
POLYLINE
 8
PARTS
 66
1
 10
0.0
 20
0.0
 30
0.0
 0
VERTEX
 8
PARTS
 10
  7.3400
 20
  0.2400
 30
0.0
 0
VERTEX
 8
PARTS
 10
  7.2600
 20
  0.2400
 30
0.0
 0
SEQEND
 8
PARTS
 0
POLYLINE
 8
PARTS
 66
1
 10
0.0
 20
0.0
 30
0.0
 0
VERTEX
 8
PARTS
 10
  7.2900
 20
  0.2100
 30
0.0
 0
VERTEX
 8
PARTS
 10
  7.3100
 20
  0.2100
 30
0.0
 0
SEQEND
 8
PARTS
 0
POLYLINE
 8
PARTS
 66
1
 10
0.0
 20
0.0
 30
0.0
 0
VERTEX
 8
PARTS
 10
 17.9000
 20
 12.3000
 30
0.0
 0
VERTEX
 8
PARTS
 10
 18.1000
 20
 12.3000
 30
0.0
 0
SEQEND
 8
PARTS
 0
POLYLINE
 8
PARTS
 66
1
 10
0.0
 20
0.0
 30
0.0
 0
VERTEX
 8
PARTS
 10
 17.9300
 20
 12.2700
 30
0.0
 0
VERTEX
 8
PARTS
 10
 18.0700
 20
 12.2700
 30
0.0
 0
SEQEND
 8
PARTS
 0
POLYLINE
 8
PARTS
 66
1
 10
0.0
 20
0.0
 30
0.0
 0
VERTEX
 8
PARTS
 10
 18.0400
 20
 12.2400
 30
0.0
 0
VERTEX
 8
PARTS
 10
 17.9600
 20
 12.2400
 30
0.0
 0
SEQEND
 8
PARTS
 0
POLYLINE
 8
PARTS
 66
1
 10
0.0
 20
0.0
 30
0.0
 0
VERTEX
 8
PARTS
 10
 17.9900
 20
 12.2100
 30
0.0
 0
VERTEX
 8
PARTS
 10
 18.0100
 20
 12.2100
 30
0.0
 0
SEQEND
 8
PARTS
 0
POLYLINE
 8
PARTS
 66
1
 10
0.0
 20
0.0
 30
0.0
 0
VERTEX
 8
PARTS
 10
 15.4000
 20
 11.6000
 30
0.0
 0
VERTEX
 8
PARTS
 10
 15.6000
 20
 11.6000
 30
0.0
 0
SEQEND
 8
PARTS
 0
POLYLINE
 8
PARTS
 66
1
 10
0.0
 20
0.0
 30
0.0
 0
VERTEX
 8
PARTS
 10
 15.4300
 20
 11.5700
 30
0.0
 0
VERTEX
 8
PARTS
 10
 15.5700
 20
 11.5700
 30
0.0
 0
SEQEND
 8
PARTS
 0
POLYLINE
 8
PARTS
 66
1
 10
0.0
 20
0.0
 30
0.0
 0
VERTEX
 8
PARTS
 10
 15.5400
 20
 11.5400
 30
0.0
 0
VERTEX
 8
PARTS
 10
 15.4600
 20
 11.5400
 30
0.0
 0
SEQEND
 8
PARTS
 0
POLYLINE
 8
PARTS
 66
1
 10
0.0
 20
0.0
 30
0.0
 0
VERTEX
 8
PARTS
 10
 15.4900
 20
 11.5100
 30
0.0
 0
VERTEX
 8
PARTS
 10
 15.5100
 20
 11.5100
 30
0.0
 0
SEQEND
 8
PARTS
 0
POLYLINE
 8
PARTS
 66
1
 10
0.0
 20
0.0
 30
0.0
 0
VERTEX
 8
PARTS
 10
 11.1000
 20
 11.9000
 30
0.0
 0
VERTEX
 8
PARTS
 10
 11.3000
 20
 11.9000
 30
0.0
 0
SEQEND
 8
PARTS
 0
POLYLINE
 8
PARTS
 66
1
 10
0.0
 20
0.0
 30
0.0
 0
VERTEX
 8
PARTS
 10
 11.1300
 20
 11.8700
 30
0.0
 0
VERTEX
 8
PARTS
 10
 11.2700
 20
 11.8700
 30
0.0
 0
SEQEND
 8
PARTS
 0
POLYLINE
 8
PARTS
 66
1
 10
0.0
 20
0.0
 30
0.0
 0
VERTEX
 8
PARTS
 10
 11.2400
 20
 11.8400
 30
0.0
 0
VERTEX
 8
PARTS
 10
 11.1600
 20
 11.8400
 30
0.0
 0
SEQEND
 8
PARTS
 0
POLYLINE
 8
PARTS
 66
1
 10
0.0
 20
0.0
 30
0.0
 0
VERTEX
 8
PARTS
 10
 11.1900
 20
 11.8100
 30
0.0
 0
VERTEX
 8
PARTS
 10
 11.2100
 20
 11.8100
 30
0.0
 0
SEQEND
 8
PARTS
 0
POLYLINE
 8
PARTS
 66
1
 10
0.0
 20
0.0
 30
0.0
 0
VERTEX
 8
PARTS
 10
 19.8000
 20
 12.8000
 30
0.0
 0
VERTEX
 8
PARTS
 10
 19.8000
 20
 13.0000
 30
0.0
 0
SEQEND
 8
PARTS
 0
POLYLINE
 8
PARTS
 66
1
 10
0.0
 20
0.0
 30
0.0
 0
VERTEX
 8
PARTS
 10
 19.8300
 20
 12.8300
 30
0.0
 0
VERTEX
 8
PARTS
 10
 19.8300
 20
 12.9700
 30
0.0
 0
SEQEND
 8
PARTS
 0
POLYLINE
 8
PARTS
 66
1
 10
0.0
 20
0.0
 30
0.0
 0
VERTEX
 8
PARTS
 10
 19.8600
 20
 12.9400
 30
0.0
 0
VERTEX
 8
PARTS
 10
 19.8600
 20
 12.8600
 30
0.0
 0
SEQEND
 8
PARTS
 0
POLYLINE
 8
PARTS
 66
1
 10
0.0
 20
0.0
 30
0.0
 0
VERTEX
 8
PARTS
 10
 19.8900
 20
 12.8900
 30
0.0
 0
VERTEX
 8
PARTS
 10
 19.8900
 20
 12.9100
 30
0.0
 0
SEQEND
 8
PARTS
 0
POLYLINE
 8
PARTS
 66
1
 10
0.0
 20
0.0
 30
0.0
 0
VERTEX
 8
PARTS
 10
  9.5000
 20
 13.6000
 30
0.0
 0
VERTEX
 8
PARTS
 10
  9.5000
 20
 13.8000
 30
0.0
 0
SEQEND
 8
PARTS
 0
POLYLINE
 8
PARTS
 66
1
 10
0.0
 20
0.0
 30
0.0
 0
VERTEX
 8
PARTS
 10
  9.5300
 20
 13.6300
 30
0.0
 0
VERTEX
 8
PARTS
 10
  9.5300
 20
 13.7700
 30
0.0
 0
SEQEND
 8
PARTS
 0
POLYLINE
 8
PARTS
 66
1
 10
0.0
 20
0.0
 30
0.0
 0
VERTEX
 8
PARTS
 10
  9.5600
 20
 13.7400
 30
0.0
 0
VERTEX
 8
PARTS
 10
  9.5600
 20
 13.6600
 30
0.0
 0
SEQEND
 8
PARTS
 0
POLYLINE
 8
PARTS
 66
1
 10
0.0
 20
0.0
 30
0.0
 0
VERTEX
 8
PARTS
 10
  9.5900
 20
 13.6900
 30
0.0
 0
VERTEX
 8
PARTS
 10
  9.5900
 20
 13.7100
 30
0.0
 0
SEQEND
 8
PARTS
 0
POLYLINE
 8
PARTS
 66
1
 10
0.0
 20
0.0
 30
0.0
 0
VERTEX
 8
PARTS
 10
  9.8000
 20
 12.7000
 30
0.0
 0
VERTEX
 8
PARTS
 10
  9.8000
 20
 12.9000
 30
0.0
 0
SEQEND
 8
PARTS
 0
POLYLINE
 8
PARTS
 66
1
 10
0.0
 20
0.0
 30
0.0
 0
VERTEX
 8
PARTS
 10
  9.8300
 20
 12.7300
 30
0.0
 0
VERTEX
 8
PARTS
 10
  9.8300
 20
 12.8700
 30
0.0
 0
SEQEND
 8
PARTS
 0
POLYLINE
 8
PARTS
 66
1
 10
0.0
 20
0.0
 30
0.0
 0
VERTEX
 8
PARTS
 10
  9.8600
 20
 12.8400
 30
0.0
 0
VERTEX
 8
PARTS
 10
  9.8600
 20
 12.7600
 30
0.0
 0
SEQEND
 8
PARTS
 0
POLYLINE
 8
PARTS
 66
1
 10
0.0
 20
0.0
 30
0.0
 0
VERTEX
 8
PARTS
 10
  9.8900
 20
 12.7900
 30
0.0
 0
VERTEX
 8
PARTS
 10
  9.8900
 20
 12.8100
 30
0.0
 0
SEQEND
 8
PARTS
 0
POLYLINE
 8
PARTS
 66
1
 10
0.0
 20
0.0
 30
0.0
 0
VERTEX
 8
PARTS
 10
  8.0000
 20
 11.5000
 30
0.0
 0
VERTEX
 8
PARTS
 10
  8.2000
 20
 11.5000
 30
0.0
 0
SEQEND
 8
PARTS
 0
POLYLINE
 8
PARTS
 66
1
 10
0.0
 20
0.0
 30
0.0
 0
VERTEX
 8
PARTS
 10
  8.0300
 20
 11.4700
 30
0.0
 0
VERTEX
 8
PARTS
 10
  8.1700
 20
 11.4700
 30
0.0
 0
SEQEND
 8
PARTS
 0
POLYLINE
 8
PARTS
 66
1
 10
0.0
 20
0.0
 30
0.0
 0
VERTEX
 8
PARTS
 10
  8.1400
 20
 11.4400
 30
0.0
 0
VERTEX
 8
PARTS
 10
  8.0600
 20
 11.4400
 30
0.0
 0
SEQEND
 8
PARTS
 0
POLYLINE
 8
PARTS
 66
1
 10
0.0
 20
0.0
 30
0.0
 0
VERTEX
 8
PARTS
 10
  8.0900
 20
 11.4100
 30
0.0
 0
VERTEX
 8
PARTS
 10
  8.1100
 20
 11.4100
 30
0.0
 0
SEQEND
 8
PARTS
 0
POLYLINE
 8
PARTS
 66
1
 10
0.0
 20
0.0
 30
0.0
 0
VERTEX
 8
PARTS
 10
 12.7000
 20
 10.8000
 30
0.0
 0
VERTEX
 8
PARTS
 10
 12.9000
 20
 10.8000
 30
0.0
 0
SEQEND
 8
PARTS
 0
POLYLINE
 8
PARTS
 66
1
 10
0.0
 20
0.0
 30
0.0
 0
VERTEX
 8
PARTS
 10
 12.7300
 20
 10.7700
 30
0.0
 0
VERTEX
 8
PARTS
 10
 12.8700
 20
 10.7700
 30
0.0
 0
SEQEND
 8
PARTS
 0
POLYLINE
 8
PARTS
 66
1
 10
0.0
 20
0.0
 30
0.0
 0
VERTEX
 8
PARTS
 10
 12.8400
 20
 10.7400
 30
0.0
 0
VERTEX
 8
PARTS
 10
 12.7600
 20
 10.7400
 30
0.0
 0
SEQEND
 8
PARTS
 0
POLYLINE
 8
PARTS
 66
1
 10
0.0
 20
0.0
 30
0.0
 0
VERTEX
 8
PARTS
 10
 12.7900
 20
 10.7100
 30
0.0
 0
VERTEX
 8
PARTS
 10
 12.8100
 20
 10.7100
 30
0.0
 0
SEQEND
 8
PARTS
 0
TEXT
 8
PARTTEXT
 10
 11.9000
 20
 11.9186
 30
0.0
 40
  0.0514
 1
+5V
 0
POLYLINE
 8
PARTS
 66
1
 10
0.0
 20
0.0
 30
0.0
 0
VERTEX
 8
PARTS
 10
 12.0000
 20
 11.9000
 30
0.0
 0
VERTEX
 8
PARTS
 10
 12.0000
 20
 11.8000
 30
0.0
 0
SEQEND
 8
PARTS
 0
POLYLINE
 8
PARTS
 66
1
 10
0.0
 20
0.0
 30
0.0
 0
VERTEX
 8
PARTS
 10
 11.9500
 20
 11.9000
 30
0.0
 0
VERTEX
 8
PARTS
 10
 12.0500
 20
 11.9000
 30
0.0
 0
SEQEND
 8
PARTS
 0
POLYLINE
 8
PARTS
 66
1
 10
0.0
 20
0.0
 30
0.0
 0
VERTEX
 8
PARTS
 10
  9.8000
 20
  0.8000
 30
0.0
 0
VERTEX
 8
PARTS
 10
 10.0000
 20
  0.8000
 30
0.0
 0
SEQEND
 8
PARTS
 0
POLYLINE
 8
PARTS
 66
1
 10
0.0
 20
0.0
 30
0.0
 0
VERTEX
 8
PARTS
 10
  9.8300
 20
  0.7700
 30
0.0
 0
VERTEX
 8
PARTS
 10
  9.9700
 20
  0.7700
 30
0.0
 0
SEQEND
 8
PARTS
 0
POLYLINE
 8
PARTS
 66
1
 10
0.0
 20
0.0
 30
0.0
 0
VERTEX
 8
PARTS
 10
  9.9400
 20
  0.7400
 30
0.0
 0
VERTEX
 8
PARTS
 10
  9.8600
 20
  0.7400
 30
0.0
 0
SEQEND
 8
PARTS
 0
POLYLINE
 8
PARTS
 66
1
 10
0.0
 20
0.0
 30
0.0
 0
VERTEX
 8
PARTS
 10
  9.8900
 20
  0.7100
 30
0.0
 0
VERTEX
 8
PARTS
 10
  9.9100
 20
  0.7100
 30
0.0
 0
SEQEND
 8
PARTS
 0
TEXT
 8
PARTTEXT
 10
 17.3000
 20
 14.0186
 30
0.0
 40
  0.0514
 1
+5V
 0
POLYLINE
 8
PARTS
 66
1
 10
0.0
 20
0.0
 30
0.0
 0
VERTEX
 8
PARTS
 10
 17.4000
 20
 14.0000
 30
0.0
 0
VERTEX
 8
PARTS
 10
 17.4000
 20
 13.9000
 30
0.0
 0
SEQEND
 8
PARTS
 0
POLYLINE
 8
PARTS
 66
1
 10
0.0
 20
0.0
 30
0.0
 0
VERTEX
 8
PARTS
 10
 17.3500
 20
 14.0000
 30
0.0
 0
VERTEX
 8
PARTS
 10
 17.4500
 20
 14.0000
 30
0.0
 0
SEQEND
 8
PARTS
 0
POLYLINE
 8
PARTS
 66
1
 10
0.0
 20
0.0
 30
0.0
 0
VERTEX
 8
PARTS
 10
  9.8000
 20
  3.3000
 30
0.0
 0
VERTEX
 8
PARTS
 10
 10.0000
 20
  3.3000
 30
0.0
 0
SEQEND
 8
PARTS
 0
POLYLINE
 8
PARTS
 66
1
 10
0.0
 20
0.0
 30
0.0
 0
VERTEX
 8
PARTS
 10
  9.8300
 20
  3.2700
 30
0.0
 0
VERTEX
 8
PARTS
 10
  9.9700
 20
  3.2700
 30
0.0
 0
SEQEND
 8
PARTS
 0
POLYLINE
 8
PARTS
 66
1
 10
0.0
 20
0.0
 30
0.0
 0
VERTEX
 8
PARTS
 10
  9.9400
 20
  3.2400
 30
0.0
 0
VERTEX
 8
PARTS
 10
  9.8600
 20
  3.2400
 30
0.0
 0
SEQEND
 8
PARTS
 0
POLYLINE
 8
PARTS
 66
1
 10
0.0
 20
0.0
 30
0.0
 0
VERTEX
 8
PARTS
 10
  9.8900
 20
  3.2100
 30
0.0
 0
VERTEX
 8
PARTS
 10
  9.9100
 20
  3.2100
 30
0.0
 0
SEQEND
 8
PARTS
 0
POLYLINE
 8
PARTS
 66
1
 10
0.0
 20
0.0
 30
0.0
 0
VERTEX
 8
PARTS
 10
 11.5000
 20
 11.9000
 30
0.0
 0
VERTEX
 8
PARTS
 10
 11.7000
 20
 11.9000
 30
0.0
 0
SEQEND
 8
PARTS
 0
POLYLINE
 8
PARTS
 66
1
 10
0.0
 20
0.0
 30
0.0
 0
VERTEX
 8
PARTS
 10
 11.5300
 20
 11.8700
 30
0.0
 0
VERTEX
 8
PARTS
 10
 11.6700
 20
 11.8700
 30
0.0
 0
SEQEND
 8
PARTS
 0
POLYLINE
 8
PARTS
 66
1
 10
0.0
 20
0.0
 30
0.0
 0
VERTEX
 8
PARTS
 10
 11.6400
 20
 11.8400
 30
0.0
 0
VERTEX
 8
PARTS
 10
 11.5600
 20
 11.8400
 30
0.0
 0
SEQEND
 8
PARTS
 0
POLYLINE
 8
PARTS
 66
1
 10
0.0
 20
0.0
 30
0.0
 0
VERTEX
 8
PARTS
 10
 11.5900
 20
 11.8100
 30
0.0
 0
VERTEX
 8
PARTS
 10
 11.6100
 20
 11.8100
 30
0.0
 0
SEQEND
 8
PARTS
 0
POLYLINE
 8
PARTS
 66
1
 10
0.0
 20
0.0
 30
0.0
 0
VERTEX
 8
PARTS
 10
 13.2000
 20
 11.6000
 30
0.0
 0
VERTEX
 8
PARTS
 10
 13.4000
 20
 11.6000
 30
0.0
 0
SEQEND
 8
PARTS
 0
POLYLINE
 8
PARTS
 66
1
 10
0.0
 20
0.0
 30
0.0
 0
VERTEX
 8
PARTS
 10
 13.2300
 20
 11.5700
 30
0.0
 0
VERTEX
 8
PARTS
 10
 13.3700
 20
 11.5700
 30
0.0
 0
SEQEND
 8
PARTS
 0
POLYLINE
 8
PARTS
 66
1
 10
0.0
 20
0.0
 30
0.0
 0
VERTEX
 8
PARTS
 10
 13.3400
 20
 11.5400
 30
0.0
 0
VERTEX
 8
PARTS
 10
 13.2600
 20
 11.5400
 30
0.0
 0
SEQEND
 8
PARTS
 0
POLYLINE
 8
PARTS
 66
1
 10
0.0
 20
0.0
 30
0.0
 0
VERTEX
 8
PARTS
 10
 13.2900
 20
 11.5100
 30
0.0
 0
VERTEX
 8
PARTS
 10
 13.3100
 20
 11.5100
 30
0.0
 0
SEQEND
 8
PARTS
 0
POLYLINE
 8
PARTS
 66
1
 10
0.0
 20
0.0
 30
0.0
 0
VERTEX
 8
PARTS
 10
 15.0000
 20
 12.2000
 30
0.0
 0
VERTEX
 8
PARTS
 10
 15.2000
 20
 12.2000
 30
0.0
 0
SEQEND
 8
PARTS
 0
POLYLINE
 8
PARTS
 66
1
 10
0.0
 20
0.0
 30
0.0
 0
VERTEX
 8
PARTS
 10
 15.0300
 20
 12.1700
 30
0.0
 0
VERTEX
 8
PARTS
 10
 15.1700
 20
 12.1700
 30
0.0
 0
SEQEND
 8
PARTS
 0
POLYLINE
 8
PARTS
 66
1
 10
0.0
 20
0.0
 30
0.0
 0
VERTEX
 8
PARTS
 10
 15.1400
 20
 12.1400
 30
0.0
 0
VERTEX
 8
PARTS
 10
 15.0600
 20
 12.1400
 30
0.0
 0
SEQEND
 8
PARTS
 0
POLYLINE
 8
PARTS
 66
1
 10
0.0
 20
0.0
 30
0.0
 0
VERTEX
 8
PARTS
 10
 15.0900
 20
 12.1100
 30
0.0
 0
VERTEX
 8
PARTS
 10
 15.1100
 20
 12.1100
 30
0.0
 0
SEQEND
 8
PARTS
 0
POLYLINE
 8
PARTS
 66
1
 10
0.0
 20
0.0
 30
0.0
 0
VERTEX
 8
PARTS
 10
 11.4000
 20
  7.5000
 30
0.0
 0
VERTEX
 8
PARTS
 10
 11.2000
 20
  7.5000
 30
0.0
 0
SEQEND
 8
PARTS
 0
POLYLINE
 8
PARTS
 66
1
 10
0.0
 20
0.0
 30
0.0
 0
VERTEX
 8
PARTS
 10
 11.3700
 20
  7.5300
 30
0.0
 0
VERTEX
 8
PARTS
 10
 11.2300
 20
  7.5300
 30
0.0
 0
SEQEND
 8
PARTS
 0
POLYLINE
 8
PARTS
 66
1
 10
0.0
 20
0.0
 30
0.0
 0
VERTEX
 8
PARTS
 10
 11.2600
 20
  7.5600
 30
0.0
 0
VERTEX
 8
PARTS
 10
 11.3400
 20
  7.5600
 30
0.0
 0
SEQEND
 8
PARTS
 0
POLYLINE
 8
PARTS
 66
1
 10
0.0
 20
0.0
 30
0.0
 0
VERTEX
 8
PARTS
 10
 11.3100
 20
  7.5900
 30
0.0
 0
VERTEX
 8
PARTS
 10
 11.2900
 20
  7.5900
 30
0.0
 0
SEQEND
 8
PARTS
 0
POLYLINE
 8
PARTS
 66
1
 10
0.0
 20
0.0
 30
0.0
 0
VERTEX
 8
PARTS
 10
 11.2000
 20
  7.3000
 30
0.0
 0
VERTEX
 8
PARTS
 10
 11.4000
 20
  7.3000
 30
0.0
 0
SEQEND
 8
PARTS
 0
POLYLINE
 8
PARTS
 66
1
 10
0.0
 20
0.0
 30
0.0
 0
VERTEX
 8
PARTS
 10
 11.2300
 20
  7.2700
 30
0.0
 0
VERTEX
 8
PARTS
 10
 11.3700
 20
  7.2700
 30
0.0
 0
SEQEND
 8
PARTS
 0
POLYLINE
 8
PARTS
 66
1
 10
0.0
 20
0.0
 30
0.0
 0
VERTEX
 8
PARTS
 10
 11.3400
 20
  7.2400
 30
0.0
 0
VERTEX
 8
PARTS
 10
 11.2600
 20
  7.2400
 30
0.0
 0
SEQEND
 8
PARTS
 0
POLYLINE
 8
PARTS
 66
1
 10
0.0
 20
0.0
 30
0.0
 0
VERTEX
 8
PARTS
 10
 11.2900
 20
  7.2100
 30
0.0
 0
VERTEX
 8
PARTS
 10
 11.3100
 20
  7.2100
 30
0.0
 0
SEQEND
 8
PARTS
 0
POLYLINE
 8
PARTS
 66
1
 10
0.0
 20
0.0
 30
0.0
 0
VERTEX
 8
PARTS
 10
  5.5000
 20
 11.1000
 30
0.0
 0
VERTEX
 8
PARTS
 10
  5.7000
 20
 11.1000
 30
0.0
 0
SEQEND
 8
PARTS
 0
POLYLINE
 8
PARTS
 66
1
 10
0.0
 20
0.0
 30
0.0
 0
VERTEX
 8
PARTS
 10
  5.5300
 20
 11.0700
 30
0.0
 0
VERTEX
 8
PARTS
 10
  5.6700
 20
 11.0700
 30
0.0
 0
SEQEND
 8
PARTS
 0
POLYLINE
 8
PARTS
 66
1
 10
0.0
 20
0.0
 30
0.0
 0
VERTEX
 8
PARTS
 10
  5.6400
 20
 11.0400
 30
0.0
 0
VERTEX
 8
PARTS
 10
  5.5600
 20
 11.0400
 30
0.0
 0
SEQEND
 8
PARTS
 0
POLYLINE
 8
PARTS
 66
1
 10
0.0
 20
0.0
 30
0.0
 0
VERTEX
 8
PARTS
 10
  5.5900
 20
 11.0100
 30
0.0
 0
VERTEX
 8
PARTS
 10
  5.6100
 20
 11.0100
 30
0.0
 0
SEQEND
 8
PARTS
 0
POLYLINE
 8
PARTS
 66
1
 10
0.0
 20
0.0
 30
0.0
 0
VERTEX
 8
PARTS
 10
  5.7000
 20
 11.3000
 30
0.0
 0
VERTEX
 8
PARTS
 10
  5.5000
 20
 11.3000
 30
0.0
 0
SEQEND
 8
PARTS
 0
POLYLINE
 8
PARTS
 66
1
 10
0.0
 20
0.0
 30
0.0
 0
VERTEX
 8
PARTS
 10
  5.6700
 20
 11.3300
 30
0.0
 0
VERTEX
 8
PARTS
 10
  5.5300
 20
 11.3300
 30
0.0
 0
SEQEND
 8
PARTS
 0
POLYLINE
 8
PARTS
 66
1
 10
0.0
 20
0.0
 30
0.0
 0
VERTEX
 8
PARTS
 10
  5.5600
 20
 11.3600
 30
0.0
 0
VERTEX
 8
PARTS
 10
  5.6400
 20
 11.3600
 30
0.0
 0
SEQEND
 8
PARTS
 0
POLYLINE
 8
PARTS
 66
1
 10
0.0
 20
0.0
 30
0.0
 0
VERTEX
 8
PARTS
 10
  5.6100
 20
 11.3900
 30
0.0
 0
VERTEX
 8
PARTS
 10
  5.5900
 20
 11.3900
 30
0.0
 0
SEQEND
 8
PARTS
 0
POLYLINE
 8
PARTS
 66
1
 10
0.0
 20
0.0
 30
0.0
 0
VERTEX
 8
PARTS
 10
  4.0000
 20
 11.5000
 30
0.0
 0
VERTEX
 8
PARTS
 10
  4.2000
 20
 11.5000
 30
0.0
 0
SEQEND
 8
PARTS
 0
POLYLINE
 8
PARTS
 66
1
 10
0.0
 20
0.0
 30
0.0
 0
VERTEX
 8
PARTS
 10
  4.0300
 20
 11.4700
 30
0.0
 0
VERTEX
 8
PARTS
 10
  4.1700
 20
 11.4700
 30
0.0
 0
SEQEND
 8
PARTS
 0
POLYLINE
 8
PARTS
 66
1
 10
0.0
 20
0.0
 30
0.0
 0
VERTEX
 8
PARTS
 10
  4.1400
 20
 11.4400
 30
0.0
 0
VERTEX
 8
PARTS
 10
  4.0600
 20
 11.4400
 30
0.0
 0
SEQEND
 8
PARTS
 0
POLYLINE
 8
PARTS
 66
1
 10
0.0
 20
0.0
 30
0.0
 0
VERTEX
 8
PARTS
 10
  4.0900
 20
 11.4100
 30
0.0
 0
VERTEX
 8
PARTS
 10
  4.1100
 20
 11.4100
 30
0.0
 0
SEQEND
 8
PARTS
 0
POLYLINE
 8
PARTS
 66
1
 10
0.0
 20
0.0
 30
0.0
 0
VERTEX
 8
PARTS
 10
  2.7000
 20
 11.3000
 30
0.0
 0
VERTEX
 8
PARTS
 10
  2.9000
 20
 11.3000
 30
0.0
 0
SEQEND
 8
PARTS
 0
POLYLINE
 8
PARTS
 66
1
 10
0.0
 20
0.0
 30
0.0
 0
VERTEX
 8
PARTS
 10
  2.7300
 20
 11.2700
 30
0.0
 0
VERTEX
 8
PARTS
 10
  2.8700
 20
 11.2700
 30
0.0
 0
SEQEND
 8
PARTS
 0
POLYLINE
 8
PARTS
 66
1
 10
0.0
 20
0.0
 30
0.0
 0
VERTEX
 8
PARTS
 10
  2.8400
 20
 11.2400
 30
0.0
 0
VERTEX
 8
PARTS
 10
  2.7600
 20
 11.2400
 30
0.0
 0
SEQEND
 8
PARTS
 0
POLYLINE
 8
PARTS
 66
1
 10
0.0
 20
0.0
 30
0.0
 0
VERTEX
 8
PARTS
 10
  2.7900
 20
 11.2100
 30
0.0
 0
VERTEX
 8
PARTS
 10
  2.8100
 20
 11.2100
 30
0.0
 0
SEQEND
 8
PARTS
 0
POLYLINE
 8
PARTS
 66
1
 10
0.0
 20
0.0
 30
0.0
 0
VERTEX
 8
PARTS
 10
  2.1000
 20
 11.3000
 30
0.0
 0
VERTEX
 8
PARTS
 10
  2.3000
 20
 11.3000
 30
0.0
 0
SEQEND
 8
PARTS
 0
POLYLINE
 8
PARTS
 66
1
 10
0.0
 20
0.0
 30
0.0
 0
VERTEX
 8
PARTS
 10
  2.1300
 20
 11.2700
 30
0.0
 0
VERTEX
 8
PARTS
 10
  2.2700
 20
 11.2700
 30
0.0
 0
SEQEND
 8
PARTS
 0
POLYLINE
 8
PARTS
 66
1
 10
0.0
 20
0.0
 30
0.0
 0
VERTEX
 8
PARTS
 10
  2.2400
 20
 11.2400
 30
0.0
 0
VERTEX
 8
PARTS
 10
  2.1600
 20
 11.2400
 30
0.0
 0
SEQEND
 8
PARTS
 0
POLYLINE
 8
PARTS
 66
1
 10
0.0
 20
0.0
 30
0.0
 0
VERTEX
 8
PARTS
 10
  2.1900
 20
 11.2100
 30
0.0
 0
VERTEX
 8
PARTS
 10
  2.2100
 20
 11.2100
 30
0.0
 0
SEQEND
 8
PARTS
 0
POLYLINE
 8
PARTS
 66
1
 10
0.0
 20
0.0
 30
0.0
 0
VERTEX
 8
PARTS
 10
  6.1000
 20
 11.9000
 30
0.0
 0
VERTEX
 8
PARTS
 10
  6.3000
 20
 11.9000
 30
0.0
 0
SEQEND
 8
PARTS
 0
POLYLINE
 8
PARTS
 66
1
 10
0.0
 20
0.0
 30
0.0
 0
VERTEX
 8
PARTS
 10
  6.1300
 20
 11.8700
 30
0.0
 0
VERTEX
 8
PARTS
 10
  6.2700
 20
 11.8700
 30
0.0
 0
SEQEND
 8
PARTS
 0
POLYLINE
 8
PARTS
 66
1
 10
0.0
 20
0.0
 30
0.0
 0
VERTEX
 8
PARTS
 10
  6.2400
 20
 11.8400
 30
0.0
 0
VERTEX
 8
PARTS
 10
  6.1600
 20
 11.8400
 30
0.0
 0
SEQEND
 8
PARTS
 0
POLYLINE
 8
PARTS
 66
1
 10
0.0
 20
0.0
 30
0.0
 0
VERTEX
 8
PARTS
 10
  6.1900
 20
 11.8100
 30
0.0
 0
VERTEX
 8
PARTS
 10
  6.2100
 20
 11.8100
 30
0.0
 0
SEQEND
 8
PARTS
 0
POLYLINE
 8
PARTS
 66
1
 10
0.0
 20
0.0
 30
0.0
 0
VERTEX
 8
PARTS
 10
  7.3000
 20
  7.7000
 30
0.0
 0
VERTEX
 8
PARTS
 10
  7.3000
 20
  7.9000
 30
0.0
 0
SEQEND
 8
PARTS
 0
POLYLINE
 8
PARTS
 66
1
 10
0.0
 20
0.0
 30
0.0
 0
VERTEX
 8
PARTS
 10
  7.3300
 20
  7.7300
 30
0.0
 0
VERTEX
 8
PARTS
 10
  7.3300
 20
  7.8700
 30
0.0
 0
SEQEND
 8
PARTS
 0
POLYLINE
 8
PARTS
 66
1
 10
0.0
 20
0.0
 30
0.0
 0
VERTEX
 8
PARTS
 10
  7.3600
 20
  7.8400
 30
0.0
 0
VERTEX
 8
PARTS
 10
  7.3600
 20
  7.7600
 30
0.0
 0
SEQEND
 8
PARTS
 0
POLYLINE
 8
PARTS
 66
1
 10
0.0
 20
0.0
 30
0.0
 0
VERTEX
 8
PARTS
 10
  7.3900
 20
  7.7900
 30
0.0
 0
VERTEX
 8
PARTS
 10
  7.3900
 20
  7.8100
 30
0.0
 0
SEQEND
 8
PARTS
 0
POLYLINE
 8
PARTS
 66
1
 10
0.0
 20
0.0
 30
0.0
 0
VERTEX
 8
PARTS
 10
  7.1000
 20
  7.9000
 30
0.0
 0
VERTEX
 8
PARTS
 10
  7.1000
 20
  7.7000
 30
0.0
 0
SEQEND
 8
PARTS
 0
POLYLINE
 8
PARTS
 66
1
 10
0.0
 20
0.0
 30
0.0
 0
VERTEX
 8
PARTS
 10
  7.0700
 20
  7.8700
 30
0.0
 0
VERTEX
 8
PARTS
 10
  7.0700
 20
  7.7300
 30
0.0
 0
SEQEND
 8
PARTS
 0
POLYLINE
 8
PARTS
 66
1
 10
0.0
 20
0.0
 30
0.0
 0
VERTEX
 8
PARTS
 10
  7.0400
 20
  7.7600
 30
0.0
 0
VERTEX
 8
PARTS
 10
  7.0400
 20
  7.8400
 30
0.0
 0
SEQEND
 8
PARTS
 0
POLYLINE
 8
PARTS
 66
1
 10
0.0
 20
0.0
 30
0.0
 0
VERTEX
 8
PARTS
 10
  7.0100
 20
  7.8100
 30
0.0
 0
VERTEX
 8
PARTS
 10
  7.0100
 20
  7.7900
 30
0.0
 0
SEQEND
 8
PARTS
 0
POLYLINE
 8
PARTS
 66
1
 10
0.0
 20
0.0
 30
0.0
 0
VERTEX
 8
PARTS
 10
  5.3000
 20
  8.3000
 30
0.0
 0
VERTEX
 8
PARTS
 10
  5.5000
 20
  8.3000
 30
0.0
 0
SEQEND
 8
PARTS
 0
POLYLINE
 8
PARTS
 66
1
 10
0.0
 20
0.0
 30
0.0
 0
VERTEX
 8
PARTS
 10
  5.3300
 20
  8.2700
 30
0.0
 0
VERTEX
 8
PARTS
 10
  5.4700
 20
  8.2700
 30
0.0
 0
SEQEND
 8
PARTS
 0
POLYLINE
 8
PARTS
 66
1
 10
0.0
 20
0.0
 30
0.0
 0
VERTEX
 8
PARTS
 10
  5.4400
 20
  8.2400
 30
0.0
 0
VERTEX
 8
PARTS
 10
  5.3600
 20
  8.2400
 30
0.0
 0
SEQEND
 8
PARTS
 0
POLYLINE
 8
PARTS
 66
1
 10
0.0
 20
0.0
 30
0.0
 0
VERTEX
 8
PARTS
 10
  5.3900
 20
  8.2100
 30
0.0
 0
VERTEX
 8
PARTS
 10
  5.4100
 20
  8.2100
 30
0.0
 0
SEQEND
 8
PARTS
 0
POLYLINE
 8
PARTS
 66
1
 10
0.0
 20
0.0
 30
0.0
 0
VERTEX
 8
PARTS
 10
  7.6000
 20
 13.0000
 30
0.0
 0
VERTEX
 8
PARTS
 10
  7.8000
 20
 13.0000
 30
0.0
 0
SEQEND
 8
PARTS
 0
POLYLINE
 8
PARTS
 66
1
 10
0.0
 20
0.0
 30
0.0
 0
VERTEX
 8
PARTS
 10
  7.6300
 20
 12.9700
 30
0.0
 0
VERTEX
 8
PARTS
 10
  7.7700
 20
 12.9700
 30
0.0
 0
SEQEND
 8
PARTS
 0
POLYLINE
 8
PARTS
 66
1
 10
0.0
 20
0.0
 30
0.0
 0
VERTEX
 8
PARTS
 10
  7.7400
 20
 12.9400
 30
0.0
 0
VERTEX
 8
PARTS
 10
  7.6600
 20
 12.9400
 30
0.0
 0
SEQEND
 8
PARTS
 0
POLYLINE
 8
PARTS
 66
1
 10
0.0
 20
0.0
 30
0.0
 0
VERTEX
 8
PARTS
 10
  7.6900
 20
 12.9100
 30
0.0
 0
VERTEX
 8
PARTS
 10
  7.7100
 20
 12.9100
 30
0.0
 0
SEQEND
 8
PARTS
 0
POLYLINE
 8
PARTS
 66
1
 10
0.0
 20
0.0
 30
0.0
 0
VERTEX
 8
PARTS
 10
 10.5000
 20
 10.1000
 30
0.0
 0
VERTEX
 8
PARTS
 10
 10.7000
 20
 10.1000
 30
0.0
 0
SEQEND
 8
PARTS
 0
POLYLINE
 8
PARTS
 66
1
 10
0.0
 20
0.0
 30
0.0
 0
VERTEX
 8
PARTS
 10
 10.5300
 20
 10.0700
 30
0.0
 0
VERTEX
 8
PARTS
 10
 10.6700
 20
 10.0700
 30
0.0
 0
SEQEND
 8
PARTS
 0
POLYLINE
 8
PARTS
 66
1
 10
0.0
 20
0.0
 30
0.0
 0
VERTEX
 8
PARTS
 10
 10.6400
 20
 10.0400
 30
0.0
 0
VERTEX
 8
PARTS
 10
 10.5600
 20
 10.0400
 30
0.0
 0
SEQEND
 8
PARTS
 0
POLYLINE
 8
PARTS
 66
1
 10
0.0
 20
0.0
 30
0.0
 0
VERTEX
 8
PARTS
 10
 10.5900
 20
 10.0100
 30
0.0
 0
VERTEX
 8
PARTS
 10
 10.6100
 20
 10.0100
 30
0.0
 0
SEQEND
 8
PARTS
 0
POLYLINE
 8
PARTS
 66
1
 10
0.0
 20
0.0
 30
0.0
 0
VERTEX
 8
PARTS
 10
  6.8000
 20
  2.8000
 30
0.0
 0
VERTEX
 8
PARTS
 10
  7.0000
 20
  2.8000
 30
0.0
 0
SEQEND
 8
PARTS
 0
POLYLINE
 8
PARTS
 66
1
 10
0.0
 20
0.0
 30
0.0
 0
VERTEX
 8
PARTS
 10
  6.8300
 20
  2.7700
 30
0.0
 0
VERTEX
 8
PARTS
 10
  6.9700
 20
  2.7700
 30
0.0
 0
SEQEND
 8
PARTS
 0
POLYLINE
 8
PARTS
 66
1
 10
0.0
 20
0.0
 30
0.0
 0
VERTEX
 8
PARTS
 10
  6.9400
 20
  2.7400
 30
0.0
 0
VERTEX
 8
PARTS
 10
  6.8600
 20
  2.7400
 30
0.0
 0
SEQEND
 8
PARTS
 0
POLYLINE
 8
PARTS
 66
1
 10
0.0
 20
0.0
 30
0.0
 0
VERTEX
 8
PARTS
 10
  6.8900
 20
  2.7100
 30
0.0
 0
VERTEX
 8
PARTS
 10
  6.9100
 20
  2.7100
 30
0.0
 0
SEQEND
 8
PARTS
 0
POLYLINE
 8
PARTS
 66
1
 10
0.0
 20
0.0
 30
0.0
 0
VERTEX
 8
PARTS
 10
  7.2000
 20
  2.8000
 30
0.0
 0
VERTEX
 8
PARTS
 10
  7.4000
 20
  2.8000
 30
0.0
 0
SEQEND
 8
PARTS
 0
POLYLINE
 8
PARTS
 66
1
 10
0.0
 20
0.0
 30
0.0
 0
VERTEX
 8
PARTS
 10
  7.2300
 20
  2.7700
 30
0.0
 0
VERTEX
 8
PARTS
 10
  7.3700
 20
  2.7700
 30
0.0
 0
SEQEND
 8
PARTS
 0
POLYLINE
 8
PARTS
 66
1
 10
0.0
 20
0.0
 30
0.0
 0
VERTEX
 8
PARTS
 10
  7.3400
 20
  2.7400
 30
0.0
 0
VERTEX
 8
PARTS
 10
  7.2600
 20
  2.7400
 30
0.0
 0
SEQEND
 8
PARTS
 0
POLYLINE
 8
PARTS
 66
1
 10
0.0
 20
0.0
 30
0.0
 0
VERTEX
 8
PARTS
 10
  7.2900
 20
  2.7100
 30
0.0
 0
VERTEX
 8
PARTS
 10
  7.3100
 20
  2.7100
 30
0.0
 0
SEQEND
 8
PARTS
 0
POLYLINE
 8
PARTS
 66
1
 10
0.0
 20
0.0
 30
0.0
 0
VERTEX
 8
PARTS
 10
  6.8000
 20
  0.3000
 30
0.0
 0
VERTEX
 8
PARTS
 10
  7.0000
 20
  0.3000
 30
0.0
 0
SEQEND
 8
PARTS
 0
POLYLINE
 8
PARTS
 66
1
 10
0.0
 20
0.0
 30
0.0
 0
VERTEX
 8
PARTS
 10
  6.8300
 20
  0.2700
 30
0.0
 0
VERTEX
 8
PARTS
 10
  6.9700
 20
  0.2700
 30
0.0
 0
SEQEND
 8
PARTS
 0
POLYLINE
 8
PARTS
 66
1
 10
0.0
 20
0.0
 30
0.0
 0
VERTEX
 8
PARTS
 10
  6.9400
 20
  0.2400
 30
0.0
 0
VERTEX
 8
PARTS
 10
  6.8600
 20
  0.2400
 30
0.0
 0
SEQEND
 8
PARTS
 0
POLYLINE
 8
PARTS
 66
1
 10
0.0
 20
0.0
 30
0.0
 0
VERTEX
 8
PARTS
 10
  6.8900
 20
  0.2100
 30
0.0
 0
VERTEX
 8
PARTS
 10
  6.9100
 20
  0.2100
 30
0.0
 0
SEQEND
 8
PARTS
 0
TEXT
 8
PARTTEXT
 10
  5.3000
 20
  9.5186
 30
0.0
 40
  0.0514
 1
+3V
 0
POLYLINE
 8
PARTS
 66
1
 10
0.0
 20
0.0
 30
0.0
 0
VERTEX
 8
PARTS
 10
  5.4000
 20
  9.5000
 30
0.0
 0
VERTEX
 8
PARTS
 10
  5.4000
 20
  9.4000
 30
0.0
 0
SEQEND
 8
PARTS
 0
POLYLINE
 8
PARTS
 66
1
 10
0.0
 20
0.0
 30
0.0
 0
VERTEX
 8
PARTS
 10
  5.3500
 20
  9.5000
 30
0.0
 0
VERTEX
 8
PARTS
 10
  5.4500
 20
  9.5000
 30
0.0
 0
SEQEND
 8
PARTS
 0
TEXT
 8
PARTTEXT
 10
  8.2000
 20
 14.7186
 30
0.0
 40
  0.0514
 1
+3V
 0
POLYLINE
 8
PARTS
 66
1
 10
0.0
 20
0.0
 30
0.0
 0
VERTEX
 8
PARTS
 10
  8.3000
 20
 14.7000
 30
0.0
 0
VERTEX
 8
PARTS
 10
  8.3000
 20
 14.6000
 30
0.0
 0
SEQEND
 8
PARTS
 0
POLYLINE
 8
PARTS
 66
1
 10
0.0
 20
0.0
 30
0.0
 0
VERTEX
 8
PARTS
 10
  8.2500
 20
 14.7000
 30
0.0
 0
VERTEX
 8
PARTS
 10
  8.3500
 20
 14.7000
 30
0.0
 0
SEQEND
 8
PARTS
 0
TEXT
 8
PARTTEXT
 10
 10.9000
 20
 10.2186
 30
0.0
 40
  0.0514
 1
+3V
 0
POLYLINE
 8
PARTS
 66
1
 10
0.0
 20
0.0
 30
0.0
 0
VERTEX
 8
PARTS
 10
 11.0000
 20
 10.2000
 30
0.0
 0
VERTEX
 8
PARTS
 10
 11.0000
 20
 10.1000
 30
0.0
 0
SEQEND
 8
PARTS
 0
POLYLINE
 8
PARTS
 66
1
 10
0.0
 20
0.0
 30
0.0
 0
VERTEX
 8
PARTS
 10
 10.9500
 20
 10.2000
 30
0.0
 0
VERTEX
 8
PARTS
 10
 11.0500
 20
 10.2000
 30
0.0
 0
SEQEND
 8
PARTS
 0
POLYLINE
 8
PARTS
 66
1
 10
0.0
 20
0.0
 30
0.0
 0
VERTEX
 8
PARTS
 10
  2.3000
 20
  4.4000
 30
0.0
 0
VERTEX
 8
PARTS
 10
  2.5000
 20
  4.4000
 30
0.0
 0
SEQEND
 8
PARTS
 0
POLYLINE
 8
PARTS
 66
1
 10
0.0
 20
0.0
 30
0.0
 0
VERTEX
 8
PARTS
 10
  2.3300
 20
  4.3700
 30
0.0
 0
VERTEX
 8
PARTS
 10
  2.4700
 20
  4.3700
 30
0.0
 0
SEQEND
 8
PARTS
 0
POLYLINE
 8
PARTS
 66
1
 10
0.0
 20
0.0
 30
0.0
 0
VERTEX
 8
PARTS
 10
  2.4400
 20
  4.3400
 30
0.0
 0
VERTEX
 8
PARTS
 10
  2.3600
 20
  4.3400
 30
0.0
 0
SEQEND
 8
PARTS
 0
POLYLINE
 8
PARTS
 66
1
 10
0.0
 20
0.0
 30
0.0
 0
VERTEX
 8
PARTS
 10
  2.3900
 20
  4.3100
 30
0.0
 0
VERTEX
 8
PARTS
 10
  2.4100
 20
  4.3100
 30
0.0
 0
SEQEND
 8
PARTS
 0
POLYLINE
 8
PARTS
 66
1
 10
0.0
 20
0.0
 30
0.0
 0
VERTEX
 8
PARTS
 10
 18.3000
 20
 11.5000
 30
0.0
 0
VERTEX
 8
PARTS
 10
 18.5000
 20
 11.5000
 30
0.0
 0
SEQEND
 8
PARTS
 0
POLYLINE
 8
PARTS
 66
1
 10
0.0
 20
0.0
 30
0.0
 0
VERTEX
 8
PARTS
 10
 18.3300
 20
 11.4700
 30
0.0
 0
VERTEX
 8
PARTS
 10
 18.4700
 20
 11.4700
 30
0.0
 0
SEQEND
 8
PARTS
 0
POLYLINE
 8
PARTS
 66
1
 10
0.0
 20
0.0
 30
0.0
 0
VERTEX
 8
PARTS
 10
 18.4400
 20
 11.4400
 30
0.0
 0
VERTEX
 8
PARTS
 10
 18.3600
 20
 11.4400
 30
0.0
 0
SEQEND
 8
PARTS
 0
POLYLINE
 8
PARTS
 66
1
 10
0.0
 20
0.0
 30
0.0
 0
VERTEX
 8
PARTS
 10
 18.3900
 20
 11.4100
 30
0.0
 0
VERTEX
 8
PARTS
 10
 18.4100
 20
 11.4100
 30
0.0
 0
SEQEND
 8
PARTS
 0
POLYLINE
 8
PARTS
 66
1
 10
0.0
 20
0.0
 30
0.0
 0
VERTEX
 8
PARTS
 10
  1.5000
 20
 12.7000
 30
0.0
 0
VERTEX
 8
PARTS
 10
  1.7000
 20
 12.7000
 30
0.0
 0
SEQEND
 8
PARTS
 0
POLYLINE
 8
PARTS
 66
1
 10
0.0
 20
0.0
 30
0.0
 0
VERTEX
 8
PARTS
 10
  1.5300
 20
 12.6700
 30
0.0
 0
VERTEX
 8
PARTS
 10
  1.6700
 20
 12.6700
 30
0.0
 0
SEQEND
 8
PARTS
 0
POLYLINE
 8
PARTS
 66
1
 10
0.0
 20
0.0
 30
0.0
 0
VERTEX
 8
PARTS
 10
  1.6400
 20
 12.6400
 30
0.0
 0
VERTEX
 8
PARTS
 10
  1.5600
 20
 12.6400
 30
0.0
 0
SEQEND
 8
PARTS
 0
POLYLINE
 8
PARTS
 66
1
 10
0.0
 20
0.0
 30
0.0
 0
VERTEX
 8
PARTS
 10
  1.5900
 20
 12.6100
 30
0.0
 0
VERTEX
 8
PARTS
 10
  1.6100
 20
 12.6100
 30
0.0
 0
SEQEND
 8
PARTS
 0
POLYLINE
 8
PARTS
 66
1
 10
0.0
 20
0.0
 30
0.0
 0
VERTEX
 8
PARTS
 10
 18.5000
 20
 11.7000
 30
0.0
 0
VERTEX
 8
PARTS
 10
 18.3000
 20
 11.7000
 30
0.0
 0
SEQEND
 8
PARTS
 0
POLYLINE
 8
PARTS
 66
1
 10
0.0
 20
0.0
 30
0.0
 0
VERTEX
 8
PARTS
 10
 18.4700
 20
 11.7300
 30
0.0
 0
VERTEX
 8
PARTS
 10
 18.3300
 20
 11.7300
 30
0.0
 0
SEQEND
 8
PARTS
 0
POLYLINE
 8
PARTS
 66
1
 10
0.0
 20
0.0
 30
0.0
 0
VERTEX
 8
PARTS
 10
 18.3600
 20
 11.7600
 30
0.0
 0
VERTEX
 8
PARTS
 10
 18.4400
 20
 11.7600
 30
0.0
 0
SEQEND
 8
PARTS
 0
POLYLINE
 8
PARTS
 66
1
 10
0.0
 20
0.0
 30
0.0
 0
VERTEX
 8
PARTS
 10
 18.4100
 20
 11.7900
 30
0.0
 0
VERTEX
 8
PARTS
 10
 18.3900
 20
 11.7900
 30
0.0
 0
SEQEND
 8
PARTS
 0
POLYLINE
 8
PARTS
 66
1
 10
0.0
 20
0.0
 30
0.0
 0
VERTEX
 8
PARTS
 10
  1.7000
 20
 12.9000
 30
0.0
 0
VERTEX
 8
PARTS
 10
  1.5000
 20
 12.9000
 30
0.0
 0
SEQEND
 8
PARTS
 0
POLYLINE
 8
PARTS
 66
1
 10
0.0
 20
0.0
 30
0.0
 0
VERTEX
 8
PARTS
 10
  1.6700
 20
 12.9300
 30
0.0
 0
VERTEX
 8
PARTS
 10
  1.5300
 20
 12.9300
 30
0.0
 0
SEQEND
 8
PARTS
 0
POLYLINE
 8
PARTS
 66
1
 10
0.0
 20
0.0
 30
0.0
 0
VERTEX
 8
PARTS
 10
  1.5600
 20
 12.9600
 30
0.0
 0
VERTEX
 8
PARTS
 10
  1.6400
 20
 12.9600
 30
0.0
 0
SEQEND
 8
PARTS
 0
POLYLINE
 8
PARTS
 66
1
 10
0.0
 20
0.0
 30
0.0
 0
VERTEX
 8
PARTS
 10
  1.6100
 20
 12.9900
 30
0.0
 0
VERTEX
 8
PARTS
 10
  1.5900
 20
 12.9900
 30
0.0
 0
SEQEND
 8
PARTS
 0
POLYLINE
 8
PARTS
 66
1
 10
0.0
 20
0.0
 30
0.0
 0
VERTEX
 8
PARTS
 10
 10.2000
 20
 12.3000
 30
0.0
 0
VERTEX
 8
PARTS
 10
 10.2000
 20
 12.5000
 30
0.0
 0
SEQEND
 8
PARTS
 0
POLYLINE
 8
PARTS
 66
1
 10
0.0
 20
0.0
 30
0.0
 0
VERTEX
 8
PARTS
 10
 10.2300
 20
 12.3300
 30
0.0
 0
VERTEX
 8
PARTS
 10
 10.2300
 20
 12.4700
 30
0.0
 0
SEQEND
 8
PARTS
 0
POLYLINE
 8
PARTS
 66
1
 10
0.0
 20
0.0
 30
0.0
 0
VERTEX
 8
PARTS
 10
 10.2600
 20
 12.4400
 30
0.0
 0
VERTEX
 8
PARTS
 10
 10.2600
 20
 12.3600
 30
0.0
 0
SEQEND
 8
PARTS
 0
POLYLINE
 8
PARTS
 66
1
 10
0.0
 20
0.0
 30
0.0
 0
VERTEX
 8
PARTS
 10
 10.2900
 20
 12.3900
 30
0.0
 0
VERTEX
 8
PARTS
 10
 10.2900
 20
 12.4100
 30
0.0
 0
SEQEND
 8
PARTS
 0
TEXT
 8
PARTTEXT
 10
  9.8300
 20
  5.7186
 30
0.0
 40
  0.0514
 1
VDD
 0
POLYLINE
 8
PARTS
 66
1
 10
0.0
 20
0.0
 30
0.0
 0
VERTEX
 8
PARTS
 10
  9.9000
 20
  6.1000
 30
0.0
 0
VERTEX
 8
PARTS
 10
  9.9500
 20
  6.0000
 30
0.0
 0
SEQEND
 8
PARTS
 0
POLYLINE
 8
PARTS
 66
1
 10
0.0
 20
0.0
 30
0.0
 0
VERTEX
 8
PARTS
 10
  9.9500
 20
  6.0000
 30
0.0
 0
VERTEX
 8
PARTS
 10
  9.9500
 20
  5.8000
 30
0.0
 0
SEQEND
 8
PARTS
 0
POLYLINE
 8
PARTS
 66
1
 10
0.0
 20
0.0
 30
0.0
 0
VERTEX
 8
PARTS
 10
  9.9500
 20
  5.8000
 30
0.0
 0
VERTEX
 8
PARTS
 10
  9.8500
 20
  5.8000
 30
0.0
 0
SEQEND
 8
PARTS
 0
POLYLINE
 8
PARTS
 66
1
 10
0.0
 20
0.0
 30
0.0
 0
VERTEX
 8
PARTS
 10
  9.8500
 20
  5.8000
 30
0.0
 0
VERTEX
 8
PARTS
 10
  9.8500
 20
  6.0000
 30
0.0
 0
SEQEND
 8
PARTS
 0
POLYLINE
 8
PARTS
 66
1
 10
0.0
 20
0.0
 30
0.0
 0
VERTEX
 8
PARTS
 10
  9.8500
 20
  6.0000
 30
0.0
 0
VERTEX
 8
PARTS
 10
  9.9000
 20
  6.1000
 30
0.0
 0
SEQEND
 8
PARTS
 0
TEXT
 8
PARTTEXT
 10
  9.3300
 20
  7.8186
 30
0.0
 40
  0.0514
 1
MUXOUT
 0
POLYLINE
 8
PARTS
 66
1
 10
0.0
 20
0.0
 30
0.0
 0
VERTEX
 8
PARTS
 10
  9.5000
 20
  8.3000
 30
0.0
 0
VERTEX
 8
PARTS
 10
  9.5500
 20
  8.2000
 30
0.0
 0
SEQEND
 8
PARTS
 0
POLYLINE
 8
PARTS
 66
1
 10
0.0
 20
0.0
 30
0.0
 0
VERTEX
 8
PARTS
 10
  9.5500
 20
  8.2000
 30
0.0
 0
VERTEX
 8
PARTS
 10
  9.5500
 20
  8.0000
 30
0.0
 0
SEQEND
 8
PARTS
 0
POLYLINE
 8
PARTS
 66
1
 10
0.0
 20
0.0
 30
0.0
 0
VERTEX
 8
PARTS
 10
  9.5500
 20
  8.0000
 30
0.0
 0
VERTEX
 8
PARTS
 10
  9.4500
 20
  8.0000
 30
0.0
 0
SEQEND
 8
PARTS
 0
POLYLINE
 8
PARTS
 66
1
 10
0.0
 20
0.0
 30
0.0
 0
VERTEX
 8
PARTS
 10
  9.4500
 20
  8.0000
 30
0.0
 0
VERTEX
 8
PARTS
 10
  9.4500
 20
  8.2000
 30
0.0
 0
SEQEND
 8
PARTS
 0
POLYLINE
 8
PARTS
 66
1
 10
0.0
 20
0.0
 30
0.0
 0
VERTEX
 8
PARTS
 10
  9.4500
 20
  8.2000
 30
0.0
 0
VERTEX
 8
PARTS
 10
  9.5000
 20
  8.3000
 30
0.0
 0
SEQEND
 8
PARTS
 0
TEXT
 8
PARTTEXT
 10
  8.9300
 20
  7.8186
 30
0.0
 40
  0.0514
 1
LE
 0
POLYLINE
 8
PARTS
 66
1
 10
0.0
 20
0.0
 30
0.0
 0
VERTEX
 8
PARTS
 10
  9.0000
 20
  8.3000
 30
0.0
 0
VERTEX
 8
PARTS
 10
  9.0500
 20
  8.2000
 30
0.0
 0
SEQEND
 8
PARTS
 0
POLYLINE
 8
PARTS
 66
1
 10
0.0
 20
0.0
 30
0.0
 0
VERTEX
 8
PARTS
 10
  9.0500
 20
  8.2000
 30
0.0
 0
VERTEX
 8
PARTS
 10
  9.0500
 20
  8.0000
 30
0.0
 0
SEQEND
 8
PARTS
 0
POLYLINE
 8
PARTS
 66
1
 10
0.0
 20
0.0
 30
0.0
 0
VERTEX
 8
PARTS
 10
  9.0500
 20
  8.0000
 30
0.0
 0
VERTEX
 8
PARTS
 10
  8.9500
 20
  8.0000
 30
0.0
 0
SEQEND
 8
PARTS
 0
POLYLINE
 8
PARTS
 66
1
 10
0.0
 20
0.0
 30
0.0
 0
VERTEX
 8
PARTS
 10
  8.9500
 20
  8.0000
 30
0.0
 0
VERTEX
 8
PARTS
 10
  8.9500
 20
  8.2000
 30
0.0
 0
SEQEND
 8
PARTS
 0
POLYLINE
 8
PARTS
 66
1
 10
0.0
 20
0.0
 30
0.0
 0
VERTEX
 8
PARTS
 10
  8.9500
 20
  8.2000
 30
0.0
 0
VERTEX
 8
PARTS
 10
  9.0000
 20
  8.3000
 30
0.0
 0
SEQEND
 8
PARTS
 0
TEXT
 8
PARTTEXT
 10
  8.3300
 20
  7.8186
 30
0.0
 40
  0.0514
 1
DATA
 0
POLYLINE
 8
PARTS
 66
1
 10
0.0
 20
0.0
 30
0.0
 0
VERTEX
 8
PARTS
 10
  8.5000
 20
  8.3000
 30
0.0
 0
VERTEX
 8
PARTS
 10
  8.5500
 20
  8.2000
 30
0.0
 0
SEQEND
 8
PARTS
 0
POLYLINE
 8
PARTS
 66
1
 10
0.0
 20
0.0
 30
0.0
 0
VERTEX
 8
PARTS
 10
  8.5500
 20
  8.2000
 30
0.0
 0
VERTEX
 8
PARTS
 10
  8.5500
 20
  8.0000
 30
0.0
 0
SEQEND
 8
PARTS
 0
POLYLINE
 8
PARTS
 66
1
 10
0.0
 20
0.0
 30
0.0
 0
VERTEX
 8
PARTS
 10
  8.5500
 20
  8.0000
 30
0.0
 0
VERTEX
 8
PARTS
 10
  8.4500
 20
  8.0000
 30
0.0
 0
SEQEND
 8
PARTS
 0
POLYLINE
 8
PARTS
 66
1
 10
0.0
 20
0.0
 30
0.0
 0
VERTEX
 8
PARTS
 10
  8.4500
 20
  8.0000
 30
0.0
 0
VERTEX
 8
PARTS
 10
  8.4500
 20
  8.2000
 30
0.0
 0
SEQEND
 8
PARTS
 0
POLYLINE
 8
PARTS
 66
1
 10
0.0
 20
0.0
 30
0.0
 0
VERTEX
 8
PARTS
 10
  8.4500
 20
  8.2000
 30
0.0
 0
VERTEX
 8
PARTS
 10
  8.5000
 20
  8.3000
 30
0.0
 0
SEQEND
 8
PARTS
 0
TEXT
 8
PARTTEXT
 10
  7.9300
 20
  7.8186
 30
0.0
 40
  0.0514
 1
CLK
 0
POLYLINE
 8
PARTS
 66
1
 10
0.0
 20
0.0
 30
0.0
 0
VERTEX
 8
PARTS
 10
  8.0000
 20
  8.3000
 30
0.0
 0
VERTEX
 8
PARTS
 10
  8.0500
 20
  8.2000
 30
0.0
 0
SEQEND
 8
PARTS
 0
POLYLINE
 8
PARTS
 66
1
 10
0.0
 20
0.0
 30
0.0
 0
VERTEX
 8
PARTS
 10
  8.0500
 20
  8.2000
 30
0.0
 0
VERTEX
 8
PARTS
 10
  8.0500
 20
  8.0000
 30
0.0
 0
SEQEND
 8
PARTS
 0
POLYLINE
 8
PARTS
 66
1
 10
0.0
 20
0.0
 30
0.0
 0
VERTEX
 8
PARTS
 10
  8.0500
 20
  8.0000
 30
0.0
 0
VERTEX
 8
PARTS
 10
  7.9500
 20
  8.0000
 30
0.0
 0
SEQEND
 8
PARTS
 0
POLYLINE
 8
PARTS
 66
1
 10
0.0
 20
0.0
 30
0.0
 0
VERTEX
 8
PARTS
 10
  7.9500
 20
  8.0000
 30
0.0
 0
VERTEX
 8
PARTS
 10
  7.9500
 20
  8.2000
 30
0.0
 0
SEQEND
 8
PARTS
 0
POLYLINE
 8
PARTS
 66
1
 10
0.0
 20
0.0
 30
0.0
 0
VERTEX
 8
PARTS
 10
  7.9500
 20
  8.2000
 30
0.0
 0
VERTEX
 8
PARTS
 10
  8.0000
 20
  8.3000
 30
0.0
 0
SEQEND
 8
PARTS
 0
TEXT
 8
PARTTEXT
 10
  5.9300
 20
  9.8186
 30
0.0
 40
  0.0514
 1
TXDATA
 0
POLYLINE
 8
PARTS
 66
1
 10
0.0
 20
0.0
 30
0.0
 0
VERTEX
 8
PARTS
 10
  6.1000
 20
 10.3000
 30
0.0
 0
VERTEX
 8
PARTS
 10
  6.1500
 20
 10.2000
 30
0.0
 0
SEQEND
 8
PARTS
 0
POLYLINE
 8
PARTS
 66
1
 10
0.0
 20
0.0
 30
0.0
 0
VERTEX
 8
PARTS
 10
  6.1500
 20
 10.2000
 30
0.0
 0
VERTEX
 8
PARTS
 10
  6.1500
 20
 10.0000
 30
0.0
 0
SEQEND
 8
PARTS
 0
POLYLINE
 8
PARTS
 66
1
 10
0.0
 20
0.0
 30
0.0
 0
VERTEX
 8
PARTS
 10
  6.1500
 20
 10.0000
 30
0.0
 0
VERTEX
 8
PARTS
 10
  6.0500
 20
 10.0000
 30
0.0
 0
SEQEND
 8
PARTS
 0
POLYLINE
 8
PARTS
 66
1
 10
0.0
 20
0.0
 30
0.0
 0
VERTEX
 8
PARTS
 10
  6.0500
 20
 10.0000
 30
0.0
 0
VERTEX
 8
PARTS
 10
  6.0500
 20
 10.2000
 30
0.0
 0
SEQEND
 8
PARTS
 0
POLYLINE
 8
PARTS
 66
1
 10
0.0
 20
0.0
 30
0.0
 0
VERTEX
 8
PARTS
 10
  6.0500
 20
 10.2000
 30
0.0
 0
VERTEX
 8
PARTS
 10
  6.1000
 20
 10.3000
 30
0.0
 0
SEQEND
 8
PARTS
 0
ENDSEC
 0
EOF
