G04 ================== begin FILE IDENTIFICATION RECORD ==================*
G04 Layout Name:  C:/Users/Dart/Desktop/FMCW/FMCW/PCB/Transmitter/PLL_VCO_FINAL.brd*
G04 Film Name:    SILK*
G04 File Format:  Gerber RS274X*
G04 File Origin:  Cadence Allegro 16.6-S042*
G04 Origin Date:  Fri Feb 26 14:31:31 2016*
G04 *
G04 Layer:  BOARD GEOMETRY/SILKSCREEN_BOTTOM*
G04 *
G04 Offset:    (0.00 0.00)*
G04 Mirror:    No*
G04 Mode:      Positive*
G04 Rotation:  0*
G04 FullContactRelief:  No*
G04 UndefLineWidth:     5.00*
G04 ================== end FILE IDENTIFICATION RECORD ====================*
%FSLAX35Y35*MOIN*%
%IR0*IPPOS*OFA0.00000B0.00000*MIA0B0*SFA1.00000B1.00000*%
%ADD10C,.005*%
G75*
%LPD*%
G75*
G54D10*
G01X60100Y-25800D02*
Y-28300D01*
G01X59487Y-25800D02*
X60713D01*
G01X62833Y-28300D02*
X61767D01*
Y-25800D01*
X62833D01*
G01X62407Y-27008D02*
X61767D01*
G01X63833Y-28300D02*
X64500Y-25800D01*
X65167Y-28300D01*
G01X64927Y-27425D02*
X64073D01*
G01X66007Y-28300D02*
Y-25800D01*
X66700Y-27883D01*
X67393Y-25800D01*
Y-28300D01*
G01X60200Y-31800D02*
X59987Y-31758D01*
X59800Y-31592D01*
X59640Y-31342D01*
X59533Y-31050D01*
X59480Y-30717D01*
Y-30383D01*
X59533Y-30050D01*
X59640Y-29758D01*
X59800Y-29508D01*
X59987Y-29342D01*
X60200Y-29300D01*
X60413Y-29342D01*
X60600Y-29508D01*
X60760Y-29758D01*
X60867Y-30050D01*
X60920Y-30383D01*
Y-30717D01*
X60867Y-31050D01*
X60760Y-31342D01*
X60600Y-31592D01*
X60413Y-31758D01*
X60200Y-31800D01*
G01X61733Y-29300D02*
X62400Y-31800D01*
X63067Y-29300D01*
G01X65133Y-31800D02*
X64067D01*
Y-29300D01*
X65133D01*
G01X64707Y-30508D02*
X64067D01*
G01X66267Y-31800D02*
Y-29300D01*
X66933D01*
X67147Y-29425D01*
X67280Y-29592D01*
X67333Y-29925D01*
X67280Y-30258D01*
X67120Y-30467D01*
X66933Y-30592D01*
X66267D01*
G01X66933D02*
X67333Y-31800D01*
G01X69213Y-30467D02*
X69320Y-30342D01*
X69400Y-30133D01*
X69453Y-29842D01*
X69400Y-29592D01*
X69293Y-29425D01*
X69107Y-29300D01*
X68387D01*
Y-31800D01*
X69267D01*
X69453Y-31633D01*
X69560Y-31383D01*
X69613Y-31092D01*
X69560Y-30800D01*
X69400Y-30550D01*
X69213Y-30467D01*
X68387D01*
G01X70613Y-29300D02*
Y-31092D01*
X70720Y-31467D01*
X70933Y-31717D01*
X71200Y-31800D01*
X71467Y-31717D01*
X71680Y-31467D01*
X71787Y-31092D01*
Y-29300D01*
G01X73080D02*
X73720D01*
G01X73400D02*
Y-31800D01*
G01X73080D02*
X73720D01*
G01X75067Y-29300D02*
Y-31800D01*
X76133D01*
G01X77800Y-29300D02*
Y-31800D01*
G01X77187Y-29300D02*
X78413D01*
G01X60680Y-34900D02*
Y-33233D01*
G01Y-33525D02*
X60573Y-33358D01*
X60413Y-33275D01*
X60227Y-33233D01*
X60040Y-33317D01*
X59880Y-33483D01*
X59773Y-33733D01*
X59720Y-34067D01*
X59773Y-34400D01*
X59880Y-34650D01*
X60040Y-34817D01*
X60227Y-34900D01*
X60413Y-34858D01*
X60573Y-34733D01*
X60680Y-34567D01*
G01X61947Y-34900D02*
Y-33233D01*
G01Y-33650D02*
X62053Y-33442D01*
X62213Y-33275D01*
X62427Y-33233D01*
X62613Y-33275D01*
X62773Y-33442D01*
X62853Y-33733D01*
Y-34900D01*
G01X65080Y-32400D02*
Y-34900D01*
G01Y-34525D02*
X64973Y-34733D01*
X64813Y-34858D01*
X64627Y-34900D01*
X64413Y-34817D01*
X64253Y-34608D01*
X64147Y-34358D01*
X64120Y-34067D01*
X64147Y-33775D01*
X64253Y-33525D01*
X64413Y-33317D01*
X64627Y-33233D01*
X64813Y-33275D01*
X64947Y-33358D01*
X65080Y-33525D01*
G01X59613Y-35500D02*
Y-37292D01*
X59720Y-37667D01*
X59933Y-37917D01*
X60200Y-38000D01*
X60467Y-37917D01*
X60680Y-37667D01*
X60787Y-37292D01*
Y-35500D01*
G01X61787Y-38000D02*
Y-35500D01*
X63013Y-38000D01*
Y-35500D01*
G01X64013Y-38000D02*
Y-35500D01*
X64547D01*
X64760Y-35625D01*
X64920Y-35792D01*
X65053Y-36042D01*
X65160Y-36333D01*
X65187Y-36750D01*
X65160Y-37167D01*
X65053Y-37458D01*
X64920Y-37708D01*
X64760Y-37875D01*
X64547Y-38000D01*
X64013D01*
G01X67333D02*
X66267D01*
Y-35500D01*
X67333D01*
G01X66907Y-36708D02*
X66267D01*
G01X68467Y-38000D02*
Y-35500D01*
X69133D01*
X69347Y-35625D01*
X69480Y-35792D01*
X69533Y-36125D01*
X69480Y-36458D01*
X69320Y-36667D01*
X69133Y-36792D01*
X68467D01*
G01X69133D02*
X69533Y-38000D01*
G01X70667D02*
Y-35500D01*
X71307D01*
X71520Y-35625D01*
X71680Y-35917D01*
X71733Y-36250D01*
X71680Y-36583D01*
X71547Y-36833D01*
X71307Y-36958D01*
X70667D01*
G01X72733Y-38000D02*
X73400Y-35500D01*
X74067Y-38000D01*
G01X73827Y-37125D02*
X72973D01*
G01X75280Y-35500D02*
X75920D01*
G01X75600D02*
Y-38000D01*
G01X75280D02*
X75920D01*
G01X77213D02*
Y-35500D01*
X77747D01*
X77960Y-35625D01*
X78120Y-35792D01*
X78253Y-36042D01*
X78360Y-36333D01*
X78387Y-36750D01*
X78360Y-37167D01*
X78253Y-37458D01*
X78120Y-37708D01*
X77960Y-37875D01*
X77747Y-38000D01*
X77213D01*
M02*
