G04 ================== begin FILE IDENTIFICATION RECORD ==================*
G04 Layout Name:  C:/Users/Dart/Desktop/FMCW/FMCW/PCB/Transmitter/PLL_VCO_FINAL.brd*
G04 Film Name:    TOP*
G04 File Format:  Gerber RS274X*
G04 File Origin:  Cadence Allegro 16.6-S042*
G04 Origin Date:  Fri Feb 26 14:31:31 2016*
G04 *
G04 Layer:  ETCH/TOP*
G04 Layer:  PIN/TOP*
G04 Layer:  VIA CLASS/TOP*
G04 *
G04 Offset:    (0.00 0.00)*
G04 Mirror:    No*
G04 Mode:      Positive*
G04 Rotation:  0*
G04 FullContactRelief:  No*
G04 UndefLineWidth:     0.00*
G04 ================== end FILE IDENTIFICATION RECORD ====================*
%FSLAX35Y35*MOIN*%
%IR0*IPPOS*OFA0.00000B0.00000*MIA0B0*SFA1.00000B1.00000*%
%ADD15C,.06*%
%ADD12C,.024*%
%ADD14R,.059X.156*%
%ADD10R,.156X.059*%
%ADD17R,.059X.167*%
%ADD11R,.167X.059*%
%ADD18C,.05709*%
%ADD27R,.00984X.02362*%
%ADD16R,.03937X.03937*%
%ADD23R,.00984X.02559*%
%ADD21R,.032X.012*%
%ADD20R,.012X.032*%
%ADD19R,.104X.104*%
%ADD26R,.02775X.01181*%
%ADD13R,.05512X.0748*%
%ADD25R,.01181X.02775*%
%ADD24R,.14764X.14764*%
%ADD22R,.01772X.08268*%
%ADD28C,.03242*%
%ADD29C,.03255*%
%ADD30C,.03257*%
%ADD31C,.008*%
%ADD33C,.07004*%
%ADD34C,.06712*%
%ADD32R,.06516X.08482*%
G75*
%LPD*%
G75*
G36*
G01X21982Y42256D02*
Y45818D01*
X25544D01*
Y49698D01*
X27392D01*
X28292Y48798D01*
X28892D01*
X28931Y48780D01*
G03X29900Y48570I967J2120D01*
G01X42080D01*
Y48430D01*
X47020D01*
Y53370D01*
X42080D01*
Y53230D01*
X29900D01*
G03X28931Y53020I-2J-2330D01*
G01X28892Y53002D01*
X28392D01*
X27392Y52002D01*
X25544D01*
Y53682D01*
X26640D01*
X31906Y58948D01*
X33130D01*
Y57580D01*
X38070D01*
Y58948D01*
X46530D01*
Y57580D01*
X51470D01*
Y58948D01*
X61730D01*
Y57580D01*
X66670D01*
Y58948D01*
X72253D01*
G03Y61152I1297J1102D01*
G01X66670D01*
Y62520D01*
X61730D01*
Y61152D01*
X51470D01*
Y62520D01*
X46530D01*
Y61152D01*
X38070D01*
Y62520D01*
X33130D01*
Y61152D01*
X30994D01*
X26227Y56385D01*
G02X25544Y56667I-283J282D01*
G01Y61782D01*
X21982D01*
Y65344D01*
X14118D01*
Y66460D01*
X15241Y67584D01*
X28059D01*
X28302Y67341D01*
X28299Y67254D01*
G03X29946Y68901I1701J-54D01*
G01X29859Y68898D01*
X29341Y69417D01*
G02X29623Y70100I282J283D01*
G01X96800D01*
X97100Y-75300D01*
X-60000Y-75400D01*
X-60352Y27024D01*
X-58819D01*
G03X-56838Y23479I7254J1728D01*
G01X-31905Y-1454D01*
G02X-31570Y-1938I-1167J-1165D01*
G01Y-7120D01*
X-26630D01*
Y-2180D01*
X-26790D01*
X-26808Y-2000D01*
G03X-28621Y1830I-6263J-621D01*
G01X-53567Y26777D01*
X-53465Y27024D01*
X-53442D01*
Y35506D01*
X-59958D01*
Y28624D01*
X-60357Y28623D01*
X-60500Y70100D01*
X13677D01*
G02X13959Y69417I0J-400D01*
G01X11914Y67372D01*
Y65344D01*
X6018D01*
Y61782D01*
X2456D01*
Y53692D01*
X6234D01*
Y61566D01*
X21766D01*
Y46034D01*
X6234D01*
Y51939D01*
X2456D01*
Y45818D01*
X6018D01*
Y42256D01*
X10910D01*
G02X11216Y41598I0J-400D01*
G03X10670Y40100I1784J-1499D01*
G01Y37320D01*
X10530D01*
Y32380D01*
X15470D01*
Y37320D01*
X15330D01*
Y40100D01*
G03X14784Y41598I-2330J-1D01*
G02X15090Y42256I306J258D01*
G01X21982D01*
G37*
G36*
G01X12400Y44400D02*
Y41800D01*
X13600D01*
Y44400D01*
X12400D01*
G37*
G36*
G01X11400Y40000D02*
Y40900D01*
X12400Y41900D01*
X13600D01*
X14600Y40900D01*
Y40000D01*
X11400D01*
G37*
G36*
G01X23400Y51500D02*
Y50200D01*
X28000D01*
Y51500D01*
X23400D01*
G37*
G36*
G01X27600D02*
Y50200D01*
X28500Y49300D01*
X29900D01*
Y52500D01*
X28600D01*
X27600Y51500D01*
G37*
%LPC*%
G75*
G36*
G01X1598Y-68330D02*
Y-67288D01*
X1798Y-67088D01*
Y-55220D01*
X430D01*
Y-50280D01*
X5370D01*
Y-55220D01*
X4002D01*
Y-68000D01*
X3802Y-68200D01*
Y-68234D01*
X3954Y-68387D01*
X3990Y-68402D01*
G02X1598Y-68330I-1290J-3098D01*
G37*
G36*
G01X78598Y53230D02*
Y54352D01*
X96302D01*
Y47448D01*
X78598D01*
Y48570D01*
X53320D01*
Y48430D01*
X48380D01*
Y53370D01*
X53320D01*
Y53230D01*
X78598D01*
G37*
G36*
G01X-4700Y42419D02*
X-4704Y42496D01*
X-7138Y44930D01*
X-10520D01*
Y49870D01*
X-5580D01*
Y46488D01*
X-3275Y44182D01*
X-3180Y44192D01*
G02X-4700Y42419I180J-1692D01*
G37*
G36*
G01X35Y23041D02*
X98Y23100D01*
Y23444D01*
X-2Y23544D01*
Y26180D01*
X-1370D01*
Y31120D01*
X3570D01*
Y26180D01*
X2202D01*
Y24456D01*
X2302Y24356D01*
Y23097D01*
G02X35Y23041I-1102J-1297D01*
G37*
G36*
G01X10640Y22359D02*
Y26080D01*
X10530D01*
Y31020D01*
X15470D01*
Y26080D01*
X15330D01*
Y24716D01*
X15298Y24685D01*
Y22359D01*
G02X10640I-2329J0D01*
G37*
G36*
G01X-16820Y31524D02*
Y31870D01*
X-15452D01*
Y36530D01*
X-16820D01*
Y41470D01*
X-15452D01*
Y44930D01*
X-16820D01*
Y49870D01*
X-11880D01*
Y44930D01*
X-13248D01*
Y41470D01*
X-11880D01*
Y36530D01*
X-13248D01*
Y31870D01*
X-11880D01*
Y26930D01*
X-13248D01*
Y22270D01*
X-11880D01*
Y17330D01*
X-16820D01*
Y22270D01*
X-15452D01*
Y26930D01*
X-16820D01*
Y28298D01*
X-17675D01*
X-19540Y30164D01*
X-23442D01*
Y27024D01*
X-29958D01*
Y35506D01*
X-23442D01*
Y32366D01*
X-18628D01*
X-17503Y31242D01*
G03X-16820Y31524I283J282D01*
G37*
G36*
G01X15298Y17241D02*
Y16026D01*
X15330Y15995D01*
Y13520D01*
X15470D01*
Y8580D01*
X10530D01*
Y13520D01*
X10670D01*
Y14065D01*
X10640Y14096D01*
Y17241D01*
G02X15298I2329J0D01*
G37*
G36*
G01X-1363Y17502D02*
X3803D01*
G02Y15298I1297J-1102D01*
G01X-444D01*
X-1998Y13744D01*
Y13020D01*
X-630D01*
Y8080D01*
X-5570D01*
Y13020D01*
X-4202D01*
Y33044D01*
X-4902Y33744D01*
Y34294D01*
X-7138Y36530D01*
X-10520D01*
Y41470D01*
X-5580D01*
Y38088D01*
X-2698Y35206D01*
Y34656D01*
X-1998Y33956D01*
Y17825D01*
G03X-1363Y17502I400J0D01*
G37*
G36*
G01X64602Y3703D02*
Y2020D01*
X65970D01*
Y-2920D01*
X61030D01*
Y2020D01*
X62398D01*
Y3703D01*
G02X64602I1102J1297D01*
G37*
G36*
G01X-14570Y-7120D02*
Y-6972D01*
X-17730D01*
Y-7120D01*
X-22670D01*
Y-2180D01*
X-17730D01*
Y-2328D01*
X-14570D01*
Y-2180D01*
X-9630D01*
Y-2328D01*
X-5370D01*
Y-2180D01*
X-430D01*
Y-7120D01*
X-5370D01*
Y-6972D01*
X-9630D01*
Y-7120D01*
X-14570D01*
G37*
G36*
G01X55102Y-9220D02*
Y-12080D01*
X56470D01*
Y-17020D01*
X51530D01*
Y-12080D01*
X52898D01*
Y-9220D01*
X51530D01*
Y-4280D01*
X56470D01*
Y-9220D01*
X55102D01*
G37*
G36*
G01X78738Y-23488D02*
Y-21863D01*
X78698Y-21823D01*
Y-20805D01*
G02X80942Y-20946I1202J1205D01*
G01Y-23488D01*
G02X80850Y-23927I-1102J2D01*
G01X80834Y-23965D01*
Y-25170D01*
X78846D01*
Y-23965D01*
X78830Y-23927D01*
G02X78738Y-23488I1010J441D01*
G37*
G36*
G01X71258D02*
Y-21863D01*
X71248Y-21853D01*
Y-15470D01*
X69880D01*
Y-10530D01*
X74820D01*
Y-15470D01*
X73452D01*
Y-20941D01*
X73462Y-20951D01*
Y-23488D01*
G02X73370Y-23927I-1102J2D01*
G01X73354Y-23965D01*
Y-25170D01*
X71366D01*
Y-23965D01*
X71350Y-23927D01*
G02X71258Y-23488I1010J441D01*
G37*
G36*
G01X93430Y-23149D02*
X93446Y-23111D01*
Y-21906D01*
X93636D01*
Y-20495D01*
G02X95838I1101J1297D01*
G01Y-23747D01*
X95434Y-24152D01*
Y-25270D01*
X93446D01*
Y-24065D01*
X93430Y-24027D01*
G02Y-23149I1010J439D01*
G37*
G36*
G01X89598Y-23588D02*
Y-18063D01*
X91408Y-16253D01*
G03X91126Y-15570I-282J283D01*
G01X90780D01*
Y-10630D01*
X92148D01*
Y-9421D01*
G03X91454Y-9151I-400J-1D01*
G02X89035Y-6759I-1253J1152D01*
G01X89098Y-6700D01*
Y-6506D01*
X87862Y-5270D01*
X84480D01*
Y-330D01*
X89420D01*
Y-3712D01*
X90097Y-4389D01*
G03X90780Y-4107I283J282D01*
G01Y-330D01*
X92148D01*
Y6030D01*
X90780D01*
Y10970D01*
X92148D01*
Y19230D01*
X90780D01*
Y24170D01*
X95720D01*
Y19230D01*
X94352D01*
Y10970D01*
X95720D01*
Y6030D01*
X94352D01*
Y-330D01*
X95720D01*
Y-5270D01*
X94352D01*
Y-10630D01*
X95720D01*
Y-15570D01*
X94352D01*
Y-16425D01*
X91802Y-18975D01*
Y-23588D01*
G02X91710Y-24027I-1102J2D01*
G01X91694Y-24065D01*
Y-25270D01*
X89706D01*
Y-24065D01*
X89690Y-24027D01*
G02X89598Y-23588I1010J441D01*
G37*
G36*
G01X85858D02*
Y-21963D01*
X85848Y-21953D01*
Y-15570D01*
X84480D01*
Y-10630D01*
X89420D01*
Y-15570D01*
X88052D01*
Y-21041D01*
X88062Y-21051D01*
Y-23588D01*
G02X87970Y-24027I-1102J2D01*
G01X87954Y-24065D01*
Y-25270D01*
X85966D01*
Y-24065D01*
X85950Y-24027D01*
G02X85858Y-23588I1010J441D01*
G37*
G36*
G01X82272Y-65971D02*
X82598Y-65644D01*
Y-55420D01*
X81230D01*
Y-50480D01*
X85858D01*
Y-49120D01*
X81230D01*
Y-47752D01*
X74870D01*
Y-49120D01*
X69930D01*
Y-44180D01*
X71298D01*
Y-37089D01*
X71258Y-37049D01*
Y-34512D01*
G02X71350Y-34073I1102J-2D01*
G01X71366Y-34035D01*
Y-32830D01*
X73354D01*
Y-33410D01*
X75106D01*
Y-32830D01*
X77094D01*
Y-34035D01*
X77110Y-34073D01*
G02Y-34951I-1010J-439D01*
G01X77094Y-34989D01*
Y-36194D01*
X75106D01*
Y-35614D01*
X73462D01*
Y-36137D01*
X73502Y-36177D01*
Y-44180D01*
X74870D01*
Y-45548D01*
X81230D01*
Y-44180D01*
X85858D01*
Y-34612D01*
G02X85950Y-34173I1102J-2D01*
G01X85966Y-34135D01*
Y-32930D01*
X87954D01*
Y-33510D01*
X89706D01*
Y-32930D01*
X91694D01*
Y-34135D01*
X91710Y-34173D01*
G02Y-35051I-1010J-439D01*
G01X91694Y-35089D01*
Y-36294D01*
X89706D01*
Y-35714D01*
X88062D01*
Y-51848D01*
X90430D01*
Y-50480D01*
X95370D01*
Y-55420D01*
X90430D01*
Y-54052D01*
X86170D01*
Y-55420D01*
X84802D01*
Y-66556D01*
X83829Y-67528D01*
G02X82272Y-65971I-3129J-1572D01*
G37*
G36*
G01X49623Y-70160D02*
X49677Y-70035D01*
X46298Y-66656D01*
Y-56220D01*
X44930D01*
Y-51280D01*
X49870D01*
Y-56220D01*
X48502D01*
Y-65744D01*
X51237Y-68480D01*
G02X49623Y-70160I1463J-3020D01*
G37*
G36*
G01X21598Y-68330D02*
Y-63644D01*
X24298Y-60944D01*
Y-56475D01*
X24098Y-56275D01*
Y-55420D01*
X22730D01*
Y-50480D01*
X27670D01*
Y-55420D01*
X26502D01*
Y-61856D01*
X23802Y-64556D01*
Y-68330D01*
G02X21598I-1102J-3170D01*
G37*
G36*
G01X14229Y-68512D02*
G02X11598Y-68330I-1528J-2988D01*
G01Y-67288D01*
X13298Y-65588D01*
Y-55220D01*
X11930D01*
Y-50280D01*
X16870D01*
Y-55220D01*
X15502D01*
Y-66500D01*
X14128Y-67874D01*
G03X14229Y-68512I283J-282D01*
G37*
G36*
G01X44924Y17602D02*
X49456D01*
X51647Y15410D01*
G03X52317Y15796I283J283D01*
G02X52511Y18148I3383J905D01*
G01X52568Y18274D01*
X47244Y23598D01*
X27644D01*
X22441Y28802D01*
X22354Y28799D01*
G02X24001Y30446I-54J1701D01*
G01X23998Y30359D01*
X28556Y25802D01*
X48156D01*
X54126Y19832D01*
X54252Y19889D01*
G02X59024Y17802I1448J-3189D01*
G01X73844D01*
X78744Y22702D01*
X83525D01*
X83625Y22802D01*
X84480D01*
Y24170D01*
X89420D01*
Y19230D01*
X84480D01*
Y20498D01*
X79656D01*
X74756Y15598D01*
X59024D01*
G02X54796Y13317I-3324J1102D01*
G03X54410Y12647I-103J-387D01*
G01X59802Y7256D01*
Y-4544D01*
X60347Y-5089D01*
G03X61030Y-4807I283J282D01*
G01Y-4280D01*
X65970D01*
Y-9220D01*
X64602D01*
Y-11980D01*
X65970D01*
Y-16920D01*
X61030D01*
Y-11980D01*
X62398D01*
Y-9220D01*
X61030D01*
Y-8002D01*
X60144D01*
X57598Y-5456D01*
Y6344D01*
X48544Y15398D01*
X44924D01*
G02Y17602I-3324J1102D01*
G37*
G36*
G01X-17398Y-56898D02*
X-15048D01*
Y-74602D01*
X-21952D01*
Y-56898D01*
X-19602D01*
Y-45043D01*
G02X-18351Y-42025I4267J-1D01*
G01X-16412Y-40086D01*
G02X-11952Y-35111I3012J1786D01*
G01X-11826Y-35168D01*
X-8742Y-32085D01*
G03X-9020Y-31402I-283J283D01*
G02X-10102Y-28403I20J1702D01*
G01Y-27144D01*
X-7506Y-24548D01*
X-5370D01*
Y-23932D01*
G03X-5947Y-23574I-400J0D01*
G02X-8207Y-24102I-2260J4574D01*
G01X-13876D01*
G02X-16098Y-26324I-3324J1102D01*
G01Y-26943D01*
G02X-17593Y-30551I-5101J0D01*
G01X-28249Y-41207D01*
G03X-29098Y-43257I2050J-2050D01*
G01Y-50243D01*
G02X-30593Y-53851I-5101J0D01*
G01X-37049Y-60307D01*
G02X-40657Y-61802I-3608J3606D01*
G01X-41698D01*
Y-64152D01*
X-59402D01*
Y-57248D01*
X-41698D01*
Y-59598D01*
X-40657D01*
G03X-38607Y-58749I0J2899D01*
G01X-32151Y-52293D01*
G03X-31302Y-50243I-2050J2050D01*
G01Y-43257D01*
G02X-29807Y-39649I5101J0D01*
G01X-19151Y-28993D01*
G03X-18302Y-26943I-2050J2050D01*
G01Y-26324D01*
G02X-13876Y-21898I1102J3324D01*
G01X-8207D01*
G03X-6157Y-21049I0J2899D01*
G01X-5370Y-20262D01*
Y-17195D01*
G03X-5974Y-16851I-400J0D01*
G02X-11327Y-18322I-5354J9006D01*
G01X-20296D01*
G03X-25489Y-20473I0J-7344D01*
G01X-27703Y-22688D01*
X-27700Y-22775D01*
G02X-31075Y-19400I-3500J-125D01*
G01X-30988Y-19403D01*
X-28773Y-17189D01*
G02X-22124Y-13818I8477J-8478D01*
G01X-21954Y-13791D01*
Y-13420D01*
X-22670D01*
Y-13272D01*
X-26630D01*
Y-13420D01*
X-31570D01*
Y-13272D01*
X-32931D01*
X-32981Y-13222D01*
X-41798D01*
Y-14352D01*
X-59502D01*
Y-7448D01*
X-41798D01*
Y-8578D01*
X-31570D01*
Y-8480D01*
X-26630D01*
Y-8628D01*
X-22670D01*
Y-8480D01*
X-17730D01*
Y-13678D01*
X-11328D01*
G03X-7203Y-11969I0J5833D01*
G01X-5370Y-10135D01*
Y-8480D01*
X-430D01*
Y-8628D01*
X2252D01*
G02X3297Y-8877I-1J-2322D01*
G01X3340Y-8898D01*
X3508D01*
X4408Y-9798D01*
X6248D01*
Y-5878D01*
X7248D01*
Y-5023D01*
X9271Y-3000D01*
X3123Y3148D01*
X-630D01*
Y1780D01*
X-5570D01*
Y3148D01*
X-9830D01*
Y1780D01*
X-14770D01*
Y3148D01*
X-17630D01*
Y1780D01*
X-22570D01*
Y6720D01*
X-17630D01*
Y5352D01*
X-14770D01*
Y6720D01*
X-9830D01*
Y5352D01*
X-5570D01*
Y6720D01*
X-630D01*
Y5352D01*
X4035D01*
X11535Y-2148D01*
X11898D01*
Y-1553D01*
G02X10670Y500I1102J2053D01*
G01Y2280D01*
X10530D01*
Y7220D01*
X15470D01*
Y2280D01*
X15330D01*
Y1087D01*
G03X16012Y804I400J0D01*
G01X19925Y4716D01*
X20059D01*
X20302Y4959D01*
X20299Y5046D01*
G02X21946Y3399I1701J54D01*
G01X21859Y3402D01*
X20971Y2514D01*
X20837D01*
X16118Y-2206D01*
Y-6352D01*
X10452D01*
Y-12018D01*
X6248D01*
Y-12002D01*
X4808D01*
X3708Y-13102D01*
X3125D01*
X3091Y-13115D01*
G02X2253Y-13272I-839J2165D01*
G01X-430D01*
Y-13420D01*
X-2085D01*
X-3919Y-15253D01*
G02X-4956Y-16163I-7414J7403D01*
G03X-4713Y-16880I243J-317D01*
G01X-2319D01*
G02X605Y-15798I2925J-3412D01*
G01X5315D01*
X5394Y-15720D01*
X10452D01*
Y-17448D01*
X21548D01*
Y-5878D01*
X22548D01*
Y-5023D01*
X31973Y4402D01*
X50706D01*
X52216Y2892D01*
G03X52898Y3175I282J283D01*
G01Y3703D01*
G02X55102I1102J1297D01*
G01Y2020D01*
X56470D01*
Y-2920D01*
X51530D01*
Y462D01*
X49794Y2198D01*
X32885D01*
X25492Y-5195D01*
G03X25775Y-5878I283J-283D01*
G01X31546D01*
X31575Y-5848D01*
X32430D01*
Y-4480D01*
X37370D01*
Y-9420D01*
X33861D01*
G03X33719Y-9761I0J-200D01*
G01X33906Y-9948D01*
X39144D01*
X41230Y-7862D01*
Y-4480D01*
X46170D01*
Y-9420D01*
X42788D01*
X40056Y-12152D01*
X37370D01*
Y-13448D01*
X41330D01*
Y-12080D01*
X46270D01*
Y-13448D01*
X46794D01*
X47698Y-12544D01*
Y-12200D01*
X47635Y-12141D01*
G02X49902Y-12197I1165J1241D01*
G01Y-13456D01*
X47706Y-15652D01*
X46270D01*
Y-17020D01*
X41330D01*
Y-15652D01*
X37370D01*
Y-17020D01*
X32430D01*
Y-13638D01*
X30810Y-12018D01*
X25752D01*
Y-17922D01*
X24752D01*
Y-18448D01*
X26906D01*
X39756Y-31298D01*
X52780D01*
Y-29930D01*
X56162D01*
X59594Y-26498D01*
X65544D01*
X67098Y-24944D01*
Y1456D01*
X70344Y4702D01*
X77548D01*
Y6030D01*
X76180D01*
Y10970D01*
X81120D01*
Y6030D01*
X79752D01*
Y-230D01*
X81120D01*
Y-5170D01*
X79752D01*
Y-10530D01*
X81120D01*
Y-15470D01*
X79752D01*
Y-16325D01*
X77202Y-18875D01*
Y-24177D01*
G02X77110Y-24616I-1102J2D01*
G01X77094Y-24654D01*
Y-25170D01*
X76577D01*
X76539Y-25187D01*
G02X75661I-439J1010D01*
G01X75623Y-25170D01*
X75106D01*
Y-24654D01*
X75090Y-24616D01*
G02X74998Y-24177I1010J441D01*
G01Y-17963D01*
X76808Y-16153D01*
G03X76526Y-15470I-282J283D01*
G01X76180D01*
Y-10530D01*
X77548D01*
Y-5170D01*
X76502D01*
Y-6603D01*
G02X74235Y-6659I-1102J-1297D01*
G01X74298Y-6600D01*
Y-6206D01*
X73262Y-5170D01*
X69880D01*
Y-230D01*
X74820D01*
Y-3612D01*
X75497Y-4289D01*
G03X76180Y-4007I283J282D01*
G01Y-230D01*
X77548D01*
Y2498D01*
X71256D01*
X69302Y544D01*
Y-25856D01*
X66456Y-28702D01*
X60506D01*
X57720Y-31488D01*
Y-34870D01*
X56352D01*
Y-43630D01*
X57720D01*
Y-48570D01*
X52780D01*
Y-43630D01*
X54148D01*
Y-34870D01*
X52780D01*
Y-33502D01*
X38844D01*
X31716Y-26374D01*
X30288Y-27802D01*
X30200D01*
X30141Y-27865D01*
G02X29626Y-25161I-1241J1165D01*
G01X29753Y-25221D01*
X30158Y-24816D01*
X25994Y-20652D01*
X22023D01*
Y-21652D01*
X21078D01*
G03X20796Y-22335I0J-400D01*
G01X32202Y-33741D01*
Y-49094D01*
X32289Y-49181D01*
G03X32630Y-49040I141J142D01*
G01Y-44780D01*
X37570D01*
Y-46148D01*
X44930D01*
Y-44980D01*
X49870D01*
Y-49920D01*
X44930D01*
Y-48552D01*
X44075D01*
X43875Y-48352D01*
X37570D01*
Y-49720D01*
X33793D01*
G03X33511Y-50403I0J-400D01*
G01X34188Y-51080D01*
X37570D01*
Y-56020D01*
X36202D01*
Y-63444D01*
X41235Y-68477D01*
X41360Y-68423D01*
G02X39623Y-70160I1340J-3077D01*
G01X39677Y-70035D01*
X33998Y-64356D01*
Y-56020D01*
X32630D01*
Y-52638D01*
X29998Y-50006D01*
Y-34653D01*
X18427Y-23082D01*
G03X18086Y-23223I-141J-141D01*
G01Y-23428D01*
X26302Y-31644D01*
Y-32676D01*
G02Y-39324I-1102J-3324D01*
G01Y-44180D01*
X27670D01*
Y-49120D01*
X22730D01*
Y-44180D01*
X24098D01*
Y-39324D01*
G02X23653Y-32858I1102J3324D01*
G03X23759Y-32217I-177J359D01*
G01X16800Y-25258D01*
G03X16118Y-25541I-282J-283D01*
G01Y-31940D01*
X15841Y-32217D01*
G03X15947Y-32858I283J-282D01*
G02X15502Y-39324I-1547J-3142D01*
G01Y-43980D01*
X16870D01*
Y-48920D01*
X11930D01*
Y-43980D01*
X13298D01*
Y-39324D01*
G02Y-32676I1102J3324D01*
G01Y-31644D01*
X13914Y-31028D01*
Y-27209D01*
G03X13232Y-26926I-400J0D01*
G01X6032Y-34126D01*
X6089Y-34252D01*
G02X4002Y-39024I-3189J-1448D01*
G01Y-43980D01*
X5370D01*
Y-48920D01*
X430D01*
Y-43980D01*
X1798D01*
Y-39024D01*
G02X-574Y-36143I1102J3324D01*
G03X-1253Y-35911I-397J-51D01*
G01X-3598Y-38256D01*
Y-44103D01*
G02X-5802I-1102J-1297D01*
G01Y-37344D01*
X-2202Y-33744D01*
Y-33586D01*
X786Y-30598D01*
X944D01*
X4702Y-26841D01*
X4699Y-26754D01*
G02X6346Y-28401I1701J54D01*
G01X6259Y-28398D01*
X3111Y-31547D01*
G03X3343Y-32226I283J-282D01*
G02X4348Y-32511I-442J-3474D01*
G01X4474Y-32568D01*
X11946Y-25097D01*
Y-21652D01*
X9977D01*
Y-20652D01*
X9776D01*
G03X8626Y-21132I9J-1638D01*
G01X-610Y-30368D01*
G02X-4070Y-31802I-3461J3459D01*
G01X-4230D01*
G03X-6132Y-32590I0J-2690D01*
G01X-10268Y-36726D01*
X-10211Y-36852D01*
G02X-14625Y-41581I-3189J-1448D01*
G01X-14746Y-41536D01*
X-16793Y-43583D01*
G03X-17398Y-45043I1459J-1460D01*
G01Y-56898D01*
G37*
G54D33*
X-13400Y-48300D03*
X27800Y16400D03*
G54D34*
X32700Y-71500D03*
G54D32*
X-26700Y64335D03*
%LPD*%
G75*
G36*
G01X-7308Y-29884D02*
G03X-7835Y-28459I-1692J184D01*
G01X-7899Y-28400D01*
Y-28056D01*
X-6594Y-26752D01*
X-5370D01*
Y-28120D01*
X-2443D01*
G02X-2161Y-28803I0J-400D01*
G01X-2168Y-28810D01*
G02X-4070Y-29598I-1902J1902D01*
G01X-4230D01*
G03X-6708Y-30273I2J-4893D01*
G02X-7308Y-29884I-202J345D01*
G37*
G36*
G01X9777Y-18449D02*
G03X7068Y-19574I7J-3842D01*
G01X253Y-26389D01*
G02X-430Y-26107I-283J282D01*
G01Y-23180D01*
X-4705D01*
G02X-4837Y-22830I0J200D01*
G03X-4599Y-22607I-3368J3833D01*
G01X-3812Y-21820D01*
X-430D01*
Y-18249D01*
G02X605Y-18002I1035J-2043D01*
G01X6227D01*
X6306Y-17922D01*
X9977D01*
Y-18249D01*
G02X9777Y-18449I-200J0D01*
G37*
G36*
G01X12400Y-4400D02*
Y-1200D01*
X13700D01*
Y-4400D01*
X12400D01*
G37*
G36*
G01X11400Y600D02*
Y-300D01*
X12400Y-1300D01*
X13700D01*
X14600Y-400D01*
Y600D01*
X11400D01*
G37*
G36*
G01X8700Y-10300D02*
Y-11500D01*
X4000D01*
Y-10300D01*
X8700D01*
G37*
G36*
G01X2200Y-9400D02*
X3300D01*
X4200Y-10300D01*
Y-11900D01*
X3500Y-12600D01*
X2200D01*
Y-9400D01*
G37*
G54D10*
X-51100Y-71600D03*
Y-49800D03*
X-51200Y-21800D03*
Y0D03*
X88000Y40000D03*
Y61800D03*
G54D20*
X13047Y-19550D03*
X11079D03*
Y-4250D03*
X13047D03*
X20921Y-19550D03*
X18953D03*
X16984D03*
X15016D03*
Y-4250D03*
X16984D03*
X18953D03*
X20921D03*
G54D11*
X-50550Y-60700D03*
X-50650Y-10900D03*
X87450Y50900D03*
G54D30*
G01X44550D02*
X29900D01*
G01X50850D02*
X87450D01*
G54D21*
X8350Y-16821D03*
Y-14853D03*
Y-12884D03*
Y-10916D03*
Y-8947D03*
Y-6979D03*
X23650Y-12884D03*
Y-14853D03*
Y-16821D03*
Y-6979D03*
Y-8947D03*
Y-10916D03*
G54D12*
X-57000Y-42500D03*
X-56800Y-35600D03*
X-57300Y-29100D03*
X-57100Y7200D03*
Y14300D03*
Y20900D03*
X-45400Y-42700D03*
X-45500Y-29200D03*
X-45700Y-35500D03*
X-49600Y7500D03*
X-46700Y23300D03*
X-38800Y23600D03*
X-39000Y16900D03*
X-36700Y-42000D03*
X-36300Y-50200D03*
X-29100Y-34900D03*
X-36500Y-35200D03*
X-30500Y9000D03*
X-31100Y23400D03*
X-30700Y17000D03*
X-22600Y23300D03*
X-22800Y16500D03*
X-19400Y54100D03*
X-12000Y54000D03*
X-19400Y66300D03*
X-19700Y60500D03*
X-11900Y66300D03*
Y60400D03*
X-4700Y-45400D03*
X-9000Y-29700D03*
X1200Y21800D03*
X-3000Y42500D03*
X-4900Y54000D03*
X-4800Y66500D03*
Y60800D03*
X6400Y-26700D03*
X5100Y16400D03*
X22000Y5100D03*
X22300Y30500D03*
X37900Y-38500D03*
X28900Y-26700D03*
X40700Y37100D03*
X34000Y37400D03*
X34200Y29700D03*
X40500D03*
X34000Y44000D03*
X39900Y43700D03*
X30000Y67200D03*
X53900Y-57600D03*
X53600Y-63700D03*
X47200Y-38500D03*
X48800Y-10900D03*
X54000Y5000D03*
X46400Y36900D03*
X51800D03*
X52600Y29400D03*
X46500Y29900D03*
X46100Y43800D03*
X52200Y43700D03*
X59600Y-69800D03*
X65500Y-69700D03*
X60200Y-57600D03*
X67100Y-57500D03*
X65800Y-63900D03*
X60000Y-63700D03*
X63500Y5000D03*
X58800Y37200D03*
X64600Y37100D03*
X58300Y29400D03*
X64200D03*
X57900Y44100D03*
X63700Y44500D03*
X71900Y-69800D03*
Y-63900D03*
X79900Y-19600D03*
X75400Y-7900D03*
X77800Y27300D03*
X71700Y21700D03*
X69700Y36900D03*
X77900Y32500D03*
X69800Y43800D03*
X73550Y60050D03*
X94737Y-19198D03*
X90200Y-8000D03*
X85300Y27600D03*
X92700Y28000D03*
X85200Y32900D03*
X92800Y33300D03*
G54D31*
G01X-17200Y-23000D02*
Y-26943D01*
G02X-18372Y-29772I-4000J0D01*
G01X-29028Y-40428D01*
G03X-30200Y-43257I2828J-2829D01*
G01Y-50243D01*
G02X-31372Y-53072I-4000J0D01*
G01X-37828Y-59528D01*
G02X-40657Y-60700I-2829J2828D01*
G01X-50550D01*
G01X-26700Y31265D02*
X-19084D01*
X-17219Y29400D01*
X-14350D01*
G01X-18500Y-65750D02*
Y-45043D01*
G02X-17572Y-42804I3165J0D01*
G01X-13635Y-38867D01*
G03X-13400Y-38300I-567J567D01*
G01D02*
X-6911Y-31811D01*
G02X-4230Y-30700I2682J-2681D01*
G01X-4070D01*
G03X-1389Y-29589I-1J3792D01*
G01X7847Y-20353D01*
G02X9785Y-19550I1938J-1937D01*
G01X11079D01*
G01X-17200Y-23000D02*
X-8207D01*
G03X-5378Y-21828I0J4000D01*
G01X-2900Y-19350D01*
G01X-20100Y4250D02*
X-12300D01*
G01X-14350Y19800D02*
Y29400D01*
G01Y39000D02*
Y47400D01*
G01Y29400D02*
Y39000D01*
G01X6400Y-26700D02*
X1400Y-31700D01*
X1242D01*
X-1100Y-34042D01*
Y-34200D01*
X-4700Y-37800D01*
Y-45400D01*
G01X-2900Y-25650D02*
X-7050D01*
X-9000Y-27600D01*
Y-29700D01*
G01X-2900Y-19350D02*
Y-19000D01*
X-1794Y-17894D01*
G02X605Y-16900I2399J-2398D01*
G01X5771D01*
X5850Y-16821D01*
X8350D01*
G01X-3100Y4250D02*
X3579D01*
X11079Y-3250D01*
Y-4250D01*
G01X-12300Y4250D02*
X-3100D01*
G01Y10550D02*
Y14200D01*
G01X5100Y16400D02*
X-900D01*
X-3100Y14200D01*
G01D02*
Y33500D01*
X-3800Y34200D01*
Y34750D01*
X-8050Y39000D01*
G01Y47400D02*
X-3150Y42500D01*
X-3000D01*
G01X2900Y-52750D02*
Y-67544D01*
X2700Y-67744D01*
Y-71500D01*
G01X14400Y-52750D02*
Y-66044D01*
X12700Y-67744D01*
Y-71500D01*
G01X2900Y-46450D02*
Y-35700D01*
G01D02*
X13047Y-25553D01*
Y-19550D01*
G01X8284Y-12884D02*
X8200Y-12800D01*
G01X13047Y-14853D02*
X15016Y-12884D01*
G01X8350Y-14853D02*
X13047D01*
G01X11079Y-4250D02*
X9579D01*
X8350Y-5479D01*
Y-6979D01*
G01D02*
Y-8947D01*
G01Y-12884D02*
X8284D01*
G01X8350D02*
X15016D01*
G01X1100Y28650D02*
Y24000D01*
X1200Y23900D01*
Y21800D01*
G01X4345Y52816D02*
X13816D01*
G01X30000Y67200D02*
X28515Y68685D01*
X14785D01*
X13016Y66916D01*
Y63455D01*
G01X25200Y-52950D02*
Y-55819D01*
X25400Y-56019D01*
Y-61400D01*
X22700Y-64100D01*
Y-71500D01*
G01X25200Y-46650D02*
Y-36000D01*
G01X14400Y-46450D02*
Y-36000D01*
G01X16984Y-19550D02*
Y-23884D01*
X25200Y-32100D01*
Y-36000D01*
G01X35100Y-53550D02*
X31100Y-49550D01*
Y-34197D01*
X18953Y-22050D01*
Y-19550D01*
G01X15016D02*
Y-31484D01*
X14400Y-32100D01*
Y-36000D01*
G01X22421Y-19550D02*
X20921D01*
G01X23650Y-16821D02*
Y-18321D01*
X22421Y-19550D01*
G01X31716Y-24816D02*
X26450Y-19550D01*
X22421D01*
G01X15016Y-12884D02*
X16000Y-11900D01*
G01X23650Y-10916D02*
X31266D01*
X34900Y-14550D01*
G01X54000Y-450D02*
X50250Y3300D01*
X32429D01*
X23650Y-5479D01*
Y-6979D01*
G01D02*
X32002D01*
X32031Y-6950D01*
X34900D01*
G01X22000Y5100D02*
X20515Y3615D01*
X20381D01*
X15016Y-1750D01*
Y-4250D01*
G01X43700Y-6950D02*
X39600Y-11050D01*
X33450D01*
X31347Y-8947D01*
X23650D01*
G01X16984Y-4250D02*
Y-10916D01*
G01X18953Y-4250D02*
Y-8947D01*
G01X16984Y-10916D02*
X16000Y-11900D01*
G01X18953Y-8947D02*
X16984Y-10916D01*
G01X20921Y-6979D02*
X18953Y-8947D01*
G01X20921Y-4250D02*
Y-6979D01*
G01X22300Y30500D02*
X28100Y24700D01*
X47700D01*
X55700Y16700D01*
G01X23655Y54784D02*
X26184D01*
X31450Y60050D01*
X35600D01*
G01X35100Y-53550D02*
Y-63900D01*
X42700Y-71500D01*
G01X35100Y-47250D02*
X44331D01*
X44531Y-47450D01*
X47400D01*
G01X55250Y-32400D02*
X39300D01*
X31716Y-24816D01*
G01D02*
X29832Y-26700D01*
X28900D01*
G01X34900Y-14550D02*
X43800D01*
G01X35600Y60050D02*
X49000D01*
G01X52700Y-71500D02*
X47400Y-66200D01*
Y-53750D01*
G01X48800Y-10900D02*
Y-13000D01*
X47250Y-14550D01*
X43800D01*
G01X41600Y16500D02*
X49000D01*
X58700Y6800D01*
Y-5000D01*
X60600Y-6900D01*
X63350D01*
X63500Y-6750D01*
G01X49000Y60050D02*
X64200D01*
G01X55250Y-32400D02*
Y-46100D01*
G01X78650Y3700D02*
X78550Y3600D01*
X70800D01*
X68200Y1000D01*
Y-25400D01*
X66000Y-27600D01*
X60050D01*
X55250Y-32400D01*
G01X54000Y-6750D02*
Y-14550D01*
G01X63500Y-6750D02*
Y-14450D01*
G01Y-450D02*
Y5000D01*
G01X54000Y-450D02*
Y5000D01*
G01X86950Y21700D02*
X84081D01*
X83981Y21600D01*
X79200D01*
X74300Y16700D01*
X55700D01*
G01X64200Y60050D02*
X73550D01*
G01X72400Y-46650D02*
Y-36633D01*
X72360Y-36593D01*
Y-34512D01*
G01X72400Y-46650D02*
X83700D01*
G01X72360Y-34512D02*
X76100D01*
G01X72350Y-13000D02*
Y-21397D01*
X72360Y-21407D01*
Y-23488D01*
G01X76100Y-24177D02*
Y-23488D01*
G01D02*
Y-18419D01*
X78650Y-15869D01*
Y-13000D01*
G01D02*
Y-2700D01*
G01X79900Y-19600D02*
X79800Y-19700D01*
Y-21367D01*
X79840Y-21407D01*
Y-23488D01*
G01X78650Y-2700D02*
Y3700D01*
G01X75400Y-7900D02*
Y-5750D01*
X72350Y-2700D01*
G01X78650Y3700D02*
Y8500D01*
G01X83700Y-52950D02*
Y-66100D01*
X80700Y-69100D01*
G01X87000Y-52950D02*
X92900D01*
G01X86960Y-34612D02*
Y-52910D01*
X87000Y-52950D01*
G01X83700D02*
X87000D01*
G01X86960Y-34612D02*
X90700D01*
G01X93250Y-2800D02*
Y-13100D01*
G01X90700Y-23588D02*
Y-18519D01*
X93250Y-15969D01*
Y-13100D01*
G01X86950D02*
Y-21497D01*
X86960Y-21507D01*
Y-23588D01*
G01X93250Y8500D02*
Y-2800D01*
G01X90200Y-8000D02*
Y-6050D01*
X86950Y-2800D01*
G01X93250Y21700D02*
Y8500D01*
G01X94737Y-19198D02*
Y-23291D01*
X94440Y-23588D01*
G54D22*
X9425Y19800D03*
G54D13*
X-56700Y31265D03*
Y64335D03*
X-26700Y31265D03*
Y64335D03*
G54D23*
X12969Y17241D03*
Y22359D03*
G54D14*
X-29400Y-66300D03*
X-7600D03*
G54D24*
X14000Y53800D03*
G54D15*
X-31200Y-22900D03*
X-13400Y-48300D03*
Y-38300D03*
X-17200Y-23000D03*
X2900Y-35700D03*
X14400Y-36000D03*
X25200D03*
X27800Y16400D03*
X41600Y16500D03*
X55700Y16700D03*
X80700Y-69100D03*
X90700D03*
G54D25*
X13016Y44145D03*
X11047D03*
X9079D03*
X7110D03*
Y63455D03*
X9079D03*
X11047D03*
X13016D03*
X20890Y44145D03*
X18921D03*
X16953D03*
X14984D03*
Y63455D03*
X16953D03*
X18921D03*
X20890D03*
G54D16*
X-29100Y-10950D03*
Y-4650D03*
X-20200D03*
Y-10950D03*
X-12100Y-4650D03*
Y-10950D03*
X-12300Y4250D03*
Y10550D03*
X-20100Y4250D03*
Y10550D03*
X-14350Y19800D03*
Y29400D03*
Y39000D03*
Y47400D03*
X-2900Y-25650D03*
Y-19350D03*
Y-10950D03*
Y-4650D03*
X-3100Y10550D03*
Y4250D03*
X-8050Y19800D03*
Y29400D03*
X1100Y34950D03*
Y28650D03*
X-8050Y39000D03*
Y47400D03*
X2900Y-52750D03*
X14400D03*
X2900Y-46450D03*
X14400D03*
X13000Y11050D03*
Y4750D03*
Y28550D03*
Y34850D03*
X25200Y-52950D03*
Y-46650D03*
X35100Y-53550D03*
Y-47250D03*
X34900Y-20850D03*
Y-14550D03*
Y-6950D03*
Y-650D03*
X35600Y66350D03*
Y60050D03*
X47400Y-53750D03*
X55250Y-46100D03*
X47400Y-47450D03*
X55250Y-32400D03*
X43800Y-20850D03*
Y-14550D03*
X54000D03*
Y-20850D03*
Y-450D03*
Y-6750D03*
X43700Y-650D03*
Y-6950D03*
X50850Y50900D03*
X44550D03*
X49000Y66350D03*
Y60050D03*
X61550Y-46100D03*
Y-32400D03*
X63500Y-14450D03*
Y-20750D03*
Y-6750D03*
Y-450D03*
X64200Y66350D03*
Y60050D03*
X72400Y-52950D03*
Y-46650D03*
X78650Y-13000D03*
X72350D03*
X78650Y-2700D03*
X72350D03*
X78650Y8500D03*
X72350D03*
X92900Y-52950D03*
X83700D03*
X92900Y-46650D03*
X83700D03*
X93250Y-13100D03*
X86950D03*
X93250Y-2800D03*
X86950D03*
X93250Y8500D03*
X86950D03*
Y21700D03*
X93250D03*
G54D26*
X4345Y46910D03*
Y48879D03*
Y50847D03*
Y52816D03*
Y54784D03*
Y56753D03*
Y58721D03*
Y60690D03*
X23655Y52816D03*
Y50847D03*
Y48879D03*
Y46910D03*
Y60690D03*
Y58721D03*
Y56753D03*
Y54784D03*
G54D17*
X-18500Y-65750D03*
G54D27*
X79840Y-34512D03*
X76100D03*
X72360D03*
X79840Y-23488D03*
X76100D03*
X72360D03*
X90700Y-34612D03*
X86960D03*
X90700Y-23588D03*
X86960D03*
X94440Y-34612D03*
Y-23588D03*
G54D18*
X2700Y-71500D03*
X12700D03*
X22700D03*
X42700D03*
X32700D03*
X52700D03*
G54D28*
G01X-29100Y-4650D02*
Y-2620D01*
G03X-30263Y188I-3971J0D01*
G01X-55196Y25121D01*
G02X-56700Y28752I3631J3631D01*
G01Y31265D01*
G01X-50650Y-10900D02*
X-32019D01*
X-31969Y-10950D01*
X-29100D01*
G01X-2900D02*
X-5561Y-13611D01*
G02X-11328Y-16000I-5767J5766D01*
G01X-20296D01*
G03X-27131Y-18831I0J-9667D01*
G01X-31200Y-22900D01*
G01X-29100Y-10950D02*
X-20200D01*
G01X-12100Y-4650D02*
X-2900D01*
G01X-20200D02*
X-12100D01*
G01X-2900Y-10950D02*
X2250D01*
G54D19*
X16000Y-11900D03*
G54D29*
G01X13000Y4750D02*
Y500D01*
G01Y11050D02*
Y15030D01*
X12969Y15061D01*
Y17241D01*
G01Y22359D02*
Y25650D01*
X13000Y25681D01*
Y28550D01*
G01Y34850D02*
Y40100D01*
M02*
